<svg width="709" height="592" viewBox="0 0 709 592" fill="none" xmlns="http://www.w3.org/2000/svg">
<path opacity="0.9" d="M16.6985 88.5612L23.5988 94.8342C23.2326 96.9966 23.0601 99.7773 23.6486 102.75C20.9289 105.5 18.0928 108.843 15.7445 112.785C12.0894 118.921 9.49347 126.74 10.4741 135.886C11.4408 144.902 15.7045 153.538 22.6973 161.767C34.1832 175.284 29.6378 184.559 24.5658 194.908C24.116 195.826 23.662 196.752 23.2148 197.69C15.6603 200.4 7.57131 206.121 4.82767 217.437C2.97226 225.09 4.3686 233.088 7.62563 240.846C10.379 247.405 14.7364 254.476 20.7717 262.17V561.778V576.778H35.7717H65.3605H80.3605V561.778V539.244H621.624V561.778V576.778H636.624H666.213H681.213V561.778V264.498C682.149 263.571 683.042 262.542 683.853 261.4C687.546 256.202 688.836 249.605 686.699 242.991C685.074 237.959 681.822 234.03 678.624 231.054C678.928 227.886 678.458 225.07 677.98 223.182C677.756 222.3 677.489 221.438 677.192 220.601C679.841 218.401 682.34 215.911 684.48 213.307C687.359 209.804 691.275 204.079 692.058 197.231C692.499 193.366 691.995 188.397 688.853 183.794C685.986 179.595 681.987 177.261 678.332 176.029C678.205 175.878 678.033 175.659 677.819 175.351C676.72 173.769 675.579 171.423 674.12 167.974C673.911 167.479 673.68 166.921 673.43 166.319C672.299 163.587 670.791 159.947 669.218 157.123C668.21 155.311 666.598 152.724 664.174 150.455C661.586 148.032 657.275 145.273 651.418 145.273C645.562 145.273 641.251 148.032 638.663 150.455C636.239 152.724 634.627 155.311 633.619 157.123C632.046 159.947 630.538 163.587 629.407 166.319C629.157 166.921 628.926 167.479 628.717 167.974C627.258 171.423 626.117 173.769 625.018 175.351C624.804 175.659 624.632 175.878 624.505 176.029C620.85 177.261 616.851 179.595 613.984 183.794C610.842 188.397 610.338 193.366 610.779 197.231C611.562 204.079 615.478 209.804 618.357 213.307C620.497 215.911 622.996 218.401 625.645 220.601C625.348 221.438 625.081 222.3 624.857 223.182C624.379 225.07 623.909 227.886 624.213 231.054C621.015 234.03 617.763 237.959 616.138 242.991C614.001 249.605 615.291 256.202 618.984 261.4C619.795 262.542 620.688 263.571 621.624 264.498V355.854C610.436 348.225 596.915 343.765 582.352 343.765H225.886C219.511 319.788 197.653 302.122 171.67 302.122H106.191C96.8759 302.122 88.0915 304.392 80.3605 308.409V262.17C86.3958 254.476 90.7532 247.405 93.5066 240.846C96.7636 233.088 98.16 225.09 96.3045 217.437C93.5609 206.121 85.4719 200.4 77.9175 197.69C77.4702 196.752 77.0162 195.825 76.5664 194.908C71.4944 184.559 66.949 175.284 78.4349 161.767C85.4277 153.538 89.6914 144.902 90.6581 135.886C91.6387 126.74 89.0428 118.921 85.3877 112.785C83.0394 108.843 80.2033 105.5 77.4836 102.75C78.0721 99.7773 77.8996 96.9966 77.5334 94.8342L84.4337 88.5612H78.3663C80.2603 86.829 82.0422 84.9627 83.6276 83.0333C86.5062 79.5304 90.4225 73.8063 91.2052 66.9577C91.647 63.0925 91.1427 58.1237 88.0003 53.5208C85.1333 49.3213 81.1349 46.9879 77.4795 45.7561C77.3521 45.6052 77.1803 45.3856 76.9666 45.078C75.8677 43.4963 74.7269 41.1499 73.268 37.7009C73.0585 37.2056 72.8274 36.6478 72.578 36.0458C71.4462 33.3141 69.9382 29.6741 68.366 26.8499C67.3573 25.038 65.7457 22.4513 63.3212 20.1814C60.734 17.7592 56.423 15 50.5661 15C44.7092 15 40.3982 17.7592 37.811 20.1814C35.3865 22.4513 33.7749 25.038 32.7662 26.8499C31.194 29.6741 29.686 33.314 28.5542 36.0458C28.3048 36.6478 28.0737 37.2056 27.8642 37.7009C26.4053 41.1499 25.2645 43.4963 24.1656 45.078C23.9519 45.3856 23.7801 45.6052 23.6527 45.7561C19.9973 46.9879 15.9989 49.3213 13.1319 53.5208C9.98951 58.1237 9.48523 63.0925 9.92697 66.9577C10.7097 73.8063 14.626 79.5304 17.5046 83.0333C19.09 84.9627 20.8719 86.829 22.7659 88.5612H16.6985ZM660.027 171.387C660.027 171.388 660.016 171.406 659.992 171.439C660.015 171.403 660.027 171.386 660.027 171.387ZM642.81 171.387C642.81 171.387 642.822 171.403 642.845 171.439C642.821 171.406 642.809 171.387 642.81 171.387ZM59.1747 41.114C59.1748 41.1147 59.1633 41.1329 59.1399 41.1661C59.1628 41.1298 59.1746 41.1132 59.1747 41.114ZM41.9575 41.114C41.9576 41.1132 41.9694 41.1298 41.9924 41.1662C41.9689 41.1329 41.9574 41.1148 41.9575 41.114ZM678.598 176.313C678.598 176.313 678.588 176.305 678.569 176.287C678.589 176.303 678.598 176.312 678.598 176.313ZM624.239 176.313C624.239 176.312 624.248 176.303 624.268 176.288C624.248 176.305 624.239 176.313 624.239 176.313ZM77.7459 46.0396C77.7459 46.0402 77.7361 46.0323 77.717 46.0143C77.7365 46.03 77.746 46.039 77.7459 46.0396ZM23.3863 46.0396C23.3862 46.039 23.3958 46.03 23.4152 46.0143C23.3961 46.0323 23.3863 46.0402 23.3863 46.0396Z" stroke="black" stroke-width="30"/>
<path d="M28.7854 59.8628C41.3881 56.1642 43.3059 30 50.5661 30C57.8263 30 59.7441 56.1642 72.3468 59.8628C84.9495 63.5614 64.5386 84.3832 55.4976 84.3832C60.977 91.3695 68.9222 103.561 55.4976 103.561C63.0318 110.41 89.47 125.616 67.0044 152.054C44.5387 178.492 64.6756 203.013 67.0044 210.547C79.1961 211.46 94.6206 221.999 65.3605 256.848V561.778H35.7717V256.848C6.51158 221.999 21.9361 211.46 34.1279 210.547C36.4566 203.013 56.5935 178.492 34.1279 152.054C11.6622 125.616 38.1004 110.41 45.6346 103.561C32.21 103.561 40.1552 91.3695 45.6346 84.3832C36.5936 84.3832 16.1828 63.5614 28.7854 59.8628Z" fill="#15314B"/>
<path d="M629.638 190.136C642.241 186.437 644.159 160.273 651.419 160.273C658.679 160.273 660.597 186.437 673.199 190.136C685.802 193.835 665.391 214.656 656.35 214.656C661.83 221.643 669.775 233.834 656.35 233.834C676.205 244.793 676.076 251.916 666.213 256.848V561.778H636.624V256.848C626.761 251.916 626.633 244.793 646.487 233.834C633.063 233.834 641.008 221.643 646.487 214.656C637.446 214.656 617.035 193.835 629.638 190.136Z" fill="#15314B"/>
<rect x="65.095" y="400.683" width="572.051" height="123.561" fill="#15314B"/>
<path d="M65.095 358.765H558.973C602.147 358.765 637.146 393.764 637.146 436.938V436.938C637.146 458.525 619.647 476.025 598.06 476.025H165.095C109.867 476.025 65.095 431.253 65.095 376.025V358.765Z" fill="#4676A4"/>
<path d="M65.095 358.765C65.095 335.766 83.7394 317.122 106.739 317.122H171.122C194.121 317.122 212.765 335.766 212.765 358.765V358.765H65.095V358.765Z" fill="#709ECA"/>
</svg>
