<svg width="179" height="312" viewBox="0 0 179 312" fill="none" xmlns="http://www.w3.org/2000/svg">
<path d="M42.2425 223.481C40.5515 231.413 38.9628 242.631 38.0663 253.42C36.979 266.506 36.9284 278.126 38.2355 287.007C39.4518 295.271 47.1371 300.984 55.4011 299.768C63.6651 298.552 69.3783 290.866 68.162 282.602C67.2573 276.456 67.2989 266.905 68.2113 255.925C69.0059 246.361 70.4162 236.403 71.8266 229.787C73.5681 221.618 68.3572 213.583 60.1878 211.842C52.0183 210.1 43.9839 215.311 42.2425 223.481Z" fill="#F5D0C3"/>
<path d="M84.8064 229.698C86.179 236.332 87.5502 246.307 88.3228 255.888C89.2108 266.899 89.2513 276.481 88.3677 282.666C87.1864 290.935 92.9322 298.596 101.201 299.777C109.47 300.959 117.131 295.213 118.313 286.944C119.576 278.102 119.527 266.512 118.474 253.457C117.605 242.685 116.065 231.484 114.428 223.57C112.736 215.39 104.733 210.131 96.5529 211.823C88.3732 213.516 83.1141 221.518 84.8064 229.698Z" fill="#F5D0C3"/>
<path d="M79.839 215L41.3299 194.524C41.3299 194.524 36.5966 203.799 33.2078 215C30.4787 224.019 28.8797 235.106 29.3467 237.337C30.3938 242.34 65.9944 249.67 71.1134 247.11C76.2324 244.551 79.839 215 79.839 215Z" fill="#2D3656"/>
<path d="M79.6071 231.52C101.967 231.52 120.094 221.103 120.094 208.252C120.094 195.401 101.967 184.984 79.6071 184.984C57.2467 184.984 39.1201 195.401 39.1201 208.252C39.1201 221.103 57.2467 231.52 79.6071 231.52Z" fill="#2D3656"/>
<path d="M77.3008 213.953L116.857 192.43C116.857 192.43 121.31 204.849 124.303 217.094C126.956 227.952 128.257 238.675 127.328 240.479C125.351 244.318 88.7009 250.368 85.212 247.11C81.7229 243.853 77.3008 213.953 77.3008 213.953Z" fill="#2D3656"/>
<path d="M129.424 304.676L135.357 304.934L135.172 309.16C135.111 310.57 133.916 311.666 132.504 311.605L131.685 311.568C130.272 311.507 129.178 310.311 129.239 308.899L129.424 304.676Z" fill="#4786B7"/>
<path d="M121.514 304.332L127.447 304.59L127.263 308.813C127.201 310.225 126.006 311.321 124.594 311.259L123.775 311.224C122.363 311.161 121.268 309.967 121.33 308.555L121.514 304.332Z" fill="#4786B7"/>
<path d="M98.3467 303.319L104.28 303.578L104.095 307.801C104.033 309.213 102.839 310.309 101.426 310.246L100.608 310.212C99.1953 310.151 98.1005 308.955 98.1621 307.543L98.3467 303.319Z" fill="#4786B7"/>
<path d="M106.257 303.664L112.19 303.924L112.006 308.148C111.944 309.56 110.749 310.654 109.337 310.593L108.518 310.556C107.106 310.495 106.011 309.299 106.073 307.889L106.257 303.664Z" fill="#4786B7"/>
<path d="M90.436 302.975L96.369 303.233L96.1845 307.456C96.1228 308.869 94.928 309.962 93.5158 309.902L92.697 309.867C91.2849 309.804 90.1898 308.611 90.2515 307.198L90.436 302.975Z" fill="#4786B7"/>
<path d="M137.212 304.592C136.71 299.273 128.891 293.049 121.982 288.76C115.514 284.744 107.981 283.439 100.375 283.108L89.4957 282.634C88.6464 282.552 87.9025 283.199 87.8653 284.051L86.9839 304.238C86.9362 305.33 87.7831 306.256 88.8753 306.302L135.128 308.322C136.257 308.371 137.189 305.721 137.212 304.592Z" fill="#283F51"/>
<mask id="mask0_20_407" style="mask-type:luminance" maskUnits="userSpaceOnUse" x="86" y="282" width="52" height="27">
<path d="M137.212 304.592C136.71 299.273 128.891 293.049 121.982 288.76C115.514 284.744 107.981 283.439 100.375 283.108L89.4957 282.634C88.6464 282.552 87.9025 283.199 87.8653 284.051L86.9839 304.238C86.9362 305.33 87.7831 306.256 88.8753 306.302L135.128 308.322C136.257 308.371 137.189 305.721 137.212 304.592Z" fill="white"/>
</mask>
<g mask="url(#mask0_20_407)">
<path d="M118.561 300.938L113.239 310.613L116.501 312.407L121.823 302.732L118.561 300.938Z" fill="#FFF7F5"/>
<path d="M112.93 295.554L104.519 309.906L107.731 311.788L116.142 297.436L112.93 295.554Z" fill="#FFF7F5"/>
<path d="M106.614 290.775L97.1035 307.616L100.345 309.447L109.856 292.605L106.614 290.775Z" fill="#FFF7F5"/>
</g>
<path d="M27.738 304.676L21.8048 304.934L21.9894 309.16C22.051 310.57 23.2458 311.666 24.658 311.605L25.4768 311.568C26.8892 311.507 27.984 310.311 27.9223 308.899L27.738 304.676Z" fill="#4786B7"/>
<path d="M35.6487 304.332L29.7157 304.59L29.9 308.813C29.9617 310.225 31.1565 311.321 32.5686 311.259L33.3877 311.224C34.7999 311.161 35.8946 309.967 35.833 308.555L35.6487 304.332Z" fill="#4786B7"/>
<path d="M58.8154 303.319L52.8825 303.578L53.067 307.801C53.1287 309.213 54.3235 310.309 55.7356 310.246L56.5545 310.212C57.9668 310.151 59.0616 308.955 59 307.543L58.8154 303.319Z" fill="#4786B7"/>
<path d="M50.905 303.664L44.9721 303.924L45.1563 308.148C45.218 309.56 46.4128 310.654 47.8252 310.593L48.644 310.556C50.0562 310.495 51.151 309.299 51.0893 307.889L50.905 303.664Z" fill="#4786B7"/>
<path d="M66.7266 302.975L60.7936 303.233L60.9781 307.456C61.0398 308.869 62.2346 309.962 63.6468 309.902L64.4656 309.867C65.8777 309.804 66.9728 308.611 66.9111 307.198L66.7266 302.975Z" fill="#4786B7"/>
<path d="M19.9498 304.592C20.4526 299.273 28.2708 293.049 35.1796 288.76C41.6478 284.744 49.1809 283.439 56.7866 283.108L67.6664 282.634C68.5157 282.552 69.2596 283.199 69.2969 284.051L70.1783 304.238C70.226 305.33 69.379 306.256 68.2868 306.302L22.0339 308.322C20.9047 308.371 19.973 305.721 19.9498 304.592Z" fill="#283F51"/>
<mask id="mask1_20_407" style="mask-type:luminance" maskUnits="userSpaceOnUse" x="19" y="282" width="52" height="27">
<path d="M19.9498 304.592C20.4526 299.273 28.2708 293.049 35.1796 288.76C41.6478 284.744 49.1809 283.439 56.7866 283.108L67.6664 282.634C68.5157 282.552 69.2596 283.199 69.2969 284.051L70.1783 304.238C70.226 305.33 69.379 306.256 68.2868 306.302L22.0339 308.322C20.9047 308.371 19.973 305.721 19.9498 304.592Z" fill="white"/>
</mask>
<g mask="url(#mask1_20_407)">
<path d="M38.6007 300.938L43.9229 310.613L40.6609 312.407L35.3387 302.732L38.6007 300.938Z" fill="#FFF7F5"/>
<path d="M44.2323 295.554L52.6431 309.906L49.4311 311.788L41.0202 297.436L44.2323 295.554Z" fill="#FFF7F5"/>
<path d="M50.5483 290.775L60.0586 307.616L56.8168 309.447L47.3066 292.605L50.5483 290.775Z" fill="#FFF7F5"/>
</g>
<path d="M122.686 147.668C118.105 147.998 110.747 147.472 108.878 146.166C105.325 152.333 105.654 162.474 106.513 169.648C107.372 176.823 114.483 186.525 117.387 189.652C118.938 187.694 125.526 184.448 129.631 184.118C133.735 183.788 141.765 184.294 144.708 185.462C145.066 180.72 145.567 171.003 144.708 163.086C143.849 155.169 136.878 145.147 134.651 142.054C132.781 143.841 127.268 147.338 122.686 147.668Z" fill="#FFEB35"/>
<path d="M125.922 162.772C131.446 161.921 135.709 159.828 135.442 158.097C135.175 156.365 130.481 155.651 124.957 156.502C119.433 157.352 115.171 159.445 115.437 161.177C115.704 162.908 120.398 163.622 125.922 162.772Z" fill="#FFBA35"/>
<path d="M116.821 167.514C121.115 168.093 131.532 167.577 137.38 164.351" stroke="#CEBB13" stroke-width="1.25"/>
<rect x="37.0464" y="98.1924" width="85.3949" height="46.304" rx="12.5" fill="#415D77"/>
<path d="M0.180132 201.59C-2.26306 192.283 20.6429 127.394 38.7922 110.408L119.184 106.802C142.569 140.541 159.22 197.867 154.798 203.568C150.377 209.269 134.268 201.59 77.3561 201.59C20.4438 201.59 2.62332 210.898 0.180132 201.59Z" fill="#415D77"/>
<path d="M23.0866 134.241C21.3597 136.882 19.7096 139.958 17.7049 144.083C17.1542 145.217 16.5995 146.381 15.8723 147.924C12.4674 155.148 11.8091 156.498 10.7064 158.383C6.48913 165.594 8.91537 174.857 16.1256 179.075C23.3358 183.292 32.5996 180.866 36.8169 173.656C38.597 170.612 39.2617 169.249 43.2342 160.82C43.9146 159.377 44.4228 158.31 44.9112 157.305C46.4001 154.241 47.5402 152.116 48.4036 150.796C52.9749 143.805 51.0133 134.431 44.0223 129.86C37.0312 125.289 27.658 127.25 23.0866 134.241Z" fill="#F5D0C3"/>
<path d="M134.825 143.656C143.47 131.606 148.156 125.555 157.855 113.56L157.932 113.464C165.569 104.018 169.657 98.7915 175.912 90.2751C180.856 83.5426 179.406 74.0767 172.674 69.1325C165.941 64.1883 156.475 65.638 151.531 72.3705C145.607 80.4374 141.777 85.3332 134.41 94.4458L134.332 94.5417C124.3 106.95 119.286 113.424 110.247 126.024C105.378 132.811 106.933 142.26 113.72 147.129C120.507 151.998 129.956 150.443 134.825 143.656Z" fill="#F4D4C9"/>
<path d="M166.387 74.4513L169.255 81.9879C169.483 82.5885 169.182 83.2605 168.581 83.489C167.981 83.7175 167.309 83.4159 167.08 82.8154L164.213 75.2787C163.984 74.6782 164.286 74.0061 164.886 73.7776C165.487 73.5491 166.159 73.8507 166.387 74.4513Z" fill="#BBBEC3"/>
<path d="M172.154 73.604C170.071 78.5131 164.402 80.8035 159.493 78.7197C154.583 76.6359 152.293 70.967 154.377 66.0579C156.461 61.1488 162.13 58.8584 167.039 60.9422C171.948 63.026 174.238 68.6949 172.154 73.604Z" fill="#DE7761"/>
<path d="M167.192 60.8807C165.108 65.7899 159.439 68.0802 154.53 65.9964C149.621 63.9126 147.331 58.2438 149.414 53.3347C151.498 48.4255 157.167 46.1352 162.076 48.219C166.985 50.3028 169.276 55.9716 167.192 60.8807Z" fill="#C96852"/>
<path d="M161.372 47.7934C159.338 52.5843 153.806 54.8194 149.015 52.7859C144.225 50.7523 141.989 45.22 144.023 40.4292C146.057 35.6384 151.589 33.4032 156.38 35.4368C161.17 37.4703 163.406 43.0026 161.372 47.7934Z" fill="#F2856D"/>
<path d="M149.221 31.5229L152.088 39.0596C152.317 39.6601 152.015 40.3322 151.415 40.5607C150.814 40.7892 150.142 40.4876 149.914 39.887L147.046 32.3504C146.818 31.7498 147.119 31.0778 147.72 30.8493C148.32 30.6208 148.992 30.9224 149.221 31.5229Z" fill="#BBBEC3"/>
<path d="M23.3616 116.159C25.9374 109.061 33.6881 105.369 40.8691 107.702L52.6155 111.519C60.0706 113.941 64.1508 121.948 61.7283 129.404L53.358 155.165C53.358 155.165 16.1161 146.702 15.3018 142.8C14.8121 140.453 19.5262 126.727 23.3616 116.159Z" fill="#E5A850"/>
<path d="M106.772 118.848C101.667 124.412 101.965 132.993 107.348 138.29L116.773 147.564C122.11 152.817 130.607 153.025 136.082 147.916C144.526 140.036 155.337 129.526 155.22 127.482C155.028 124.132 129.316 99.7003 126.699 99.416C125.1 99.2424 114.661 110.248 106.772 118.848Z" fill="#E5A850"/>
<path d="M40.447 116.892C42.6451 111.423 47.9647 107.932 53.8584 107.948L86.3115 108.037L115.403 110.326C121.495 110.806 126.644 114.995 128.211 120.902C132.693 137.801 141.027 171.843 138.962 184.156C136.17 200.806 125.507 208.34 115.81 211.626C106.112 214.912 53.1015 215.349 42.398 209.997C31.6946 204.645 23.9609 199.538 21.1074 184.156C18.9357 172.449 33.4078 134.403 40.447 116.892Z" fill="#E5A850"/>
<path d="M81.9549 134.491C91.4645 134.491 99.1735 126.261 99.1735 116.109C99.1735 105.957 91.4645 97.7271 81.9549 97.7271C72.4454 97.7271 64.7363 105.957 64.7363 116.109C64.7363 126.261 72.4454 134.491 81.9549 134.491Z" fill="#C18733"/>
<path d="M57.5149 157.882C58.924 157.882 60.0664 156.739 60.0664 155.33C60.0664 153.921 58.924 152.779 57.5149 152.779C56.1057 152.779 54.9634 153.921 54.9634 155.33C54.9634 156.739 56.1057 157.882 57.5149 157.882Z" fill="white"/>
<path d="M57.5153 156.861C58.3608 156.861 59.0462 156.175 59.0462 155.33C59.0462 154.484 58.3608 153.799 57.5153 153.799C56.6698 153.799 55.9844 154.484 55.9844 155.33C55.9844 156.175 56.6698 156.861 57.5153 156.861Z" fill="black"/>
<path d="M65.667 143.128L77.3012 133.095H84.006C84.006 133.095 88.2777 137.744 93.2718 153.334C91.4949 156.301 88.9054 156.301 83.4501 159.253C83.7659 151.168 81.8095 141.215 81.8095 141.215C81.8095 141.215 82.6358 157.881 80.0869 164.312C72.8679 165.853 69.0886 159.886 69.0886 159.886C69.0886 159.886 75.3025 151.951 75.6751 143.128C74.9403 146.378 73.1318 150.484 72.1617 149.966C70.6451 149.155 65.667 143.128 65.667 143.128Z" fill="#426789"/>
<rect x="72.8682" y="98.8942" width="17.8833" height="26.8249" rx="8.94165" fill="#EBBAAA"/>
<path d="M82.5364 131.001C67.5283 131.001 61.0518 114.054 58.8024 107.733C54.1101 104.708 42.3058 100.566 45.6565 108.663C49.8448 118.785 59.0461 133.886 82.5364 133.886C87.4225 133.886 93.6575 133.444 99.8236 130.303C107.86 126.209 113.484 113.899 114.763 110.176L109.179 108.547L103.594 108.663C99.4062 116.962 97.5445 131.001 82.5364 131.001Z" fill="#415D77"/>
<path d="M47.12 128.637C37.9381 137.354 27.2284 146.534 16.1619 155.105C9.55797 160.22 8.3508 169.72 13.4656 176.323C18.5804 182.927 28.0802 184.135 34.6841 179.02C46.5468 169.832 58.0258 159.993 67.9466 150.574C74.0045 144.823 74.2531 135.25 68.502 129.192C62.7509 123.135 53.1779 122.886 47.12 128.637Z" fill="#F5D0C3"/>
<path d="M44.2545 80.0176C51.7169 80.0176 57.7663 74.2795 57.7663 67.2012C57.7663 60.123 51.7169 54.3849 44.2545 54.3849C36.7921 54.3849 30.7427 60.123 30.7427 67.2012C30.7427 74.2795 36.7921 80.0176 44.2545 80.0176Z" fill="#EBBAAA"/>
<path d="M120.824 81.011C128.286 81.011 134.336 75.2729 134.336 68.1946C134.336 61.1164 128.286 55.3783 120.824 55.3783C113.361 55.3783 107.312 61.1164 107.312 68.1946C107.312 75.2729 113.361 81.011 120.824 81.011Z" fill="#EBBAAA"/>
<path d="M42.4927 41.0687C43.1075 30.3471 50.9713 21.4347 61.533 19.4899L76.3878 16.7546C81.8163 15.755 87.3876 15.8217 92.7908 16.9509L120.791 22.8031L124.281 57.8219L125.239 65.2445C128.556 90.94 108.543 113.703 82.6344 113.703C57.1765 113.703 37.3037 91.6883 39.8997 66.3633L42.4927 41.0687Z" fill="#F4D4CA"/>
<path d="M71.4573 91.3573C77.1577 94.382 85.2677 94.133 91.6851 91.4235C92.573 91.0486 92.9889 90.0249 92.614 89.137C92.2391 88.2491 91.2154 87.8332 90.3275 88.2081C84.8053 90.5397 77.7698 90.7557 73.0932 88.2742C72.2419 87.8225 71.1855 88.1464 70.7337 88.9978C70.282 89.8492 70.6059 90.9056 71.4573 91.3573Z" fill="#C99584"/>
<path d="M58.2482 53.0459L71.6521 53.9301C73.1909 54.0316 74.5206 52.8664 74.6221 51.3277C74.7236 49.789 73.5585 48.4593 72.0197 48.3578L58.6157 47.4736C57.077 47.3721 55.7473 48.5372 55.6458 50.0759C55.5443 51.6147 56.7094 52.9444 58.2482 53.0459Z" fill="#272727"/>
<path d="M92.6782 54.0234L105.873 53.0443C107.411 52.9302 108.565 51.591 108.451 50.0531C108.337 48.5152 106.998 47.3611 105.46 47.4752L92.2649 48.4543C90.727 48.5684 89.5729 49.9076 89.687 51.4455C89.8011 52.9834 91.1403 54.1375 92.6782 54.0234Z" fill="#272727"/>
<path d="M81.7777 23.6465C62.0236 23.6465 45.285 23.6465 44.2379 36.1823C42.2192 46.1968 39.8169 42.5811 39.3516 32.2304C40.4698 5.62017 70.3138 0 82.6307 0C92.7252 7.15328 101.532 23.6465 81.7777 23.6465Z" fill="#272727"/>
<path d="M39.4587 34.0207C39.4003 32.5979 40.5381 31.4124 41.9624 31.4124C43.4397 31.4124 44.5963 32.6837 44.457 34.1545L42.0971 59.067C42.0578 59.4824 41.709 59.7998 41.2918 59.7998C40.8578 59.7998 40.5011 59.4575 40.4834 59.024L39.4587 34.0207Z" fill="#272727"/>
<path d="M83.2268 23.6465C102.981 23.6465 120.094 23.6465 120.908 36.415C122.927 46.4295 125.097 43.2792 125.653 32.2304C124.535 5.62024 94.807 0 82.4899 0C72.3956 7.15328 63.4729 23.6465 83.2268 23.6465Z" fill="#272727"/>
<path d="M81.0485 29.1362C77.5259 26.5595 72.7471 24.4832 64.4819 23.9667L82.3257 19.1967L101.13 23.9667C93.5269 24.3832 87.6954 26.6644 83.6667 29.2246C82.8611 29.7365 81.8187 29.6998 81.0485 29.1362Z" fill="#272727"/>
<path d="M79.3343 66.6248C78.2099 68.9758 77.485 71.0485 77.3699 73.0199C77.1707 76.4301 79.114 78.7632 82.98 78.7632V74.8076C81.5081 74.8076 81.2462 74.4932 81.3188 73.2505C81.3954 71.9383 81.9875 70.2452 82.9028 68.3314L79.3343 66.6248Z" fill="#EBBAAA"/>
<path d="M98.8946 68.5268C99.8439 68.0027 101.859 68.1076 102.82 68.584C104.202 69.2689 105.877 68.7041 106.562 67.3225C107.247 65.9409 106.682 64.2656 105.301 63.5806C102.814 62.3481 98.9009 62.1445 96.1957 63.6378C94.8457 64.3831 94.3554 66.0817 95.1007 67.4318C95.846 68.7818 97.5446 69.272 98.8946 68.5268Z" fill="black"/>
<path d="M62.13 68.5268C63.0793 68.0027 65.0945 68.1076 66.0555 68.584C67.4371 69.2689 69.1124 68.7041 69.7973 67.3225C70.4823 65.9409 69.9175 64.2656 68.5359 63.5806C66.0497 62.3481 62.1362 62.1445 59.4311 63.6378C58.081 64.3831 57.5908 66.0817 58.3361 67.4318C59.0813 68.7818 60.7799 69.272 62.13 68.5268Z" fill="black"/>
<path d="M87.6591 82.2741C87.4954 85.2438 88.2731 88.4184 89.9154 91.058C91.8115 94.1052 94.7333 96.2846 98.5023 97.2114C99.4382 97.4416 100.384 96.8694 100.614 95.9335C100.844 94.9976 100.272 94.0523 99.3358 93.8222C96.4678 93.1169 94.3022 91.5016 92.8789 89.2141C91.6224 87.1947 91.0191 84.7321 91.1441 82.4662C91.1971 81.5039 90.46 80.6808 89.4977 80.6277C88.5353 80.5746 87.7122 81.3118 87.6591 82.2741Z" fill="#C99584"/>
<path d="M125.615 33.9949C125.657 32.5811 124.522 31.4124 123.107 31.4124C121.62 31.4124 120.459 32.6993 120.612 34.179L123.154 58.7869C123.2 59.2301 123.573 59.5671 124.019 59.5671C124.489 59.5671 124.874 59.1931 124.888 58.7231L125.615 33.9949Z" fill="#272727"/>
</svg>
