<svg width="506" height="811" viewBox="0 0 506 811" fill="none" xmlns="http://www.w3.org/2000/svg">
<path opacity="0.9" d="M45.9134 542.882C40.6075 546.219 37.0877 552.128 37.0877 558.845V574.753C37.0877 581.47 40.6075 587.379 45.9134 590.716V705.563C39.7389 708.343 33.1053 712.135 27.9244 716.957C23.705 720.885 18.7055 727.12 17.8464 735.626C17.4456 739.594 18.0079 743.297 19.2619 746.69C15.0997 754.365 13.9357 763.382 16.0003 771.631C17.649 778.219 21.4136 784.532 27.5182 789.137C33.6428 793.758 41.237 796 49.4855 796H107.28C111.457 796 115.444 794.259 118.283 791.195C121.122 788.131 122.555 784.023 122.237 779.858L122.237 779.858C122.236 779.847 122.229 779.71 122.253 779.472C122.277 779.226 122.327 778.935 122.413 778.627C122.586 778.005 122.858 777.466 123.212 777.033C123.522 776.652 124.087 776.11 125.256 775.607C126.303 775.158 128.07 774.644 130.86 774.506C130.885 774.511 130.911 774.516 130.936 774.522C132.229 774.793 134.097 775.162 136.571 775.595C141.518 776.462 148.887 777.585 158.919 778.698C178.98 780.924 209.699 783.109 253 783.109C296.301 783.109 327.02 780.924 347.081 778.698C357.113 777.585 364.482 776.462 369.429 775.595C371.903 775.162 373.771 774.793 375.064 774.522C375.089 774.516 375.115 774.511 375.14 774.506C377.93 774.644 379.697 775.158 380.744 775.607C381.913 776.11 382.478 776.652 382.788 777.033C383.142 777.466 383.414 778.005 383.587 778.627C383.673 778.935 383.723 779.226 383.747 779.472C383.762 779.621 383.765 779.73 383.765 779.794C383.764 779.838 383.763 779.861 383.763 779.858C383.445 784.023 384.878 788.131 387.717 791.195C390.556 794.259 394.543 796 398.72 796H456.515C464.763 796 472.357 793.758 478.482 789.137C484.586 784.532 488.351 778.219 490 771.631C492.064 763.382 490.9 754.365 486.738 746.69C487.992 743.297 488.554 739.594 488.154 735.626C487.294 727.12 482.295 720.885 478.076 716.957C472.895 712.135 466.261 708.343 460.087 705.563V590.885C465.545 587.581 469.186 581.585 469.186 574.753V558.845C469.186 552.013 465.545 546.017 460.087 542.713V236.121C460.99 234.908 461.674 233.693 462.189 232.59C462.467 231.994 462.711 231.396 462.927 230.801C465.864 228.036 467.486 224.821 468.415 222.302C470.298 217.196 470.556 211.51 470.556 207.375C470.556 199.09 463.84 192.375 455.556 192.375C425.411 192.375 394.596 190.468 371.686 186.139C360.088 183.947 351.562 181.32 346.311 178.604C344.612 177.725 343.614 177.043 343.058 176.596C342.644 168.383 339.531 160.637 335.904 154.354C331.91 147.437 326.588 141.06 320.937 136.095C315.64 131.439 308.48 126.637 300.586 125.266C296.477 124.552 291.244 124.632 286.13 127.236C287.419 123.543 288.252 119.551 288.329 115.432C288.469 107.891 285.982 99.4392 278.717 93.1648C271.808 87.197 262.637 85 253 85C243.363 85 234.192 87.197 227.283 93.1648C220.018 99.4392 217.531 107.891 217.671 115.432C217.748 119.551 218.581 123.543 219.87 127.236C214.756 124.632 209.523 124.552 205.414 125.266C197.52 126.637 190.36 131.439 185.063 136.095C179.412 141.06 174.09 147.437 170.096 154.354C166.469 160.637 163.356 168.383 162.942 176.596C162.386 177.043 161.388 177.725 159.689 178.604C154.438 181.32 145.912 183.947 134.314 186.139C111.404 190.468 80.5887 192.375 50.4442 192.375C42.1599 192.375 35.4442 199.09 35.4442 207.375C35.4442 211.51 35.7018 217.196 37.5847 222.302C38.5137 224.821 40.1364 228.036 43.0729 230.801C43.2885 231.396 43.5334 231.994 43.8114 232.59C44.3263 233.693 45.01 234.908 45.9134 236.121L45.9134 542.882ZM272.945 141.816C272.946 141.816 272.954 141.842 272.966 141.891C272.949 141.84 272.943 141.816 272.945 141.816ZM233.055 141.816C233.057 141.816 233.051 141.84 233.034 141.891C233.046 141.842 233.054 141.816 233.055 141.816ZM163.561 175.989C163.57 175.991 163.531 176.053 163.417 176.172C163.494 176.047 163.551 175.988 163.561 175.989ZM342.439 175.989C342.449 175.988 342.506 176.047 342.583 176.172C342.469 176.053 342.43 175.991 342.439 175.989Z" stroke="black" stroke-width="30" stroke-linejoin="round"/>
<path d="M445.087 555.006H60.9134V715.862C46.6956 720.342 22.1494 732.976 37.7074 747.677C24.9706 757.413 27.4358 781 49.4855 781H107.28C106.733 773.823 110.978 759.47 132.343 759.47C132.343 759.47 167.403 768.11 253 768.11C338.597 768.11 373.657 759.47 373.657 759.47C395.022 759.47 399.267 773.823 398.72 781H456.515C478.564 781 481.029 757.413 468.293 747.677C483.851 732.976 459.304 720.342 445.087 715.862V555.006Z" fill="#4B0D0A"/>
<path d="M245.11 137.3C231.758 127.975 222.655 100 253 100C283.346 100 274.242 127.975 260.89 137.3C247.538 146.625 285.166 181.182 295.484 169.115C305.801 157.047 283.346 161.984 289.415 144.979C295.484 127.975 328.105 157.184 328.105 178.44C328.105 199.695 394.41 207.375 455.556 207.375C455.556 215.054 454.342 221.088 449.487 221.088C449.487 224.791 448.576 228.63 445.087 228.63V555.006H60.9135V228.63C57.4238 228.63 56.5134 224.791 56.5134 221.088C51.6582 221.088 50.4443 215.054 50.4443 207.375C111.59 207.375 177.895 199.695 177.895 178.44C177.895 157.184 210.517 127.975 216.586 144.979C222.655 161.984 200.199 157.047 210.517 169.115C220.834 181.182 258.462 146.625 245.11 137.3Z" fill="#4B0D0A"/>
<path d="M201.779 189.319C195.205 181.713 185.436 202.484 181.373 213.82H324.627C320.564 202.484 310.795 181.713 304.221 189.319C296.004 198.827 258.478 168.84 253 168.841C247.522 168.841 209.996 198.827 201.779 189.319Z" fill="#7A1914"/>
<rect x="52.0876" y="555.006" width="402.099" height="23.5868" rx="11.7934" fill="#AE3D37"/>
<rect x="88.2437" y="239.052" width="159.963" height="297.029" fill="#7A1914"/>
<rect x="264.641" y="239.052" width="153.115" height="297.029" fill="#7A1914"/>
<rect x="101.117" y="251.394" width="134.215" height="272.345" fill="#620C08"/>
<rect x="259.163" y="239.052" width="158.593" height="297.029" fill="#7A1914"/>
<rect x="88.2437" y="578.592" width="329.513" height="134.39" fill="#7A1914"/>
<path d="M233.553 190.782C237.497 186.832 240.126 196.541 240.948 201.889C235.881 200.792 227.307 197.035 233.553 190.782Z" fill="#AE3D37"/>
<path d="M252.041 179.4C264.202 179.4 257.108 192.199 252.041 198.598C246.974 192.199 239.879 179.4 252.041 179.4Z" fill="#AE3D37"/>
<path d="M269.982 190.782C266.038 186.832 263.408 196.541 262.587 201.889C267.654 200.792 276.227 197.035 269.982 190.782Z" fill="#AE3D37"/>
<path d="M230.266 206.415C229.987 206.173 229.703 205.937 229.415 205.709C226.697 203.756 220.614 201.665 212.325 205.181C200.683 210.117 194.247 206.415 194.657 201.341C195.068 196.267 203.97 195.307 202.327 202.712C209.604 198.208 221.226 199.207 229.415 205.709C229.751 205.95 230.035 206.189 230.266 206.415Z" fill="#AE3D37"/>
<path d="M273.132 206.415C273.411 206.173 273.695 205.937 273.983 205.709C276.701 203.756 282.784 201.665 291.073 205.181C302.714 210.117 309.151 206.415 308.74 201.341C308.33 196.267 299.428 195.307 301.071 202.712C293.794 198.208 282.172 199.207 273.983 205.709C273.647 205.95 273.363 206.189 273.132 206.415Z" fill="#AE3D37"/>
<rect x="272.037" y="251.394" width="132.846" height="272.345" fill="#620C08"/>
<rect x="404.061" y="590.66" width="110.255" height="304.861" transform="rotate(90 404.061 590.66)" fill="#620C08"/>
<rect x="210.133" y="369.877" width="8.76509" height="36.4772" rx="4.38255" fill="#350907"/>
<rect x="217.628" y="616.167" width="8.77649" height="75.325" rx="4.38824" transform="rotate(-90 217.628 616.167)" fill="#350907"/>
<rect x="288.471" y="369.877" width="8.76508" height="36.4772" rx="4.38254" fill="#350907"/>
<rect x="30" y="100" width="446" height="681" stroke="black"/>
<g opacity="0.9">
<mask id="path-20-outside-1_26_553" maskUnits="userSpaceOnUse" x="3.00269" y="0.43512" width="152" height="209" fill="black">
<rect fill="white" x="3.00269" y="0.43512" width="152" height="209"/>
<path fill-rule="evenodd" clip-rule="evenodd" d="M59.9275 54.4542C61.6057 53.582 63.6733 54.2354 64.5455 55.9136C65.7816 58.2919 67.0603 60.5657 68.3517 62.8622C72.5103 70.2571 76.8015 77.8879 80.23 90.0019C80.9243 92.4552 81.5851 95.0937 82.2071 97.9561C84.4548 86.2746 87.8757 74.328 92.8881 62.8361C93.6443 61.1024 95.6627 60.31 97.3963 61.0662C99.1299 61.8224 99.9223 63.8408 99.1662 65.5744C90.9798 84.3433 87.2144 104.466 85.8922 122.446C87.1678 135.298 87.9498 151.197 88.0819 171.305C88.0935 173.071 86.7614 174.556 85.0052 174.735C83.249 174.914 81.6443 173.729 81.2989 171.998C79.2953 161.955 77.5189 143.721 79.0181 122.541C77.6769 109.281 75.8107 99.5386 73.6396 91.8671C70.4512 80.6014 66.6482 73.8324 62.5739 66.5806C61.2307 64.1898 59.858 61.7465 58.4681 59.0723C57.5958 57.3941 58.2492 55.3265 59.9275 54.4542Z"/>
<path d="M72.4761 97.9879C68.7829 95.509 63.1981 95.2085 66.531 89.3494H98.4184C101.751 95.2085 96.1665 95.509 92.4733 97.9879C88.7801 100.467 91.0321 114.213 102.112 118.57C113.191 122.927 108.327 161.311 92.4733 178.588H72.4761C56.6225 161.311 51.7582 122.927 62.8378 118.57C73.9173 114.213 76.1693 100.467 72.4761 97.9879Z"/>
<path fill-rule="evenodd" clip-rule="evenodd" d="M95.1642 39.8123C89.4425 50.2972 81.3256 65.1712 92.7612 72.5305C94.3302 73.5403 95.8788 73.9629 97.3393 73.8945C99.3015 73.8025 101.105 72.8244 102.585 71.1934C105.926 67.5127 107.621 60.507 105.788 52.8591C104.955 49.3847 103.394 45.7778 100.928 42.2899C99.7049 40.5601 98.2593 38.8596 96.5696 37.2191C96.128 38.0462 95.6549 38.9131 95.1642 39.8123Z"/>
<path d="M118.284 53.406C114.285 51.9983 109.838 51.8033 105.788 52.8591C107.621 60.507 105.926 67.5127 102.585 71.1934C112.718 68.1318 117.164 60.3416 118.284 53.406Z"/>
<path d="M124.849 57.2695C122.947 55.5459 120.697 54.2552 118.284 53.406C117.164 60.3416 112.718 68.1318 102.585 71.1934C101.105 72.8244 99.3015 73.8025 97.3393 73.8945C102.889 74.7552 110.794 72.5906 124.849 57.2695Z"/>
<path fill-rule="evenodd" clip-rule="evenodd" d="M97.3393 73.8945C95.8788 73.9629 94.3302 73.5403 92.7612 72.5305C94.1373 73.0748 95.6261 73.6288 97.3393 73.8945Z"/>
<path fill-rule="evenodd" clip-rule="evenodd" d="M97.4201 73.8945C95.9596 73.9629 94.411 73.5403 92.842 72.5306C94.2181 73.0748 95.7069 73.6288 97.4201 73.8945Z"/>
<path d="M116.098 41.4403C111.879 37.7378 105.95 38.3788 101.009 42.2899C103.475 45.7778 105.036 49.3847 105.869 52.8591C109.919 51.8033 114.365 51.9983 118.365 53.406C119.229 48.0522 118.112 43.2076 116.098 41.4403Z"/>
<path fill-rule="evenodd" clip-rule="evenodd" d="M59.8188 32.7886C67.0462 42.2984 77.299 55.7892 67.0944 64.7781C65.6942 66.0114 64.2264 66.6611 62.7721 66.8122C60.8183 67.0151 58.889 66.318 57.1812 64.9272C53.327 61.7882 50.6012 55.1154 51.2685 47.2793C51.5716 43.7193 52.5751 39.9193 54.4911 36.1014C55.4413 34.208 56.616 32.3102 58.0409 30.4351C58.6014 31.1868 59.199 31.973 59.8188 32.7886Z"/>
<path d="M38.9954 49.6913C42.7389 47.7005 47.1059 46.8419 51.2685 47.2793C50.6012 55.1154 53.327 61.7882 57.1812 64.9272C46.7038 63.4175 41.1412 56.381 38.9954 49.6913Z"/>
<path d="M33.0826 54.4944C34.7055 52.5053 36.737 50.8922 38.9954 49.6913C41.1412 56.381 46.7038 63.4175 57.1812 64.9272C58.889 66.318 60.8183 67.0151 62.7721 66.8122C57.4135 68.4943 49.2739 67.5379 33.0826 54.4944Z"/>
<path fill-rule="evenodd" clip-rule="evenodd" d="M62.7721 66.8122C64.2264 66.6611 65.6942 66.0114 67.0944 64.7781C65.8153 65.5222 64.4262 66.2929 62.7721 66.8122Z"/>
<path fill-rule="evenodd" clip-rule="evenodd" d="M62.6922 66.8243C64.1464 66.6732 65.6143 66.0235 67.0145 64.7902C65.7354 65.5344 64.3463 66.305 62.6922 66.8243Z"/>
<path d="M39.365 37.533C42.9818 33.2406 48.9401 32.9865 54.4112 36.1135C52.4951 39.9314 51.4917 43.7314 51.1886 47.2914C47.0259 46.854 42.659 47.7126 38.9154 49.7034C37.259 44.5394 37.6386 39.582 39.365 37.533Z"/>
</mask>
<path d="M92.7612 72.5305L78.1273 75.8245C78.992 79.6659 81.3325 83.0134 84.6436 85.1443L92.7612 72.5305ZM116.017 41.4402L106.123 52.7144V52.7144L116.017 41.4402ZM100.928 42.2899L110.238 54.0513L100.928 42.2899ZM118.284 53.406L133.092 55.7969V55.7969L118.284 53.406ZM97.3393 73.8945L96.6373 58.9109L96.6373 58.9109L97.3393 73.8945ZM105.788 52.8591L120.375 49.3626C119.436 45.444 116.959 42.0682 113.504 39.9955C110.048 37.9229 105.904 37.3277 102.004 38.3442L105.788 52.8591ZM96.6504 37.2191L107.099 26.457C103.719 23.1748 98.9921 21.6718 94.3366 22.3987C89.6811 23.1255 85.6377 25.9976 83.4184 30.1541L96.6504 37.2191ZM92.842 72.5306L84.7244 85.1443C87.1452 86.7022 89.9632 87.5306 92.842 87.5306V72.5306ZM124.93 57.2695L135.984 67.4097C138.684 64.4663 140.099 60.5675 139.914 56.5774C139.73 52.5872 137.962 48.8354 135.002 46.1535L124.93 57.2695ZM101.009 42.2899L110.318 54.0513C116.567 49.1054 117.857 40.1369 113.257 33.63L101.009 42.2899ZM118.365 53.406L123.345 39.2569C119.153 37.7815 114.523 38.2407 110.703 40.5107C106.882 42.7808 104.265 46.628 103.557 51.0151L118.365 53.406ZM97.4201 73.8945L96.7181 58.9109C89.0241 59.2714 82.8537 65.4006 82.4416 73.092C82.0296 80.7834 87.5099 87.5368 95.1213 88.7173L97.4201 73.8945ZM95.245 39.8123L108.412 46.9977L95.245 39.8123ZM105.869 52.8591L120.456 49.3626C119.516 45.4441 117.04 42.0682 113.584 39.9955C110.129 37.9229 105.985 37.3277 102.085 38.3442L105.869 52.8591ZM67.0944 64.7781L77.0093 76.0339C79.964 73.4312 81.7769 69.771 82.0565 65.8434L67.0944 64.7781ZM39.4449 37.5209L50.9158 47.1863L50.9158 47.1863L39.4449 37.5209ZM54.4911 36.1014L47.0478 49.1243L54.4911 36.1014ZM38.9954 49.6913L24.7122 54.2728L24.7122 54.2728L38.9954 49.6913ZM62.7721 66.8122L61.2224 51.8924L61.2224 51.8924L62.7721 66.8122ZM51.2685 47.2793L52.8359 32.3614C48.8284 31.9403 44.82 33.1494 41.7137 35.7161C38.6074 38.2829 36.6645 41.9915 36.3226 46.0066L51.2685 47.2793ZM57.961 30.4472L69.9858 21.4804C67.1691 17.7031 62.7412 15.4688 58.0293 15.4474C53.3175 15.4259 48.8694 17.6197 46.0184 21.3712L57.961 30.4472ZM67.0145 64.7902L69.2607 79.621C72.107 79.1899 74.7692 77.9489 76.9294 76.046L67.0145 64.7902ZM33.0027 54.5065L21.3802 45.024C18.8551 48.119 17.6687 52.0933 18.084 56.066C18.4993 60.0387 20.4819 63.6817 23.5925 66.1876L33.0027 54.5065ZM54.4112 36.1135L41.0047 29.3854C37.4303 36.5078 40.0492 45.182 46.9679 49.1364L54.4112 36.1135ZM38.9154 49.7034L53.1986 45.1218C51.8413 40.8903 48.6775 37.4784 44.5603 35.806C40.4431 34.1337 35.7962 34.373 31.8726 36.4596L38.9154 49.7034ZM62.6922 66.8243L67.1848 81.1357C74.5336 78.8288 78.9408 71.3308 77.3816 63.7878C75.8224 56.2449 68.8037 51.1088 61.1425 51.9045L62.6922 66.8243ZM59.7389 32.8007L47.7964 41.8768L47.7964 41.8768L59.7389 32.8007ZM51.1886 47.2914L52.7559 32.3735C48.7484 31.9524 44.7401 33.1615 41.6338 35.7282C38.5275 38.295 36.5845 42.0036 36.2426 46.0187L51.1886 47.2914ZM110.238 54.0513C110.805 53.6023 110.724 53.9072 109.804 53.9724C109.317 54.007 108.661 53.962 107.929 53.7235C107.184 53.4808 106.567 53.1042 106.123 52.7144L125.911 30.1661C114.478 20.132 100.165 23.7634 91.6184 30.5284L110.238 54.0513ZM106.123 52.7144C104.668 51.438 104.019 50.2119 103.8 49.7517C103.548 49.2238 103.507 48.9513 103.525 49.0389C103.564 49.2323 103.646 49.9621 103.476 51.0151L133.092 55.7969C133.787 51.4961 133.742 47.1267 132.935 43.1174C132.236 39.6467 130.509 34.2015 125.911 30.1661L106.123 52.7144ZM96.6373 58.9109C98.7216 58.8132 100.213 59.4882 100.879 59.9168L84.6436 85.1443C88.4478 87.5925 93.036 89.1125 98.0414 88.878L96.6373 58.9109ZM102.004 38.3442C95.3336 40.0831 88.725 43.9307 83.9989 50.3423C79.1861 56.8713 77.1239 64.9773 77.8069 73.7013L107.715 71.3598C107.614 70.0591 107.744 69.252 107.857 68.824C107.965 68.41 108.09 68.2209 108.147 68.1427C108.239 68.0185 108.582 67.6321 109.572 67.3741L102.004 38.3442ZM107.395 69.2366C105.292 59.8941 108.837 55.1602 110.238 54.0513L91.6184 30.5284C79.9351 39.7761 73.8595 56.8638 78.1273 75.8245L107.395 69.2366ZM91.2014 56.3556C91.638 58.1774 91.5907 59.6772 91.3994 60.6667C91.1852 61.7748 90.909 61.7389 91.4775 61.1125L113.692 81.2744C121.224 72.9756 123.031 60.4421 120.375 49.3626L91.2014 56.3556ZM106.923 85.5524C123.664 80.4944 131.26 67.1455 133.092 55.7969L103.476 51.0151C103.261 52.3429 102.751 53.5562 102.031 54.4713C101.409 55.2601 100.361 56.1958 98.2465 56.8345L106.923 85.5524ZM98.0414 88.878C104.824 88.5602 110.155 85.172 113.692 81.2744L91.4775 61.1125C92.0545 60.4768 93.7794 59.0448 96.6373 58.9109L98.0414 88.878ZM98.2465 56.8345C96.9909 57.2139 95.2112 57.5305 92.7612 57.5305V87.5305C97.8075 87.5305 102.543 86.8757 106.923 85.5524L98.2465 56.8345ZM86.2016 47.9812C87.2401 48.9895 88.0811 49.9881 88.761 50.9497L113.257 33.63C111.49 31.1322 109.44 28.7298 107.099 26.457L86.2016 47.9812ZM113.385 67.5552C114.077 67.7988 114.557 68.1117 114.859 68.3856L135.002 46.1535C131.499 42.98 127.478 40.7117 123.345 39.2569L113.385 67.5552ZM113.877 47.1293C107.423 54.1644 103.267 57.1733 100.956 58.3996C99.0919 59.3884 98.9808 58.9572 99.7189 59.0717L95.1213 88.7173C108.512 90.7939 121.162 83.5656 135.984 67.4097L113.877 47.1293ZM82.078 32.6269C79.4802 37.3873 74.8264 45.6765 72.963 54.106C71.9842 58.5344 71.4831 64.1522 73.1906 69.9953C75.0146 76.2375 78.9917 81.455 84.7244 85.1443L100.959 59.9169C100.856 59.85 101.068 59.9696 101.363 60.3565C101.665 60.7534 101.874 61.1968 101.986 61.5808C102.178 62.2376 101.92 62.1017 102.256 60.581C102.583 59.0998 103.289 57.1332 104.45 54.6354C105.601 52.1598 106.948 49.6804 108.412 46.9977L82.078 32.6269ZM83.4184 30.1541C83.0149 30.9099 82.5758 31.7148 82.078 32.6269L108.412 46.9977C108.896 46.1114 109.403 45.1825 109.882 44.2841L83.4184 30.1541ZM102.085 38.3442C95.4144 40.0831 88.8058 43.9308 84.0797 50.3423C79.2669 56.8713 77.2047 64.9773 77.8877 73.7013L107.796 71.3598C107.694 70.0591 107.825 69.252 107.938 68.8241C108.046 68.4101 108.17 68.2209 108.228 68.1427C108.32 68.0186 108.663 67.6321 109.653 67.3741L102.085 38.3442ZM107.476 69.2366C105.373 59.8942 108.917 55.1603 110.318 54.0513L91.6992 30.5284C80.0159 39.7761 73.9403 56.8639 78.2081 75.8245L107.476 69.2366ZM91.2822 56.3557C91.7188 58.1774 91.6715 59.6772 91.4802 60.6667C91.266 61.7748 90.9898 61.7389 91.5583 61.1125L113.773 81.2744C121.305 72.9756 123.112 60.4421 120.456 49.3626L91.2822 56.3557ZM107.004 85.5524C123.745 80.4944 131.341 67.1455 133.173 55.7969L103.557 51.0151C103.342 52.343 102.832 53.5562 102.111 54.4713C101.49 55.2601 100.441 56.1958 98.3273 56.8345L107.004 85.5524ZM98.1222 88.878C104.904 88.5603 110.236 85.1721 113.773 81.2744L91.5583 61.1125C92.1353 60.4768 93.8602 59.0448 96.7181 58.9109L98.1222 88.878ZM98.3273 56.8345C97.0717 57.2139 95.292 57.5306 92.842 57.5306V87.5306C97.8883 87.5306 102.624 86.8758 107.004 85.5524L98.3273 56.8345ZM61.9344 23.0784C52.471 17.6696 37.7762 16.2224 27.9741 27.8556L50.9158 47.1863C50.535 47.6382 49.9818 48.1029 49.2815 48.4544C48.5934 48.7998 47.9508 48.9427 47.4641 48.9815C46.5449 49.0547 46.4196 48.7653 47.0478 49.1243L61.9344 23.0784ZM27.9741 27.8556C24.032 32.5341 23.1403 38.1764 22.9691 41.7127C22.7714 45.7976 23.3816 50.1245 24.7122 54.2728L53.2786 45.1097C52.9528 44.0941 52.9245 43.3602 52.934 43.1632C52.9384 43.0739 52.9388 43.3495 52.7694 43.909C52.6216 44.3969 52.1627 45.7065 50.9158 47.1863L27.9741 27.8556ZM64.3218 81.7319C69.3058 81.2142 73.6146 79.0242 77.0093 76.0339L57.1795 53.5222C57.7739 52.9986 59.147 52.108 61.2224 51.8924L64.3218 81.7319ZM49.7011 62.1971C50.7183 62.304 51.1157 62.6347 51.2247 62.7438C51.2935 62.8125 51.4445 62.9809 51.614 63.3739C51.7893 63.7802 52.0394 64.5586 52.1335 65.8599L82.0553 63.6962C81.4242 54.9683 78.1714 47.2625 72.4352 41.5278C66.8022 35.8963 59.6919 33.0817 52.8359 32.3614L49.7011 62.1971ZM82.0565 65.8434C83.4368 46.4575 74.8708 30.4722 61.9344 23.0784L47.0478 49.1243C48.5991 50.0109 52.8124 54.1607 52.1323 63.7127L82.0565 65.8434ZM36.3226 46.0066C35.3559 57.3588 39.0189 69.4805 47.7087 76.5578L66.6537 53.2965C67.3097 53.8307 67.0419 53.9076 66.6641 52.844C66.3268 51.8943 66.0554 50.4186 66.2144 48.552L36.3226 46.0066ZM59.3204 50.0805C57.1346 49.7655 55.9575 48.9975 55.2251 48.3106C54.3754 47.5137 53.6894 46.3905 53.2786 45.1097L24.7122 54.2728C28.2233 65.219 37.7327 77.2798 55.042 79.7738L59.3204 50.0805ZM61.2224 51.8924C64.0681 51.5969 65.988 52.7544 66.6537 53.2965L47.7087 76.5578C51.7899 79.8817 57.5685 82.4334 64.3218 81.7319L61.2224 51.8924ZM55.042 79.7738C59.5709 80.4264 64.3512 80.3646 69.3407 79.6089L64.8481 49.9472C62.4257 50.3141 60.6187 50.2675 59.3204 50.0805L55.042 79.7738ZM46.0184 21.3712C44.0442 23.969 42.3769 26.6512 41.0047 29.3854L67.8176 42.8415C68.3459 41.7889 69.0278 40.6756 69.9036 39.5232L46.0184 21.3712ZM31.8726 36.4596C28.0037 38.517 24.3681 41.3618 21.3802 45.024L44.6252 63.989C44.883 63.673 45.3104 63.2917 45.9583 62.9472L31.8726 36.4596ZM23.5925 66.1876C40.666 79.9418 54.2564 85.1941 67.1848 81.1357L58.1995 52.5129C58.9123 52.2891 58.8669 52.7321 56.8763 52.0336C54.4074 51.1673 49.8475 48.8146 42.4129 42.8254L23.5925 66.1876ZM47.7964 41.8768C49.6456 44.3101 51.3491 46.5597 52.8575 48.8351C54.3794 51.1309 55.3716 52.9697 55.9172 54.3851C56.4772 55.8383 56.2421 56.0114 56.3335 55.3332C56.3869 54.9368 56.5273 54.4671 56.7666 54.0294C56.9999 53.6027 57.1923 53.4526 57.0995 53.5343L76.9294 76.046C82.045 71.5399 85.1959 65.7856 86.0646 59.3407C86.8778 53.3077 85.5411 47.8283 83.9101 43.5965C80.8055 35.541 74.9628 28.0422 71.6814 23.7245L47.7964 41.8768ZM45.9362 39.414C46.545 40.2305 47.1854 41.073 47.7964 41.8768L71.6814 23.7245C71.0527 22.8973 70.498 22.1672 69.9858 21.4804L45.9362 39.414ZM49.6212 62.2093C50.6383 62.3161 51.0357 62.6468 51.1448 62.7559C51.2135 62.8246 51.3645 62.993 51.5341 63.386C51.7094 63.7923 51.9594 64.5707 52.0535 65.872L81.9754 63.7083C81.3443 54.9804 78.0914 47.2746 72.3552 41.5399C66.7223 35.9084 59.612 33.0938 52.7559 32.3735L49.6212 62.2093ZM81.9766 65.8555C83.3569 46.4696 74.7909 30.4843 61.8545 23.0905L46.9679 49.1364C48.5191 50.023 52.7325 54.1728 52.0523 63.7248L81.9766 65.8555ZM36.2426 46.0187C35.276 57.3709 38.939 69.4926 47.6288 76.5699L66.5737 53.3086C67.2297 53.8429 66.962 53.9197 66.5842 52.8561C66.2469 51.9064 65.9755 50.4307 66.1345 48.5641L36.2426 46.0187ZM59.2404 50.0926C57.0546 49.7776 55.8775 49.0096 55.1452 48.3227C54.2955 47.5258 53.6095 46.4026 53.1986 45.1218L24.6323 54.2849C28.1434 65.2311 37.6528 77.2919 54.9621 79.7859L59.2404 50.0926ZM61.1425 51.9045C63.9882 51.609 65.9081 52.7665 66.5737 53.3086L47.6288 76.5699C51.71 79.8938 57.4885 82.4455 64.2419 81.744L61.1425 51.9045ZM54.9621 79.7859C59.4909 80.4385 64.2713 80.3767 69.2607 79.621L64.7682 49.9593C62.3458 50.3262 60.5388 50.2796 59.2404 50.0926L54.9621 79.7859ZM64.5455 55.9136L91.1649 42.0786V42.0785L64.5455 55.9136ZM59.9275 54.4542L46.0924 27.8349L46.0924 27.8349L59.9275 54.4542ZM68.3517 62.8622L42.2028 77.5671H42.2028L68.3517 62.8622ZM80.23 90.0019L109.096 81.8323L80.23 90.0019ZM82.2071 97.9561L52.8913 104.327C55.9168 118.25 68.3183 128.124 82.5654 127.954C96.8125 127.784 108.975 117.616 111.667 103.625L82.2071 97.9561ZM92.8881 62.8361L65.39 50.8422L65.39 50.8422L92.8881 62.8361ZM97.3963 61.0662L85.4024 88.5643L85.4024 88.5643L97.3963 61.0662ZM99.1662 65.5744L126.664 77.5683L126.664 77.5683L99.1662 65.5744ZM85.8922 122.446L55.973 120.246C55.8465 121.965 55.8686 123.693 56.0389 125.409L85.8922 122.446ZM88.0819 171.305L58.0826 171.502L88.0819 171.305ZM85.0052 174.735L81.9581 144.89H81.9581L85.0052 174.735ZM81.2989 171.998L110.719 166.128L110.719 166.128L81.2989 171.998ZM79.0181 122.541L108.943 124.659C109.064 122.948 109.039 121.229 108.866 119.522L79.0181 122.541ZM73.6396 91.8671L102.506 83.6975L73.6396 91.8671ZM62.5739 66.5806L36.4191 81.2751H36.4191L62.5739 66.5806ZM58.4681 59.0723L31.8487 72.9074L31.8487 72.9074L58.4681 59.0723ZM66.531 89.3494V59.3494C55.7443 59.3494 45.788 65.1403 40.4546 74.5163L66.531 89.3494ZM72.4761 178.588L50.372 198.871C56.0538 205.063 64.0723 208.588 72.4761 208.588V178.588ZM98.4184 89.3494L124.495 74.5162C119.161 65.1403 109.205 59.3494 98.4184 59.3494V89.3494ZM102.112 118.57L91.1331 146.489H91.1331L102.112 118.57ZM92.4733 178.588V208.588C100.877 208.588 108.896 205.063 114.577 198.871L92.4733 178.588ZM96.5696 37.2191L117.467 15.695C110.706 9.13046 101.253 6.12451 91.942 7.57817C82.631 9.03182 74.5442 14.7761 70.1056 23.0892L96.5696 37.2191ZM92.7612 72.5305L76.5261 97.758C78.169 98.8152 79.9112 99.7095 81.728 100.428L92.7612 72.5305ZM124.849 57.2695L146.956 77.5499C152.357 71.6631 155.186 63.8654 154.817 55.8852C154.449 47.9049 150.912 40.4013 144.992 35.0374L124.849 57.2695ZM100.928 42.2899L76.4325 59.6096V59.6096L100.928 42.2899ZM118.284 53.406L108.324 81.7043L108.324 81.7043L118.284 53.406ZM97.3393 73.8945L101.937 44.2488V44.2488L97.3393 73.8945ZM95.1642 39.8123L121.498 54.1831V54.1831L95.1642 39.8123ZM105.788 52.8591L76.6146 59.8522C78.4932 67.6893 83.446 74.441 90.3573 78.5863C97.2685 82.7316 105.557 83.9219 113.356 81.889L105.788 52.8591ZM92.842 72.5306L103.875 44.6331C89.5208 38.9561 73.2014 45.0984 66.1525 58.8312C59.1036 72.5641 63.6264 89.4044 76.6069 97.758L92.842 72.5306ZM116.098 41.4403L96.3095 63.9885L96.3096 63.9885L116.098 41.4403ZM101.009 42.2899L82.3896 18.7669C69.8926 28.6587 67.3119 46.5959 76.5133 59.6096L101.009 42.2899ZM118.365 53.406L108.405 81.7043C116.788 84.6552 126.049 83.7367 133.69 79.1966C141.33 74.6565 146.565 66.9621 147.981 58.1879L118.365 53.406ZM97.4201 73.8945L98.8242 103.862C114.212 103.141 126.553 90.8821 127.377 75.4993C128.201 60.1165 117.241 46.6097 102.018 44.2489L97.4201 73.8945ZM105.869 52.8591L76.6954 59.8522C78.574 67.6893 83.5268 74.441 90.438 78.5863C97.3493 82.7316 105.638 83.9219 113.436 81.889L105.869 52.8591ZM58.0409 30.4351L82.0906 12.5015C76.4571 4.94686 67.6013 0.478355 58.1776 0.435431C48.7539 0.392506 39.8577 4.78015 34.1557 12.2831L58.0409 30.4351ZM67.0944 64.7781L82.1809 90.7087C83.8695 89.7262 85.4582 88.5812 86.9242 87.2898L67.0944 64.7781ZM33.0826 54.4944L9.8376 35.5294C4.7874 41.7194 2.41463 49.668 3.2452 57.6134C4.07578 65.5589 8.04109 72.8449 14.2623 77.8566L33.0826 54.4944ZM54.4911 36.1014L81.304 49.5575L81.304 49.5575L54.4911 36.1014ZM38.9954 49.6913L53.0811 76.1789L53.0811 76.1789L38.9954 49.6913ZM62.7721 66.8122L53.7869 38.1893L53.7869 38.1894L62.7721 66.8122ZM59.8188 32.7886L35.9338 50.9409L35.9338 50.9409L59.8188 32.7886ZM51.2685 47.2793L48.1337 77.115C56.1487 77.9571 64.1655 75.5391 70.3781 70.4055C76.5906 65.272 80.4765 57.8547 81.1603 49.8247L51.2685 47.2793ZM67.0145 64.7902L86.8443 87.3019C98.4275 77.0986 100.377 59.7709 91.3515 47.2485C82.3256 34.7261 65.2704 31.0969 51.928 38.8595L67.0145 64.7902ZM39.365 37.533L62.3068 56.8637L62.3068 56.8637L39.365 37.533ZM54.4112 36.1135L81.2241 49.5696C88.3729 35.3247 83.1352 17.9764 69.2978 10.0676L54.4112 36.1135ZM38.9154 49.7034L10.3491 58.8664C13.0637 67.3295 19.3912 74.1533 27.6257 77.498C35.8602 80.8427 45.1539 80.364 53.0012 76.191L38.9154 49.7034ZM62.6922 66.8243L53.7069 38.2015C39.0093 42.8153 30.1949 57.8112 33.3132 72.8971C36.4316 87.983 50.4691 98.2553 65.7915 96.6637L62.6922 66.8243ZM51.1886 47.2914L48.0538 77.1271C56.0688 77.9693 64.0855 75.5512 70.2981 70.4176C76.5107 65.2841 80.3966 57.8668 81.0804 49.8368L51.1886 47.2914ZM91.1649 42.0785C82.6517 25.6988 62.4721 19.3217 46.0924 27.8349L73.7625 81.0736C60.7393 87.8422 44.6948 82.7719 37.9262 69.7487L91.1649 42.0785ZM94.5006 48.1573C93.1731 45.7966 92.1363 43.9475 91.1649 42.0786L37.9262 69.7487C39.4269 72.6362 40.9474 75.3348 42.2028 77.5671L94.5006 48.1573ZM109.096 81.8323C104.649 66.1196 98.8642 55.9167 94.5006 48.1573L42.2028 77.5671C46.1564 84.5975 48.9538 89.6562 51.3638 98.1716L109.096 81.8323ZM111.523 91.5857C110.777 88.1518 109.968 84.912 109.096 81.8323L51.3638 98.1716C51.8809 99.9985 52.3935 102.036 52.8913 104.327L111.523 91.5857ZM65.39 50.8422C59.3447 64.7022 55.3375 78.8271 52.7475 92.2877L111.667 103.625C113.572 93.7222 116.407 83.9539 120.386 74.83L65.39 50.8422ZM109.39 33.5681C92.4697 26.1879 72.7702 33.9218 65.39 50.8422L120.386 74.83C114.518 88.2831 98.8556 94.4322 85.4024 88.5643L109.39 33.5681ZM126.664 77.5683C134.044 60.6478 126.311 40.9483 109.39 33.5681L85.4024 88.5643C71.9493 82.6965 65.8002 67.0337 71.668 53.5805L126.664 77.5683ZM115.811 124.646C116.964 108.979 120.202 92.3852 126.664 77.5683L71.668 53.5805C61.7579 76.3013 57.4653 99.953 55.973 120.246L115.811 124.646ZM118.081 171.108C117.945 150.372 117.138 133.508 115.746 119.483L56.0389 125.409C57.198 137.088 57.9546 152.021 58.0826 171.502L118.081 171.108ZM88.0523 204.58C105.193 202.83 118.194 188.337 118.081 171.108L58.0826 171.502C57.9926 157.804 68.3301 146.281 81.9581 144.89L88.0523 204.58ZM51.8787 177.867C55.2496 194.764 70.9118 206.33 88.0523 204.58L81.9581 144.89C95.5862 143.499 108.039 152.694 110.719 166.128L51.8787 177.867ZM49.093 120.423C47.4139 144.143 49.3253 165.069 51.8787 177.867L110.719 166.128C109.265 158.841 107.624 143.299 108.943 124.659L49.093 120.423ZM44.7734 100.037C46.3556 105.627 47.9585 113.578 49.1704 125.56L108.866 119.522C107.395 104.983 105.266 93.45 102.506 83.6975L44.7734 100.037ZM36.4191 81.2751C40.27 88.1293 42.5966 92.3456 44.7734 100.037L102.506 83.6975C98.3057 68.8573 93.0263 59.5355 88.7287 51.8862L36.4191 81.2751ZM31.8487 72.9074C33.4967 76.0782 35.1013 78.9296 36.4191 81.2751L88.7287 51.8862C87.36 49.4501 86.2192 47.4148 85.0875 45.2372L31.8487 72.9074ZM46.0924 27.8349C29.7127 36.348 23.3356 56.5277 31.8487 72.9074L85.0875 45.2372C91.8561 58.2604 86.7858 74.3049 73.7625 81.0736L46.0924 27.8349ZM40.4546 74.5163C38.1441 78.578 34.4954 86.4895 35.7713 96.5843C37.2082 107.953 43.8858 115.078 48.4875 118.645C52.2686 121.577 56.3375 123.368 56.7012 123.539C58.2554 124.274 57.0746 123.782 55.757 122.897L89.1951 73.0786C86.031 70.9548 82.7671 69.4951 82.3396 69.2931C80.7216 68.5284 82.9101 69.4129 85.25 71.227C88.4104 73.6772 94.086 79.474 95.2977 89.0605C96.3484 97.3736 93.2514 103.05 92.6073 104.183L40.4546 74.5163ZM55.757 122.897C50.2451 119.198 47.4186 114.482 46.064 111.366C44.7006 108.229 44.3048 105.582 44.1799 104.006C43.9333 100.894 44.4843 98.8089 44.849 97.7559C45.5993 95.5896 47.6042 92.324 51.8593 90.6508L73.8163 146.489C89.1509 140.459 97.8215 128.142 101.544 117.393C103.395 112.049 104.509 105.791 103.993 99.2675C103.603 94.3511 101.573 81.3865 89.1951 73.0786L55.757 122.897ZM51.8593 90.6508C33.9081 97.7097 29.2609 114.971 27.9709 121.738C26.2854 130.579 26.6699 139.914 27.8776 148.108C30.2115 163.944 37.0036 184.303 50.372 198.871L94.5802 158.305C93.6572 157.299 92.0585 154.981 90.4607 151.103C88.9174 147.359 87.7998 143.182 87.2364 139.36C86.9599 137.484 86.8473 135.897 86.8373 134.673C86.8268 133.396 86.9307 132.863 86.9094 132.974C86.8939 133.056 86.8144 133.454 86.5921 134.094C86.3739 134.722 85.9493 135.78 85.1741 137.078C83.6173 139.684 80.134 144.005 73.8163 146.489L51.8593 90.6508ZM72.342 104.183C71.698 103.05 68.6009 97.3736 69.6517 89.0605C70.8634 79.474 76.5389 73.6772 79.6993 71.227C82.0392 69.4129 84.2277 68.5284 82.6097 69.2931C82.1823 69.4951 78.9184 70.9548 75.7542 73.0786L109.192 122.897C107.875 123.782 106.694 124.274 108.248 123.539C108.612 123.368 112.681 121.577 116.462 118.646C121.064 115.078 127.741 107.953 129.178 96.5843C130.454 86.4895 126.805 78.578 124.495 74.5162L72.342 104.183ZM75.7542 73.0786C63.3764 81.3865 61.3464 94.3511 60.9569 99.2675C60.44 105.791 61.554 112.049 63.405 117.393C67.1279 128.142 75.7985 140.459 91.1331 146.489L113.09 90.6508C117.345 92.324 119.35 95.5896 120.1 97.7559C120.465 98.8089 121.016 100.894 120.769 104.006C120.645 105.582 120.249 108.229 118.885 111.366C117.531 114.482 114.704 119.198 109.192 122.897L75.7542 73.0786ZM91.1331 146.489C84.8153 144.005 81.332 139.684 79.7753 137.078C79 135.78 78.5755 134.722 78.3572 134.094C78.1349 133.454 78.0555 133.056 78.04 132.974C78.0186 132.863 78.1225 133.396 78.1121 134.673C78.102 135.897 77.9894 137.484 77.713 139.36C77.1496 143.182 76.032 147.359 74.4886 151.103C72.8908 154.981 71.2922 157.299 70.3692 158.305L114.577 198.871C127.946 184.303 134.738 163.944 137.072 148.108C138.279 139.914 138.664 130.579 136.978 121.738C135.688 114.971 131.041 97.7097 113.09 90.6508L91.1331 146.489ZM72.4761 208.588H92.4733V148.588H72.4761V208.588ZM66.531 119.349H98.4184V59.3494H66.531V119.349ZM75.672 58.7433C76.0593 59.1193 76.2957 59.416 76.4325 59.6096L125.423 24.9701C123.114 21.7042 120.459 18.6 117.467 15.695L75.672 58.7433ZM108.324 81.7043C107.295 81.3423 106.005 80.6776 104.707 79.5016L144.992 35.0374C139.889 30.4142 134.098 27.1682 128.244 25.1077L108.324 81.7043ZM102.743 36.9891C99.9101 40.0768 97.7354 42.1186 96.162 43.4337C94.5798 44.7563 93.8251 45.1594 93.8445 45.1491C93.9179 45.1101 94.8616 44.6257 96.5589 44.3125C98.3531 43.9814 100.222 43.9828 101.937 44.2488L92.7417 103.54C113.972 106.833 131.369 94.5407 146.956 77.5499L102.743 36.9891ZM68.8302 25.4415C66.4955 29.7198 60.6474 39.9584 58.2358 50.8685C56.9355 56.7507 56.0547 65.1094 58.7119 74.2026C61.6022 84.0938 67.9195 92.2192 76.5261 97.758L108.996 47.3031C110.218 48.0893 111.767 49.3659 113.218 51.2711C114.683 53.1965 115.7 55.309 116.303 57.3734C116.887 59.3712 116.998 61.0227 116.985 62.0861C116.972 63.1247 116.839 63.7382 116.822 63.8185C116.819 63.8307 117.037 62.9697 117.972 60.9578C118.886 58.9905 120.001 56.9273 121.498 54.1831L68.8302 25.4415ZM128.244 25.1077C118.687 21.7436 108.138 21.244 98.2208 23.8292L113.356 81.889C112.374 82.1448 111.5 82.2132 110.743 82.18C109.985 82.1468 109.177 82.0046 108.324 81.7043L128.244 25.1077ZM134.962 45.8661C133.24 38.6849 130.092 31.573 125.423 24.9701L76.4325 59.6096C76.571 59.8055 76.6286 59.9253 76.6433 59.9579C76.6592 59.9929 76.6403 59.9597 76.6146 59.8522L134.962 45.8661ZM70.1056 23.0892C69.7402 23.7736 69.335 24.5166 68.8302 25.4415L121.498 54.1831C121.975 53.3096 122.516 52.3189 123.034 51.3491L70.1056 23.0892ZM81.728 100.428C83.3655 101.076 87.4952 102.726 92.7417 103.54L101.937 44.2488C102.909 44.3996 103.621 44.6029 103.966 44.7121C104.252 44.8024 104.335 44.8467 103.794 44.6331L81.728 100.428ZM119.628 65.8128C118.292 66.8702 115.413 68.618 110.946 68.9348C106.009 69.285 100.542 67.7032 96.3095 63.9885L135.886 18.892C117.238 2.52615 94.542 9.14799 82.3896 18.7669L119.628 65.8128ZM96.3096 63.9885C92.8973 60.9939 91.1502 57.9075 90.3374 56.2007C89.4602 54.3586 89.0771 52.875 88.9009 51.9996C88.5557 50.2851 88.6562 49.195 88.7484 48.6242L147.981 58.1879C148.938 52.2632 148.912 46.0739 147.72 40.1567C146.746 35.3166 144.076 26.0792 135.886 18.892L96.3096 63.9885ZM96.0161 43.9273C101.645 43.6636 106.176 45.4361 109.077 47.3032L76.6069 97.758C82.6463 101.645 90.2741 104.262 98.8242 103.862L96.0161 43.9273ZM128.325 25.1077C118.767 21.7437 108.219 21.244 98.3016 23.8292L113.436 81.889C112.455 82.1448 111.581 82.2132 110.824 82.1801C110.065 82.1469 109.258 82.0046 108.405 81.7043L128.325 25.1077ZM135.043 45.8661C133.321 38.685 130.173 31.573 125.504 24.9702L76.5133 59.6096C76.6518 59.8055 76.7094 59.9253 76.7241 59.9579C76.74 59.9929 76.7211 59.9597 76.6954 59.8522L135.043 45.8661ZM81.8088 100.428C83.4463 101.076 87.576 102.726 92.8225 103.54L102.018 44.2489C102.99 44.3996 103.701 44.6029 104.047 44.7122C104.332 44.8024 104.415 44.8468 103.875 44.6331L81.8088 100.428ZM34.1557 12.2831C31.6323 15.6035 29.4723 19.0703 27.6782 22.6452L81.304 49.5575C81.4103 49.3457 81.5996 49.0169 81.9262 48.5871L34.1557 12.2831ZM24.9097 23.2037C19.4303 26.1175 14.1905 30.1941 9.8376 35.5294L56.3276 73.4593C55.2204 74.8164 54.0436 75.667 53.0811 76.1789L24.9097 23.2037ZM14.2623 77.8566C32.218 92.3216 51.2592 101.87 71.7573 95.435L53.7869 38.1894C55.443 37.6695 57.2903 37.3883 59.1138 37.4469C60.8389 37.5024 61.8444 37.8401 61.9228 37.8676C61.9436 37.8749 61.137 37.5893 59.3746 36.5186C57.622 35.454 55.1661 33.7608 51.903 31.1321L14.2623 77.8566ZM35.9338 50.9409C37.8254 53.4299 39.2364 55.3029 40.4351 57.1111C41.661 58.9603 42.0051 59.779 42.0006 59.7674C41.9711 59.6906 41.748 59.1039 41.5796 58.0789C41.4071 57.0295 41.2698 55.38 41.5479 53.3174C41.8352 51.1859 42.5243 48.9449 43.6851 46.8217C44.8337 44.7208 46.1745 43.2266 47.2646 42.2663L86.9242 87.2898C94.6043 80.5247 99.6336 71.5448 101.01 61.3323C102.276 51.9438 100.153 43.8113 97.9865 38.19C93.9683 27.7641 86.6529 18.5167 83.7038 14.6363L35.9338 50.9409ZM53.0811 76.1789C52.2824 76.6036 51.5053 76.8651 50.7606 77.0115C50.017 77.1576 49.142 77.221 48.1337 77.115L54.4033 17.4435C44.2104 16.3725 33.8558 18.4462 24.9097 23.2037L53.0811 76.1789ZM81.1603 49.8247C81.1509 49.9348 81.1373 49.9705 81.1477 49.9335C81.1574 49.899 81.1964 49.772 81.304 49.5575L27.6782 22.6452C24.051 29.8727 22.0032 37.3759 21.3767 44.7338L81.1603 49.8247ZM33.9913 48.3688C34.6485 49.2501 35.3317 50.1487 35.9338 50.9409L83.7038 14.6363C83.0663 13.7974 82.5544 13.1234 82.0906 12.5015L33.9913 48.3688ZM52.0079 38.8474C51.5058 39.1396 51.5811 39.0833 51.8499 38.9513C52.1753 38.7915 52.8483 38.484 53.7869 38.1893L71.7573 95.435C76.8228 93.8448 80.6588 91.5943 82.1809 90.7087L52.0079 38.8474ZM69.2978 10.0676C55.842 2.3769 32.4106 -0.771572 16.4232 18.2024L62.3068 56.8637C58.6781 61.1703 53.5095 63.553 48.5757 63.9462C44.1116 64.3019 41.0038 63.0048 39.5246 62.1594L69.2978 10.0676ZM16.4232 18.2024C9.40225 26.5349 8.14547 36.068 7.90675 40.9995C7.6149 47.0284 8.51601 53.1518 10.3491 58.8664L67.4818 40.5403C67.6585 41.091 67.9211 42.1537 67.8366 43.9006C67.7934 44.7925 67.6368 46.3167 67.0453 48.2694C66.4973 50.0786 65.2322 53.3919 62.3068 56.8637L16.4232 18.2024ZM65.7915 96.6637C74.3053 95.7794 81.4551 92.0491 86.8443 87.3019L47.1846 42.2784C49.7735 39.998 53.9876 37.567 59.5928 36.9848L65.7915 96.6637ZM53.0012 76.191C52.2025 76.6157 51.4254 76.8772 50.6806 77.0236C49.9371 77.1698 49.0621 77.2331 48.0538 77.1271L54.3233 17.4556C44.1305 16.3847 33.7759 18.4583 24.8297 23.2158L53.0012 76.191ZM81.0804 49.8368C81.071 49.9469 81.0573 49.9826 81.0678 49.9456C81.0775 49.9111 81.1164 49.7841 81.2241 49.5696L27.5983 22.6573C23.9711 29.8848 21.9233 37.388 21.2967 44.746L81.0804 49.8368ZM51.928 38.8595C51.4258 39.1517 51.5012 39.0954 51.7699 38.9634C52.0954 38.8036 52.7683 38.4961 53.7069 38.2015L71.6774 95.4471C76.7429 93.8569 80.5789 91.6063 82.1009 90.7208L51.928 38.8595Z" fill="black" mask="url(#path-20-outside-1_26_553)"/>
</g>
<path fill-rule="evenodd" clip-rule="evenodd" d="M59.9273 54.4542C61.6055 53.582 63.6731 54.2354 64.5454 55.9136C65.7814 58.2919 67.0601 60.5657 68.3516 62.8622C72.5101 70.2571 76.8013 77.888 80.2298 90.0019C80.9242 92.4553 81.5849 95.0938 82.2069 97.9561C84.4546 86.2746 87.8755 74.3281 92.8879 62.8361C93.6441 61.1025 95.6625 60.3101 97.3961 61.0662C99.1298 61.8224 99.9222 63.8408 99.166 65.5744C90.9796 84.3433 87.2142 104.466 85.892 122.446C87.1676 135.298 87.9497 151.197 88.0817 171.305C88.0933 173.071 86.7612 174.556 85.005 174.735C83.2488 174.914 81.6441 173.729 81.2987 171.998C79.2951 161.955 77.5187 143.721 79.018 122.541C77.6767 109.281 75.8106 99.5386 73.6394 91.8672C70.451 80.6014 66.648 73.8324 62.5738 66.5807C61.2305 64.1898 59.8578 61.7465 58.4679 59.0723C57.5957 57.3941 58.2491 55.3265 59.9273 54.4542Z" fill="#164230"/>
<path opacity="0.6" d="M72.476 97.9879C68.7828 95.5091 63.198 95.2086 66.5308 89.3495H98.4183C101.751 95.2086 96.1663 95.5091 92.4731 97.9879C88.78 100.467 91.0319 114.213 102.111 118.57C113.191 122.927 108.327 161.311 92.4731 178.588H72.476C56.6223 161.311 51.7581 122.927 62.8376 118.57C73.9172 114.213 76.1691 100.467 72.476 97.9879Z" fill="#8AB7E2"/>
<path fill-rule="evenodd" clip-rule="evenodd" d="M95.1642 39.8123C89.4425 50.2972 81.3255 65.1712 92.7611 72.5306C94.3302 73.5403 95.8788 73.9629 97.3393 73.8945C99.3015 73.8025 101.105 72.8244 102.585 71.1935C105.926 67.5127 107.621 60.507 105.788 52.8591C104.955 49.3847 103.394 45.7778 100.928 42.2899C99.7049 40.5601 98.2593 38.8597 96.5696 37.2191C96.128 38.0462 95.6549 38.9131 95.1642 39.8123Z" fill="#BF0603"/>
<path d="M118.284 53.406C114.285 51.9983 109.838 51.8033 105.788 52.8591C107.621 60.507 105.926 67.5127 102.585 71.1935C112.718 68.1318 117.164 60.3416 118.284 53.406Z" fill="#E13B38"/>
<path d="M124.849 57.2695C122.947 55.5459 120.697 54.2553 118.284 53.406C117.164 60.3416 112.718 68.1318 102.585 71.1935C101.105 72.8244 99.3015 73.8025 97.3393 73.8945C102.889 74.7552 110.794 72.5906 124.849 57.2695Z" fill="#E13B38"/>
<path fill-rule="evenodd" clip-rule="evenodd" d="M97.3393 73.8945C95.8788 73.9629 94.3302 73.5403 92.7611 72.5306C94.1373 73.0748 95.6261 73.6288 97.3393 73.8945Z" fill="#E13B38"/>
<path fill-rule="evenodd" clip-rule="evenodd" d="M97.4201 73.8945C95.9596 73.9629 94.411 73.5403 92.842 72.5306C94.2181 73.0748 95.7069 73.6288 97.4201 73.8945Z" fill="#640C0A"/>
<path d="M116.098 41.4403C111.879 37.7378 105.95 38.3788 101.009 42.2899C103.475 45.7778 105.036 49.3847 105.869 52.8591C109.919 51.8033 114.365 51.9983 118.365 53.406C119.229 48.0522 118.112 43.2076 116.098 41.4403Z" fill="#640C0A"/>
<path fill-rule="evenodd" clip-rule="evenodd" d="M59.8188 32.7886C67.0461 42.2985 77.2989 55.7892 67.0944 64.7781C65.6942 66.0115 64.2263 66.6611 62.772 66.8122C60.8182 67.0151 58.8889 66.3181 57.1812 64.9272C53.327 61.7882 50.6012 55.1155 51.2684 47.2793C51.5716 43.7194 52.575 39.9193 54.4911 36.1014C55.4413 34.208 56.6159 32.3102 58.0409 30.4351C58.6014 31.1868 59.199 31.9731 59.8188 32.7886Z" fill="#BF0603"/>
<path d="M38.9953 49.6913C42.7389 47.7005 47.1058 46.8419 51.2684 47.2793C50.6012 55.1155 53.327 61.7882 57.1812 64.9272C46.7037 63.4175 41.1412 56.381 38.9953 49.6913Z" fill="#E13B38"/>
<path d="M33.0826 54.4944C34.7054 52.5053 36.7369 50.8923 38.9953 49.6913C41.1412 56.381 46.7037 63.4175 57.1812 64.9272C58.8889 66.3181 60.8182 67.0151 62.772 66.8122C57.4135 68.4943 49.2738 67.5379 33.0826 54.4944Z" fill="#E13B38"/>
<path fill-rule="evenodd" clip-rule="evenodd" d="M62.772 66.8122C64.2263 66.6611 65.6942 66.0115 67.0944 64.7781C65.8152 65.5223 64.4261 66.2929 62.772 66.8122Z" fill="#E13B38"/>
<path fill-rule="evenodd" clip-rule="evenodd" d="M62.6922 66.8243C64.1465 66.6732 65.6143 66.0235 67.0145 64.7902C65.7354 65.5344 64.3463 66.305 62.6922 66.8243Z" fill="#640C0A"/>
<path d="M39.3651 37.533C42.9819 33.2406 48.9402 32.9865 54.4112 36.1135C52.4952 39.9314 51.4918 43.7314 51.1886 47.2914C47.026 46.854 42.659 47.7126 38.9155 49.7034C37.2591 44.5394 37.6386 39.582 39.3651 37.533Z" fill="#640C0A"/>
</svg>
