<svg width="132" height="415" viewBox="0 0 132 415" fill="none" xmlns="http://www.w3.org/2000/svg">
<path d="M65.9719 260.661H28.3911L29.8943 367.09L33.1158 383.625H53.5598L55.4493 370.096L65.9719 260.661Z" fill="black"/>
<path d="M65.3706 260.661H102.951L101.448 367.09L98.2268 383.625H77.7828L75.8932 370.096L65.3706 260.661Z" fill="black"/>
<path fill-rule="evenodd" clip-rule="evenodd" d="M114.827 352.887L107.162 269.063V352.887H114.827Z" fill="#BB462F"/>
<mask id="mask0_38_661" style="mask-type:luminance" maskUnits="userSpaceOnUse" x="107" y="269" width="8" height="84">
<path fill-rule="evenodd" clip-rule="evenodd" d="M114.827 352.887L107.162 269.063V352.887H114.827Z" fill="white"/>
</mask>
<g mask="url(#mask0_38_661)">
</g>
<path fill-rule="evenodd" clip-rule="evenodd" d="M111.728 360.175L108.466 271.695H99.0071L106.02 367.261L111.728 360.175Z" fill="#BB462F"/>
<mask id="mask1_38_661" style="mask-type:luminance" maskUnits="userSpaceOnUse" x="99" y="271" width="13" height="97">
<path fill-rule="evenodd" clip-rule="evenodd" d="M111.728 360.175L108.466 271.695H99.0071L106.02 367.261L111.728 360.175Z" fill="white"/>
</mask>
<g mask="url(#mask1_38_661)">
</g>
<path fill-rule="evenodd" clip-rule="evenodd" d="M13.0581 320.086L22.8436 265.621L33.7706 267.849L24.3114 345.395L13.0581 320.086Z" fill="#BB462F"/>
<mask id="mask2_38_661" style="mask-type:luminance" maskUnits="userSpaceOnUse" x="13" y="265" width="21" height="81">
<path fill-rule="evenodd" clip-rule="evenodd" d="M13.0581 320.086L22.8436 265.621L33.7706 267.849L24.3114 345.395L13.0581 320.086Z" fill="white"/>
</mask>
<g mask="url(#mask2_38_661)">
</g>
<mask id="mask3_38_661" style="mask-type:luminance" maskUnits="userSpaceOnUse" x="17" y="267" width="45" height="123">
<path fill-rule="evenodd" clip-rule="evenodd" d="M17.7878 321.1L22.3544 267.849H57.7452C57.854 278.985 58.0061 301.903 57.7452 304.495C57.4842 307.087 60.2459 324.338 61.6593 332.639H55.2988L37.3589 359.366L40.4574 363.819L22.3544 389.939L17.7878 321.1Z" fill="white"/>
</mask>
<g mask="url(#mask3_38_661)">
<rect x="-86.9167" y="250.841" width="189.186" height="176.15" fill="#EA5E42"/>
</g>
<mask id="mask4_38_661" style="mask-type:luminance" maskUnits="userSpaceOnUse" x="64" y="267" width="46" height="120">
<path fill-rule="evenodd" clip-rule="evenodd" d="M64.1055 317.05L71.4446 267.849L103.084 274.733L109.445 366.858L103.084 386.902L97.3759 346.204L80.9038 332.437L78.9469 322.314L64.1055 317.05Z" fill="white"/>
</mask>
<g mask="url(#mask4_38_661)">
<rect x="48.2336" y="265.772" width="163.417" height="152.258" fill="#EA5E42"/>
</g>
<path d="M36.8982 383.37C35.797 381.671 34.1624 381.587 32.8383 380.613C32.1886 381.539 32.2373 382.895 31.6493 384.708L27.8265 389.428L21.1807 396.547L14.8467 399.98L18.6669 404.388C21.2255 402.392 35.7456 386.932 36.8982 383.37Z" fill="#010101"/>
<path d="M59.3472 406.7C59.3472 406.7 59.4903 398.979 57.8106 394.719C56.1312 390.459 54.3429 379.449 54.3429 379.449C54.3429 379.449 51.4567 382.597 46.031 382.645L35.8063 382.735C35.8063 382.735 26.9041 395.161 24.2877 396.829C21.6714 398.495 6.85164 401.73 6.85164 401.73C4.03677 401.757 1.77471 404.057 1.79927 406.874L1.82191 409.466L32.7318 409.195L59.3472 406.7Z" fill="black"/>
<path d="M28.1116 400.792C26.8636 398.297 26.1452 395.88 26.4041 394.74L20.506 397.69L7.62318 401.881C7.62318 401.568 6.04001 401.787 4.05324 402.656C2.06651 403.525 1.77672 405.813 1.8802 406.847L30.5949 407.933L34.0097 407.779C32.3023 407.001 29.819 404.208 28.1116 400.792Z" fill="#1C1622"/>
<path d="M46.5818 395.05C42.981 395.919 35.4585 391.998 32.1475 389.93L35.7573 382.723C39.2238 382.723 46.6004 382.645 48.8355 382.272C51.0705 381.899 53.5177 380.192 54.3971 379.416L55.2738 384.341L56.5155 390.393C54.7047 391.583 50.183 394.181 46.5818 395.05Z" fill="black"/>
<path d="M32.4504 389.464C33.2159 388.267 34.7768 385.685 34.8944 384.939C42.0447 386.121 51.6663 385.88 55.2226 384.296C56.1781 387.083 56.6678 390.859 56.6678 390.859C56.0578 392.106 49.2136 394.563 46.579 395.05C45.1726 393.976 44.1288 393.706 43.0368 393.096C41.3237 392.137 35.6078 389.641 32.4504 389.464Z" fill="#2C407F"/>
<path d="M47.8551 400.483C48.9681 399.845 55.2744 397.07 58.1892 395.871C59.5974 396.878 59.4203 402.945 59.4507 406.441L45.4658 407.199C46.2379 404.544 47.4844 400.852 47.8551 400.483Z" fill="#192D6A"/>
<path d="M41.0854 399.995C39.6272 400.389 38.4553 400.326 37.796 399.809C36.0976 398.456 37.2121 396.424 37.6842 395.624C36.8387 396.598 35.9984 397.575 35.3397 398.643C34.3013 400.311 33.85 402.145 34.5292 403.327C35.7462 405.461 38.7289 404.502 40.632 403.66L58.2926 395.853L41.0854 399.995Z" fill="#2C407F"/>
<path d="M14.715 402.656C10.8388 403.155 5.87347 403.354 4.9314 402.121L11.2787 400.203L19.6315 396.869L21.8139 397.939L21.5116 398.871C21.5116 398.871 24.0763 401.727 23.9211 402.966C23.7659 404.208 22.4583 404.83 20.972 404.364C19.4857 403.898 18.6559 402.148 14.715 402.656Z" fill="#2C407F"/>
<path d="M34.32 388.376C32.7058 390.612 28.3702 395.206 26.4041 397.224L25.7832 395.05C27.0249 393.655 29.0894 390.751 30.7967 388.887C32.5829 386.938 34.3717 384.756 35.7168 382.79H37.4242C37.1656 383.926 35.9342 386.142 34.32 388.376Z" fill="#1C1622"/>
<path d="M33.4794 385.032L31.8294 384.388C31.3378 384.197 30.7839 384.44 30.5921 384.931C30.4004 385.423 30.6436 385.977 31.1352 386.169L32.7851 386.812C33.2768 387.004 33.8307 386.761 34.0224 386.269C34.2141 385.777 33.971 385.223 33.4794 385.032Z" fill="#2B2A2A"/>
<path d="M31.0201 387.849L29.3702 387.206C28.8786 387.014 28.3246 387.257 28.1329 387.749C27.9412 388.24 28.1843 388.794 28.676 388.986L30.3259 389.629C30.8175 389.821 31.3715 389.578 31.5632 389.086C31.7549 388.595 31.5118 388.041 31.0201 387.849Z" fill="#2B2A2A"/>
<path d="M28.8717 390.66L27.2217 390.016C26.7301 389.825 26.1762 390.068 25.9845 390.56C25.7928 391.051 26.0359 391.605 26.5275 391.797L28.1775 392.44C28.6691 392.632 29.223 392.389 29.4147 391.897C29.6064 391.405 29.3633 390.852 28.8717 390.66Z" fill="#2B2A2A"/>
<path d="M26.4132 393.477L24.7633 392.834C24.2716 392.642 23.7177 392.886 23.526 393.377C23.3343 393.869 23.5774 394.423 24.069 394.614L25.7189 395.258C26.2106 395.449 26.7645 395.206 26.9562 394.715C27.1479 394.223 26.9048 393.669 26.4132 393.477Z" fill="#2B2A2A"/>
<path d="M22.7122 396.303L21.0623 395.66C20.5707 395.468 20.0168 395.711 19.8251 396.203C19.6334 396.694 19.8765 397.248 20.3681 397.44L22.018 398.083C22.5096 398.275 23.0636 398.032 23.2553 397.54C23.447 397.049 23.2039 396.495 22.7122 396.303Z" fill="#2B2A2A"/>
<path d="M59.7212 406.375L30.6313 407.944L1.68288 406.883L1.25203 410.737C1.12762 411.85 1.98308 412.833 3.10287 412.86L30.0766 413.539L45.0948 413.572L60.1073 412.95L59.7212 406.375Z" fill="#E7E5DD"/>
<path d="M59.9714 412.662C55.3471 412.857 43.731 413.422 38.6657 413.467C35.0312 413.501 4.11229 413.007 1 412.103" stroke="#536E83" stroke-width="1.5"/>
<path d="M48.7558 390.395C46.7691 390.269 45.7551 389.412 45.4962 388.997C45.2894 390.083 45.6516 392.286 48.7558 392.413C51.86 392.536 52.7397 390.188 52.7914 388.997C52.274 389.514 50.7425 390.519 48.7558 390.395Z" fill="black"/>
<path d="M46.7379 388.841C46.6137 389.71 46.9964 390.549 47.2036 390.859C49.0661 392.257 51.084 390.859 51.084 389.464C51.084 388.066 50.1526 387.756 49.2212 387.756C48.2901 387.756 46.893 387.756 46.7379 388.841Z" fill="black"/>
<path d="M94.5947 383.556C95.6623 381.845 97.2894 381.731 98.5912 380.736C99.2548 381.65 99.2298 383 99.847 384.798L103.738 389.431L110.482 396.409L116.852 399.722L113.123 404.178C110.539 402.232 95.8051 387.083 94.5947 383.556Z" fill="#010101"/>
<path d="M72.6348 407.187C72.6348 407.187 72.3579 399.499 73.957 395.224C75.5562 390.952 77.1463 379.951 77.1463 379.951C77.1463 379.951 80.0764 383.039 85.4826 382.99L95.6703 382.903C95.6703 382.903 104.755 395.131 107.391 396.745C110.027 398.36 124.847 401.327 124.847 401.327C127.652 401.3 129.945 403.555 129.97 406.36L129.992 408.942L99.1936 409.213L72.6348 407.187Z" fill="#010101"/>
<path d="M103.651 400.762C104.851 398.252 105.525 395.828 105.247 394.701L111.174 397.536L124.082 401.487C124.076 401.177 125.657 401.366 127.652 402.199C129.646 403.029 129.975 405.302 129.889 406.336L101.302 407.917L97.8967 407.821C99.5843 407.018 102.01 404.192 103.651 400.762Z" fill="#1C1622"/>
<path d="M85.1507 395.359C88.753 396.165 96.179 392.127 99.4416 390.008L95.7358 382.873C92.2823 382.934 84.8909 382.903 82.6577 382.573C80.4245 382.239 77.9853 380.625 77.0957 379.867L76.3047 384.843L75.1731 390.895C76.9977 392.049 81.548 394.557 85.1507 395.359Z" fill="black"/>
<path d="M99.1316 389.548C98.3481 388.37 96.7484 385.826 96.6182 385.083C89.5151 386.382 79.9254 386.313 76.3552 384.798C75.4515 387.588 75.0291 391.361 75.0291 391.361C75.6586 392.594 82.52 394.921 85.153 395.36C86.5354 394.265 87.5708 393.98 88.648 393.351C90.338 392.365 95.9889 389.783 99.1316 389.548Z" fill="#2C407F"/>
<path d="M83.9757 400.795C82.8558 400.179 76.5248 397.521 73.6001 396.382C72.215 397.407 72.4967 403.447 72.5274 406.931L86.4729 407.445C85.6576 404.812 84.3515 401.156 83.9757 400.795Z" fill="#192D6A"/>
<path d="M90.7122 400.191C92.1719 400.558 93.3381 400.476 93.986 399.947C95.6546 398.573 94.5088 396.565 94.0248 395.777C94.884 396.733 95.7381 397.692 96.4128 398.745C97.4765 400.386 97.9578 402.208 97.3018 403.396C96.1263 405.545 93.1384 404.64 91.2278 403.835L73.4978 396.364L90.7122 400.191Z" fill="#2C407F"/>
<path d="M117.03 402.383C120.9 402.813 125.851 402.927 126.768 401.679L120.411 399.878L112.031 396.703L109.876 397.807L110.193 398.733C110.193 398.733 107.688 401.619 107.864 402.855C108.04 404.087 109.354 404.683 110.826 404.192C112.299 403.705 113.095 401.947 117.03 402.383Z" fill="#2C407F"/>
<path d="M97.2499 388.499C98.8969 390.696 103.296 395.2 105.29 397.175L105.871 394.998C104.609 393.628 102.914 391.012 101.181 389.187C99.3674 387.278 97.1354 384.891 95.7611 382.955L94.0601 382.985C94.3376 384.115 95.603 386.301 97.2499 388.499Z" fill="#1C1622"/>
<path d="M98.7532 386.917L100.386 386.247C100.874 386.046 101.107 385.488 100.907 385C100.706 384.512 100.148 384.279 99.6598 384.479L98.0273 385.15C97.5392 385.35 97.306 385.908 97.5064 386.396C97.7069 386.884 98.2651 387.118 98.7532 386.917Z" fill="#2B2A2A"/>
<path d="M101.252 389.68L102.884 389.01C103.372 388.809 103.606 388.251 103.405 387.763C103.205 387.275 102.646 387.042 102.158 387.242L100.526 387.912C100.038 388.113 99.8045 388.671 100.005 389.159C100.205 389.647 100.764 389.881 101.252 389.68Z" fill="#2B2A2A"/>
<path d="M103.441 392.444L105.073 391.776C105.562 391.577 105.796 391.019 105.596 390.53C105.396 390.042 104.839 389.808 104.35 390.008L102.718 390.675C102.229 390.875 101.995 391.433 102.195 391.921C102.395 392.409 102.952 392.643 103.441 392.444Z" fill="#2B2A2A"/>
<path d="M105.94 395.206L107.573 394.536C108.061 394.335 108.294 393.777 108.094 393.289C107.893 392.801 107.335 392.568 106.847 392.768L105.215 393.439C104.726 393.639 104.493 394.197 104.694 394.685C104.894 395.173 105.452 395.407 105.94 395.206Z" fill="#2B2A2A"/>
<path d="M109.675 397.958L111.308 397.29C111.796 397.091 112.03 396.533 111.831 396.044C111.631 395.556 111.073 395.322 110.585 395.522L108.952 396.189C108.464 396.389 108.23 396.946 108.429 397.435C108.629 397.923 109.187 398.157 109.675 397.958Z" fill="#2B2A2A"/>
<path d="M72.2572 406.871L101.265 407.93L130.086 406.366L130.581 410.193C130.725 411.303 129.887 412.301 128.768 412.346L101.915 413.495L86.9537 413.789L71.9866 413.428L72.2572 406.871Z" fill="#E7E5DD"/>
<path d="M72.1169 413.137C76.7274 413.251 88.3095 413.615 93.3567 413.57C96.978 413.54 127.772 412.511 130.857 411.555" stroke="#536E83" stroke-width="1.5"/>
<path d="M82.9033 390.759C84.8804 390.6 85.8758 389.728 86.1262 389.31C86.3514 390.39 86.0288 392.593 82.9382 392.771C79.8478 392.948 78.9309 390.624 78.8584 389.437C79.383 389.945 80.9259 390.919 82.9033 390.759Z" fill="black"/>
<path d="M84.8871 389.178C85.026 390.041 84.6592 390.882 84.4584 391.195C82.6272 392.62 80.5927 391.264 80.5683 389.872C80.544 388.48 81.4664 388.155 82.3942 388.137C83.322 388.122 84.7137 388.098 84.8871 389.178Z" fill="black"/>
<path d="M22.8292 91.2463C25.2343 88.5404 26.3868 80.0721 26.1363 73.0571H108.964C107.311 78.068 108.904 88.9613 112.873 94.2527C117.834 100.867 124.448 103.122 124.448 103.122C124.448 103.122 115.278 117.252 99.0431 114.997C80.9042 114.597 42.6117 114.035 34.5544 114.997C26.4971 115.959 16.5657 106.279 12.6072 101.318C14.5614 100.917 20.08 94.339 22.8292 91.2463Z" fill="#A23A26"/>
<path d="M15.932 149.247C23.2018 132.919 35.0835 134.151 40.132 134.77L34.1034 213.76H3.13672C1.03216 199.028 4.13138 178.35 4.60255 176.48C6.18807 170.187 10.3276 161.833 15.932 149.247Z" fill="#19171D"/>
<path d="M116.629 150.072C109.359 133.744 97.4777 134.976 92.429 135.595L98.4575 214.585L130.16 208.499C134.219 196.022 128.43 179.175 127.958 177.305C126.373 171.012 122.234 162.658 116.629 150.072Z" fill="#19171D"/>
<path d="M30.5468 144.781C31.7966 135.69 39.4216 129.023 48.6013 128.921L69.3399 128.691L88.4481 130.705C97.1846 131.625 104.273 138.411 105.423 147.147C107.931 166.184 111.823 199.484 111.823 222.763C111.823 257.104 117.283 260.389 108.829 264.888C100.375 269.388 32.7394 268.755 23.5052 261.779C14.2709 254.802 20.0125 247.535 20.0125 233.291C20.0125 222.797 26.913 171.216 30.5468 144.781Z" fill="black"/>
<path d="M20.3837 270.528L22.4331 258.172C22.6814 256.674 24.0068 255.597 25.5233 255.66L106.533 259.013C108.144 259.08 109.415 260.405 109.415 262.017V273.787C109.415 275.487 108.008 276.849 106.309 276.792L23.2495 274.025C21.4341 273.964 20.0865 272.32 20.3837 270.528Z" fill="black"/>
<path d="M62.8152 155.434C53.0192 153.531 24.6454 136.276 35.6659 125.571C42.707 116.65 54.0336 128.545 55.5642 134.492C56.7887 139.25 63.378 145.197 65.521 148.369C67.9701 150.649 72.6112 157.337 62.8152 155.434Z" fill="#19171D"/>
<path d="M73.037 154.983C82.833 153.08 109.629 136.276 98.6079 125.571C91.5671 116.65 80.2405 128.545 78.7099 134.492C77.4854 139.25 72.7748 145.799 70.6318 148.97C68.1828 151.25 63.2407 156.887 73.037 154.983Z" fill="#19171D"/>
<path d="M54.5473 150.323C56.3738 150.323 57.8545 148.843 57.8545 147.016C57.8545 145.19 56.3738 143.709 54.5473 143.709C52.7209 143.709 51.2402 145.19 51.2402 147.016C51.2402 148.843 52.7209 150.323 54.5473 150.323Z" fill="#C4C4C4"/>
<path d="M81.0044 150.323C82.8308 150.323 84.3115 148.843 84.3115 147.016C84.3115 145.19 82.8308 143.709 81.0044 143.709C79.1779 143.709 77.6973 145.19 77.6973 147.016C77.6973 148.843 79.1779 150.323 81.0044 150.323Z" fill="#C4C4C4"/>
<path d="M78.8999 147.618V174.075C78.8999 175.237 79.8421 176.179 81.0044 176.179C82.1667 176.179 83.109 175.237 83.109 174.075V147.618C83.109 146.455 82.1667 145.513 81.0044 145.513C79.8421 145.513 78.8999 146.455 78.8999 147.618Z" fill="#3A3838"/>
<path d="M101.857 224.627L101.353 224.827L100.78 225.05L96.8908 226.499C93.4191 227.798 88.5662 229.632 86.2722 230.577L86.0486 230.67C79.9483 233.216 74.9131 235.857 70.4441 239.074C64.8352 243.112 60.3999 247.9 57.2841 253.67C54.9173 258.053 56.5517 263.525 60.9348 265.891C65.274 268.235 70.6804 266.656 73.0846 262.371L73.1566 262.241C76.4361 256.168 82.5979 251.695 92.6892 247.446L93.1955 247.235L93.7569 247.007C97.6231 245.455 107.123 241.939 107.364 241.846C107.775 241.686 108.172 241.53 108.556 241.376C113.181 239.526 115.431 234.277 113.581 229.652C111.731 225.027 106.482 222.777 101.857 224.627Z" fill="#CDA497"/>
<path d="M26.0156 238.064L34.5158 242.13L36.0622 242.877L37.6912 243.668C39.955 244.772 42.0395 245.805 44.0498 246.822L44.8981 247.252C47.4211 248.537 49.7487 249.76 51.8924 250.931L52.6817 251.365L53.3451 251.733C58.96 254.864 63.0067 257.518 64.9947 259.366L65.1401 259.503C68.735 262.952 74.4446 262.833 77.8927 259.238C81.3409 255.643 81.222 249.933 77.6271 246.485C74.1125 243.114 68.5685 239.507 60.9275 235.313L60.1588 234.893C57.8335 233.628 55.3348 232.32 52.6446 230.955L51.5178 230.385L50.3203 229.784C48.3082 228.778 46.2094 227.748 43.9324 226.645L38.4316 224.005L33.9398 221.86C29.447 219.709 24.0609 221.607 21.9097 226.1C19.78 230.548 21.6192 235.871 26.0156 238.064Z" fill="#EBBAAA"/>
<path d="M67.3248 237.21L58.0048 232.701L48.5344 250.739L58.0048 255.249C58.0048 256.452 58.1762 250.285 60.8609 245.328C62.8151 241.72 65.2203 239.014 67.3248 237.21Z" fill="#161616"/>
<path d="M81.8666 253.545L90.9257 249.236L80.854 232.55L72.7366 236.91C73.1271 237.135 76.5509 239.923 79.5011 244.726C81.6483 248.223 81.3567 250.821 81.8666 253.545Z" fill="#161616"/>
<path d="M90.3243 251.942C122.945 250.589 133.317 209.852 131.363 193.617H111.069C111.959 205.583 85.514 223.531 80.2527 233.904C82.9582 237.361 79.4665 252.392 90.3243 251.942Z" fill="#19171D"/>
<path d="M46.8809 253.144C8.9994 253.144 -3.32696 215.413 4.63996 189.257H21.6267C20.7368 201.223 53.0441 220.675 61.6126 235.858C59.6584 242.472 57.7478 253.144 46.8809 253.144Z" fill="#19171D"/>
<path d="M52.1423 147.618V180.689C52.1423 181.851 53.0846 182.793 54.2469 182.793C55.4092 182.793 56.3514 181.851 56.3514 180.689V147.618C56.3514 146.455 55.4092 145.513 54.2469 145.513C53.0846 145.513 52.1423 146.455 52.1423 147.618Z" fill="#3A3838"/>
<rect x="56.6143" y="113.945" width="20.7446" height="34.5744" rx="8.625" fill="#EBBAAA"/>
<path d="M110.167 97.2756C116.809 97.2756 122.193 91.4203 122.193 84.1975C122.193 76.9745 116.809 71.1194 110.167 71.1194C103.525 71.1194 98.1411 76.9745 98.1411 84.1975C98.1411 91.4203 103.525 97.2756 110.167 97.2756Z" fill="#EBBAAA"/>
<path d="M23.5808 97.2756C16.9391 97.2756 11.5549 91.4203 11.5549 84.1975C11.5549 76.9745 16.9391 71.1194 23.5808 71.1194C30.2224 71.1194 35.6067 76.9745 35.6067 84.1975C35.6067 91.4203 30.2224 97.2756 23.5808 97.2756Z" fill="#EBBAAA"/>
<path d="M22.04 55.115C22.04 30.2088 42.2306 10.0181 67.137 10.0181C92.0435 10.0181 112.234 30.2088 112.234 55.115V71.6043C112.234 74.2833 112.029 76.9582 111.621 79.606L108.865 97.4963C105.701 118.039 88.023 133.203 67.2375 133.203C46.8933 133.203 29.457 118.661 25.8034 98.6477L22.8946 82.7147C22.326 79.6006 22.04 76.4414 22.04 73.2759V55.115Z" fill="#F4D5CC"/>
<path d="M82.1395 56.0897L82.2763 56.03L82.3692 55.9913C82.6986 55.8559 83.0972 55.716 83.5603 55.5827C85.3457 55.0684 87.4401 54.8234 89.787 55.0087C91.7521 55.1639 93.4755 55.5346 94.9553 56.05C95.6282 56.2843 96.1969 56.5301 96.6598 56.7684C96.7839 56.8323 96.8892 56.89 96.9754 56.94L97.0634 56.9917L97.0571 56.9873C98.4322 57.9181 100.301 57.558 101.232 56.1829C102.163 54.8079 101.803 52.9387 100.428 52.0079C100.212 51.8617 99.8729 51.6596 99.4125 51.4225C98.7038 51.0576 97.8767 50.7002 96.9328 50.3715C94.9763 49.6901 92.7485 49.2109 90.2603 49.0144C87.1594 48.7696 84.3476 49.0986 81.8962 49.8046C81.2173 50.0001 80.6119 50.2126 80.0838 50.4296L79.9046 50.5047L79.7425 50.5752C79.5633 50.6548 79.4194 50.7243 79.3115 50.7806C77.8398 51.5495 77.27 53.3658 78.0389 54.8375C78.7807 56.2575 80.4979 56.8379 81.9396 56.1861L82.018 56.1494L82.1395 56.0897Z" fill="#393939"/>
<path d="M54.8542 50.6925L54.7491 50.6477L54.6238 50.5971C54.4886 50.5437 54.3234 50.4823 54.1293 50.415C53.6313 50.2424 53.0613 50.0732 52.4234 49.9176C50.0129 49.3294 47.2571 49.0703 44.2328 49.3155C41.9128 49.5036 39.7784 49.9067 37.8503 50.4632C36.8735 50.7451 36.0066 51.0502 35.2553 51.3599C34.9822 51.4725 34.7403 51.5792 34.5304 51.6778L34.3226 51.7779L34.2103 51.835C32.7399 52.6062 32.173 54.4234 32.9442 55.8939C33.7018 57.3386 35.4691 57.9111 36.9254 57.1994L37.0864 57.1204C37.21 57.0623 37.3637 56.9945 37.5467 56.9191C38.0984 56.6917 38.7576 56.4597 39.5176 56.2404C41.0706 55.7921 42.8109 55.4635 44.7187 55.3088C47.0701 55.1181 49.1866 55.3171 50.9979 55.7591C51.3981 55.8567 51.7498 55.9588 52.0496 56.0588L52.2912 56.1428L52.4301 56.1953L52.4368 56.1981C53.9571 56.8656 55.7307 56.1743 56.3983 54.654C57.0658 53.1337 56.3745 51.36 54.8542 50.6925Z" fill="#393939"/>
<path d="M19.3737 47.0793C19.1722 28.7368 35.3088 22.727 32.452 26.1843C29.5956 29.6416 36.361 38.2102 32.452 40.9161C28.5433 43.6219 32.903 52.3409 30.7985 55.648C28.6939 58.9552 25.3342 58.2035 23.4325 64.6674C21.5309 71.1313 23.1319 83.7155 23.1319 83.7155C23.2822 84.0592 23.1319 84.5101 22.8312 84.5101C22.5306 84.5101 22.0796 84.3598 21.9575 83.7155C21.9575 83.7155 19.6743 74.4382 19.3737 47.0793Z" fill="black"/>
<path d="M114.074 49.9176C114.26 32.9798 99.3647 27.4303 102.001 30.6229C104.638 33.8154 98.3933 41.7276 102.001 44.2263C105.609 46.725 101.585 54.776 103.528 57.83C105.471 60.8836 108.572 60.1897 110.327 66.1585C112.082 72.1275 110.605 83.7478 110.605 83.7478C110.466 84.0653 110.605 84.4817 110.882 84.4817C111.16 84.4817 111.576 84.3428 111.689 83.7478C111.689 83.7478 113.796 75.1812 114.074 49.9176Z" fill="black"/>
<path d="M65.9127 75.1135C63.9416 78.0702 62.4771 82.2808 62.4771 85.7384C62.4771 90.7512 65.4706 94.1189 71.0455 94.1189V89.0079C68.4361 89.0079 67.588 88.0538 67.588 85.7384C67.588 83.3709 68.72 80.1166 70.1653 77.9486L65.9127 75.1135Z" fill="#EBBAAA"/>
<path d="M88.1822 71.2531H83.9731" stroke="black" stroke-width="6" stroke-linecap="round"/>
<path d="M50.451 71.2531H46.2419" stroke="black" stroke-width="6" stroke-linecap="round"/>
<path fill-rule="evenodd" clip-rule="evenodd" d="M79.2409 104.205V105.067C79.2409 111.47 74.0497 116.662 67.6456 116.662C61.2418 116.662 56.0505 111.47 56.0505 105.067V104.205H79.2409Z" fill="white"/>
<path fill-rule="evenodd" clip-rule="evenodd" d="M66.9726 38.7017C30.8472 38.7017 21.0105 60.4026 20.6077 71.2533C12.8551 47.5022 11.2744 0 66.9726 0C122.671 0 120.889 47.5022 113.035 71.2533C112.733 60.4026 103.098 38.7017 66.9726 38.7017Z" fill="#BB462F"/>
<mask id="mask5_38_661" style="mask-type:luminance" maskUnits="userSpaceOnUse" x="16" y="0" width="102" height="72">
<path fill-rule="evenodd" clip-rule="evenodd" d="M66.9726 38.7017C30.8472 38.7017 21.0105 60.4026 20.6077 71.2533C12.8551 47.5022 11.2744 0 66.9726 0C122.671 0 120.889 47.5022 113.035 71.2533C112.733 60.4026 103.098 38.7017 66.9726 38.7017Z" fill="white"/>
</mask>
<g mask="url(#mask5_38_661)">
</g>
<path d="M49.3512 190.717C50.3732 190.625 51.0921 190.574 51.5079 190.563C51.7288 189.245 51.8286 188.186 51.8073 187.386C51.7949 186.922 52.0286 186.684 52.5085 186.671C52.9403 186.66 53.4912 186.909 54.161 187.419C54.8309 187.93 55.1737 188.481 55.1895 189.072C55.1967 189.344 55.1367 189.794 55.0094 190.422L55.1533 190.418C56.2889 190.388 56.9468 190.45 57.127 190.605C57.3228 190.744 57.4378 190.853 57.4719 190.932C57.506 191.011 57.5252 191.131 57.5295 191.291C57.5461 191.915 56.5191 192.414 54.4483 192.79C54.2029 193.788 53.8118 195.327 53.275 197.406L54.2587 197.38C54.9944 197.361 55.5475 197.394 55.9179 197.48C56.2884 197.566 56.4991 197.665 56.55 197.775C56.6166 197.869 56.6528 198.029 56.6588 198.252C56.6771 198.94 55.3473 199.488 52.6692 199.895C52.264 201.507 51.8804 202.726 51.5183 203.551C51.1717 204.361 50.7985 204.771 50.3987 204.782C50.1108 204.789 49.8655 204.596 49.6629 204.201C49.4759 203.79 49.3671 203.313 49.3366 202.769C49.2183 202.532 49.3005 201.714 49.5833 200.314C48.3715 200.49 47.4473 200.643 46.8105 200.772C46.449 202.222 46.1411 203.279 45.8867 203.942C45.6478 204.588 45.3685 204.916 45.0486 204.924C44.6967 204.934 44.386 204.686 44.1164 204.181C43.8629 203.676 43.7187 203.071 43.6839 202.368C43.617 202.258 43.6236 201.905 43.7037 201.311C42.6684 201.499 42.0787 201.594 41.9348 201.598C41.6633 201.622 41.4098 201.42 41.1744 200.994C40.955 200.568 40.8395 200.139 40.828 199.707C40.8113 199.083 41.9981 198.572 44.3883 198.172C44.8039 196.352 45.0968 195.032 45.267 194.211C43.8019 194.49 42.9494 194.633 42.7095 194.639C42.4696 194.646 42.2321 194.444 41.9971 194.034C41.7776 193.608 41.6622 193.179 41.6506 192.747C41.6327 192.075 43.0348 191.533 45.8568 191.122C46.0882 189.595 46.1923 188.4 46.1693 187.536C46.1889 187.072 46.4226 186.833 46.8705 186.821C47.3183 186.81 47.8772 187.059 48.547 187.569C49.2169 188.079 49.5597 188.63 49.5755 189.222C49.5831 189.51 49.5084 190.008 49.3512 190.717ZM47.5708 197.775C48.5759 197.652 49.4303 197.581 50.1341 197.562C50.506 195.904 50.8039 194.471 51.0278 193.265C50.6292 193.324 49.8323 193.449 48.637 193.641C48.4785 194.301 48.1231 195.679 47.5708 197.775ZM65.8239 189.677L62.0183 190.115C61.6184 190.125 61.1454 189.794 60.5992 189.12C60.0691 188.446 59.7991 187.925 59.7893 187.557C59.773 186.949 61.4843 186.6 64.9231 186.508C66.8424 186.457 67.9332 186.548 68.1955 186.781C68.5724 187.107 68.9297 187.601 69.2675 188.265C69.6209 188.912 69.805 189.515 69.82 190.075C69.8285 190.395 69.6654 190.879 69.3305 191.528C69.0117 192.177 68.7611 192.68 68.5785 193.037C68.3955 193.378 68.1282 193.857 67.7766 194.475C67.4405 195.076 67.1273 195.636 66.8371 196.156C66.5624 196.66 66.182 197.398 65.6957 198.372C65.2091 199.329 64.8062 200.124 64.4869 200.757C64.1832 201.373 63.8634 201.982 63.5273 202.583C62.8867 203.768 62.3824 204.366 62.0146 204.376C61.6627 204.385 61.2968 204.171 60.917 203.733C60.5532 203.294 60.3647 202.827 60.3514 202.331C60.3378 201.82 60.6576 200.907 61.3108 199.593C61.9799 198.279 62.7055 196.979 63.4875 195.693C65.6207 192.259 66.6816 190.326 66.67 189.895C66.6658 189.735 66.3837 189.662 65.8239 189.677ZM79.5704 185.973C80.0182 185.961 80.5167 186.348 81.0658 187.134C81.6146 187.903 81.8958 188.544 81.9094 189.056C81.9231 189.568 81.8259 189.826 81.618 189.832C81.522 189.834 81.3132 189.808 80.9917 189.753C80.6861 189.697 80.4213 189.672 80.1974 189.678C79.3977 189.699 78.4756 190.236 77.4313 191.288C76.387 192.34 75.5 193.588 74.7702 195.032C74.0565 196.476 73.7135 197.718 73.7412 198.757C73.7549 199.269 73.8449 199.643 74.0112 199.878C74.1771 200.098 74.468 200.202 74.8839 200.191C75.9875 200.162 77.1026 199.964 78.2292 199.598C79.3559 199.232 80.2826 198.871 81.0093 198.515C81.7357 198.144 82.1468 197.957 82.2428 197.954C82.3548 197.951 82.4613 198.044 82.5624 198.234C82.679 198.407 82.7408 198.621 82.7476 198.877C82.7621 199.421 82.3475 200.08 81.5039 200.855C80.6598 201.614 79.6291 202.273 78.4116 202.834C77.2101 203.394 76.1135 203.688 75.1219 203.714C74.1302 203.741 73.0666 203.169 71.931 201.999C70.8114 200.828 70.2371 199.699 70.2081 198.611C70.1675 197.092 70.6093 195.351 71.5333 193.39C72.4569 191.413 73.6674 189.692 75.1649 188.227C76.6784 186.763 78.1469 186.011 79.5704 185.973ZM87.3891 187.301C87.5509 186.769 88.0538 186.419 88.8976 186.253C89.7415 186.086 91.0191 185.98 92.7305 185.934C94.4579 185.888 95.7813 185.997 96.7006 186.26C97.6195 186.508 98.0858 186.888 98.0995 187.4C98.1059 187.639 98.0146 187.818 97.8257 187.935C97.6523 188.036 97.4945 188.12 97.3522 188.188C97.2256 188.239 97.0429 188.292 96.8043 188.346C96.5816 188.4 96.375 188.454 96.1843 188.507C95.9933 188.544 95.7382 188.583 95.4192 188.623C95.1161 188.664 94.8531 188.703 94.63 188.741C94.4065 188.763 94.1115 188.802 93.7449 188.86C93.3779 188.902 93.0429 188.943 92.7398 188.983C92.4368 189.023 91.6403 189.164 90.3503 189.407L90.3509 189.431C90.3663 190.007 90.1591 191.541 89.7294 194.033C89.9378 194.044 90.3138 194.042 90.8577 194.027C91.4175 194.012 92.1441 193.953 93.0377 193.849C93.9308 193.729 94.5133 193.665 94.7852 193.658C95.0731 193.65 95.3149 193.716 95.5107 193.855C95.7065 193.994 95.8067 194.151 95.8114 194.327C95.8229 194.759 95.5773 195.15 95.0744 195.499C94.5715 195.849 93.9388 196.13 93.1762 196.342C91.651 196.767 90.305 197.011 89.1383 197.074C88.7127 199.118 88.45 200.373 88.3504 200.84C88.2664 201.291 88.174 201.725 88.0731 202.144C87.887 202.965 87.7059 203.378 87.53 203.383C87.1941 203.392 86.7282 203.028 86.1324 202.292C85.5365 201.556 85.2337 201.003 85.2239 200.636C85.2068 199.996 85.5445 197.954 86.2369 194.51C86.9453 191.066 87.3118 188.904 87.3363 188.023L87.3312 187.831C87.3256 187.623 87.3449 187.446 87.3891 187.301Z" fill="white"/>
</svg>
