<svg width="201" height="225" viewBox="0 0 201 225" fill="none" xmlns="http://www.w3.org/2000/svg">
<mask id="path-1-outside-1_12_970" maskUnits="userSpaceOnUse" x="0" y="62.1184" width="201" height="163" fill="black">
<rect fill="white" y="62.1184" width="201" height="163"/>
<path d="M170.911 92.1184H30V194.816H170.911V92.1184Z"/>
</mask>
<path d="M35.4791 116.423V101.423C27.1948 101.423 20.4791 108.139 20.4791 116.423H35.4791ZM52.6187 116.423H67.6187C67.6187 108.139 60.903 101.423 52.6187 101.423V116.423ZM52.6187 133.563V148.563C60.903 148.563 67.6187 141.847 67.6187 133.563H52.6187ZM35.4791 133.563H20.4791C20.4791 141.847 27.1948 148.563 35.4791 148.563V133.563ZM49.247 117.547V102.547C40.9627 102.547 34.247 109.263 34.247 117.547H49.247ZM51.3543 117.547H66.3543C66.3543 109.263 59.6386 102.547 51.3543 102.547V117.547ZM51.3543 119.654V134.654C59.6386 134.654 66.3543 127.939 66.3543 119.654H51.3543ZM49.247 119.654H34.247C34.247 127.939 40.9627 134.654 49.247 134.654V119.654ZM35.4791 134.968V119.968C27.1948 119.968 20.4791 126.683 20.4791 134.968H35.4791ZM52.6187 134.968H67.6187C67.6187 126.683 60.903 119.968 52.6187 119.968V134.968ZM52.6187 152.107V167.107C60.903 167.107 67.6187 160.392 67.6187 152.107H52.6187ZM35.4791 152.107H20.4791C20.4791 160.392 27.1948 167.107 35.4791 167.107V152.107ZM49.247 136.091V121.091C40.9627 121.091 34.247 127.807 34.247 136.091H49.247ZM51.3543 136.091H66.3543C66.3543 127.807 59.6386 121.091 51.3543 121.091V136.091ZM51.3543 138.199V153.199C59.6386 153.199 66.3543 146.483 66.3543 138.199H51.3543ZM49.247 138.199H34.247C34.247 146.483 40.9627 153.199 49.247 153.199V138.199ZM35.4791 153.512V138.512C27.1948 138.512 20.4791 145.228 20.4791 153.512H35.4791ZM52.6187 153.512H67.6187C67.6187 145.228 60.903 138.512 52.6187 138.512V153.512ZM52.6187 170.652V185.652C60.903 185.652 67.6187 178.936 67.6187 170.652H52.6187ZM35.4791 170.652H20.4791C20.4791 178.936 27.1948 185.652 35.4791 185.652V170.652ZM49.247 154.636V139.636C40.9627 139.636 34.247 146.352 34.247 154.636H49.247ZM51.3543 154.636H66.3543C66.3543 146.352 59.6386 139.636 51.3543 139.636V154.636ZM51.3543 156.743V171.743C59.6386 171.743 66.3543 165.028 66.3543 156.743H51.3543ZM49.247 156.743H34.247C34.247 165.028 40.9627 171.743 49.247 171.743V156.743ZM54.3046 116.423V101.423C46.0203 101.423 39.3046 108.139 39.3046 116.423H54.3046ZM71.4443 116.423H86.4443C86.4443 108.139 79.7285 101.423 71.4443 101.423V116.423ZM71.4443 133.563V148.563C79.7285 148.563 86.4443 141.847 86.4443 133.563H71.4443ZM54.3046 133.563H39.3046C39.3046 141.847 46.0203 148.563 54.3046 148.563V133.563ZM68.0726 117.547V102.547C59.7883 102.547 53.0726 109.263 53.0726 117.547H68.0726ZM70.1799 117.547H85.1799C85.1799 109.263 78.4642 102.547 70.1799 102.547V117.547ZM70.1799 119.654V134.654C78.4642 134.654 85.1799 127.939 85.1799 119.654H70.1799ZM68.0726 119.654H53.0726C53.0726 127.939 59.7883 134.654 68.0726 134.654V119.654ZM54.3046 134.968V119.968C46.0203 119.968 39.3046 126.683 39.3046 134.968H54.3046ZM71.4443 134.968H86.4443C86.4443 126.683 79.7285 119.968 71.4443 119.968V134.968ZM71.4443 152.107V167.107C79.7285 167.107 86.4443 160.392 86.4443 152.107H71.4443ZM54.3046 152.107H39.3046C39.3046 160.392 46.0203 167.107 54.3046 167.107V152.107ZM68.0726 136.091V121.091C59.7883 121.091 53.0726 127.807 53.0726 136.091H68.0726ZM70.1799 136.091H85.1799C85.1799 127.807 78.4642 121.091 70.1799 121.091V136.091ZM70.1799 138.199V153.199C78.4642 153.199 85.1799 146.483 85.1799 138.199H70.1799ZM68.0726 138.199H53.0726C53.0726 146.483 59.7883 153.199 68.0726 153.199V138.199ZM54.3046 153.512V138.512C46.0203 138.512 39.3046 145.228 39.3046 153.512H54.3046ZM71.4443 153.512H86.4443C86.4443 145.228 79.7285 138.512 71.4443 138.512V153.512ZM71.4443 170.652V185.652C79.7285 185.652 86.4443 178.936 86.4443 170.652H71.4443ZM54.3046 170.652H39.3046C39.3046 178.936 46.0203 185.652 54.3046 185.652V170.652ZM68.0726 154.636V139.636C59.7883 139.636 53.0726 146.352 53.0726 154.636H68.0726ZM70.1799 154.636H85.1799C85.1799 146.352 78.4642 139.636 70.1799 139.636V154.636ZM70.1799 156.743V171.743C78.4642 171.743 85.1799 165.028 85.1799 156.743H70.1799ZM68.0726 156.743H53.0726C53.0726 165.028 59.7883 171.743 68.0726 171.743V156.743ZM73.1301 97.8785V82.8785C64.8459 82.8785 58.1301 89.5942 58.1301 97.8785H73.1301ZM90.2698 97.8785H105.27C105.27 89.5942 98.5541 82.8785 90.2698 82.8785V97.8785ZM90.2698 115.018V130.018C98.5541 130.018 105.27 123.302 105.27 115.018H90.2698ZM73.1301 115.018H58.1301C58.1301 123.302 64.8459 130.018 73.1301 130.018V115.018ZM86.898 99.0024V84.0024C78.6138 84.0024 71.898 90.7181 71.898 99.0024H86.898ZM89.0054 99.0024H104.005C104.005 90.7181 97.2896 84.0024 89.0054 84.0024V99.0024ZM89.0054 101.11V116.11C97.2896 116.11 104.005 109.394 104.005 101.11H89.0054ZM86.898 101.11H71.898C71.898 109.394 78.6138 116.11 86.898 116.11V101.11ZM73.1301 116.423V101.423C64.8459 101.423 58.1301 108.139 58.1301 116.423H73.1301ZM90.2698 116.423H105.27C105.27 108.139 98.5541 101.423 90.2698 101.423V116.423ZM90.2698 133.563V148.563C98.5541 148.563 105.27 141.847 105.27 133.563H90.2698ZM73.1301 133.563H58.1301C58.1301 141.847 64.8459 148.563 73.1301 148.563V133.563ZM86.898 117.547V102.547C78.6138 102.547 71.898 109.263 71.898 117.547H86.898ZM89.0054 117.547H104.005C104.005 109.263 97.2896 102.547 89.0054 102.547V117.547ZM89.0054 119.654V134.654C97.2896 134.654 104.005 127.939 104.005 119.654H89.0054ZM86.898 119.654H71.898C71.898 127.939 78.6138 134.654 86.898 134.654V119.654ZM73.1301 134.968V119.968C64.8459 119.968 58.1301 126.683 58.1301 134.968H73.1301ZM90.2698 134.968H105.27C105.27 126.683 98.5541 119.968 90.2698 119.968V134.968ZM90.2698 152.107V167.107C98.5541 167.107 105.27 160.392 105.27 152.107H90.2698ZM73.1301 152.107H58.1301C58.1301 160.392 64.8459 167.107 73.1301 167.107V152.107ZM86.898 136.091V121.091C78.6138 121.091 71.898 127.807 71.898 136.091H86.898ZM89.0054 136.091H104.005C104.005 127.807 97.2896 121.091 89.0054 121.091V136.091ZM89.0054 138.199V153.199C97.2896 153.199 104.005 146.483 104.005 138.199H89.0054ZM86.898 138.199H71.898C71.898 146.483 78.6138 153.199 86.898 153.199V138.199ZM73.1301 153.512V138.512C64.8459 138.512 58.1301 145.228 58.1301 153.512H73.1301ZM90.2698 153.512H105.27C105.27 145.228 98.5541 138.512 90.2698 138.512V153.512ZM90.2698 170.652V185.652C98.5541 185.652 105.27 178.936 105.27 170.652H90.2698ZM73.1301 170.652H58.1301C58.1301 178.936 64.8459 185.652 73.1301 185.652V170.652ZM86.898 154.636V139.636C78.6138 139.636 71.898 146.352 71.898 154.636H86.898ZM89.0054 154.636H104.005C104.005 146.352 97.2896 139.636 89.0054 139.636V154.636ZM89.0054 156.743V171.743C97.2896 171.743 104.005 165.028 104.005 156.743H89.0054ZM86.898 156.743H71.898C71.898 165.028 78.6138 171.743 86.898 171.743V156.743ZM91.9557 97.8785V82.8785C83.6714 82.8785 76.9557 89.5942 76.9557 97.8785H91.9557ZM109.095 97.8785H124.095C124.095 89.5942 117.38 82.8785 109.095 82.8785V97.8785ZM109.095 115.018V130.018C117.38 130.018 124.095 123.302 124.095 115.018H109.095ZM91.9557 115.018H76.9557C76.9557 123.302 83.6714 130.018 91.9557 130.018V115.018ZM105.724 99.0024V84.0024C97.4393 84.0024 90.7236 90.7181 90.7236 99.0024H105.724ZM107.831 99.0024H122.831C122.831 90.7181 116.115 84.0024 107.831 84.0024V99.0024ZM107.831 101.11V116.11C116.115 116.11 122.831 109.394 122.831 101.11H107.831ZM105.724 101.11H90.7236C90.7236 109.394 97.4393 116.11 105.724 116.11V101.11ZM91.9557 116.423V101.423C83.6714 101.423 76.9557 108.139 76.9557 116.423H91.9557ZM109.095 116.423H124.095C124.095 108.139 117.38 101.423 109.095 101.423V116.423ZM109.095 133.563V148.563C117.38 148.563 124.095 141.847 124.095 133.563H109.095ZM91.9557 133.563H76.9557C76.9557 141.847 83.6714 148.563 91.9557 148.563V133.563ZM105.724 117.547V102.547C97.4393 102.547 90.7236 109.263 90.7236 117.547H105.724ZM107.831 117.547H122.831C122.831 109.263 116.115 102.547 107.831 102.547V117.547ZM107.831 119.654V134.654C116.115 134.654 122.831 127.939 122.831 119.654H107.831ZM105.724 119.654H90.7236C90.7236 127.939 97.4393 134.654 105.724 134.654V119.654ZM91.9557 134.968V119.968C83.6714 119.968 76.9557 126.683 76.9557 134.968H91.9557ZM109.095 134.968H124.095C124.095 126.683 117.38 119.968 109.095 119.968V134.968ZM109.095 152.107V167.107C117.38 167.107 124.095 160.392 124.095 152.107H109.095ZM91.9557 152.107H76.9557C76.9557 160.392 83.6714 167.107 91.9557 167.107V152.107ZM105.724 136.091V121.091C97.4393 121.091 90.7236 127.807 90.7236 136.091H105.724ZM107.831 136.091H122.831C122.831 127.807 116.115 121.091 107.831 121.091V136.091ZM107.831 138.199V153.199C116.115 153.199 122.831 146.483 122.831 138.199H107.831ZM105.724 138.199H90.7236C90.7236 146.483 97.4393 153.199 105.724 153.199V138.199ZM91.9557 153.512V138.512C83.6714 138.512 76.9557 145.228 76.9557 153.512H91.9557ZM109.095 153.512H124.095C124.095 145.228 117.38 138.512 109.095 138.512V153.512ZM109.095 170.652V185.652C117.38 185.652 124.095 178.936 124.095 170.652H109.095ZM91.9557 170.652H76.9557C76.9557 178.936 83.6714 185.652 91.9557 185.652V170.652ZM105.724 154.636V139.636C97.4393 139.636 90.7236 146.352 90.7236 154.636H105.724ZM107.831 154.636H122.831C122.831 146.352 116.115 139.636 107.831 139.636V154.636ZM107.831 156.743V171.743C116.115 171.743 122.831 165.028 122.831 156.743H107.831ZM105.724 156.743H90.7236C90.7236 165.028 97.4393 171.743 105.724 171.743V156.743ZM110.781 97.8785V82.8785C102.497 82.8785 95.7812 89.5942 95.7812 97.8785H110.781ZM127.921 97.8785H142.921C142.921 89.5942 136.205 82.8785 127.921 82.8785V97.8785ZM127.921 115.018V130.018C136.205 130.018 142.921 123.302 142.921 115.018H127.921ZM110.781 115.018H95.7812C95.7812 123.302 102.497 130.018 110.781 130.018V115.018ZM124.549 99.0024V84.0024C116.265 84.0024 109.549 90.7181 109.549 99.0024H124.549ZM126.656 99.0024H141.656C141.656 90.7181 134.941 84.0024 126.656 84.0024V99.0024ZM126.656 101.11V116.11C134.941 116.11 141.656 109.394 141.656 101.11H126.656ZM124.549 101.11H109.549C109.549 109.394 116.265 116.11 124.549 116.11V101.11ZM110.781 116.423V101.423C102.497 101.423 95.7812 108.139 95.7812 116.423H110.781ZM127.921 116.423H142.921C142.921 108.139 136.205 101.423 127.921 101.423V116.423ZM127.921 133.563V148.563C136.205 148.563 142.921 141.847 142.921 133.563H127.921ZM110.781 133.563H95.7812C95.7812 141.847 102.497 148.563 110.781 148.563V133.563ZM124.549 117.547V102.547C116.265 102.547 109.549 109.263 109.549 117.547H124.549ZM126.656 117.547H141.656C141.656 109.263 134.941 102.547 126.656 102.547V117.547ZM126.656 119.654V134.654C134.941 134.654 141.656 127.939 141.656 119.654H126.656ZM124.549 119.654H109.549C109.549 127.939 116.265 134.654 124.549 134.654V119.654ZM110.781 134.968V119.968C102.497 119.968 95.7812 126.683 95.7812 134.968H110.781ZM127.921 134.968H142.921C142.921 126.683 136.205 119.968 127.921 119.968V134.968ZM127.921 152.107V167.107C136.205 167.107 142.921 160.392 142.921 152.107H127.921ZM110.781 152.107H95.7812C95.7812 160.392 102.497 167.107 110.781 167.107V152.107ZM124.549 136.091V121.091C116.265 121.091 109.549 127.807 109.549 136.091H124.549ZM126.656 136.091H141.656C141.656 127.807 134.941 121.091 126.656 121.091V136.091ZM126.656 138.199V153.199C134.941 153.199 141.656 146.483 141.656 138.199H126.656ZM124.549 138.199H109.549C109.549 146.483 116.265 153.199 124.549 153.199V138.199ZM110.781 153.512V138.512C102.497 138.512 95.7812 145.228 95.7812 153.512H110.781ZM127.921 153.512H142.921C142.921 145.228 136.205 138.512 127.921 138.512V153.512ZM127.921 170.652V185.652C136.205 185.652 142.921 178.936 142.921 170.652H127.921ZM110.781 170.652H95.7812C95.7812 178.936 102.497 185.652 110.781 185.652V170.652ZM124.549 154.636V139.636C116.265 139.636 109.549 146.352 109.549 154.636H124.549ZM126.656 154.636H141.656C141.656 146.352 134.941 139.636 126.656 139.636V154.636ZM126.656 156.743V171.743C134.941 171.743 141.656 165.028 141.656 156.743H126.656ZM124.549 156.743H109.549C109.549 165.028 116.265 171.743 124.549 171.743V156.743ZM129.607 97.8785V82.8785C121.322 82.8785 114.607 89.5942 114.607 97.8785H129.607ZM146.746 97.8785H161.746C161.746 89.5942 155.031 82.8785 146.746 82.8785V97.8785ZM146.746 115.018V130.018C155.031 130.018 161.746 123.302 161.746 115.018H146.746ZM129.607 115.018H114.607C114.607 123.302 121.322 130.018 129.607 130.018V115.018ZM143.375 99.0024V84.0024C135.09 84.0024 128.375 90.7181 128.375 99.0024H143.375ZM145.482 99.0024H160.482C160.482 90.7181 153.766 84.0024 145.482 84.0024V99.0024ZM145.482 101.11V116.11C153.766 116.11 160.482 109.394 160.482 101.11H145.482ZM143.375 101.11H128.375C128.375 109.394 135.09 116.11 143.375 116.11V101.11ZM129.607 116.423V101.423C121.322 101.423 114.607 108.139 114.607 116.423H129.607ZM146.746 116.423H161.746C161.746 108.139 155.031 101.423 146.746 101.423V116.423ZM146.746 133.563V148.563C155.031 148.563 161.746 141.847 161.746 133.563H146.746ZM129.607 133.563H114.607C114.607 141.847 121.322 148.563 129.607 148.563V133.563ZM143.375 117.547V102.547C135.09 102.547 128.375 109.263 128.375 117.547H143.375ZM145.482 117.547H160.482C160.482 109.263 153.766 102.547 145.482 102.547V117.547ZM145.482 119.654V134.654C153.766 134.654 160.482 127.939 160.482 119.654H145.482ZM143.375 119.654H128.375C128.375 127.939 135.09 134.654 143.375 134.654V119.654ZM129.607 134.968V119.968C121.322 119.968 114.607 126.683 114.607 134.968H129.607ZM146.746 134.968H161.746C161.746 126.683 155.031 119.968 146.746 119.968V134.968ZM146.746 152.107V167.107C155.031 167.107 161.746 160.392 161.746 152.107H146.746ZM129.607 152.107H114.607C114.607 160.392 121.322 167.107 129.607 167.107V152.107ZM143.375 136.091V121.091C135.09 121.091 128.375 127.807 128.375 136.091H143.375ZM145.482 136.091H160.482C160.482 127.807 153.766 121.091 145.482 121.091V136.091ZM145.482 138.199V153.199C153.766 153.199 160.482 146.483 160.482 138.199H145.482ZM143.375 138.199H128.375C128.375 146.483 135.09 153.199 143.375 153.199V138.199ZM129.607 153.512V138.512C121.322 138.512 114.607 145.228 114.607 153.512H129.607ZM146.746 153.512H161.746C161.746 145.228 155.031 138.512 146.746 138.512V153.512ZM146.746 170.652V185.652C155.031 185.652 161.746 178.936 161.746 170.652H146.746ZM129.607 170.652H114.607C114.607 178.936 121.322 185.652 129.607 185.652V170.652ZM143.375 154.636V139.636C135.09 139.636 128.375 146.352 128.375 154.636H143.375ZM145.482 154.636H160.482C160.482 146.352 153.766 139.636 145.482 139.636V154.636ZM145.482 156.743V171.743C153.766 171.743 160.482 165.028 160.482 156.743H145.482ZM143.375 156.743H128.375C128.375 165.028 135.09 171.743 143.375 171.743V156.743ZM148.432 97.8785V82.8785C140.148 82.8785 133.432 89.5942 133.432 97.8785H148.432ZM165.572 97.8785H180.572C180.572 89.5942 173.856 82.8785 165.572 82.8785V97.8785ZM165.572 115.018V130.018C173.856 130.018 180.572 123.302 180.572 115.018H165.572ZM148.432 115.018H133.432C133.432 123.302 140.148 130.018 148.432 130.018V115.018ZM162.2 99.0024V84.0024C153.916 84.0024 147.2 90.7181 147.2 99.0024H162.2ZM164.308 99.0024H179.308C179.308 90.7181 172.592 84.0024 164.308 84.0024V99.0024ZM164.308 101.11V116.11C172.592 116.11 179.308 109.394 179.308 101.11H164.308ZM162.2 101.11H147.2C147.2 109.394 153.916 116.11 162.2 116.11V101.11ZM148.432 116.423V101.423C140.148 101.423 133.432 108.139 133.432 116.423H148.432ZM165.572 116.423H180.572C180.572 108.139 173.856 101.423 165.572 101.423V116.423ZM165.572 133.563V148.563C173.856 148.563 180.572 141.847 180.572 133.563H165.572ZM148.432 133.563H133.432C133.432 141.847 140.148 148.563 148.432 148.563V133.563ZM162.2 117.547V102.547C153.916 102.547 147.2 109.263 147.2 117.547H162.2ZM164.308 117.547H179.308C179.308 109.263 172.592 102.547 164.308 102.547V117.547ZM164.308 119.654V134.654C172.592 134.654 179.308 127.939 179.308 119.654H164.308ZM162.2 119.654H147.2C147.2 127.939 153.916 134.654 162.2 134.654V119.654ZM148.432 134.968V119.968C140.148 119.968 133.432 126.683 133.432 134.968H148.432ZM165.572 134.968H180.572C180.572 126.683 173.856 119.968 165.572 119.968V134.968ZM165.572 152.107V167.107C173.856 167.107 180.572 160.392 180.572 152.107H165.572ZM148.432 152.107H133.432C133.432 160.392 140.148 167.107 148.432 167.107V152.107ZM162.2 136.091V121.091C153.916 121.091 147.2 127.807 147.2 136.091H162.2ZM164.308 136.091H179.308C179.308 127.807 172.592 121.091 164.308 121.091V136.091ZM164.308 138.199V153.199C172.592 153.199 179.308 146.483 179.308 138.199H164.308ZM162.2 138.199H147.2C147.2 146.483 153.916 153.199 162.2 153.199V138.199ZM148.432 153.512V138.512C140.148 138.512 133.432 145.228 133.432 153.512H148.432ZM165.572 153.512H180.572C180.572 145.228 173.856 138.512 165.572 138.512V153.512ZM165.572 170.652V185.652C173.856 185.652 180.572 178.936 180.572 170.652H165.572ZM148.432 170.652H133.432C133.432 178.936 140.148 185.652 148.432 185.652V170.652ZM162.2 154.636V139.636C153.916 139.636 147.2 146.352 147.2 154.636H162.2ZM164.308 154.636H179.308C179.308 146.352 172.592 139.636 164.308 139.636V154.636ZM164.308 156.743V171.743C172.592 171.743 179.308 165.028 179.308 156.743H164.308ZM162.2 156.743H147.2C147.2 165.028 153.916 171.743 162.2 171.743V156.743ZM35.7601 172.338V157.338C27.4758 157.338 20.7601 164.053 20.7601 172.338H35.7601ZM146.746 172.338H161.746C161.746 164.053 155.031 157.338 146.746 157.338V172.338ZM146.746 188.634V203.634C155.031 203.634 161.746 196.919 161.746 188.634H146.746ZM35.7601 188.634H20.7601C20.7601 196.919 27.4758 203.634 35.7601 203.634V188.634ZM86.2726 90.046C79.8904 84.7642 70.4349 85.6563 65.1531 92.0384C59.8713 98.4206 60.7634 107.876 67.1455 113.158L86.2726 90.046ZM83.9155 108.502L73.1392 118.936L73.1392 118.936L83.9155 108.502ZM86.1852 110.953L75.1236 121.084L75.1236 121.084L86.1852 110.953ZM72.5905 116.457C75.2103 124.316 83.7051 128.564 91.5642 125.944C99.4234 123.324 103.671 114.829 101.051 106.97L72.5905 116.457ZM97.7239 108.598C102.095 101.561 99.9345 92.3125 92.8975 87.9411C85.8605 83.5696 76.6121 85.7304 72.2407 92.7674L97.7239 108.598ZM65.5397 102.35C61.8349 109.76 64.8382 118.77 72.2479 122.474C79.6576 126.179 88.6677 123.176 92.3725 115.766L65.5397 102.35ZM110.56 93.2536C106.344 86.1222 97.1455 83.7587 90.0142 87.9745C82.8828 92.1903 80.5193 101.389 84.7351 108.52L110.56 93.2536ZM102.811 109.251L115.21 100.808V100.808L102.811 109.251ZM94.0885 122.218C99.9464 128.076 109.444 128.076 115.302 122.218C121.16 116.36 121.16 106.863 115.302 101.005L94.0885 122.218ZM113.332 111.611C118.972 105.544 118.627 96.0525 112.559 90.4119C106.492 84.7712 97.0008 85.117 91.3601 91.1843L113.332 111.611ZM82.7594 100.114C77.2556 106.306 77.8133 115.787 84.0051 121.291C90.1968 126.794 99.6779 126.237 105.182 120.045L82.7594 100.114ZM127.549 93.1609C123.564 85.898 114.446 83.2407 107.183 87.2257C99.92 91.2106 97.2627 100.329 101.248 107.592L127.549 93.1609ZM120.481 108.309L131.088 97.7024L131.088 97.7024L120.481 108.309ZM110.933 119.125C115.195 126.228 124.409 128.532 131.512 124.27C138.616 120.007 140.92 110.794 136.657 103.69L110.933 119.125ZM133.93 111.726C138.844 105.056 137.422 95.666 130.752 90.7518C124.083 85.8376 114.693 87.2603 109.779 93.9296L133.93 111.726ZM118.45 107.821L106.052 99.3772L106.052 99.3772L118.45 107.821ZM115.919 111.299L127.644 120.655L127.644 120.655L115.919 111.299ZM101.39 106.231C97.6856 113.641 100.689 122.651 108.099 126.356C115.508 130.061 124.518 127.057 128.223 119.648L101.39 106.231ZM146.282 90.9546C140.74 84.797 131.256 84.2978 125.098 89.8397C118.94 95.3816 118.441 104.866 123.983 111.024L146.282 90.9546ZM133.175 121.237C138.717 127.395 148.202 127.894 154.359 122.352C160.517 116.81 161.016 107.326 155.474 101.168L133.175 121.237ZM154.498 108.36C158.287 100.993 155.386 91.9492 148.019 88.1605C140.652 84.3717 131.608 87.2725 127.819 94.6396L154.498 108.36ZM139.139 105.075L126.356 97.2263L126.356 97.2264L139.139 105.075ZM137.425 108.218L124.492 100.62L124.492 100.62L137.425 108.218ZM122.23 105.132C119.61 112.991 123.858 121.486 131.717 124.105C139.576 126.725 148.071 122.478 150.69 114.619L122.23 105.132ZM167.206 95.1327C163.576 87.6857 154.597 84.5908 147.15 88.2201C139.703 91.8493 136.608 100.828 140.238 108.275L167.206 95.1327ZM158.567 108.025L147.896 118.567L147.896 118.567L158.567 108.025ZM149.993 120.454C155.385 126.744 164.854 127.472 171.144 122.081C177.434 116.69 178.162 107.22 172.771 100.93L149.993 120.454ZM168.662 113.184C174.438 107.245 174.306 97.7485 168.367 91.9726C162.429 86.1966 152.932 86.3285 147.156 92.2672L168.662 113.184ZM152.666 108.184L162.548 119.469L162.548 119.469L152.666 108.184ZM52.3463 109.962C46.6405 103.956 37.1461 103.713 31.14 109.418C25.1339 115.124 24.8905 124.618 30.5963 130.625L52.3463 109.962ZM47.4577 126.518L58.2931 116.145L58.293 116.145L47.4577 126.518ZM42.7299 141.779C50.1395 145.484 59.1496 142.48 62.8545 135.07C66.5593 127.661 63.556 118.651 56.1463 114.946L42.7299 141.779ZM59.003 130.14C64.3849 123.842 63.6423 114.374 57.3444 108.992C51.0464 103.61 41.578 104.353 36.1961 110.651L59.003 130.14ZM42.9466 125.355L32.3186 114.77L32.3186 114.77L42.9466 125.355ZM30.5306 116.567C23.9032 121.537 22.5601 130.939 27.5306 137.567C32.5012 144.194 41.9032 145.537 48.5306 140.567L30.5306 116.567ZM67.099 108.673C61.1889 102.868 51.6918 102.953 45.8866 108.863C40.0814 114.773 40.1665 124.27 46.0766 130.075L67.099 108.673ZM66.1094 127.579L56.533 139.124L56.533 139.124L66.1094 127.579ZM68.8557 129.804L60.0274 141.93L60.0274 141.93L68.8557 129.804ZM56.2451 137.215C59.95 144.625 68.9601 147.628 76.3698 143.924C83.7794 140.219 86.7828 131.209 83.0779 123.799L56.2451 137.215ZM78.2575 126.313C81.7513 118.801 78.4942 109.88 70.9827 106.386C63.4711 102.892 54.5496 106.149 51.0559 113.661L78.2575 126.313ZM62.0692 126.041L75.5213 132.678L75.5213 132.678L62.0692 126.041ZM46.216 123.984C42.8955 131.574 46.3564 140.418 53.946 143.739C61.5357 147.059 70.3802 143.598 73.7007 136.009L46.216 123.984ZM88.4098 111.829C83.679 105.029 74.3309 103.351 67.5303 108.082C60.7297 112.813 59.0518 122.161 63.7827 128.961L88.4098 111.829ZM83.8247 129.372L94.1366 118.479L94.1365 118.479L83.8247 129.372ZM97.9738 138.828C102.569 131.935 100.706 122.622 93.8134 118.026C86.9204 113.431 77.6074 115.294 73.0122 122.187L97.9738 138.828ZM93.9288 130.249C99.3143 123.954 98.5772 114.485 92.2824 109.1C85.9876 103.714 76.5188 104.451 71.1332 110.746L93.9288 130.249ZM77.9574 126.172L67.0509 115.874L67.0508 115.874L77.9574 126.172ZM61.7639 123.517C59.1441 131.376 63.3916 139.871 71.2507 142.49C79.1099 145.11 87.6047 140.863 90.2244 133.004L61.7639 123.517ZM139.538 99.1959C132.737 103.927 131.06 113.275 135.79 120.075C140.521 126.876 149.869 128.554 156.67 123.823L139.538 99.1959ZM35.4791 131.423H52.6187V101.423H35.4791V131.423ZM37.6187 116.423V133.563H67.6187V116.423H37.6187ZM52.6187 118.563H35.4791V148.563H52.6187V118.563ZM50.4791 133.563V116.423H20.4791V133.563H50.4791ZM49.247 132.547H51.3543V102.547H49.247V132.547ZM36.3543 117.547V119.654H66.3543V117.547H36.3543ZM51.3543 104.654H49.247V134.654H51.3543V104.654ZM64.247 119.654V117.547H34.247V119.654H64.247ZM35.4791 149.968H52.6187V119.968H35.4791V149.968ZM37.6187 134.968V152.107H67.6187V134.968H37.6187ZM52.6187 137.107H35.4791V167.107H52.6187V137.107ZM50.4791 152.107V134.968H20.4791V152.107H50.4791ZM49.247 151.091H51.3543V121.091H49.247V151.091ZM36.3543 136.091V138.199H66.3543V136.091H36.3543ZM51.3543 123.199H49.247V153.199H51.3543V123.199ZM64.247 138.199V136.091H34.247V138.199H64.247ZM35.4791 168.512H52.6187V138.512H35.4791V168.512ZM37.6187 153.512V170.652H67.6187V153.512H37.6187ZM52.6187 155.652H35.4791V185.652H52.6187V155.652ZM50.4791 170.652V153.512H20.4791V170.652H50.4791ZM49.247 169.636H51.3543V139.636H49.247V169.636ZM36.3543 154.636V156.743H66.3543V154.636H36.3543ZM51.3543 141.743H49.247V171.743H51.3543V141.743ZM64.247 156.743V154.636H34.247V156.743H64.247ZM54.3046 131.423H71.4443V101.423H54.3046V131.423ZM56.4443 116.423V133.563H86.4443V116.423H56.4443ZM71.4443 118.563H54.3046V148.563H71.4443V118.563ZM69.3046 133.563V116.423H39.3046V133.563H69.3046ZM68.0726 132.547H70.1799V102.547H68.0726V132.547ZM55.1799 117.547V119.654H85.1799V117.547H55.1799ZM70.1799 104.654H68.0726V134.654H70.1799V104.654ZM83.0726 119.654V117.547H53.0726V119.654H83.0726ZM54.3046 149.968H71.4443V119.968H54.3046V149.968ZM56.4443 134.968V152.107H86.4443V134.968H56.4443ZM71.4443 137.107H54.3046V167.107H71.4443V137.107ZM69.3046 152.107V134.968H39.3046V152.107H69.3046ZM68.0726 151.091H70.1799V121.091H68.0726V151.091ZM55.1799 136.091V138.199H85.1799V136.091H55.1799ZM70.1799 123.199H68.0726V153.199H70.1799V123.199ZM83.0726 138.199V136.091H53.0726V138.199H83.0726ZM54.3046 168.512H71.4443V138.512H54.3046V168.512ZM56.4443 153.512V170.652H86.4443V153.512H56.4443ZM71.4443 155.652H54.3046V185.652H71.4443V155.652ZM69.3046 170.652V153.512H39.3046V170.652H69.3046ZM68.0726 169.636H70.1799V139.636H68.0726V169.636ZM55.1799 154.636V156.743H85.1799V154.636H55.1799ZM70.1799 141.743H68.0726V171.743H70.1799V141.743ZM83.0726 156.743V154.636H53.0726V156.743H83.0726ZM73.1301 112.878H90.2698V82.8785H73.1301V112.878ZM75.2698 97.8785V115.018H105.27V97.8785H75.2698ZM90.2698 100.018H73.1301V130.018H90.2698V100.018ZM88.1301 115.018V97.8785H58.1301V115.018H88.1301ZM86.898 114.002H89.0054V84.0024H86.898V114.002ZM74.0054 99.0024V101.11H104.005V99.0024H74.0054ZM89.0054 86.1097H86.898V116.11H89.0054V86.1097ZM101.898 101.11V99.0024H71.898V101.11H101.898ZM73.1301 131.423H90.2698V101.423H73.1301V131.423ZM75.2698 116.423V133.563H105.27V116.423H75.2698ZM90.2698 118.563H73.1301V148.563H90.2698V118.563ZM88.1301 133.563V116.423H58.1301V133.563H88.1301ZM86.898 132.547H89.0054V102.547H86.898V132.547ZM74.0054 117.547V119.654H104.005V117.547H74.0054ZM89.0054 104.654H86.898V134.654H89.0054V104.654ZM101.898 119.654V117.547H71.898V119.654H101.898ZM73.1301 149.968H90.2698V119.968H73.1301V149.968ZM75.2698 134.968V152.107H105.27V134.968H75.2698ZM90.2698 137.107H73.1301V167.107H90.2698V137.107ZM88.1301 152.107V134.968H58.1301V152.107H88.1301ZM86.898 151.091H89.0054V121.091H86.898V151.091ZM74.0054 136.091V138.199H104.005V136.091H74.0054ZM89.0054 123.199H86.898V153.199H89.0054V123.199ZM101.898 138.199V136.091H71.898V138.199H101.898ZM73.1301 168.512H90.2698V138.512H73.1301V168.512ZM75.2698 153.512V170.652H105.27V153.512H75.2698ZM90.2698 155.652H73.1301V185.652H90.2698V155.652ZM88.1301 170.652V153.512H58.1301V170.652H88.1301ZM86.898 169.636H89.0054V139.636H86.898V169.636ZM74.0054 154.636V156.743H104.005V154.636H74.0054ZM89.0054 141.743H86.898V171.743H89.0054V141.743ZM101.898 156.743V154.636H71.898V156.743H101.898ZM91.9557 112.878H109.095V82.8785H91.9557V112.878ZM94.0953 97.8785V115.018H124.095V97.8785H94.0953ZM109.095 100.018H91.9557V130.018H109.095V100.018ZM106.956 115.018V97.8785H76.9557V115.018H106.956ZM105.724 114.002H107.831V84.0024H105.724V114.002ZM92.8309 99.0024V101.11H122.831V99.0024H92.8309ZM107.831 86.1097H105.724V116.11H107.831V86.1097ZM120.724 101.11V99.0024H90.7236V101.11H120.724ZM91.9557 131.423H109.095V101.423H91.9557V131.423ZM94.0953 116.423V133.563H124.095V116.423H94.0953ZM109.095 118.563H91.9557V148.563H109.095V118.563ZM106.956 133.563V116.423H76.9557V133.563H106.956ZM105.724 132.547H107.831V102.547H105.724V132.547ZM92.8309 117.547V119.654H122.831V117.547H92.8309ZM107.831 104.654H105.724V134.654H107.831V104.654ZM120.724 119.654V117.547H90.7236V119.654H120.724ZM91.9557 149.968H109.095V119.968H91.9557V149.968ZM94.0953 134.968V152.107H124.095V134.968H94.0953ZM109.095 137.107H91.9557V167.107H109.095V137.107ZM106.956 152.107V134.968H76.9557V152.107H106.956ZM105.724 151.091H107.831V121.091H105.724V151.091ZM92.8309 136.091V138.199H122.831V136.091H92.8309ZM107.831 123.199H105.724V153.199H107.831V123.199ZM120.724 138.199V136.091H90.7236V138.199H120.724ZM91.9557 168.512H109.095V138.512H91.9557V168.512ZM94.0953 153.512V170.652H124.095V153.512H94.0953ZM109.095 155.652H91.9557V185.652H109.095V155.652ZM106.956 170.652V153.512H76.9557V170.652H106.956ZM105.724 169.636H107.831V139.636H105.724V169.636ZM92.8309 154.636V156.743H122.831V154.636H92.8309ZM107.831 141.743H105.724V171.743H107.831V141.743ZM120.724 156.743V154.636H90.7236V156.743H120.724ZM110.781 112.878H127.921V82.8785H110.781V112.878ZM112.921 97.8785V115.018H142.921V97.8785H112.921ZM127.921 100.018H110.781V130.018H127.921V100.018ZM125.781 115.018V97.8785H95.7812V115.018H125.781ZM124.549 114.002H126.656V84.0024H124.549V114.002ZM111.656 99.0024V101.11H141.656V99.0024H111.656ZM126.656 86.1097H124.549V116.11H126.656V86.1097ZM139.549 101.11V99.0024H109.549V101.11H139.549ZM110.781 131.423H127.921V101.423H110.781V131.423ZM112.921 116.423V133.563H142.921V116.423H112.921ZM127.921 118.563H110.781V148.563H127.921V118.563ZM125.781 133.563V116.423H95.7812V133.563H125.781ZM124.549 132.547H126.656V102.547H124.549V132.547ZM111.656 117.547V119.654H141.656V117.547H111.656ZM126.656 104.654H124.549V134.654H126.656V104.654ZM139.549 119.654V117.547H109.549V119.654H139.549ZM110.781 149.968H127.921V119.968H110.781V149.968ZM112.921 134.968V152.107H142.921V134.968H112.921ZM127.921 137.107H110.781V167.107H127.921V137.107ZM125.781 152.107V134.968H95.7812V152.107H125.781ZM124.549 151.091H126.656V121.091H124.549V151.091ZM111.656 136.091V138.199H141.656V136.091H111.656ZM126.656 123.199H124.549V153.199H126.656V123.199ZM139.549 138.199V136.091H109.549V138.199H139.549ZM110.781 168.512H127.921V138.512H110.781V168.512ZM112.921 153.512V170.652H142.921V153.512H112.921ZM127.921 155.652H110.781V185.652H127.921V155.652ZM125.781 170.652V153.512H95.7812V170.652H125.781ZM124.549 169.636H126.656V139.636H124.549V169.636ZM111.656 154.636V156.743H141.656V154.636H111.656ZM126.656 141.743H124.549V171.743H126.656V141.743ZM139.549 156.743V154.636H109.549V156.743H139.549ZM129.607 112.878H146.746V82.8785H129.607V112.878ZM131.746 97.8785V115.018H161.746V97.8785H131.746ZM146.746 100.018H129.607V130.018H146.746V100.018ZM144.607 115.018V97.8785H114.607V115.018H144.607ZM143.375 114.002H145.482V84.0024H143.375V114.002ZM130.482 99.0024V101.11H160.482V99.0024H130.482ZM145.482 86.1097H143.375V116.11H145.482V86.1097ZM158.375 101.11V99.0024H128.375V101.11H158.375ZM129.607 131.423H146.746V101.423H129.607V131.423ZM131.746 116.423V133.563H161.746V116.423H131.746ZM146.746 118.563H129.607V148.563H146.746V118.563ZM144.607 133.563V116.423H114.607V133.563H144.607ZM143.375 132.547H145.482V102.547H143.375V132.547ZM130.482 117.547V119.654H160.482V117.547H130.482ZM145.482 104.654H143.375V134.654H145.482V104.654ZM158.375 119.654V117.547H128.375V119.654H158.375ZM129.607 149.968H146.746V119.968H129.607V149.968ZM131.746 134.968V152.107H161.746V134.968H131.746ZM146.746 137.107H129.607V167.107H146.746V137.107ZM144.607 152.107V134.968H114.607V152.107H144.607ZM143.375 151.091H145.482V121.091H143.375V151.091ZM130.482 136.091V138.199H160.482V136.091H130.482ZM145.482 123.199H143.375V153.199H145.482V123.199ZM158.375 138.199V136.091H128.375V138.199H158.375ZM129.607 168.512H146.746V138.512H129.607V168.512ZM131.746 153.512V170.652H161.746V153.512H131.746ZM146.746 155.652H129.607V185.652H146.746V155.652ZM144.607 170.652V153.512H114.607V170.652H144.607ZM143.375 169.636H145.482V139.636H143.375V169.636ZM130.482 154.636V156.743H160.482V154.636H130.482ZM145.482 141.743H143.375V171.743H145.482V141.743ZM158.375 156.743V154.636H128.375V156.743H158.375ZM148.432 112.878H165.572V82.8785H148.432V112.878ZM150.572 97.8785V115.018H180.572V97.8785H150.572ZM165.572 100.018H148.432V130.018H165.572V100.018ZM162.2 114.002H164.308V84.0024H162.2V114.002ZM149.308 99.0024V101.11H179.308V99.0024H149.308ZM164.308 86.1097H162.2V116.11H164.308V86.1097ZM177.2 101.11V99.0024H147.2V101.11H177.2ZM148.432 131.423H165.572V101.423H148.432V131.423ZM150.572 116.423V133.563H180.572V116.423H150.572ZM165.572 118.563H148.432V148.563H165.572V118.563ZM163.432 133.563V116.423H133.432V133.563H163.432ZM162.2 132.547H164.308V102.547H162.2V132.547ZM149.308 117.547V119.654H179.308V117.547H149.308ZM164.308 104.654H162.2V134.654H164.308V104.654ZM177.2 119.654V117.547H147.2V119.654H177.2ZM148.432 149.968H165.572V119.968H148.432V149.968ZM150.572 134.968V152.107H180.572V134.968H150.572ZM165.572 137.107H148.432V167.107H165.572V137.107ZM163.432 152.107V134.968H133.432V152.107H163.432ZM162.2 151.091H164.308V121.091H162.2V151.091ZM149.308 136.091V138.199H179.308V136.091H149.308ZM164.308 123.199H162.2V153.199H164.308V123.199ZM177.2 138.199V136.091H147.2V138.199H177.2ZM148.432 168.512H165.572V138.512H148.432V168.512ZM150.572 153.512V170.652H180.572V153.512H150.572ZM165.572 155.652H148.432V185.652H165.572V155.652ZM163.432 170.652V153.512H133.432V170.652H163.432ZM162.2 169.636H164.308V139.636H162.2V169.636ZM149.308 154.636V156.743H179.308V154.636H149.308ZM164.308 141.743H162.2V171.743H164.308V141.743ZM177.2 156.743V154.636H147.2V156.743H177.2ZM35.7601 187.338H146.746V157.338H35.7601V187.338ZM131.746 172.338V188.634H161.746V172.338H131.746ZM146.746 173.634H35.7601V203.634H146.746V173.634ZM50.7601 188.634V172.338H20.7601V188.634H50.7601ZM67.1455 113.158C68.2249 114.051 69.3314 115.084 70.5808 116.327L91.7423 95.0624C90.1362 93.4641 88.3172 91.7382 86.2726 90.046L67.1455 113.158ZM70.5808 116.327C71.3968 117.139 72.2197 117.986 73.1392 118.936L94.6918 98.0678C93.7813 97.1275 92.78 96.0951 91.7423 95.0624L70.5808 116.327ZM73.1392 118.936C73.7229 119.539 74.2149 120.092 75.1236 121.084L97.2468 100.822C96.6495 100.17 95.66 99.0678 94.6918 98.0678L73.1392 118.936ZM75.1236 121.084C75.5723 121.574 75.9846 121.961 76.0285 122.002C76.1923 122.158 75.9851 121.965 75.7801 121.753C75.5466 121.513 75.0323 120.966 74.4714 120.175C73.901 119.37 73.1461 118.124 72.5905 116.457L101.051 106.97C100.445 105.153 99.6123 103.765 98.9464 102.826C98.2901 101.9 97.663 101.225 97.3097 100.861C97.122 100.668 96.9622 100.512 96.8635 100.417C96.8129 100.368 96.7697 100.327 96.7422 100.301C96.7284 100.288 96.7157 100.276 96.7078 100.268C96.6983 100.259 96.6948 100.256 96.6913 100.253C96.6118 100.177 96.9043 100.448 97.2468 100.822L75.1236 121.084ZM72.2407 92.7674C71.691 93.6523 71.5416 93.6365 69.33 96.4746L92.9932 114.915C93.3709 114.43 96.0742 111.254 97.7239 108.598L72.2407 92.7674ZM69.33 96.4746C68.258 97.8502 66.7894 99.8506 65.5397 102.35L92.3725 115.766C92.3373 115.837 92.3451 115.808 92.4449 115.659C92.5484 115.504 92.7143 115.273 92.9932 114.915L69.33 96.4746ZM84.7351 108.52C85.3647 109.585 86.0626 110.772 86.7642 111.94L112.482 96.4938C111.851 95.4437 111.239 94.4019 110.56 93.2536L84.7351 108.52ZM86.7642 111.94C87.8529 113.753 89.0693 115.721 90.4127 117.694L115.21 100.808C114.327 99.5122 113.442 98.0928 112.482 96.4938L86.7642 111.94ZM90.4127 117.694C91.1672 118.802 92.3837 120.513 94.0885 122.218L115.302 101.005C115.458 101.161 115.528 101.254 115.507 101.227C115.496 101.214 115.468 101.176 115.417 101.106C115.366 101.034 115.299 100.939 115.21 100.808L90.4127 117.694ZM91.3601 91.1843C90.633 91.9664 89.8505 92.7684 88.9667 93.6605L110.28 114.774C111.235 113.809 112.28 112.742 113.332 111.611L91.3601 91.1843ZM88.9667 93.6606C87.2571 95.3863 84.9102 97.6943 82.7594 100.114L105.182 120.045C106.637 118.408 108.166 116.907 110.28 114.774L88.9667 93.6606ZM101.248 107.592C103.203 111.156 105.549 114.262 108.009 116.962L130.185 96.7576C129.037 95.4976 128.175 94.3021 127.549 93.1609L101.248 107.592ZM108.009 116.962C108.623 117.636 109.246 118.287 109.875 118.916L131.088 97.7024C130.771 97.3852 130.47 97.0703 130.185 96.7576L108.009 116.962ZM109.875 118.916C110.306 119.347 110.709 119.712 111.045 120.004C111.38 120.296 111.687 120.547 111.924 120.738C112.153 120.921 112.38 121.099 112.51 121.202C112.667 121.325 112.742 121.384 112.798 121.43C112.849 121.471 112.833 121.459 112.778 121.411C112.723 121.363 112.602 121.253 112.44 121.09C112.137 120.783 111.535 120.129 110.933 119.125L136.657 103.69C135.683 102.066 134.608 100.842 133.772 99.996C132.943 99.1574 132.161 98.507 131.68 98.1168C131.431 97.9158 131.197 97.7318 131.047 97.6135C130.869 97.4741 130.79 97.4116 130.718 97.3541C130.558 97.2252 130.766 97.3807 131.088 97.7024L109.875 118.916ZM109.779 93.9296C108.544 95.6051 107.381 97.3927 106.618 98.5362L131.575 115.184C132.62 113.618 133.234 112.67 133.93 111.726L109.779 93.9296ZM106.618 98.5363C106.418 98.8358 106.232 99.1129 106.052 99.3772L130.847 116.265C131.102 115.891 131.346 115.527 131.575 115.183L106.618 98.5363ZM106.052 99.3772C105.328 100.44 104.745 101.253 104.194 101.944L127.644 120.655C128.884 119.101 129.955 117.575 130.847 116.265L106.052 99.3772ZM104.194 101.943C103.726 102.53 102.468 104.076 101.39 106.231L128.223 119.648C127.762 120.571 127.238 121.163 127.644 120.655L104.194 101.943ZM123.983 111.024L127.857 115.328L150.156 95.2594L146.282 90.9546L123.983 111.024ZM127.857 115.328L133.175 121.237L155.474 101.168L150.156 95.2594L127.857 115.328ZM127.819 94.6396C127.383 95.4871 126.902 96.3361 126.356 97.2263L151.921 112.923C152.814 111.469 153.675 109.959 154.498 108.36L127.819 94.6396ZM126.356 97.2264C126.261 97.3803 126.171 97.5303 126.085 97.6756L151.928 112.912C151.929 112.911 151.927 112.914 151.922 112.923L126.356 97.2264ZM126.085 97.6757C125.56 98.5672 125.12 99.423 124.894 99.8599C124.606 100.416 124.535 100.546 124.492 100.62L150.358 115.816C150.877 114.933 151.314 114.08 151.536 113.653C151.819 113.106 151.889 112.978 151.928 112.912L126.085 97.6757ZM124.492 100.62C124.645 100.359 124.759 100.193 124.718 100.255C124.677 100.315 124.694 100.29 124.601 100.427C124.54 100.518 124.441 100.664 124.33 100.835C123.93 101.449 122.942 102.997 122.23 105.132L150.69 114.619C150.426 115.412 150.13 116.035 149.906 116.459C149.688 116.869 149.507 117.149 149.464 117.215C149.44 117.251 149.431 117.264 149.46 117.222C149.475 117.198 149.488 117.18 149.517 117.137C149.542 117.101 149.576 117.05 149.614 116.994C149.751 116.789 150.042 116.354 150.358 115.816L124.492 100.62ZM140.238 108.275C141.392 110.645 142.749 112.636 144.055 114.287L167.586 95.6788C167.436 95.4889 167.341 95.3521 167.282 95.2616C167.253 95.2169 167.234 95.1844 167.222 95.1634C167.216 95.1529 167.212 95.1452 167.209 95.1402C167.207 95.1352 167.206 95.1327 167.206 95.1327L140.238 108.275ZM144.055 114.287C145.403 115.991 146.786 117.443 147.896 118.567L169.239 97.4837C168.418 96.6527 167.926 96.1081 167.586 95.6788L144.055 114.287ZM147.896 118.567C148.403 119.08 148.875 119.515 149.221 119.827C149.514 120.091 149.927 120.455 150.046 120.56C150.142 120.646 150.207 120.704 150.256 120.749C150.304 120.793 150.323 120.811 150.322 120.81C150.32 120.808 150.288 120.778 150.235 120.722C150.182 120.667 150.098 120.577 149.993 120.454L172.771 100.93C171.643 99.615 170.478 98.5831 169.971 98.1333C169.598 97.8012 169.513 97.7298 169.319 97.5548C169.18 97.4287 169.177 97.4216 169.239 97.4837L147.896 118.567ZM147.156 92.2672C146.214 93.2357 145.313 94.2411 144.713 94.9017L166.928 115.064C167.706 114.206 168.174 113.685 168.662 113.184L147.156 92.2672ZM144.713 94.9018C143.692 96.0273 143.194 96.5405 142.784 96.8997L162.548 119.469C164.4 117.847 165.935 116.158 166.928 115.064L144.713 94.9018ZM30.5963 130.625C31.7006 131.787 32.8053 132.932 33.8697 134.034L55.447 113.191C54.3799 112.086 53.3545 111.023 52.3463 109.962L30.5963 130.625ZM33.8697 134.034C34.8135 135.011 35.7211 135.949 36.6224 136.891L58.293 116.145C57.3343 115.144 56.372 114.149 55.447 113.191L33.8697 134.034ZM36.6224 136.891C36.5461 136.811 36.4945 136.751 36.7182 137.002C36.8655 137.166 37.2074 137.55 37.6077 137.963C38.2612 138.636 40.0362 140.432 42.7299 141.779L56.1463 114.946C57.2077 115.477 57.955 116.036 58.3723 116.376C58.7966 116.722 59.0667 116.998 59.1437 117.077C59.2146 117.15 59.2393 117.181 59.0809 117.004C58.9987 116.912 58.6527 116.521 58.2931 116.145L36.6224 136.891ZM36.1961 110.651C35.5077 111.456 34.7391 112.29 33.863 113.198L55.4537 134.027C56.5953 132.843 57.8016 131.546 59.003 130.14L36.1961 110.651ZM33.863 113.198C33.3732 113.706 32.8621 114.224 32.3186 114.77L53.5746 135.94C54.1807 135.331 54.8132 134.691 55.4537 134.027L33.863 113.198ZM32.3186 114.77C31.9864 115.103 31.6385 115.46 31.4109 115.692C31.1511 115.957 30.968 116.142 30.8077 116.299C30.482 116.617 30.4256 116.645 30.5306 116.567L48.5306 140.567C50.9166 138.777 53.1282 136.388 53.5746 135.94L32.3186 114.77ZM46.0766 130.075C48.494 132.45 50.9581 134.531 53.1146 136.312L72.2176 113.18C70.2065 111.52 68.5591 110.107 67.099 108.673L46.0766 130.075ZM53.1146 136.312C54.4566 137.42 55.3243 138.122 56.533 139.124L75.6857 116.034C74.6016 115.135 73.164 113.962 72.2176 113.18L53.1146 136.312ZM56.533 139.124C57.006 139.517 58.5641 140.865 60.0274 141.93L77.6841 117.677C77.2411 117.354 77.0261 117.146 75.6857 116.034L56.533 139.124ZM60.0274 141.93C60.2633 142.102 60.4638 142.239 60.5934 142.326C60.7099 142.405 60.8273 142.482 60.8333 142.486C60.9374 142.554 60.6511 142.37 60.3067 142.112C59.5912 141.575 57.6485 140.022 56.2451 137.215L83.0779 123.799C81.5106 120.664 79.3129 118.867 78.3096 118.114C77.8212 117.748 77.3827 117.463 77.3336 117.431C77.1643 117.319 77.4135 117.48 77.6841 117.677L60.0274 141.93ZM51.0559 113.661C50.5155 114.823 50.0645 115.931 49.7329 116.754C49.3597 117.681 49.1462 118.221 48.9064 118.774L76.4258 130.719C76.8698 129.696 77.2893 128.636 77.5592 127.966C77.8708 127.193 78.0732 126.709 78.2575 126.313L51.0559 113.661ZM48.9064 118.774C48.7883 119.046 48.6941 119.249 48.6171 119.405L75.5213 132.678C75.8648 131.982 76.1651 131.32 76.4258 130.719L48.9064 118.774ZM48.6171 119.405C48.536 119.569 48.4511 119.716 47.9544 120.588C47.5692 121.265 46.859 122.514 46.216 123.984L73.7007 136.009C73.655 136.113 73.6692 136.056 74.0246 135.432C74.2685 135.004 74.9403 133.855 75.5213 132.678L48.6171 119.405ZM63.7827 128.961C65.0565 130.793 66.4145 132.562 67.8464 134.261L90.7896 114.932C89.9447 113.93 89.1495 112.893 88.4098 111.829L63.7827 128.961ZM67.8464 134.261C69.6226 136.37 71.5173 138.377 73.513 140.266L94.1365 118.479C92.9582 117.364 91.8381 116.177 90.7896 114.932L67.8464 134.261ZM73.5129 140.266C73.2281 139.996 72.6161 139.356 73.3058 140.076C73.5431 140.323 74.0537 140.85 74.696 141.418C75.0776 141.756 76.6309 143.146 78.9046 144.185C80.0034 144.687 82.7201 145.798 86.3341 145.559C90.8474 145.262 95.238 142.931 97.9738 138.828L73.0122 122.187C75.6753 118.192 79.966 115.914 84.3592 115.625C87.8532 115.394 90.4297 116.468 91.3754 116.9C93.3427 117.799 94.5374 118.917 94.5653 118.941C94.8538 119.196 95.0153 119.371 94.965 119.318C94.9418 119.294 94.9453 119.297 94.8488 119.195C94.8164 119.161 94.7425 119.083 94.6577 118.995C94.5976 118.933 94.3961 118.725 94.1366 118.479L73.5129 140.266ZM71.1332 110.746C70.2737 111.751 69.5261 112.724 68.9758 113.446C68.3528 114.264 68.0097 114.723 67.6251 115.202L91.011 133.992C93.2126 131.253 92.7154 131.667 93.9288 130.249L71.1332 110.746ZM67.625 115.202C67.3531 115.54 67.1728 115.745 67.0509 115.874L88.864 136.47C89.6978 135.587 90.4149 134.734 91.011 133.992L67.625 115.202ZM67.0508 115.874C67.5131 115.385 67.8862 115.08 67.6702 115.266C67.6619 115.273 67.1731 115.688 66.7793 116.046C66.3552 116.432 65.572 117.166 64.7601 118.151C64.0161 119.053 62.6431 120.879 61.7639 123.517L90.2244 133.004C89.827 134.196 89.3377 135.125 88.9453 135.77C88.5499 136.421 88.173 136.913 87.9051 137.238C87.4022 137.848 86.9949 138.212 86.9639 138.24C86.9633 138.241 86.8852 138.31 87.2553 137.991C87.3844 137.88 87.6038 137.69 87.848 137.467C88.0854 137.25 88.4536 136.905 88.8641 136.47L67.0508 115.874ZM133.432 97.8785V111.282H163.432V97.8785H133.432ZM133.432 111.282V115.018H163.432V111.282H133.432ZM142.784 96.8997C142.316 97.3094 141.883 97.5817 139.933 98.9226L156.931 123.642C157.865 123 160.376 121.371 162.548 119.469L142.784 96.8997ZM139.933 98.9226C139.805 99.0104 139.673 99.1017 139.538 99.1959L156.67 123.823C156.753 123.765 156.84 123.705 156.932 123.642L139.933 98.9226ZM30 92.1184V62.1184C13.4315 62.1184 0 75.5499 0 92.1184H30ZM170.911 92.1184H200.911C200.911 75.5499 187.479 62.1184 170.911 62.1184V92.1184ZM170.911 194.816V224.816C187.479 224.816 200.911 211.384 200.911 194.816H170.911ZM30 194.816H0C0 211.384 13.4315 224.816 30 224.816L30 194.816ZM30 122.118H170.911V62.1184H30V122.118ZM140.911 92.1184V194.816H200.911V92.1184H140.911ZM170.911 164.816H30V224.816H170.911V164.816ZM60 194.816V92.1184H0V194.816H60Z" fill="black" mask="url(#path-1-outside-1_12_970)"/>
<path d="M30 92.0523L100.455 30L170.911 92.0523" stroke="black" stroke-width="60" stroke-linecap="round" stroke-linejoin="round"/>
<path d="M30 92.1184H170.911V194.816H30V92.1184Z" fill="#5F1818"/>
<rect x="35.479" y="116.423" width="17.1397" height="17.1397" fill="#F8F5F4"/>
<rect x="49.2471" y="117.547" width="2.10734" height="2.10734" fill="#5F1818"/>
<rect x="35.479" y="134.968" width="17.1397" height="17.1397" fill="#F8F5F4"/>
<rect x="49.2471" y="136.092" width="2.10734" height="2.10734" fill="#5F1818"/>
<rect x="35.479" y="153.512" width="17.1397" height="17.1397" fill="#F8F5F4"/>
<rect x="49.2471" y="154.636" width="2.10734" height="2.10734" fill="#5F1818"/>
<rect x="54.3047" y="116.423" width="17.1397" height="17.1397" fill="#F8F5F4"/>
<rect x="68.0728" y="117.547" width="2.10734" height="2.10734" fill="#5F1818"/>
<rect x="54.3047" y="134.968" width="17.1397" height="17.1397" fill="#F8F5F4"/>
<rect x="68.0728" y="136.092" width="2.10734" height="2.10734" fill="#5F1818"/>
<rect x="54.3047" y="153.512" width="17.1397" height="17.1397" fill="#F8F5F4"/>
<rect x="68.0728" y="154.636" width="2.10734" height="2.10734" fill="#5F1818"/>
<rect x="73.1304" y="97.8782" width="17.1397" height="17.1397" fill="#F8F5F4"/>
<rect x="86.8982" y="99.0022" width="2.10734" height="2.10734" fill="#5F1818"/>
<rect x="73.1304" y="116.423" width="17.1397" height="17.1397" fill="#F8F5F4"/>
<rect x="86.8982" y="117.547" width="2.10734" height="2.10734" fill="#5F1818"/>
<rect x="73.1304" y="134.968" width="17.1397" height="17.1397" fill="#F8F5F4"/>
<rect x="86.8982" y="136.092" width="2.10734" height="2.10734" fill="#5F1818"/>
<rect x="73.1304" y="153.512" width="17.1397" height="17.1397" fill="#F8F5F4"/>
<rect x="86.8982" y="154.636" width="2.10734" height="2.10734" fill="#5F1818"/>
<rect x="91.9556" y="97.8782" width="17.1397" height="17.1397" fill="#F8F5F4"/>
<rect x="105.723" y="99.0022" width="2.10734" height="2.10734" fill="#5F1818"/>
<rect x="91.9556" y="116.423" width="17.1397" height="17.1397" fill="#F8F5F4"/>
<rect x="105.723" y="117.547" width="2.10734" height="2.10734" fill="#5F1818"/>
<rect x="91.9556" y="134.968" width="17.1397" height="17.1397" fill="#F8F5F4"/>
<rect x="105.723" y="136.091" width="2.10734" height="2.10734" fill="#5F1818"/>
<rect x="91.9556" y="153.512" width="17.1397" height="17.1397" fill="#F8F5F4"/>
<rect x="105.723" y="154.636" width="2.10734" height="2.10734" fill="#5F1818"/>
<rect x="110.781" y="97.8782" width="17.1397" height="17.1397" fill="#F8F5F4"/>
<rect x="124.549" y="99.0022" width="2.10734" height="2.10734" fill="#5F1818"/>
<rect x="110.781" y="116.423" width="17.1397" height="17.1397" fill="#F8F5F4"/>
<rect x="124.549" y="117.547" width="2.10734" height="2.10734" fill="#5F1818"/>
<rect x="110.781" y="134.968" width="17.1397" height="17.1397" fill="#F8F5F4"/>
<rect x="124.549" y="136.092" width="2.10734" height="2.10734" fill="#5F1818"/>
<rect x="110.781" y="153.512" width="17.1397" height="17.1397" fill="#F8F5F4"/>
<rect x="124.549" y="154.636" width="2.10734" height="2.10734" fill="#5F1818"/>
<rect x="129.607" y="97.8782" width="17.1397" height="17.1397" fill="#F8F5F4"/>
<rect x="143.375" y="99.0022" width="2.10734" height="2.10734" fill="#5F1818"/>
<rect x="129.607" y="116.423" width="17.1397" height="17.1397" fill="#F8F5F4"/>
<rect x="143.375" y="117.547" width="2.10734" height="2.10734" fill="#5F1818"/>
<rect x="129.607" y="134.968" width="17.1397" height="17.1397" fill="#F8F5F4"/>
<rect x="143.375" y="136.092" width="2.10734" height="2.10734" fill="#5F1818"/>
<rect x="129.607" y="153.512" width="17.1397" height="17.1397" fill="#F8F5F4"/>
<rect x="143.375" y="154.636" width="2.10734" height="2.10734" fill="#5F1818"/>
<rect x="148.432" y="97.8782" width="17.1397" height="17.1397" fill="#F8F5F4"/>
<rect x="162.2" y="99.0022" width="2.10734" height="2.10734" fill="#5F1818"/>
<rect x="148.432" y="116.423" width="17.1397" height="17.1397" fill="#F8F5F4"/>
<rect x="162.2" y="117.547" width="2.10734" height="2.10734" fill="#5F1818"/>
<rect x="148.432" y="134.968" width="17.1397" height="17.1397" fill="#F8F5F4"/>
<rect x="162.2" y="136.092" width="2.10734" height="2.10734" fill="#5F1818"/>
<rect x="148.432" y="153.512" width="17.1397" height="17.1397" fill="#F8F5F4"/>
<rect x="162.2" y="154.636" width="2.10734" height="2.10734" fill="#5F1818"/>
<rect x="35.7603" y="172.338" width="110.986" height="16.2967" fill="#F8F5F4"/>
<path opacity="0.9" d="M76.7092 101.602C79.2852 103.734 81.5911 106.101 83.9157 108.502C84.6917 109.304 85.4324 110.131 86.1854 110.953C86.3976 111.185 86.7205 111.412 86.821 111.714" stroke="#5F1818" stroke-width="5" stroke-linecap="round" stroke-linejoin="round"/>
<path opacity="0.9" d="M84.9825 100.683C83.1784 103.587 80.4951 105.98 78.9563 109.058" stroke="#5F1818" stroke-width="5" stroke-linecap="round" stroke-linejoin="round"/>
<path opacity="0.9" d="M97.6477 100.887C99.308 103.695 100.975 106.553 102.811 109.251C103.385 110.093 103.981 110.897 104.695 111.611" stroke="#5F1818" stroke-width="5" stroke-linecap="round" stroke-linejoin="round"/>
<path opacity="0.9" d="M102.346 101.397C99.6075 104.343 96.6409 107.075 93.9707 110.079" stroke="#5F1818" stroke-width="5" stroke-linecap="round" stroke-linejoin="round"/>
<path opacity="0.9" d="M114.398 100.376C116.011 103.315 118.111 105.939 120.481 108.309C121.493 109.32 123.052 110.169 123.795 111.407" stroke="#5F1818" stroke-width="5" stroke-linecap="round" stroke-linejoin="round"/>
<path opacity="0.9" d="M121.855 102.827C120.66 104.448 119.583 106.157 118.45 107.821C117.642 109.007 116.815 110.177 115.919 111.299C115.483 111.847 115.115 112.323 114.807 112.939" stroke="#5F1818" stroke-width="5" stroke-linecap="round" stroke-linejoin="round"/>
<path opacity="0.9" d="M135.133 100.989C138.197 104.394 141.261 107.798 144.325 111.203" stroke="#5F1818" stroke-width="5" stroke-linecap="round" stroke-linejoin="round"/>
<path opacity="0.9" d="M141.159 101.5C140.53 102.723 139.858 103.902 139.139 105.074C138.511 106.096 138.031 107.187 137.425 108.218C137.1 108.772 136.664 109.263 136.46 109.875" stroke="#5F1818" stroke-width="5" stroke-linecap="round" stroke-linejoin="round"/>
<path opacity="0.9" d="M153.722 101.704C154.904 104.13 156.682 106.116 158.568 108.025C159.458 108.927 160.582 109.759 161.382 110.692" stroke="#5F1818" stroke-width="5" stroke-linecap="round" stroke-linejoin="round"/>
<path opacity="0.9" d="M157.91 102.725C156.149 104.535 154.571 106.516 152.666 108.184C151.246 109.428 149.65 110.434 148.104 111.509" stroke="#5F1818" stroke-width="5" stroke-linecap="round" stroke-linejoin="round"/>
<path opacity="0.9" d="M41.4714 120.293C43.4539 122.38 45.4672 124.438 47.4579 126.518C48.0248 127.11 48.6789 127.982 49.4383 128.362" stroke="#5F1818" stroke-width="5" stroke-linecap="round" stroke-linejoin="round"/>
<path opacity="0.9" d="M47.5997 120.396C46.1255 122.121 44.5478 123.747 42.9467 125.355C41.8415 126.465 40.7832 127.627 39.5308 128.567" stroke="#5F1818" stroke-width="5" stroke-linecap="round" stroke-linejoin="round"/>
<path opacity="0.9" d="M56.5879 119.374C59.5913 122.324 62.8752 124.896 66.1095 127.579C67.0161 128.331 67.9027 129.11 68.8559 129.804C69.1519 130.019 69.4977 130.179 69.6616 130.507" stroke="#5F1818" stroke-width="5" stroke-linecap="round" stroke-linejoin="round"/>
<path opacity="0.9" d="M64.6569 119.987C63.7314 121.976 63.0386 124.076 62.0694 126.041C61.4073 127.383 60.5558 128.631 59.9585 129.996" stroke="#5F1818" stroke-width="5" stroke-linecap="round" stroke-linejoin="round"/>
<path opacity="0.9" d="M76.0964 120.396C78.3522 123.638 80.9588 126.659 83.8249 129.372C84.0403 129.576 85.2024 130.943 85.4932 130.507" stroke="#5F1818" stroke-width="5" stroke-linecap="round" stroke-linejoin="round"/>
<path opacity="0.9" d="M82.5313 120.498C80.949 122.347 79.6323 124.398 77.9577 126.172C77.4284 126.733 76.246 127.505 75.9944 128.26" stroke="#5F1818" stroke-width="5" stroke-linecap="round" stroke-linejoin="round"/>
<path d="M30 92.0523L100.455 30L170.911 92.0523" stroke="#5F1818" stroke-width="10" stroke-linecap="round"/>
</svg>
