<svg width="132" height="415" viewBox="0 0 132 415" fill="none" xmlns="http://www.w3.org/2000/svg">
<path d="M65.9719 260.954H28.3911L29.8943 367.383L33.1158 383.919H53.5598L55.4493 370.389L65.9719 260.954Z" fill="black"/>
<path d="M65.3707 260.954H102.952L101.448 367.383L98.2269 383.919H77.7829L75.8934 370.389L65.3707 260.954Z" fill="black"/>
<path fill-rule="evenodd" clip-rule="evenodd" d="M114.827 353.181L107.162 269.357V353.181H114.827Z" fill="#BB462F"/>
<mask id="mask0_32_379" style="mask-type:luminance" maskUnits="userSpaceOnUse" x="107" y="269" width="8" height="85">
<path fill-rule="evenodd" clip-rule="evenodd" d="M114.827 353.181L107.162 269.357V353.181H114.827Z" fill="white"/>
</mask>
<g mask="url(#mask0_32_379)">
</g>
<path fill-rule="evenodd" clip-rule="evenodd" d="M111.728 360.468L108.466 271.989H99.007L106.02 367.554L111.728 360.468Z" fill="#BB462F"/>
<mask id="mask1_32_379" style="mask-type:luminance" maskUnits="userSpaceOnUse" x="99" y="271" width="13" height="97">
<path fill-rule="evenodd" clip-rule="evenodd" d="M111.728 360.468L108.466 271.989H99.007L106.02 367.554L111.728 360.468Z" fill="white"/>
</mask>
<g mask="url(#mask1_32_379)">
</g>
<path fill-rule="evenodd" clip-rule="evenodd" d="M13.0581 320.38L22.8436 265.915L33.7706 268.142L24.3114 345.688L13.0581 320.38Z" fill="#BB462F"/>
<mask id="mask2_32_379" style="mask-type:luminance" maskUnits="userSpaceOnUse" x="13" y="265" width="21" height="81">
<path fill-rule="evenodd" clip-rule="evenodd" d="M13.0581 320.38L22.8436 265.915L33.7706 268.142L24.3114 345.688L13.0581 320.38Z" fill="white"/>
</mask>
<g mask="url(#mask2_32_379)">
</g>
<mask id="mask3_32_379" style="mask-type:luminance" maskUnits="userSpaceOnUse" x="17" y="268" width="45" height="123">
<path fill-rule="evenodd" clip-rule="evenodd" d="M17.7877 321.393L22.3543 268.142H57.745C57.8539 279.278 58.006 302.197 57.745 304.789C57.4841 307.38 60.2458 324.631 61.6592 332.932H55.2987L37.3588 359.66L40.4573 364.112L22.3543 390.232L17.7877 321.393Z" fill="white"/>
</mask>
<g mask="url(#mask3_32_379)">
<rect x="-86.9169" y="251.134" width="189.186" height="176.15" fill="#EA5E42"/>
</g>
<mask id="mask4_32_379" style="mask-type:luminance" maskUnits="userSpaceOnUse" x="64" y="268" width="46" height="120">
<path fill-rule="evenodd" clip-rule="evenodd" d="M64.1056 317.344L71.4447 268.142L103.084 275.026L109.445 367.152L103.084 387.196L97.3761 346.497L80.9039 332.731L78.947 322.608L64.1056 317.344Z" fill="white"/>
</mask>
<g mask="url(#mask4_32_379)">
<rect x="48.2339" y="266.065" width="163.417" height="152.258" fill="#EA5E42"/>
</g>
<path d="M36.8982 383.663C35.797 381.965 34.1624 381.88 32.8383 380.906C32.1886 381.832 32.2373 383.188 31.6493 385.001L27.8265 389.721L21.1807 396.841L14.8467 400.274L18.6669 404.681C21.2255 402.685 35.7456 387.226 36.8982 383.663Z" fill="#010101"/>
<path d="M59.3473 406.993C59.3473 406.993 59.4904 399.272 57.8107 395.012C56.1313 390.752 54.3431 379.742 54.3431 379.742C54.3431 379.742 51.4568 382.89 46.0311 382.938L35.8064 383.029C35.8064 383.029 26.9042 395.454 24.2879 397.123C21.6715 398.788 6.85176 402.023 6.85176 402.023C4.0369 402.05 1.77483 404.35 1.79939 407.167L1.82203 409.759L32.732 409.488L59.3473 406.993Z" fill="black"/>
<path d="M28.1116 401.086C26.8636 398.59 26.1452 396.173 26.4041 395.034L20.506 397.983L7.62318 402.174C7.62318 401.861 6.04001 402.081 4.05324 402.95C2.06651 403.819 1.77672 406.107 1.8802 407.141L30.5949 408.226L34.0097 408.073C32.3023 407.294 29.819 404.501 28.1116 401.086Z" fill="#1C1622"/>
<path d="M46.5818 395.343C42.981 396.212 35.4585 392.292 32.1475 390.223L35.7573 383.017C39.2238 383.017 46.6004 382.938 48.8355 382.566C51.0705 382.193 53.5177 380.485 54.3971 379.709L55.2738 384.634L56.5155 390.686C54.7047 391.877 50.183 394.474 46.5818 395.343Z" fill="black"/>
<path d="M32.4504 389.757C33.2159 388.561 34.7768 385.978 34.8944 385.232C42.0447 386.414 51.6663 386.174 55.2226 384.589C56.1781 387.376 56.6678 391.152 56.6678 391.152C56.0578 392.4 49.2136 394.856 46.579 395.343C45.1726 394.27 44.1288 393.999 43.0368 393.389C41.3237 392.43 35.6078 389.935 32.4504 389.757Z" fill="#2C407F"/>
<path d="M47.8551 400.776C48.9681 400.139 55.2744 397.364 58.1892 396.164C59.5974 397.171 59.4203 403.238 59.4507 406.735L45.4658 407.492C46.2379 404.838 47.4844 401.146 47.8551 400.776Z" fill="#192D6A"/>
<path d="M41.0854 400.289C39.6272 400.683 38.4553 400.62 37.796 400.102C36.0976 398.75 37.2121 396.717 37.6842 395.917C36.8387 396.892 35.9984 397.869 35.3397 398.936C34.3013 400.605 33.85 402.439 34.5292 403.62C35.7462 405.755 38.7289 404.796 40.632 403.954L58.2926 396.146L41.0854 400.289Z" fill="#2C407F"/>
<path d="M14.7149 402.95C10.8387 403.449 5.87335 403.647 4.93127 402.415L11.2786 400.497L19.6314 397.162L21.8138 398.233L21.5115 399.165C21.5115 399.165 24.0762 402.021 23.921 403.259C23.7657 404.501 22.4582 405.123 20.9719 404.657C19.4856 404.191 18.6558 402.442 14.7149 402.95Z" fill="#2C407F"/>
<path d="M34.3199 388.669C32.7057 390.906 28.3701 395.5 26.4039 397.517L25.7831 395.343C27.0248 393.948 29.0892 391.044 30.7966 389.18C32.5827 387.232 34.3716 385.049 35.7167 383.083H37.4241C37.1655 384.219 35.9341 386.435 34.3199 388.669Z" fill="#1C1622"/>
<path d="M33.4794 385.325L31.8294 384.682C31.3378 384.49 30.7839 384.733 30.5921 385.225C30.4004 385.716 30.6436 386.27 31.1352 386.462L32.7851 387.105C33.2768 387.297 33.8307 387.054 34.0224 386.562C34.2141 386.071 33.971 385.517 33.4794 385.325Z" fill="#2B2A2A"/>
<path d="M31.0203 388.143L29.3703 387.499C28.8787 387.307 28.3247 387.551 28.133 388.042C27.9413 388.534 28.1845 389.088 28.6761 389.279L30.326 389.923C30.8177 390.115 31.3716 389.871 31.5633 389.38C31.755 388.888 31.5119 388.334 31.0203 388.143Z" fill="#2B2A2A"/>
<path d="M28.8718 390.953L27.2219 390.31C26.7302 390.118 26.1763 390.361 25.9846 390.853C25.7929 391.345 26.036 391.899 26.5277 392.09L28.1776 392.734C28.6692 392.925 29.2232 392.682 29.4149 392.191C29.6066 391.699 29.3634 391.145 28.8718 390.953Z" fill="#2B2A2A"/>
<path d="M26.4132 393.771L24.7633 393.128C24.2716 392.936 23.7177 393.179 23.526 393.671C23.3343 394.162 23.5774 394.716 24.069 394.908L25.7189 395.551C26.2106 395.743 26.7645 395.5 26.9562 395.008C27.1479 394.517 26.9048 393.963 26.4132 393.771Z" fill="#2B2A2A"/>
<path d="M22.7124 396.596L21.0624 395.953C20.5708 395.761 20.0169 396.004 19.8252 396.496C19.6335 396.988 19.8766 397.542 20.3682 397.733L22.0181 398.377C22.5098 398.568 23.0637 398.325 23.2554 397.834C23.4471 397.342 23.204 396.788 22.7124 396.596Z" fill="#2B2A2A"/>
<path d="M59.7212 406.668L30.6313 408.238L1.68288 407.177L1.25203 411.031C1.12762 412.143 1.98308 413.126 3.10287 413.153L30.0766 413.833L45.0948 413.866L60.1073 413.244L59.7212 406.668Z" fill="#E7E5DD"/>
<path d="M59.9714 412.955C55.3471 413.151 43.731 413.716 38.6657 413.761C35.0312 413.794 4.11229 413.301 1 412.396" stroke="#536E83" stroke-width="1.5"/>
<path d="M48.7558 390.689C46.7691 390.563 45.7551 389.706 45.4962 389.291C45.2894 390.376 45.6516 392.58 48.7558 392.706C51.86 392.829 52.7397 390.481 52.7914 389.291C52.274 389.808 50.7425 390.812 48.7558 390.689Z" fill="black"/>
<path d="M46.7379 389.135C46.6137 390.004 46.9964 390.843 47.2036 391.152C49.0661 392.55 51.084 391.152 51.084 389.757C51.084 388.359 50.1526 388.05 49.2212 388.05C48.2901 388.05 46.893 388.05 46.7379 389.135Z" fill="black"/>
<path d="M94.5947 383.85C95.6623 382.139 97.2894 382.025 98.5912 381.03C99.2548 381.944 99.2298 383.293 99.847 385.091L103.738 389.724L110.482 396.702L116.852 400.015L113.123 404.471C110.539 402.526 95.8051 387.376 94.5947 383.85Z" fill="#010101"/>
<path d="M72.6349 407.48C72.6349 407.48 72.358 399.792 73.9571 395.517C75.5563 391.245 77.1464 380.244 77.1464 380.244C77.1464 380.244 80.0765 383.332 85.4827 383.284L95.6705 383.197C95.6705 383.197 104.755 395.424 107.391 397.039C110.027 398.653 124.847 401.62 124.847 401.62C127.652 401.593 129.945 403.848 129.97 406.653L129.992 409.236L99.1937 409.506L72.6349 407.48Z" fill="#010101"/>
<path d="M103.651 401.055C104.851 398.545 105.525 396.122 105.247 394.994L111.174 397.829L124.082 401.78C124.076 401.47 125.657 401.66 127.652 402.493C129.646 403.322 129.975 405.595 129.889 406.629L101.302 408.211L97.8967 408.115C99.5843 407.312 102.01 404.486 103.651 401.055Z" fill="#1C1622"/>
<path d="M85.1508 395.653C88.7531 396.458 96.1791 392.421 99.4417 390.301L95.7359 383.167C92.2824 383.227 84.891 383.197 82.6578 382.866C80.4246 382.533 77.9855 380.918 77.0959 380.16L76.3049 385.136L75.1732 391.188C76.9978 392.343 81.5481 394.85 85.1508 395.653Z" fill="black"/>
<path d="M99.1318 389.842C98.3484 388.663 96.7486 386.12 96.6184 385.377C89.5154 386.676 79.9256 386.607 76.3554 385.091C75.4517 387.881 75.0293 391.654 75.0293 391.654C75.6589 392.887 82.5202 395.214 85.1533 395.653C86.5356 394.559 87.5711 394.273 88.6483 393.645C90.3382 392.659 95.9892 390.076 99.1318 389.842Z" fill="#2C407F"/>
<path d="M83.9759 401.089C82.856 400.472 76.5249 397.814 73.6002 396.675C72.2152 397.7 72.4969 403.74 72.5275 407.225L86.473 407.739C85.6577 405.105 84.3517 401.449 83.9759 401.089Z" fill="#192D6A"/>
<path d="M90.7122 400.484C92.1719 400.851 93.3381 400.77 93.986 400.241C95.6546 398.867 94.5088 396.858 94.0248 396.071C94.884 397.027 95.7381 397.986 96.4128 399.038C97.4765 400.68 97.9578 402.502 97.3018 403.689C96.1263 405.839 93.1384 404.934 91.2278 404.128L73.4978 396.657L90.7122 400.484Z" fill="#2C407F"/>
<path d="M117.03 402.676C120.9 403.106 125.851 403.22 126.768 401.973L120.411 400.172L112.031 396.997L109.876 398.1L110.193 399.026C110.193 399.026 107.688 401.912 107.864 403.148C108.04 404.381 109.354 404.976 110.826 404.486C112.299 403.999 113.095 402.24 117.03 402.676Z" fill="#2C407F"/>
<path d="M97.25 388.792C98.897 390.99 103.296 395.493 105.29 397.469L105.871 395.292C104.61 393.921 102.914 391.305 101.181 389.48C99.3675 387.571 97.1355 385.184 95.7612 383.248L94.0602 383.278C94.3377 384.409 95.6031 386.594 97.25 388.792Z" fill="#1C1622"/>
<path d="M98.7535 387.211L100.386 386.54C100.874 386.34 101.107 385.782 100.907 385.293C100.706 384.805 100.148 384.572 99.66 384.773L98.0275 385.443C97.5394 385.643 97.3062 386.202 97.5067 386.69C97.7072 387.178 98.2654 387.411 98.7535 387.211Z" fill="#2B2A2A"/>
<path d="M101.252 389.974L102.885 389.303C103.373 389.103 103.606 388.544 103.405 388.056C103.205 387.568 102.647 387.335 102.159 387.536L100.526 388.206C100.038 388.406 99.8048 388.965 100.005 389.453C100.206 389.941 100.764 390.174 101.252 389.974Z" fill="#2B2A2A"/>
<path d="M103.441 392.737L105.073 392.07C105.562 391.87 105.796 391.312 105.596 390.824C105.396 390.335 104.839 390.101 104.35 390.301L102.718 390.968C102.229 391.168 101.995 391.726 102.195 392.214C102.395 392.703 102.952 392.937 103.441 392.737Z" fill="#2B2A2A"/>
<path d="M105.941 395.5L107.573 394.829C108.061 394.629 108.294 394.071 108.094 393.582C107.893 393.094 107.335 392.861 106.847 393.062L105.215 393.732C104.727 393.933 104.493 394.491 104.694 394.979C104.894 395.467 105.452 395.7 105.941 395.5Z" fill="#2B2A2A"/>
<path d="M109.675 398.251L111.308 397.584C111.796 397.384 112.03 396.826 111.831 396.338C111.631 395.849 111.073 395.615 110.585 395.815L108.952 396.482C108.464 396.682 108.23 397.24 108.429 397.728C108.629 398.217 109.187 398.451 109.675 398.251Z" fill="#2B2A2A"/>
<path d="M72.2573 407.165L101.265 408.223L130.086 406.66L130.582 410.487C130.726 411.596 129.887 412.594 128.768 412.64L101.915 413.788L86.9538 414.083L71.9867 413.722L72.2573 407.165Z" fill="#E7E5DD"/>
<path d="M72.1172 413.43C76.7276 413.545 88.3097 413.908 93.357 413.863C96.9783 413.833 127.773 412.805 130.858 411.849" stroke="#536E83" stroke-width="1.5"/>
<path d="M82.9034 391.053C84.8805 390.894 85.8759 390.022 86.1264 389.604C86.3515 390.683 86.0289 392.887 82.9383 393.064C79.8479 393.242 78.931 390.918 78.8585 389.73C79.3831 390.238 80.9261 391.212 82.9034 391.053Z" fill="black"/>
<path d="M84.8871 389.471C85.026 390.334 84.6592 391.176 84.4584 391.488C82.6272 392.914 80.5927 391.558 80.5683 390.166C80.544 388.774 81.4664 388.449 82.3942 388.431C83.322 388.416 84.7137 388.392 84.8871 389.471Z" fill="black"/>
<path d="M22.8292 91.5397C25.2343 88.8339 26.3868 80.3656 26.1363 73.3506H108.964C107.311 78.3615 108.904 89.2548 112.873 94.5462C117.834 101.16 124.448 103.415 124.448 103.415C124.448 103.415 115.278 117.546 99.0431 115.291C80.9042 114.89 42.6117 114.329 34.5544 115.291C26.4971 116.253 16.5657 106.572 12.6072 101.611C14.5614 101.211 20.08 94.6325 22.8292 91.5397Z" fill="#A23A26"/>
<path d="M15.932 149.54C23.2018 133.213 35.0835 134.445 40.132 135.063L34.1034 214.053H3.13672C1.03216 199.322 4.13138 178.644 4.60255 176.773C6.18807 170.48 10.3276 162.127 15.932 149.54Z" fill="#19171D"/>
<path d="M116.629 150.365C109.359 134.038 97.4777 135.27 92.429 135.889L98.4575 214.878L130.16 208.792C134.219 196.315 128.43 179.469 127.958 177.598C126.373 171.305 122.234 162.952 116.629 150.365Z" fill="#19171D"/>
<path d="M30.5467 145.074C31.7965 135.983 39.4215 129.316 48.6011 129.215L69.3398 128.985L88.448 130.998C97.1844 131.919 104.273 138.705 105.423 147.44C107.93 166.477 111.823 199.777 111.823 223.057C111.823 257.398 117.283 260.682 108.829 265.182C100.375 269.682 32.7393 269.048 23.5051 262.072C14.2707 255.096 20.0123 247.828 20.0123 233.584C20.0123 223.091 26.9129 171.51 30.5467 145.074Z" fill="black"/>
<path d="M20.3837 270.821L22.4331 258.465C22.6814 256.968 24.0068 255.89 25.5233 255.953L106.533 259.306C108.144 259.373 109.415 260.698 109.415 262.31V274.081C109.415 275.781 108.008 277.142 106.309 277.086L23.2495 274.318C21.4341 274.258 20.0865 272.613 20.3837 270.821Z" fill="black"/>
<path d="M62.8152 155.728C53.0192 153.825 24.6454 136.569 35.6659 125.865C42.707 116.944 54.0336 128.838 55.5642 134.785C56.7887 139.543 63.378 145.491 65.521 148.663C67.9701 150.942 72.6112 157.631 62.8152 155.728Z" fill="#19171D"/>
<path d="M73.0371 155.277C82.8331 153.374 109.629 136.569 98.608 125.865C91.5672 116.944 80.2406 128.838 78.71 134.785C77.4855 139.543 72.775 146.092 70.632 149.264C68.1829 151.544 63.2409 157.18 73.0371 155.277Z" fill="#19171D"/>
<path d="M54.5473 150.617C56.3738 150.617 57.8545 149.136 57.8545 147.31C57.8545 145.483 56.3738 144.003 54.5473 144.003C52.7209 144.003 51.2402 145.483 51.2402 147.31C51.2402 149.136 52.7209 150.617 54.5473 150.617Z" fill="#C4C4C4"/>
<path d="M81.0044 150.617C82.8308 150.617 84.3115 149.136 84.3115 147.31C84.3115 145.483 82.8308 144.003 81.0044 144.003C79.1779 144.003 77.6973 145.483 77.6973 147.31C77.6973 149.136 79.1779 150.617 81.0044 150.617Z" fill="#C4C4C4"/>
<path d="M78.8998 147.911V174.368C78.8998 175.53 79.842 176.473 81.0043 176.473C82.1666 176.473 83.1088 175.53 83.1088 174.368V147.911C83.1088 146.749 82.1666 145.807 81.0043 145.807C79.842 145.807 78.8998 146.749 78.8998 147.911Z" fill="#3A3838"/>
<path d="M101.857 224.921L101.353 225.121L100.78 225.344L96.8908 226.792C93.4191 228.092 88.5662 229.926 86.2722 230.871L86.0486 230.964C79.9483 233.509 74.9131 236.151 70.4441 239.368C64.8352 243.405 60.3999 248.193 57.2841 253.963C54.9173 258.346 56.5517 263.818 60.9348 266.185C65.274 268.528 70.6804 266.95 73.0846 262.665L73.1566 262.534C76.4361 256.461 82.5979 251.989 92.6892 247.739L93.1955 247.528L93.7569 247.3C97.6231 245.749 107.123 242.233 107.364 242.139C107.775 241.979 108.172 241.823 108.556 241.669C113.181 239.819 115.431 234.57 113.581 229.945C111.731 225.32 106.482 223.071 101.857 224.921Z" fill="#CDA497"/>
<path d="M26.0156 238.358L34.5158 242.423L36.0622 243.17L37.6912 243.961C39.955 245.065 42.0395 246.098 44.0498 247.115L44.8981 247.546C47.4211 248.831 49.7487 250.054 51.8924 251.225L52.6817 251.658L53.3451 252.026C58.96 255.158 63.0067 257.811 64.9947 259.66L65.1401 259.797C68.735 263.245 74.4446 263.126 77.8927 259.531C81.3409 255.936 81.222 250.227 77.6271 246.779C74.1125 243.408 68.5685 239.8 60.9275 235.606L60.1588 235.186C57.8335 233.921 55.3348 232.614 52.6446 231.248L51.5178 230.678L50.3203 230.077C48.3082 229.072 46.2094 228.041 43.9324 226.939L38.4316 224.298L33.9398 222.153C29.447 220.002 24.0609 221.9 21.9097 226.393C19.78 230.841 21.6192 236.164 26.0156 238.358Z" fill="#EBBAAA"/>
<path d="M67.3248 237.504L58.0048 232.994L48.5344 251.033L58.0048 255.543C58.0048 256.745 58.1762 250.578 60.8609 245.621C62.8151 242.014 65.2203 239.308 67.3248 237.504Z" fill="#161616"/>
<path d="M81.8666 253.839L90.9257 249.53L80.854 232.844L72.7366 237.203C73.1271 237.429 76.5509 240.217 79.5011 245.02C81.6483 248.516 81.3567 251.114 81.8666 253.839Z" fill="#161616"/>
<path d="M90.3243 252.236C122.945 250.883 133.317 210.145 131.363 193.91H111.069C111.959 205.876 85.514 223.825 80.2527 234.197C82.9582 237.654 79.4665 252.686 90.3243 252.236Z" fill="#19171D"/>
<path d="M46.8809 253.438C8.9994 253.438 -3.32696 215.707 4.63996 189.551H21.6267C20.7368 201.517 53.0441 220.968 61.6126 236.151C59.6584 242.765 57.7478 253.438 46.8809 253.438Z" fill="#19171D"/>
<path d="M52.1422 147.911V180.982C52.1422 182.145 53.0844 183.087 54.2467 183.087C55.409 183.087 56.3513 182.145 56.3513 180.982V147.911C56.3513 146.749 55.409 145.807 54.2467 145.807C53.0844 145.807 52.1422 146.749 52.1422 147.911Z" fill="#3A3838"/>
<rect x="56.6144" y="114.239" width="20.7446" height="34.5744" rx="8.625" fill="#EBBAAA"/>
<path d="M110.167 97.5691C116.809 97.5691 122.193 91.7137 122.193 84.491C122.193 77.2679 116.809 71.4128 110.167 71.4128C103.526 71.4128 98.1412 77.2679 98.1412 84.491C98.1412 91.7137 103.526 97.5691 110.167 97.5691Z" fill="#EBBAAA"/>
<path d="M23.5808 97.5691C16.9391 97.5691 11.5549 91.7137 11.5549 84.491C11.5549 77.2679 16.9391 71.4128 23.5808 71.4128C30.2224 71.4128 35.6067 77.2679 35.6067 84.491C35.6067 91.7137 30.2224 97.5691 23.5808 97.5691Z" fill="#EBBAAA"/>
<path d="M22.04 55.4084C22.04 30.5023 42.2306 10.3115 67.137 10.3115C92.0435 10.3115 112.234 30.5023 112.234 55.4084V71.8977C112.234 74.5768 112.029 77.2516 111.621 79.8994L108.865 97.7897C105.701 118.333 88.023 133.496 67.2375 133.496C46.8933 133.496 29.457 118.955 25.8034 98.9412L22.8946 83.0081C22.326 79.894 22.04 76.7348 22.04 73.5693V55.4084Z" fill="#F4D5CC"/>
<path d="M82.1396 56.3831L82.2765 56.3235L82.3693 56.2847C82.6987 56.1494 83.0973 56.0095 83.5604 55.8761C85.3459 55.3619 87.4402 55.1169 89.7872 55.3022C91.7522 55.4573 93.4757 55.8281 94.9555 56.3434C95.6283 56.5777 96.1971 56.8235 96.6599 57.0619C96.784 57.1258 96.8893 57.1834 96.9755 57.2334L97.0636 57.2851L97.0573 57.2808C98.4323 58.2116 100.301 57.8514 101.232 56.4764C102.163 55.1013 101.803 53.2321 100.428 52.3014C100.212 52.1551 99.873 51.9531 99.4126 51.716C98.7039 51.3511 97.8768 50.9936 96.9329 50.6649C94.9764 49.9836 92.7487 49.5043 90.2604 49.3079C87.1595 49.0631 84.3477 49.392 81.8963 50.098C81.2174 50.2936 80.612 50.5061 80.0839 50.7231L79.9047 50.7981L79.7426 50.8687C79.5635 50.9482 79.4195 51.0177 79.3116 51.0741C77.8399 51.8429 77.2702 53.6592 78.039 55.1309C78.7809 56.551 80.498 57.1313 81.9397 56.4796L82.0181 56.4428L82.1396 56.3831Z" fill="#393939"/>
<path d="M54.8542 50.9859L54.7491 50.9412L54.6238 50.8905C54.4886 50.8372 54.3234 50.7758 54.1293 50.7085C53.6313 50.5358 53.0613 50.3667 52.4234 50.211C50.0129 49.6228 47.2571 49.3638 44.2328 49.609C41.9128 49.7971 39.7784 50.2002 37.8503 50.7567C36.8735 51.0386 36.0066 51.3437 35.2553 51.6533C34.9822 51.7659 34.7403 51.8726 34.5304 51.9712L34.3226 52.0713L34.2103 52.1285C32.7399 52.8997 32.173 54.7169 32.9442 56.1874C33.7018 57.632 35.4691 58.2045 36.9254 57.4929L37.0864 57.4138C37.21 57.3558 37.3637 57.288 37.5467 57.2126C38.0984 56.9852 38.7576 56.7532 39.5176 56.5338C41.0706 56.0856 42.8109 55.7569 44.7187 55.6022C47.0701 55.4116 49.1866 55.6105 50.9979 56.0525C51.3981 56.1502 51.7498 56.2522 52.0496 56.3522L52.2912 56.4363L52.4301 56.4887L52.4368 56.4915C53.9571 57.1591 55.7307 56.4678 56.3983 54.9474C57.0658 53.4271 56.3745 51.6535 54.8542 50.9859Z" fill="#393939"/>
<path d="M19.3736 47.3728C19.1721 29.0302 35.3086 23.0205 32.4519 26.4778C29.5954 29.9351 36.3609 38.5037 32.4519 41.2095C28.5432 43.9153 32.9029 52.6344 30.7983 55.9415C28.6938 59.2486 25.334 58.497 23.4324 64.9609C21.5308 71.4248 23.1318 84.009 23.1318 84.009C23.2821 84.3526 23.1318 84.8036 22.8311 84.8036C22.5305 84.8036 22.0795 84.6533 21.9573 84.009C21.9573 84.009 19.6741 74.7316 19.3736 47.3728Z" fill="black"/>
<path d="M114.074 50.211C114.26 33.2733 99.3648 27.7238 102.002 30.9163C104.638 34.1088 98.3935 42.0211 102.002 44.5198C105.61 47.0184 101.585 55.0695 103.528 58.1234C105.471 61.1771 108.572 60.4832 110.327 66.4519C112.083 72.421 110.605 84.0413 110.605 84.0413C110.466 84.3588 110.605 84.7752 110.882 84.7752C111.16 84.7752 111.576 84.6363 111.689 84.0413C111.689 84.0413 113.796 75.4747 114.074 50.211Z" fill="black"/>
<path d="M65.9126 75.407C63.9415 78.3636 62.4769 82.5742 62.4769 86.0318C62.4769 91.0447 65.4704 94.4124 71.0454 94.4124V89.3014C68.436 89.3014 67.5879 88.3473 67.5879 86.0318C67.5879 83.6644 68.7199 80.4101 70.1652 78.2421L65.9126 75.407Z" fill="#EBBAAA"/>
<path d="M88.1822 71.5466H83.9731" stroke="black" stroke-width="6" stroke-linecap="round"/>
<path d="M50.4511 71.5466H46.2421" stroke="black" stroke-width="6" stroke-linecap="round"/>
<path fill-rule="evenodd" clip-rule="evenodd" d="M79.241 104.498V105.36C79.241 111.764 74.0498 116.955 67.6457 116.955C61.2419 116.955 56.0507 111.764 56.0507 105.36V104.498H79.241Z" fill="white"/>
<path fill-rule="evenodd" clip-rule="evenodd" d="M66.9725 38.9951C30.8471 38.9951 21.0104 60.6961 20.6076 71.5467C12.855 47.7956 11.2743 0.293457 66.9725 0.293457C122.671 0.293457 120.888 47.7956 113.035 71.5467C112.733 60.6961 103.098 38.9951 66.9725 38.9951Z" fill="#BB462F"/>
<mask id="mask5_32_379" style="mask-type:luminance" maskUnits="userSpaceOnUse" x="16" y="0" width="102" height="72">
<path fill-rule="evenodd" clip-rule="evenodd" d="M66.9725 38.9951C30.8471 38.9951 21.0104 60.6961 20.6076 71.5467C12.855 47.7956 11.2743 0.293457 66.9725 0.293457C122.671 0.293457 120.888 47.7956 113.035 71.5467C112.733 60.6961 103.098 38.9951 66.9725 38.9951Z" fill="white"/>
</mask>
<g mask="url(#mask5_32_379)">
</g>
<path d="M38.7057 184.352C39.9532 184.319 41.3196 184.539 42.8047 185.011C44.3058 185.483 45.6993 186.118 46.985 186.916C48.2867 187.714 49.377 188.685 50.2559 189.83C51.1507 190.975 51.6141 192.147 51.6461 193.346C51.67 194.242 50.9721 195.381 49.5525 196.763C48.1484 198.129 46.5077 199.325 44.6305 200.352C42.7532 201.378 41.2067 201.908 39.9912 201.94C39.7193 201.947 39.27 201.607 38.6435 200.92C38.0325 200.216 37.7225 199.696 37.7135 199.36C37.696 198.704 38.0793 196.869 38.8632 193.855C39.6626 190.825 40.1514 188.747 40.3295 187.622C39.7434 187.254 39.2514 186.81 38.8535 186.293C38.4551 185.759 38.251 185.309 38.2412 184.941C38.231 184.557 38.3858 184.361 38.7057 184.352ZM48.1734 192.767C48.1598 192.255 47.67 191.596 46.7042 190.789C45.7379 189.967 44.6235 189.292 43.361 188.766C43.2971 189.968 42.6858 192.553 41.5272 196.521C41.4688 196.731 41.374 197.078 41.2428 197.561C41.1272 198.028 41.0396 198.343 40.9799 198.505C42.5333 197.935 44.125 197.004 45.7551 195.712C47.3848 194.404 48.1909 193.422 48.1734 192.767ZM62.5776 183.715C63.0254 183.703 63.5239 184.09 64.073 184.876C64.6218 185.646 64.9029 186.286 64.9166 186.798C64.9303 187.31 64.8331 187.569 64.6252 187.574C64.5292 187.577 64.3204 187.55 63.9989 187.495C63.6933 187.439 63.4285 187.414 63.2046 187.42C62.4049 187.441 61.4828 187.978 60.4385 189.03C59.3942 190.082 58.5072 191.331 57.7774 192.775C57.0637 194.218 56.7207 195.46 56.7484 196.499C56.7621 197.011 56.8521 197.385 57.0184 197.621C57.1843 197.84 57.4752 197.944 57.891 197.933C58.9947 197.904 60.1098 197.706 61.2364 197.34C62.363 196.974 63.2898 196.613 64.0165 196.257C64.7429 195.886 65.154 195.699 65.25 195.696C65.362 195.693 65.4685 195.787 65.5696 195.976C65.6862 196.149 65.748 196.363 65.7548 196.619C65.7693 197.163 65.3547 197.822 64.5111 198.597C63.667 199.356 62.6363 200.016 61.4188 200.576C60.2173 201.136 59.1207 201.43 58.1291 201.456C57.1374 201.483 56.0738 200.911 54.9382 199.741C53.8186 198.57 53.2443 197.441 53.2153 196.353C53.1747 194.834 53.6165 193.094 54.5405 191.132C55.4641 189.155 56.6746 187.434 58.1721 185.97C59.6856 184.505 61.1541 183.753 62.5776 183.715ZM70.7741 192.908L70.7716 192.812C70.7664 192.62 70.8501 192.458 71.0227 192.325C71.2238 192.064 71.6222 191.701 72.2181 191.237C72.8139 190.773 73.3706 190.342 73.8882 189.944C74.4213 189.53 74.8966 189.045 75.3139 188.489C75.7312 187.934 75.9331 187.4 75.9194 186.889C75.9143 186.697 75.8398 186.603 75.6958 186.607C75.168 186.621 74.4233 186.905 73.4618 187.458C72.4998 187.996 71.8828 188.269 71.6109 188.276C71.339 188.283 70.8997 188.015 70.293 187.471C69.6858 186.911 69.3786 186.495 69.3714 186.223C69.3594 185.775 69.7238 185.333 70.4644 184.897C71.2046 184.446 72.0516 184.095 73.0052 183.845C73.9745 183.579 74.827 183.437 75.5627 183.417C76.6183 183.389 77.5403 183.748 78.3285 184.496C79.1327 185.242 79.5461 186.04 79.5687 186.887C79.5913 187.735 79.2549 188.624 78.5595 189.555C77.8796 190.47 77.0215 191.301 75.9851 192.049C78.2375 192.485 79.3842 193.471 79.4251 195.006C79.4512 195.982 78.909 196.957 77.7986 197.93C76.7037 198.888 75.3638 199.66 73.7789 200.247C72.194 200.833 70.6898 201.145 69.2663 201.183C67.5389 201.229 66.6652 200.876 66.6451 200.125C66.634 199.709 68.0566 199.039 70.913 198.114C71.9765 197.782 72.9491 197.34 73.8307 196.788C74.7283 196.236 75.1696 195.68 75.1547 195.12C75.1466 194.816 74.9804 194.588 74.6563 194.437C74.3317 194.27 73.9688 194.167 73.5677 194.13C72.3483 194.018 71.5508 193.824 71.1753 193.546C70.9151 193.392 70.7814 193.18 70.7741 192.908ZM90.1737 196.856C90.1438 195.737 90.4628 194.496 91.1307 193.133C91.7986 191.771 92.6876 190.595 93.7976 189.605C94.9236 188.615 96.0384 188.105 97.142 188.075C97.7018 188.06 98.2874 188.413 98.8988 189.133C99.5098 189.837 99.823 190.477 99.8383 191.052C99.8494 191.468 99.6631 191.681 99.2792 191.691C99.0873 191.697 98.821 191.616 98.4804 191.449C98.1399 191.282 97.7936 191.203 97.4418 191.212C97.0899 191.222 96.5942 191.539 95.9546 192.164C95.3306 192.773 94.774 193.508 94.2848 194.37C93.8112 195.215 93.5808 195.877 93.5936 196.357C93.6064 196.837 93.7027 197.146 93.8824 197.285C94.0782 197.424 94.528 197.484 95.2317 197.465C95.9515 197.446 96.5975 197.365 97.1699 197.222C97.7583 197.078 98.1867 196.938 98.4552 196.803C98.7393 196.652 98.9933 196.573 99.2172 196.567C99.665 196.555 99.8941 196.741 99.9043 197.125C99.9231 197.828 99.3265 198.565 98.1146 199.333C96.9022 200.086 95.6802 200.479 94.4487 200.511C93.665 200.532 92.7578 200.124 91.7271 199.288C90.712 198.434 90.1942 197.624 90.1737 196.856Z" fill="white"/>
</svg>
