<svg width="218" height="320" viewBox="0 0 218 320" fill="none" xmlns="http://www.w3.org/2000/svg">
<path opacity="0.9" d="M36.477 74.956C36.1613 73.9979 35.919 72.9608 35.7776 71.8421C35.1356 66.763 36.9698 62.7674 38.1548 60.6843C39.7645 57.8544 42.2166 55.6777 45.0938 54.3968C45.7886 52.3731 46.6058 50.3396 47.5695 48.3343C47.1784 44.9482 47.5619 41.8666 48.0948 39.4396C49.3854 33.5619 52.4578 27.9376 54.0794 24.9691C54.1722 24.7992 54.2603 24.638 54.343 24.4859C54.657 23.9085 54.9192 23.4263 55.1575 22.9785C57.3709 18.8189 61.4103 15.9411 66.0648 15.2078C68.8977 14.7614 71.758 15.141 74.3262 16.2455C79.6104 15.6291 85.3742 16.8548 90.5311 21.3677C94.3666 24.7243 95.909 29.0081 96.5691 31.7805C99.3182 34.4315 100.957 38.0373 101.139 41.8643C101.329 45.8541 99.92 49.755 97.2239 52.7021C92.58 57.7785 87.906 61.9069 83.0304 64.6127C83.65 66.6075 84.0403 69.0626 83.6889 71.8421C83.5475 72.9608 83.3053 73.9979 82.9895 74.956C86.2682 78.8137 87.4371 83.3389 87.8777 85.6502C88.7509 90.2304 88.5564 95.1027 87.9202 99.4192C86.6886 107.776 83.1079 118.451 76.1411 126.044C73.3002 129.139 69.2909 130.902 65.089 130.902H54.3775C50.1756 130.902 46.1664 129.139 43.3254 126.044C36.3586 118.451 32.7779 107.776 31.5463 99.4192C30.9101 95.1027 30.7156 90.2304 31.5888 85.6502C32.0294 83.3389 33.1984 78.8137 36.477 74.956Z" stroke="black" stroke-width="30" stroke-linejoin="round"/>
<path fill-rule="evenodd" clip-rule="evenodd" d="M69.6077 46.9086C70.8265 47.4326 71.191 48.5304 70.4217 49.3606C66.5443 53.5451 64.0951 59.5079 62.6853 66.2685C61.2827 72.9946 60.941 80.3427 61.1185 87.1772C61.2958 94.0053 61.9901 100.282 62.6407 104.853C62.9659 107.138 63.2797 108.994 63.5118 110.276C63.6279 110.917 63.7234 111.415 63.7897 111.751C63.8229 111.919 63.8487 112.046 63.8661 112.131C63.8747 112.174 63.8813 112.206 63.8857 112.226L63.8918 112.256C64.0977 113.227 63.1081 114.129 61.6816 114.269C60.2551 114.409 58.9318 113.735 58.7259 112.764L61.3089 112.51C58.7259 112.764 58.7258 112.763 58.7257 112.762L58.718 112.726C58.7131 112.702 58.706 112.668 58.6967 112.622C58.6781 112.532 58.6511 112.398 58.6168 112.224C58.5481 111.876 58.4501 111.366 58.3316 110.711C58.0947 109.402 57.7757 107.515 57.4457 105.196C56.7859 100.561 56.0803 94.1872 55.8999 87.2401C55.7197 80.2995 56.0624 72.7478 57.5178 65.7686C58.966 58.8238 61.5484 52.2758 66.0079 47.4631C66.7771 46.6329 68.3888 46.3846 69.6077 46.9086Z" fill="#4A6040"/>
<path opacity="0.6" d="M54.3774 72.728C52.3991 71.4002 49.4076 71.2393 51.1929 68.1008H68.2735C70.0587 71.2393 67.0672 71.4002 65.0889 72.728C63.1107 74.0558 64.3169 81.4191 70.2517 83.7528C76.1865 86.0866 73.581 106.647 65.0889 115.902H54.3774C45.8853 106.647 43.2798 86.0866 49.2146 83.7528C55.1494 81.4191 56.3556 74.0558 54.3774 72.728Z" fill="#8FDEFF"/>
<path fill-rule="evenodd" clip-rule="evenodd" d="M67.52 31.6529C63.94 38.2349 58.8615 47.5722 66.0413 52.1786C67.0264 52.8106 67.9982 53.0743 68.9143 53.0301C70.145 52.9708 71.2753 52.3556 72.2024 51.3312C74.2946 49.0194 75.3523 44.6234 74.1956 39.8276C73.6701 37.649 72.6877 35.3878 71.1376 33.202C70.3689 32.118 69.4606 31.0526 68.3993 30.025C68.123 30.5442 67.827 31.0884 67.52 31.6529Z" fill="#AB3D3D"/>
<path d="M82.0345 40.1597C79.5245 39.2802 76.7353 39.1618 74.1956 39.8276C75.3523 44.6234 74.2946 49.0194 72.2024 51.3312C78.5561 49.4019 81.3382 44.5113 82.0345 40.1597Z" fill="#DB7A7A"/>
<path d="M86.1563 42.5775C84.9614 41.4979 83.5488 40.6903 82.0345 40.1597C81.3382 44.5113 78.5561 49.4019 72.2024 51.3312C71.2753 52.3556 70.145 52.9708 68.9143 53.0301C72.3965 53.5652 77.353 52.2004 86.1563 42.5775Z" fill="#DB7A7A"/>
<path fill-rule="evenodd" clip-rule="evenodd" d="M68.9143 53.0301C67.9982 53.0743 67.0264 52.8106 66.0413 52.1786C66.905 52.5188 67.8394 52.865 68.9143 53.0301Z" fill="#DB7A7A"/>
<path fill-rule="evenodd" clip-rule="evenodd" d="M68.9651 53.0299C68.049 53.0741 67.0772 52.8104 66.0921 52.1784C66.9558 52.5186 67.8902 52.8647 68.9651 53.0299Z" fill="#5F1818"/>
<path d="M80.6528 32.6556C78.0031 30.3368 74.2844 30.7441 71.1884 33.2018C72.7385 35.3875 73.7209 37.6487 74.2464 39.8274C76.7861 39.1616 79.5753 39.28 82.0853 40.1595C82.6229 36.8004 81.9175 33.7624 80.6528 32.6556Z" fill="#5F1818"/>
<path d="M30 126C21.7157 126 15 132.716 15 141V153.989C15 159.887 18.4041 164.99 23.3549 167.44V176.441V214.108V290C23.3549 298.284 30.0706 305 38.3549 305H50.98C59.2643 305 65.98 298.284 65.98 290V229.108H152.763V290C152.763 298.284 159.478 305 167.763 305H180.388C188.672 305 195.388 298.284 195.388 290V214.108V176.441V167.046C199.933 164.469 203 159.587 203 153.989V141C203 132.716 196.284 126 188 126H30Z" stroke="black" stroke-width="30" stroke-linejoin="round"/>
<rect x="30" y="141" width="158" height="12.9888" fill="#311607"/>
<rect x="38.355" y="145.082" width="142.033" height="69.0262" fill="#311607"/>
<rect x="167.763" y="176.441" width="12.6251" height="113.559" fill="#311607"/>
<rect x="38.355" y="176.441" width="12.6251" height="113.559" fill="#311607"/>
<rect x="50.98" y="153.432" width="116.783" height="48.6152" fill="#562910"/>
<ellipse cx="109.093" cy="177.74" rx="6.12691" ry="6.12329" fill="#B5661E"/>
</svg>
