<svg width="213" height="406" viewBox="0 0 213 406" fill="none" xmlns="http://www.w3.org/2000/svg">
<path d="M123.445 290.555C144.058 290.555 160.768 283.099 160.768 273.902C160.768 264.705 144.058 257.249 123.445 257.249C102.832 257.249 86.1213 264.705 86.1213 273.902C86.1213 283.099 102.832 290.555 123.445 290.555Z" fill="#363636"/>
<path d="M146.7 316.646C151.457 316.289 155.61 319.817 156.042 324.55L156.054 324.694L160.668 386.135C161.029 390.941 157.426 395.129 152.62 395.49C147.863 395.847 143.711 392.319 143.278 387.586L143.266 387.442L138.652 326.001C138.291 321.195 141.894 317.007 146.7 316.646Z" fill="#EBBAAA"/>
<path d="M108.3 316.469C113.071 316.497 116.925 320.348 116.975 325.101L116.975 325.245L116.618 386.839C116.59 391.658 112.661 395.542 107.842 395.514C103.071 395.486 99.2171 391.635 99.1676 386.882L99.1672 386.738L99.524 325.144C99.5519 320.325 103.481 316.441 108.3 316.469Z" fill="#EBBAAA"/>
<path d="M81.749 243.307H125.377L122.146 360.903L121.176 372.379L96.4532 371.048L87.3567 344.337L81.749 243.307Z" fill="#363636"/>
<path d="M124.962 245.311H173.384L168.778 349.86L163.512 370.05L138.143 372.211L136.689 362.733L124.962 245.311Z" fill="#363636"/>
<path opacity="0.2" fill-rule="evenodd" clip-rule="evenodd" d="M85.7124 286.935L94.2641 262.98L99.2845 264.844L90.7328 286.935H85.7124Z" fill="white"/>
<path opacity="0.2" fill-rule="evenodd" clip-rule="evenodd" d="M170.339 286.935L161.787 262.98L156.767 264.844L165.318 286.935H170.339Z" fill="white"/>
<path d="M62.8433 404.029C62.8433 390.065 74.1624 378.748 88.1253 378.748H91.9165H95.164C95.164 378.748 94.8274 384.384 105.769 384.384C116.711 384.384 118.226 378.748 118.226 378.748H119.607C120.371 378.748 120.99 379.367 120.99 380.129V402.444C120.99 404.355 119.442 405.901 117.533 405.901H64.716C63.6817 405.901 62.8433 405.064 62.8433 404.029Z" fill="#3B3F45"/>
<mask id="mask0_12_1094" style="mask-type:luminance" maskUnits="userSpaceOnUse" x="62" y="378" width="59" height="28">
<path fill-rule="evenodd" clip-rule="evenodd" d="M62.8433 404.029C62.8433 390.065 74.1624 378.748 88.1253 378.748H91.9165H99.1849H106.453H113.722H120.99V402.444C120.99 404.355 119.442 405.901 117.533 405.901H64.716C63.6817 405.901 62.8433 405.064 62.8433 404.029Z" fill="white"/>
</mask>
<g mask="url(#mask0_12_1094)">
<path d="M69.587 388.768C65.2274 386.301 66.9372 391.187 63.0198 393.259L54.7246 409.158H120.741C122.354 406.855 128.182 394.907 123.542 393.259C115.021 390.236 100.003 400.689 93.7815 400.346C87.56 399.999 69.7509 402.591 70.7968 397.062C72.0063 390.667 73.5618 391.013 69.587 388.768Z" fill="#555D65"/>
<path d="M94.5048 392.024C92.4832 392.586 90.8536 392.511 89.9305 391.794C87.5525 389.925 89.075 387.075 89.7209 385.96C88.5583 387.326 87.403 388.696 86.5014 390.194C85.0799 392.529 84.4768 395.092 85.4358 396.736C87.1551 399.703 91.2877 398.333 93.922 397.14L118.366 386.071L94.5048 392.024Z" fill="#7F8389"/>
</g>
<path d="M86.5582 377.776C86.8901 377.333 87.5074 377.232 87.9619 377.535L89.4013 378.561C89.5025 378.634 89.5917 378.698 89.6605 378.749L89.6993 378.778C91.5568 380.171 92.5721 381.44 92.5721 383.063C92.5721 383.732 91.9496 384.221 91.3063 384.074L91.2526 384.06L83.4612 381.854L86.0217 385.972C86.5236 386.779 85.7666 387.769 84.8681 387.52L84.818 387.505L77.2415 385.02L79.9408 388.862C80.2587 389.315 80.1643 389.933 79.7356 390.272L79.6884 390.307C79.236 390.625 78.6175 390.53 78.2791 390.102L78.2439 390.055L73.7507 383.659C73.1875 382.857 73.9463 381.805 74.8716 382.062L74.9222 382.077L82.755 384.645L80.2857 380.674C79.7948 379.884 80.5099 378.907 81.3984 379.116L81.4488 379.129L89.6322 381.446L89.617 381.43C89.3341 381.142 88.9825 380.839 88.5618 380.518L88.4551 380.438C88.1288 380.193 86.9769 379.386 86.7652 379.227C86.3071 378.884 86.2145 378.234 86.5582 377.776Z" fill="#7F8389"/>
<path fill-rule="evenodd" clip-rule="evenodd" d="M82.4098 370.6C83.1378 369.606 84.192 369.066 85.4866 369.066C88.1438 369.066 90.1527 371.35 90.1527 374.421L90.1545 374.793L90.1732 375.934C90.1761 376.118 90.1774 376.256 90.1776 376.392L90.1749 376.746C90.1644 377.312 90.1223 377.725 90.0313 378.072C89.9101 378.534 89.7001 378.867 89.3835 379.077C89.0406 379.312 88.5604 379.429 87.9059 379.429C86.5337 379.429 84.8965 378.919 83.621 378.072C82.1828 377.117 81.3391 375.839 81.3391 374.421C81.3391 372.884 81.7122 371.549 82.4098 370.6ZM88.0789 374.421C88.0789 372.44 86.9352 371.14 85.4867 371.14C84.8559 371.14 84.4222 371.362 84.0819 371.827C83.6664 372.392 83.413 373.299 83.413 374.421C83.413 375.063 83.8618 375.742 84.7684 376.344C85.7091 376.969 86.9486 377.355 87.906 377.355C87.9501 377.355 87.9909 377.354 88.0284 377.353L88.0615 377.351L88.0649 377.326C88.087 377.148 88.1001 376.906 88.1031 376.586L88.1037 376.487C88.104 376.408 88.1038 376.332 88.1032 376.247L88.0808 374.81L88.0789 374.421Z" fill="#7F8389"/>
<path fill-rule="evenodd" clip-rule="evenodd" d="M89.8822 377.013L90.2602 376.198L90.4974 375.678C91.4355 373.684 93.4476 372.804 95.2205 373.594C96.0986 373.986 96.6522 374.665 96.85 375.552C97.0403 376.4 96.8948 377.408 96.4362 378.437C96.014 379.385 95.062 379.986 93.8003 380.192C92.682 380.377 91.418 380.224 90.4833 379.808C90.0299 379.605 89.7292 379.374 89.5682 379.094L89.5698 379.093L89.5537 379.066C89.5244 379.016 89.5113 378.984 89.4874 378.917L89.4743 378.88C89.457 378.815 89.4505 378.791 89.4465 378.772L89.4351 378.702C89.4169 378.565 89.4206 378.419 89.4473 378.257C89.4952 377.96 89.6127 377.622 89.8193 377.153C89.8411 377.104 89.8607 377.06 89.8822 377.013ZM91.7405 377.937L91.6931 378.045C92.1896 378.186 92.8021 378.236 93.3543 378.163L93.4639 378.146C94.095 378.043 94.4385 377.826 94.5421 377.593C94.8303 376.946 94.9116 376.383 94.8266 376.005C94.771 375.756 94.6537 375.612 94.3763 375.488C93.6729 375.175 92.8206 375.558 92.3486 376.617L92.2828 376.763L91.7405 377.937Z" fill="#7F8389"/>
<path d="M194.846 403.88C194.846 389.916 183.527 378.598 169.564 378.598H165.773H162.525C162.525 378.598 162.862 384.235 151.92 384.235C140.978 384.235 139.463 378.598 139.463 378.598H138.082C137.318 378.598 136.699 379.217 136.699 379.98V402.295C136.699 404.206 138.247 405.752 140.156 405.752H192.973C194.008 405.752 194.846 404.914 194.846 403.88Z" fill="#3B3F45"/>
<mask id="mask1_12_1094" style="mask-type:luminance" maskUnits="userSpaceOnUse" x="136" y="378" width="59" height="28">
<path fill-rule="evenodd" clip-rule="evenodd" d="M194.846 403.88C194.846 389.916 183.527 378.598 169.564 378.598H165.773H158.504H151.236H143.968H136.699V402.295C136.699 404.206 138.247 405.752 140.156 405.752H192.973C194.008 405.752 194.846 404.914 194.846 403.88Z" fill="white"/>
</mask>
<g mask="url(#mask1_12_1094)">
<path d="M188.102 388.619C192.462 386.152 190.752 391.038 194.669 393.11L202.965 409.008H136.948C135.335 406.706 129.507 394.757 134.147 393.11C142.668 390.087 157.686 400.54 163.908 400.196C170.129 399.85 187.938 402.442 186.892 396.913C185.683 390.517 184.127 390.864 188.102 388.619Z" fill="#555D65"/>
<path d="M162.654 392.024C164.675 392.586 166.305 392.512 167.228 391.794C169.606 389.925 168.083 387.076 167.438 385.96C168.6 387.327 169.755 388.696 170.657 390.194C172.078 392.529 172.682 395.092 171.723 396.737C170.003 399.703 165.87 398.333 163.236 397.14L138.792 386.071L162.654 392.024Z" fill="#7F8389"/>
</g>
<path d="M169.68 377.419C170.138 377.076 170.788 377.168 171.131 377.626C171.475 378.084 171.382 378.734 170.924 379.078L170.781 379.182C170.416 379.444 169.587 380.027 169.272 380.26L169.234 380.288C168.813 380.604 168.457 380.903 168.167 381.187L168.057 381.296L176.241 378.979C177.135 378.726 177.876 379.683 177.43 380.48L177.404 380.524L174.934 384.496L182.767 381.928C183.698 381.623 184.484 382.655 183.968 383.465L183.939 383.509L179.446 389.905C179.116 390.374 178.47 390.487 178.001 390.158C177.549 389.84 177.428 389.226 177.716 388.762L177.749 388.713L180.448 384.871L172.871 387.355C171.968 387.651 171.186 386.681 171.641 385.867L171.668 385.822L174.228 381.704L166.437 383.911C165.793 384.093 165.153 383.627 165.119 382.969L165.117 382.913C165.117 381.324 166.091 380.075 167.875 378.716L168.073 378.568C168.502 378.253 169.516 377.542 169.68 377.419Z" fill="#7F8389"/>
<path fill-rule="evenodd" clip-rule="evenodd" d="M167.537 374.165C167.583 371.147 169.576 368.917 172.203 368.917C173.497 368.917 174.551 369.456 175.278 370.449C175.977 371.399 176.35 372.735 176.35 374.271C176.35 375.69 175.506 376.967 174.068 377.922C172.793 378.769 171.156 379.279 169.783 379.279C169.129 379.279 168.649 379.162 168.318 378.936C167.989 378.717 167.779 378.384 167.658 377.922C167.567 377.575 167.525 377.162 167.514 376.596L167.512 376.293C167.512 376.208 167.512 376.125 167.513 376.033L167.523 375.396L167.523 375.364C167.53 375.043 167.533 374.816 167.535 374.61L167.537 374.165ZM173.606 371.676C173.267 371.213 172.834 370.991 172.203 370.991C170.754 370.991 169.611 372.291 169.611 374.272C169.611 374.454 169.609 374.62 169.607 374.811L169.597 375.384L169.597 375.416C169.591 375.703 169.588 375.897 169.587 376.058L169.586 376.436C169.589 376.756 169.603 376.999 169.625 377.176L169.628 377.201L169.661 377.203L169.784 377.205C170.741 377.205 171.98 376.819 172.921 376.195C173.828 375.593 174.277 374.913 174.277 374.272C174.277 373.15 174.023 372.243 173.606 371.676Z" fill="#7F8389"/>
<path fill-rule="evenodd" clip-rule="evenodd" d="M162.469 373.444C161.591 373.836 161.037 374.516 160.839 375.403C160.649 376.25 160.795 377.258 161.253 378.288C161.675 379.235 162.627 379.836 163.89 380.043C165.007 380.228 166.271 380.075 167.205 379.659L167.294 379.618C167.496 379.521 167.666 379.418 167.803 379.307L167.848 379.269L167.854 379.264C167.869 379.253 167.881 379.241 167.894 379.226L167.913 379.209C167.998 379.126 168.067 379.038 168.121 378.945L168.117 378.942L168.14 378.911L168.218 378.71C168.244 378.641 168.245 378.626 168.249 378.586L168.256 378.536C168.272 378.405 168.268 378.266 168.242 378.104C168.197 377.831 168.093 377.52 167.913 377.103L167.79 376.824C167.742 376.719 167.682 376.591 167.573 376.359L167.558 376.328L167.28 375.723L167.235 375.622C166.317 373.562 164.269 372.642 162.469 373.444ZM165.341 376.467L165.49 376.796C165.536 376.897 165.596 377.026 165.691 377.229L165.707 377.262L165.932 377.75L165.996 377.895C165.467 378.046 164.806 378.093 164.227 377.997C163.595 377.893 163.251 377.676 163.147 377.444C162.859 376.797 162.778 376.234 162.863 375.856C162.919 375.606 163.036 375.462 163.314 375.338C164.017 375.025 164.869 375.408 165.341 376.467ZM166.602 377.749L167.222 377.391C166.709 377.525 166.631 377.546 166.562 377.618L166.523 377.663L166.602 377.749Z" fill="#7F8389"/>
<path d="M179.265 169.115C183.755 166.174 189.778 167.429 192.72 171.918C198.796 181.192 202.444 195.703 203.904 212.822C205.163 227.587 204.593 243.057 202.42 253.469C201.324 258.723 196.176 262.093 190.922 260.996C185.721 259.911 182.365 254.855 183.363 249.656L183.394 249.498C185.146 241.106 185.647 227.482 184.538 214.473C183.341 200.431 180.434 188.777 176.58 182.751L176.462 182.57C173.521 178.08 174.776 172.057 179.265 169.115Z" fill="#EBBAAA"/>
<path d="M18.2801 119.008C23.5056 118.046 28.5241 121.457 29.5673 126.647L29.5977 126.805L36.3014 163.196L109.103 153.786C114.373 153.105 119.201 156.78 119.965 162.018L119.987 162.178C120.668 167.447 116.992 172.276 111.754 173.039L111.595 173.061L29.6588 183.653C24.588 184.308 19.8865 180.924 18.8851 175.928L18.8559 175.776L10.4836 130.326C9.51125 125.048 13.0019 119.981 18.2801 119.008Z" fill="#EBBAAA"/>
<path d="M101.751 135.607C118.123 133.229 124.479 148.661 124.212 165.203C123.963 180.628 110.799 192.673 95.4119 191.555L54.5179 188.582L43.2305 145.494L101.751 135.607Z" fill="#F2D957"/>
<path d="M178.938 142.707C167.987 130.307 148.536 130.662 138.044 143.453C128.26 155.381 130.513 173.081 142.975 182.177L176.092 206.351L212.563 180.781L178.938 142.707Z" fill="#F2D957"/>
<path d="M82.054 165.163C83.041 147.271 97.3897 133.187 114.95 132.874L138.276 132.459C156.643 132.132 171.849 146.943 172.382 165.679L173.729 213.068L174.305 272.953C174.305 272.953 143.55 274.783 126.207 274.783C108.864 274.783 78.624 272.953 78.624 272.953L79.3201 214.733L82.054 165.163Z" fill="#F2D957"/>
<path d="M126.113 169.424C137.795 169.221 147.099 159.586 146.895 147.904C146.691 136.223 137.056 126.919 125.375 127.123C113.694 127.326 104.389 136.961 104.593 148.643C104.797 160.324 114.432 169.628 126.113 169.424Z" fill="#F6E68B"/>
<rect x="91.3257" y="200.785" width="72.6099" height="49.7669" fill="white"/>
<rect x="91.3257" y="213.821" width="72.6099" height="29.4867" fill="#67A447"/>
<path fill-rule="evenodd" clip-rule="evenodd" d="M153.689 134.053L127.102 209.709L97.5193 136.023L104.399 134.52L127.24 189.329L147.264 133.031L153.689 134.053Z" fill="white"/>
<mask id="mask2_12_1094" style="mask-type:luminance" maskUnits="userSpaceOnUse" x="97" y="133" width="57" height="77">
<path fill-rule="evenodd" clip-rule="evenodd" d="M153.689 134.053L127.102 209.709L97.5193 136.023L104.399 134.52L127.24 189.329L147.264 133.031L153.689 134.053Z" fill="white"/>
</mask>
<g mask="url(#mask2_12_1094)">
<rect opacity="0.5" x="111.477" y="169.794" width="29.7559" height="22.5958" fill="#F2D957"/>
<rect x="110.349" y="175.87" width="29.7559" height="22.5958" fill="#86DB5B"/>
<rect x="110.349" y="181.509" width="29.7559" height="22.5958" fill="#2A89E0"/>
</g>
<path fill-rule="evenodd" clip-rule="evenodd" d="M126.782 218.496C134.791 218.496 141.284 212.003 141.284 203.994C141.284 195.984 134.791 189.492 126.782 189.492C118.773 189.492 112.28 195.984 112.28 203.994C112.28 212.003 118.773 218.496 126.782 218.496Z" fill="#F2D957"/>
<path fill-rule="evenodd" clip-rule="evenodd" d="M111.132 204.105C111.132 195.577 118.045 188.664 126.572 188.664C135.1 188.664 142.013 195.577 142.013 204.105C142.013 212.633 135.1 219.546 126.572 219.546C118.045 219.546 111.132 212.633 111.132 204.105ZM140.219 204.105C140.219 196.568 134.109 190.459 126.573 190.459C119.036 190.459 112.926 196.568 112.926 204.105C112.926 211.642 119.036 217.752 126.573 217.752C134.109 217.752 140.219 211.642 140.219 204.105Z" fill="#A4A800"/>
<mask id="mask3_12_1094" style="mask-type:luminance" maskUnits="userSpaceOnUse" x="113" y="191" width="27" height="26">
<path fill-rule="evenodd" clip-rule="evenodd" d="M126.583 216.998C133.625 216.998 139.333 211.29 139.333 204.249C139.333 197.207 133.625 191.499 126.583 191.499C119.542 191.499 113.834 197.207 113.834 204.249C113.834 211.29 119.542 216.998 126.583 216.998Z" fill="white"/>
</mask>
<g mask="url(#mask3_12_1094)">
<path d="M123.252 188.718H137.087L125.127 219.78H111.292L123.252 188.718Z" fill="#F2D957"/>
</g>
<path fill-rule="evenodd" clip-rule="evenodd" d="M130.531 198.008C131.006 198.008 131.463 197.819 131.799 197.482C132.136 197.146 132.325 196.689 132.325 196.213C132.325 195.738 132.136 195.281 131.799 194.945C131.463 194.608 131.006 194.419 130.531 194.419C130.055 194.419 129.599 194.608 129.262 194.945C128.926 195.281 128.736 195.738 128.736 196.213C128.736 196.689 128.926 197.146 129.262 197.482C129.599 197.819 130.055 198.008 130.531 198.008ZM127.332 210.861L128.242 206.837L130.153 208.666V214.154H131.973V207.295L130.063 205.465L130.609 202.722C131.232 203.44 132.001 204.015 132.865 204.41C133.728 204.804 134.665 205.008 135.614 205.008V203.179C134.012 203.206 132.519 202.365 131.701 200.983L130.79 199.52C130.463 198.971 129.88 198.606 129.243 198.606C129.107 198.606 128.993 198.628 128.879 198.651C128.766 198.674 128.652 198.697 128.515 198.697L123.783 200.709V205.008H125.603V201.898L127.241 201.258L125.785 208.666L121.326 207.752L120.962 209.581L127.332 210.861ZM118.534 201.034C118.702 201.202 118.93 201.297 119.168 201.297H121.859V199.503H119.168C118.93 199.503 118.702 199.597 118.534 199.765C118.365 199.934 118.271 200.162 118.271 200.4C118.271 200.638 118.365 200.866 118.534 201.034ZM120.065 197.709C119.827 197.709 119.599 197.614 119.431 197.446C119.263 197.278 119.168 197.05 119.168 196.812C119.168 196.574 119.263 196.345 119.431 196.177C119.599 196.009 119.827 195.915 120.065 195.915H124.55V197.709H120.065ZM117.637 204.622C117.805 204.79 118.033 204.885 118.271 204.885H121.859V203.091H118.271C118.033 203.091 117.805 203.185 117.637 203.353C117.469 203.522 117.374 203.75 117.374 203.988C117.374 204.226 117.469 204.454 117.637 204.622Z" fill="#B79A00"/>
<rect x="0.189453" y="112.021" width="26.5562" height="28.5401" rx="8.25" transform="rotate(-10.4302 0.189453 112.021)" fill="#EBBAAA"/>
<rect x="15.4919" y="100.99" width="9.52317" height="23.4883" rx="3.9811" transform="rotate(-10.4469 15.4919 100.99)" fill="#EBBAAA"/>
<path d="M195.138 232.902L184.244 235.868L184.244 239.106H192.654L204.563 245.311L205.657 238.505L195.138 232.902Z" fill="black"/>
<path d="M193.91 238.134L195.183 234.344L205.358 239.692L204.862 243.875L193.91 238.134Z" fill="white" fill-opacity="0.3"/>
<rect x="111.478" y="123.256" width="28.1047" height="36.7279" rx="11.749" transform="rotate(-1 111.478 123.256)" fill="#EBBAAA"/>
<path d="M163.58 97.9423C172.675 97.9423 179.253 87.531 180.047 79.8144C180.841 72.0978 172.675 64.3035 163.58 64.3035C154.486 64.3035 147.113 71.248 147.113 79.8144C147.113 88.3808 154.486 97.9423 163.58 97.9423Z" fill="#EBBAAA"/>
<path d="M89.8753 100.02C80.7809 100.02 74.202 89.6089 73.4084 81.8923C72.6148 74.1757 80.7809 66.3813 89.8753 66.3813C98.9697 66.3813 106.342 73.3259 106.342 81.8923C106.342 90.4587 98.9697 100.02 89.8753 100.02Z" fill="#EBBAAA"/>
<path d="M81.991 56.1489C81.991 29.3542 102.167 7.63257 127.056 7.63257C151.944 7.63257 172.12 29.3542 172.12 56.1489L169.07 93.6561C166.536 110.049 160.652 123.652 150.087 130.306C145.601 133.132 146.234 134.704 139.957 134.704H113.818C105.66 134.704 105.505 131.698 100.407 126.794C92.3469 119.039 87.6803 106.536 85.0412 93.6564L81.991 56.1489Z" fill="#F4D4C9"/>
<path d="M162.551 43.6783L159.708 19.8195C159.278 16.2142 155.646 15.2946 165.895 22.8491C176.144 30.4037 174.792 54.5089 172.164 65.1462L170.197 78.6026L169.538 77.0116L168.499 61.4875C163.335 56.2895 163.46 51.3133 162.551 43.6783Z" fill="#FFF03D"/>
<path d="M88.4484 45.8358C88.8718 38.1592 88.007 38.5545 88.289 33.4366C88.489 29.8117 88.5174 28.8935 84.8584 37.4183C81.1994 45.9431 81.0401 56.6827 81.8004 66.9912L82.7038 76.492L84.1474 76.5715L84.7989 64.7536C87.3501 56.5646 88.0253 53.5123 88.4484 45.8358Z" fill="#FFF03D"/>
<path fill-rule="evenodd" clip-rule="evenodd" d="M128.774 2.09909L128.774 2.09888C128.753 2.09888 128.732 2.09888 128.712 2.09891C128.691 2.09888 128.671 2.09888 128.65 2.09888L128.65 2.09909C115.494 2.14696 83.9943 9.82122 82.8105 45.7356C86.3087 41.3117 85.5926 41.6475 90.3911 38.7606C94.251 36.4381 96.0182 32.6643 106.335 30.2026C116.651 27.7405 121.888 30.7886 128.65 30.7886C133.925 30.7886 140.098 28.5613 147.484 30.7886C154.869 33.016 160.241 37.0371 163.662 38.7606C170.631 42.2716 166.826 40.5026 173.637 45.7359C172.453 9.82131 141.929 2.14696 128.774 2.09909Z" fill="#FFF03D"/>
<path d="M95.0437 61.7478L103.094 58.4229L121.049 64.1436C122.579 64.6313 123.424 66.2674 122.937 67.7979C122.458 69.3021 120.869 70.1445 119.362 69.7102L119.282 69.6862L103.352 64.6101L97.2642 67.1244C95.8055 67.7268 94.1384 67.0554 93.4989 65.6238L93.4656 65.5463C92.8632 64.0877 93.5346 62.4205 94.9663 61.781L95.0437 61.7478Z" fill="#393939"/>
<path d="M132.914 64.1436L150.868 58.4229L158.919 61.7478C160.404 62.3609 161.11 64.0616 160.497 65.5463C159.895 67.005 158.243 67.7125 156.777 67.1555L156.699 67.1244L150.611 64.6101L134.68 69.6862C133.176 70.1654 131.57 69.3572 131.052 67.8765L131.026 67.7979C130.547 66.2938 131.355 64.6877 132.836 64.1698L132.914 64.1436Z" fill="#393939"/>
<path d="M123.833 72.2019L129.163 73.5345L124.846 90.8008C124.436 92.4381 125.65 94.0255 127.324 94.0739L127.402 94.075H132.487V99.569H127.402C122.167 99.569 118.311 94.6974 119.479 89.6219L119.516 89.468L123.833 72.2019Z" fill="#EBBAAA"/>
<path d="M100.7 75.2576L100.736 75.2453C105.08 73.7781 109.402 73.7595 114.882 76.1128C115.841 76.5247 116.284 77.6362 115.873 78.5954C115.461 79.5546 114.349 79.9983 113.39 79.5864C108.892 77.6548 105.552 77.6414 102.096 78.7768L101.904 78.8413C101.585 78.9549 99.9316 79.5639 99.4909 79.6787C98.4806 79.9419 97.4484 79.3362 97.1853 78.326C96.928 77.3382 97.5013 76.3294 98.4713 76.0391L98.538 76.0204C98.7806 75.9572 100.302 75.3952 100.7 75.2576Z" fill="#393939"/>
<path d="M138.043 76.7106C143.456 74.3861 147.739 74.3759 152.029 75.7901L152.188 75.8432C152.508 75.9513 154.033 76.5149 154.358 76.6104L154.386 76.6183C155.397 76.8814 156.002 77.9136 155.739 78.9238C155.476 79.9341 154.444 80.5397 153.434 80.2767L153.347 80.2523C152.776 80.0842 151.137 79.4784 150.979 79.4248C147.468 78.2393 144.098 78.2248 139.534 80.1843C138.575 80.5962 137.463 80.1525 137.052 79.1933C136.64 78.2341 137.083 77.1225 138.043 76.7106Z" fill="#393939"/>
<path d="M92.1092 14.0579L89.7114 24.0378L126.127 16.9492L168.366 27.2504L168.044 18.9269L165.01 17.8008L164.818 14.6118L161.056 14.8391L160.758 9.91057L155.922 10.2027L154.619 6.49882L150.321 6.75854L147.54 3.1439L143.177 4.57139L141.693 2.33325L137.126 2.60921L136.968 0L130.946 2.98256L129.177 0.470737L126.647 3.24225L123.803 0.79538L118.855 3.71298L115.473 1.29858L112.138 4.1188L109.72 4.2649L107.173 6.74652L105.959 4.49215L101.689 9.69657L98.6629 8.71548L95.1086 14.6041L92.1092 14.0579Z" fill="#FFF03D"/>
<path fill-rule="evenodd" clip-rule="evenodd" d="M110.349 104.405V110.326C110.349 119.44 117.738 126.825 126.849 126.825C135.963 126.825 143.348 119.44 143.348 110.326V104.405H110.349Z" fill="#393939"/>
<mask id="mask4_12_1094" style="mask-type:luminance" maskUnits="userSpaceOnUse" x="110" y="104" width="34" height="23">
<path fill-rule="evenodd" clip-rule="evenodd" d="M110.376 104.4C110.358 104.705 110.349 105.013 110.349 105.321V111.088C110.349 119.781 117.738 126.826 126.849 126.826C135.963 126.826 143.348 119.781 143.348 111.088V105.321C143.348 105.013 143.339 104.705 143.321 104.4H110.376Z" fill="white"/>
</mask>
<g mask="url(#mask4_12_1094)">
<path d="M126.849 132.116C132.344 132.116 136.799 129.691 136.799 126.7C136.799 123.709 132.344 121.284 126.849 121.284C121.353 121.284 116.899 123.709 116.899 126.7C116.899 129.691 121.353 132.116 126.849 132.116Z" fill="#FF6C6C"/>
</g>
<rect x="110.349" y="104.405" width="32.9998" height="6.8015" fill="white"/>
<path d="M114.455 235H111.004V224.818H114.524C115.535 224.818 116.403 225.022 117.129 225.43C117.858 225.834 118.419 226.416 118.81 227.175C119.201 227.934 119.396 228.842 119.396 229.899C119.396 230.96 119.199 231.871 118.805 232.634C118.414 233.396 117.848 233.981 117.109 234.388C116.374 234.796 115.489 235 114.455 235ZM112.849 233.404H114.365C115.074 233.404 115.666 233.275 116.14 233.016C116.614 232.754 116.97 232.365 117.209 231.848C117.447 231.328 117.567 230.678 117.567 229.899C117.567 229.12 117.447 228.474 117.209 227.96C116.97 227.443 116.617 227.057 116.15 226.802C115.686 226.543 115.109 226.414 114.42 226.414H112.849V233.404ZM129.864 228.254H128.005C127.952 227.949 127.854 227.679 127.711 227.443C127.569 227.205 127.391 227.002 127.179 226.837C126.967 226.671 126.725 226.547 126.453 226.464C126.185 226.378 125.895 226.335 125.583 226.335C125.03 226.335 124.539 226.474 124.112 226.752C123.684 227.027 123.35 227.432 123.108 227.965C122.866 228.496 122.745 229.143 122.745 229.909C122.745 230.688 122.866 231.344 123.108 231.878C123.353 232.408 123.688 232.809 124.112 233.081C124.539 233.349 125.028 233.484 125.578 233.484C125.883 233.484 126.168 233.444 126.434 233.364C126.702 233.281 126.942 233.161 127.154 233.001C127.37 232.842 127.551 232.647 127.696 232.415C127.846 232.183 127.948 231.918 128.005 231.619L129.864 231.629C129.794 232.113 129.644 232.567 129.412 232.991C129.183 233.416 128.883 233.79 128.512 234.115C128.141 234.437 127.706 234.688 127.209 234.871C126.712 235.05 126.16 235.139 125.554 235.139C124.659 235.139 123.86 234.932 123.157 234.518C122.455 234.103 121.901 233.505 121.497 232.723C121.092 231.941 120.89 231.003 120.89 229.909C120.89 228.812 121.094 227.874 121.502 227.095C121.909 226.313 122.465 225.715 123.167 225.3C123.87 224.886 124.665 224.679 125.554 224.679C126.12 224.679 126.647 224.759 127.135 224.918C127.622 225.077 128.056 225.31 128.437 225.619C128.818 225.924 129.132 226.298 129.377 226.742C129.625 227.183 129.788 227.687 129.864 228.254ZM135.108 235.139C134.392 235.139 133.756 235.017 133.199 234.771C132.645 234.526 132.208 234.185 131.886 233.747C131.565 233.31 131.394 232.804 131.374 232.231H133.243C133.26 232.506 133.351 232.746 133.517 232.952C133.683 233.154 133.903 233.311 134.178 233.424C134.453 233.537 134.761 233.593 135.103 233.593C135.467 233.593 135.791 233.53 136.072 233.404C136.354 233.275 136.574 233.096 136.733 232.867C136.893 232.638 136.97 232.375 136.967 232.077C136.97 231.768 136.891 231.497 136.729 231.261C136.566 231.026 136.331 230.842 136.023 230.71C135.718 230.577 135.35 230.511 134.919 230.511H134.019V229.089H134.919C135.273 229.089 135.583 229.027 135.849 228.905C136.117 228.782 136.327 228.61 136.48 228.388C136.632 228.162 136.707 227.902 136.704 227.607C136.707 227.319 136.642 227.069 136.51 226.857C136.381 226.641 136.197 226.474 135.958 226.354C135.723 226.235 135.446 226.175 135.128 226.175C134.816 226.175 134.528 226.232 134.263 226.344C133.997 226.457 133.784 226.618 133.621 226.827C133.459 227.032 133.373 227.277 133.363 227.562H131.588C131.601 226.992 131.765 226.492 132.08 226.061C132.398 225.627 132.823 225.289 133.353 225.047C133.883 224.802 134.478 224.679 135.138 224.679C135.817 224.679 136.407 224.807 136.907 225.062C137.411 225.314 137.801 225.653 138.076 226.081C138.351 226.509 138.488 226.981 138.488 227.498C138.492 228.071 138.323 228.552 137.981 228.94C137.643 229.327 137.199 229.581 136.649 229.7V229.78C137.365 229.879 137.913 230.144 138.295 230.575C138.679 231.003 138.87 231.535 138.866 232.171C138.866 232.741 138.704 233.252 138.379 233.702C138.058 234.15 137.613 234.501 137.047 234.756C136.483 235.012 135.837 235.139 135.108 235.139ZM147.396 235.149C146.634 235.149 145.979 234.982 145.433 234.647C144.889 234.312 144.47 233.85 144.175 233.26C143.883 232.667 143.737 231.984 143.737 231.212C143.737 230.436 143.886 229.752 144.185 229.158C144.483 228.562 144.904 228.098 145.447 227.766C145.994 227.432 146.641 227.264 147.386 227.264C148.006 227.264 148.555 227.379 149.032 227.607C149.513 227.833 149.895 228.152 150.18 228.567C150.465 228.978 150.628 229.458 150.668 230.009H148.947C148.878 229.641 148.712 229.334 148.45 229.089C148.192 228.84 147.845 228.716 147.411 228.716C147.043 228.716 146.72 228.815 146.442 229.014C146.163 229.21 145.946 229.491 145.79 229.859C145.638 230.227 145.562 230.668 145.562 231.182C145.562 231.702 145.638 232.15 145.79 232.524C145.943 232.895 146.157 233.182 146.432 233.384C146.71 233.583 147.037 233.683 147.411 233.683C147.676 233.683 147.913 233.633 148.122 233.533C148.334 233.431 148.512 233.283 148.654 233.091C148.797 232.899 148.894 232.665 148.947 232.39H150.668C150.625 232.93 150.465 233.409 150.19 233.827C149.915 234.241 149.541 234.566 149.067 234.801C148.593 235.033 148.036 235.149 147.396 235.149Z" fill="black"/>
</svg>
