<svg width="402" height="318" viewBox="0 0 402 318" fill="none" xmlns="http://www.w3.org/2000/svg">
<rect opacity="0.9" x="15" y="15" width="172.201" height="200.754" fill="#5F1818" stroke="black" stroke-width="30" stroke-linejoin="round"/>
<rect opacity="0.9" x="114.373" y="130.888" width="124.894" height="143.369" fill="#4A6040" stroke="black" stroke-width="30" stroke-linejoin="round"/>
<rect opacity="0.9" x="236.14" y="228.022" width="74.7878" height="74.7878" fill="#5F1818" stroke="black" stroke-width="30" stroke-linejoin="round"/>
<rect opacity="0.9" x="246.217" y="57.2686" width="140.01" height="162.124" fill="#B5661E" stroke="black" stroke-width="30" stroke-linejoin="round"/>
<rect x="30" y="30" width="142.201" height="170.754" fill="#5F1818"/>
<rect x="129.373" y="145.888" width="94.8942" height="113.369" fill="#4A6040"/>
<path fill-rule="evenodd" clip-rule="evenodd" d="M150.804 200.83C159.523 215.06 171.893 235.247 188.769 226.515C191.084 225.317 192.674 223.735 193.608 221.918C194.862 219.477 194.932 216.612 193.987 213.683C191.853 207.074 184.546 200.143 174.005 197.041C169.216 195.631 163.759 195.012 157.817 195.572C154.87 195.849 151.804 196.417 148.64 197.322C149.335 198.433 150.056 199.609 150.804 200.83Z" fill="#CD8039"/>
<path d="M183.365 182.283C178.876 186.148 175.545 191.399 174.005 197.041C184.546 200.143 191.853 207.074 193.987 213.683C197.331 199.276 190.988 188.467 183.365 182.283Z" fill="#E39F60"/>
<path d="M192.616 177.018C189.204 178.123 186.074 179.951 183.365 182.283C190.988 188.467 197.331 199.276 193.987 213.683C194.932 216.612 194.862 219.477 193.608 221.918C198.514 215.794 201.394 204.711 192.616 177.018Z" fill="#E39F60"/>
<path fill-rule="evenodd" clip-rule="evenodd" d="M193.608 221.918C192.674 223.735 191.084 225.317 188.769 226.515C190.386 225.227 192.093 223.809 193.608 221.918Z" fill="#E39F60"/>
<path fill-rule="evenodd" clip-rule="evenodd" d="M193.664 221.821C192.73 223.638 191.14 225.22 188.825 226.418C190.442 225.129 192.15 223.711 193.664 221.821Z" fill="#B5661E"/>
<path d="M167.347 176.602C159.925 179.136 156.575 186.765 157.874 195.474C163.816 194.914 169.272 195.533 174.061 196.943C175.601 191.301 178.932 186.05 183.422 182.185C177.537 177.411 170.89 175.393 167.347 176.602Z" fill="#B5661E"/>
<rect x="251.14" y="243.022" width="44.7878" height="44.7878" fill="#5F1818"/>
<rect x="261.217" y="72.2686" width="110.01" height="132.124" fill="#B5661E"/>
</svg>
