<svg width="258" height="117" viewBox="0 0 258 117" fill="none" xmlns="http://www.w3.org/2000/svg">
<mask id="path-1-outside-1_12_1073" maskUnits="userSpaceOnUse" x="0" y="-2" width="258" height="119" fill="black">
<rect fill="white" y="-2" width="258" height="119"/>
<path d="M37.5991 28H220.307C220.307 57.7408 196.197 81.8505 166.457 81.8505H91.4495C61.7087 81.8505 37.5991 57.7408 37.5991 28Z"/>
<path d="M92.775 28H165.131C165.131 39.7756 155.585 49.3215 143.81 49.3215H114.097C102.321 49.3215 92.775 39.7756 92.775 28Z"/>
<path d="M122.51 81.8505H135.726C135.726 84.266 133.768 86.2241 131.353 86.2241H126.884C124.469 86.2241 122.51 84.266 122.51 81.8505Z"/>
<path d="M30 32.4788C30 30.0052 32.0052 28 34.4788 28H223.427C225.901 28 227.906 30.0052 227.906 32.4788C227.906 34.9523 225.901 36.9576 223.427 36.9576H34.4788C32.0052 36.9576 30 34.9523 30 32.4788Z"/>
</mask>
<path d="M37.5991 28H220.307C220.307 57.7408 196.197 81.8505 166.457 81.8505H91.4495C61.7087 81.8505 37.5991 57.7408 37.5991 28Z" fill="#562910"/>
<path d="M92.775 28H165.131C165.131 39.7756 155.585 49.3215 143.81 49.3215H114.097C102.321 49.3215 92.775 39.7756 92.775 28Z" fill="#562910"/>
<path d="M122.51 81.8505H135.726C135.726 84.266 133.768 86.2241 131.353 86.2241H126.884C124.469 86.2241 122.51 84.266 122.51 81.8505Z" fill="#562910"/>
<path d="M30 32.4788C30 30.0052 32.0052 28 34.4788 28H223.427C225.901 28 227.906 30.0052 227.906 32.4788C227.906 34.9523 225.901 36.9576 223.427 36.9576H34.4788C32.0052 36.9576 30 34.9523 30 32.4788Z" fill="#562910"/>
<path d="M37.5991 28V-2C21.0305 -2 7.59908 11.4315 7.59908 28L37.5991 28ZM220.307 28H250.307C250.307 11.4315 236.876 -2 220.307 -2V28ZM92.775 28V-2C76.2064 -2 62.775 11.4315 62.775 28L92.775 28ZM165.131 28H195.131C195.131 11.4315 181.7 -2 165.131 -2V28ZM122.51 81.8505V51.8505C105.942 51.8505 92.5105 65.282 92.5105 81.8505H122.51ZM135.726 81.8505H165.726C165.726 65.282 152.295 51.8505 135.726 51.8505V81.8505ZM37.5991 58H220.307V-2H37.5991V58ZM166.457 51.8505H91.4495V111.851H166.457V51.8505ZM91.4495 51.8505C78.2773 51.8505 67.5991 41.1723 67.5991 28H7.59908C7.59908 74.3093 45.1401 111.851 91.4495 111.851V51.8505ZM190.307 28C190.307 41.1723 179.629 51.8505 166.457 51.8505V111.851C212.766 111.851 250.307 74.3093 250.307 28H190.307ZM92.775 58H165.131V-2H92.775V58ZM143.81 19.3215H114.097V79.3215H143.81V19.3215ZM114.097 19.3215C118.889 19.3215 122.775 23.207 122.775 28H62.775C62.775 56.3441 85.7524 79.3215 114.097 79.3215V19.3215ZM135.131 28C135.131 23.207 139.017 19.3215 143.81 19.3215V79.3215C172.154 79.3215 195.131 56.3441 195.131 28H135.131ZM122.51 111.85H135.726V51.8505H122.51V111.85ZM131.353 56.2241H126.884V116.224H131.353V56.2241ZM126.884 56.2241C141.037 56.2241 152.51 67.6975 152.51 81.8505H92.5105C92.5105 100.835 107.9 116.224 126.884 116.224V56.2241ZM105.726 81.8505C105.726 67.6975 117.2 56.2241 131.353 56.2241V116.224C150.337 116.224 165.726 100.835 165.726 81.8505H105.726ZM34.4788 58H223.427V-2H34.4788V58ZM223.427 6.95757H34.4788V66.9576H223.427V6.95757ZM34.4788 6.95757C48.5738 6.95757 60 18.3838 60 32.4788H0C0 51.5208 15.4366 66.9576 34.4788 66.9576V6.95757ZM197.906 32.4788C197.906 18.3838 209.332 6.95757 223.427 6.95757V66.9576C242.469 66.9576 257.906 51.5209 257.906 32.4788H197.906ZM223.427 58C209.332 58 197.906 46.5738 197.906 32.4788H257.906C257.906 13.4367 242.469 -2 223.427 -2V58ZM34.4788 -2C15.4367 -2 0 13.4367 0 32.4788H60C60 46.5738 48.5738 58 34.4788 58V-2Z" fill="black" mask="url(#path-1-outside-1_12_1073)"/>
<path opacity="0.7" d="M37.5991 28H220.307C220.307 57.7408 196.197 81.8505 166.457 81.8505H91.4496C61.7088 81.8505 37.5991 57.7408 37.5991 28Z" fill="#B5661E"/>
<path opacity="0.7" d="M92.7749 28H165.131C165.131 39.7756 155.585 49.3215 143.81 49.3215H114.096C102.321 49.3215 92.7749 39.7756 92.7749 28Z" fill="#E9B98E"/>
<path d="M122.51 81.8506H135.726C135.726 84.2661 133.768 86.2242 131.353 86.2242H126.884C124.469 86.2242 122.51 84.2661 122.51 81.8506Z" fill="#562910"/>
<rect x="30" y="28" width="197.906" height="8.95756" rx="4.47878" fill="#562910"/>
</svg>
