<svg width="11" height="11" viewBox="0 0 11 11" fill="none" xmlns="http://www.w3.org/2000/svg">
<path d="M5.05956 0.587347C3.85694 0.567532 2.69565 1.02602 1.83092 1.86204C0.966187 2.69806 0.468769 3.84321 0.447984 5.04582C0.446617 5.99632 0.746532 6.92279 1.30465 7.69218C1.86277 8.46156 2.65038 9.03426 3.55434 9.32802C3.78324 9.37113 3.86744 9.23416 3.8682 9.11333C3.86897 8.9925 3.87065 8.72584 3.87302 8.35084C2.59633 8.61362 2.331 7.74109 2.331 7.74109C2.24786 7.46719 2.06889 7.23237 1.82684 7.07957C1.41192 6.80194 1.86188 6.80895 1.86188 6.80895C2.00578 6.82911 2.14324 6.88159 2.26396 6.96245C2.38469 7.04332 2.48554 7.15046 2.55895 7.27586C2.68683 7.50089 2.89796 7.66671 3.14688 7.73764C3.3958 7.80857 3.66262 7.77893 3.88991 7.6551C3.91465 7.42708 4.01931 7.21518 4.18536 7.05696C3.16942 6.93804 2.1052 6.54798 2.11606 4.82718C2.10981 4.37825 2.27841 3.94448 2.58621 3.61762C2.44941 3.23137 2.46853 2.807 2.63951 2.4346C2.63951 2.4346 3.02777 2.31622 3.8866 2.90082C4.63863 2.7055 5.42871 2.71049 6.17822 2.91529C7.05686 2.34166 7.43109 2.46486 7.43109 2.46486C7.59736 2.83938 7.61112 3.26396 7.46945 3.64846C7.78024 3.9732 7.95236 4.40619 7.94933 4.85568C7.93844 6.58064 6.86107 6.95301 5.85205 7.05915C5.96178 7.16704 6.04624 7.2979 6.09936 7.44233C6.15248 7.58675 6.17295 7.74116 6.15928 7.89444L6.15152 9.12358C6.15152 9.12358 6.23319 9.3866 6.46264 9.34221C7.36769 9.05809 8.1598 8.49523 8.72584 7.73403C9.29188 6.97283 9.6029 6.05222 9.61447 5.1037C9.60887 3.90092 9.12595 2.74958 8.27185 1.90271C7.41774 1.05583 6.26234 0.582719 5.05956 0.587347Z" fill="#A52B3A"/>
</svg>
