<svg width="575" height="513" viewBox="0 0 575 513" fill="none" xmlns="http://www.w3.org/2000/svg">
<g opacity="0.9">
<mask id="path-1-outside-1_10_205" maskUnits="userSpaceOnUse" x="0" y="173" width="575" height="340" fill="black">
<rect fill="white" y="173" width="575" height="340"/>
<path d="M36 210.784C36 206.485 40.6544 203 46.396 203H526.604C532.346 203 537 206.485 537 210.784C537 215.083 532.346 218.567 526.604 218.567H46.396C40.6544 218.567 36 215.083 36 210.784Z"/>
<path d="M56.7919 282.756H517.632V483H56.7919V282.756Z"/>
<path d="M150.498 392.261C150.498 336.023 211.388 290.433 286.5 290.433C361.612 290.433 422.502 336.023 422.502 392.261V483H150.498V392.261Z"/>
<path d="M56.7919 290.22C56.7919 286.098 61.2551 282.756 66.7607 282.756H140.529C146.035 282.756 150.498 286.098 150.498 290.22V474.683C150.498 478.805 146.035 482.147 140.529 482.147H66.7607C61.2551 482.147 56.7919 478.805 56.7919 474.683V290.22Z"/>
<path d="M422.502 290.22C422.502 286.098 426.965 282.756 432.471 282.756H507.663C513.169 282.756 517.632 286.098 517.632 290.22V474.683C517.632 478.805 513.169 482.147 507.663 482.147H432.471C426.965 482.147 422.502 478.805 422.502 474.683V290.22Z"/>
<path d="M36 282.65C36 278.351 40.6544 274.866 46.396 274.866H526.604C532.346 274.866 537 278.351 537 282.65C537 286.948 532.346 290.433 526.604 290.433H46.396C40.6544 290.433 36 286.948 36 282.65Z"/>
<path d="M56.5071 218.141H517.632V274.866H56.5071V218.141Z"/>
<path d="M79.7512 243.186C74.6343 240.082 68.936 224.349 79.7512 218.141H118.709C129.524 224.349 123.826 240.082 118.709 243.186C123.942 245.754 123.245 250.356 118.709 252.283C114.174 254.209 118.709 269.836 123.942 274.866H74.5181C79.7512 269.836 84.2866 254.209 79.7512 252.283C75.2158 250.356 74.5181 245.754 79.7512 243.186Z"/>
<path d="M142.412 243.186C137.295 240.082 131.597 224.349 142.412 218.141H181.37C192.185 224.349 186.487 240.082 181.37 243.186C186.603 245.754 185.905 250.356 181.37 252.283C176.834 254.209 181.37 269.836 186.603 274.866H137.179C142.412 269.836 146.947 254.209 142.412 252.283C137.876 250.356 137.179 245.754 142.412 243.186Z"/>
<path d="M205.072 243.186C199.956 240.082 194.257 224.349 205.072 218.141H244.03C254.846 224.349 249.147 240.082 244.03 243.186C249.264 245.754 248.566 250.356 244.03 252.283C239.495 254.209 244.03 269.836 249.264 274.866H199.839C205.072 269.836 209.608 254.209 205.072 252.283C200.537 250.356 199.839 245.754 205.072 243.186Z"/>
<path d="M267.733 243.186C262.616 240.082 256.918 224.349 267.733 218.141H306.691C317.506 224.349 311.808 240.082 306.691 243.186C311.924 245.754 311.226 250.356 306.691 252.283C302.156 254.209 306.691 269.836 311.924 274.866H262.5C267.733 269.836 272.268 254.209 267.733 252.283C263.198 250.356 262.5 245.754 267.733 243.186Z"/>
<path d="M330.394 243.186C325.277 240.082 319.578 224.349 330.394 218.141H369.352C380.167 224.349 374.469 240.082 369.352 243.186C374.585 245.754 373.887 250.356 369.352 252.283C364.816 254.209 369.352 269.836 374.585 274.866H325.16C330.394 269.836 334.929 254.209 330.394 252.283C325.858 250.356 325.16 245.754 330.394 243.186Z"/>
<path d="M393.054 243.186C387.937 240.082 382.239 224.349 393.054 218.141H432.012C442.827 224.349 437.129 240.082 432.012 243.186C437.245 245.754 436.548 250.356 432.012 252.283C427.477 254.209 432.012 269.836 437.245 274.866H387.821C393.054 269.836 397.59 254.209 393.054 252.283C388.519 250.356 387.821 245.754 393.054 243.186Z"/>
<path d="M455.715 243.186C450.598 240.082 444.9 224.349 455.715 218.141H494.673C505.488 224.349 499.79 240.082 494.673 243.186C499.906 245.754 499.208 250.356 494.673 252.283C490.137 254.209 494.673 269.836 499.906 274.866H450.482C455.715 269.836 460.25 254.209 455.715 252.283C451.179 250.356 450.482 245.754 455.715 243.186Z"/>
</mask>
<path d="M92.8687 306.854C92.8687 298.57 86.1529 291.854 77.8687 291.854C69.5844 291.854 62.8687 298.57 62.8687 306.854H92.8687ZM62.8687 466.793C62.8687 475.077 69.5844 481.793 77.8687 481.793C86.1529 481.793 92.8687 475.077 92.8687 466.793H62.8687ZM459.433 306.854C459.433 298.57 452.717 291.854 444.433 291.854C436.149 291.854 429.433 298.57 429.433 306.854H459.433ZM429.433 466.793C429.433 475.077 436.149 481.793 444.433 481.793C452.717 481.793 459.433 475.077 459.433 466.793H429.433ZM144.136 306.854C144.136 298.57 137.421 291.854 129.136 291.854C120.852 291.854 114.136 298.57 114.136 306.854H144.136ZM114.136 466.793C114.136 475.077 120.852 481.793 129.136 481.793C137.421 481.793 144.136 475.077 144.136 466.793H114.136ZM510.701 306.854C510.701 298.57 503.985 291.854 495.701 291.854C487.417 291.854 480.701 298.57 480.701 306.854H510.701ZM480.701 466.793C480.701 475.077 487.417 481.793 495.701 481.793C503.985 481.793 510.701 475.077 510.701 466.793H480.701ZM122.16 217.523C118.933 209.893 110.131 206.323 102.501 209.55C94.8716 212.777 91.3023 221.579 94.5293 229.209L122.16 217.523ZM105.781 243.625L91.0687 240.701C90.0225 245.967 91.87 251.39 95.9131 254.922L105.781 243.625ZM96.5078 277.078C100.38 284.402 109.456 287.201 116.779 283.329C124.103 279.457 126.901 270.381 123.029 263.057L96.5078 277.078ZM105.781 252.155L95.9131 240.858C91.87 244.389 90.0225 249.812 91.0687 255.078L105.781 252.155ZM184.82 217.523C181.593 209.893 172.792 206.323 165.162 209.55C157.532 212.777 153.963 221.579 157.19 229.209L184.82 217.523ZM168.442 243.625L153.729 240.701C152.683 245.967 154.531 251.39 158.574 254.922L168.442 243.625ZM159.168 277.078C163.04 284.402 172.116 287.201 179.44 283.329C186.764 279.457 189.562 270.381 185.69 263.057L159.168 277.078ZM168.442 252.155L158.574 240.858C154.531 244.389 152.683 249.812 153.729 255.078L168.442 252.155ZM247.481 217.523C244.254 209.893 235.453 206.323 227.823 209.55C220.193 212.777 216.624 221.579 219.851 229.209L247.481 217.523ZM231.102 243.625L216.39 240.701C215.344 245.967 217.191 251.39 221.234 254.922L231.102 243.625ZM221.829 277.078C225.701 284.402 234.777 287.201 242.101 283.329C249.424 279.457 252.223 270.381 248.351 263.057L221.829 277.078ZM231.102 252.155L221.234 240.858C217.191 244.389 215.344 249.812 216.39 255.078L231.102 252.155ZM309.287 217.523C306.06 209.893 297.259 206.323 289.629 209.55C281.999 212.777 278.43 221.579 281.657 229.209L309.287 217.523ZM292.908 243.625L278.196 240.701C277.15 245.967 278.997 251.39 283.04 254.922L292.908 243.625ZM283.635 277.078C287.507 284.402 296.583 287.201 303.907 283.329C311.23 279.457 314.029 270.381 310.157 263.057L283.635 277.078ZM292.908 252.155L283.04 240.858C278.997 244.389 277.15 249.812 278.196 255.078L292.908 252.155ZM372.802 217.523C369.575 209.893 360.774 206.323 353.144 209.55C345.514 212.777 341.945 221.579 345.172 229.209L372.802 217.523ZM356.424 243.625L341.711 240.701C340.665 245.967 342.512 251.39 346.555 254.922L356.424 243.625ZM347.15 277.078C351.022 284.402 360.098 287.201 367.422 283.329C374.745 279.457 377.544 270.381 373.672 263.057L347.15 277.078ZM356.424 252.155L346.555 240.858C342.512 244.389 340.665 249.812 341.711 255.078L356.424 252.155ZM435.463 217.523C432.236 209.893 423.434 206.323 415.804 209.55C408.175 212.777 404.605 221.579 407.832 229.209L435.463 217.523ZM419.084 243.625L404.372 240.701C403.326 245.967 405.173 251.39 409.216 254.922L419.084 243.625ZM409.811 277.078C413.683 284.402 422.759 287.201 430.082 283.329C437.406 279.457 440.204 270.381 436.332 263.057L409.811 277.078ZM419.084 252.155L409.216 240.858C405.173 244.389 403.326 249.812 404.372 255.078L419.084 252.155ZM498.123 217.523C494.896 209.893 486.095 206.323 478.465 209.55C470.835 212.777 467.266 221.579 470.493 229.209L498.123 217.523ZM481.745 243.625L467.032 240.701C465.986 245.967 467.834 251.39 471.877 254.922L481.745 243.625ZM472.471 277.078C476.343 284.402 485.419 287.201 492.743 283.329C500.067 279.457 502.865 270.381 498.993 263.057L472.471 277.078ZM481.745 252.155L471.877 240.858C467.834 244.389 465.986 249.812 467.032 255.078L481.745 252.155ZM103.931 229.209C107.158 221.579 103.589 212.777 95.959 209.55C88.3291 206.323 79.5278 209.893 76.3008 217.523L103.931 229.209ZM92.6794 243.625L102.547 254.922C106.59 251.39 108.438 245.967 107.392 240.701L92.6794 243.625ZM75.431 263.057C71.5591 270.381 74.3574 279.457 81.6812 283.329C89.0049 287.201 98.0808 284.402 101.953 277.078L75.431 263.057ZM92.6794 252.155L107.392 255.078C108.438 249.812 106.59 244.389 102.547 240.858L92.6794 252.155ZM166.592 229.209C169.819 221.579 166.25 212.777 158.62 209.55C150.99 206.323 142.188 209.893 138.961 217.523L166.592 229.209ZM155.34 243.625L165.208 254.922C169.251 251.39 171.099 245.967 170.052 240.701L155.34 243.625ZM138.092 263.057C134.22 270.381 137.018 279.457 144.342 283.329C151.666 287.201 160.741 284.402 164.613 277.078L138.092 263.057ZM155.34 252.155L170.052 255.078C171.099 249.812 169.251 244.389 165.208 240.858L155.34 252.155ZM229.252 229.209C232.479 221.579 228.91 212.777 221.28 209.55C213.65 206.323 204.849 209.893 201.622 217.523L229.252 229.209ZM218.001 243.625L227.869 254.922C231.912 251.39 233.759 245.967 232.713 240.701L218.001 243.625ZM200.752 263.057C196.88 270.381 199.679 279.457 207.002 283.329C214.326 287.201 223.402 284.402 227.274 277.078L200.752 263.057ZM218.001 252.155L232.713 255.078C233.759 249.812 231.912 244.389 227.869 240.858L218.001 252.155ZM291.058 229.209C294.286 221.579 290.716 212.777 283.086 209.55C275.456 206.323 266.655 209.893 263.428 217.523L291.058 229.209ZM279.807 243.625L289.675 254.922C293.718 251.39 295.565 245.967 294.519 240.701L279.807 243.625ZM262.558 263.057C258.686 270.381 261.485 279.457 268.809 283.329C276.132 287.201 285.208 284.402 289.08 277.078L262.558 263.057ZM279.807 252.155L294.519 255.078C295.565 249.812 293.718 244.389 289.675 240.858L279.807 252.155ZM354.574 229.209C357.801 221.579 354.231 212.777 346.601 209.55C338.971 206.323 330.17 209.893 326.943 217.523L354.574 229.209ZM343.322 243.625L353.19 254.922C357.233 251.39 359.08 245.967 358.034 240.701L343.322 243.625ZM326.073 263.057C322.202 270.381 325 279.457 332.324 283.329C339.647 287.201 348.723 284.402 352.595 277.078L326.073 263.057ZM343.322 252.155L358.034 255.078C359.08 249.812 357.233 244.389 353.19 240.858L343.322 252.155ZM417.234 229.209C420.461 221.579 416.892 212.777 409.262 209.55C401.632 206.323 392.831 209.893 389.604 217.523L417.234 229.209ZM405.982 243.625L415.85 254.922C419.893 251.39 421.741 245.967 420.695 240.701L405.982 243.625ZM388.734 263.057C384.862 270.381 387.66 279.457 394.984 283.329C402.308 287.201 411.384 284.402 415.256 277.078L388.734 263.057ZM405.982 252.155L420.695 255.078C421.741 249.812 419.893 244.389 415.85 240.858L405.982 252.155ZM479.895 229.209C483.122 221.579 479.553 212.777 471.923 209.55C464.293 206.323 455.491 209.893 452.264 217.523L479.895 229.209ZM468.643 243.625L478.511 254.922C482.554 251.39 484.402 245.967 483.355 240.701L468.643 243.625ZM451.395 263.057C447.523 270.381 450.321 279.457 457.645 283.329C464.969 287.201 474.044 284.402 477.916 277.078L451.395 263.057ZM468.643 252.155L483.355 255.078C484.402 249.812 482.554 244.389 478.511 240.858L468.643 252.155ZM62.8687 306.854V466.793H92.8687V306.854H62.8687ZM429.433 306.854V466.793H459.433V306.854H429.433ZM114.136 306.854V466.793H144.136V306.854H114.136ZM480.701 306.854V466.793H510.701V306.854H480.701ZM94.5293 229.209C94.1254 228.254 94.2224 227.771 94.2104 228.249C94.1987 228.713 94.0997 229.551 93.7925 230.864C93.4874 232.167 93.0834 233.514 92.5838 235.14C92.1997 236.391 91.4688 238.688 91.0687 240.701L120.494 246.548C120.479 246.623 120.507 246.472 120.663 245.929C120.814 245.403 120.999 244.805 121.262 243.949C121.745 242.373 122.436 240.123 123.003 237.699C123.983 233.513 125.498 225.417 122.16 217.523L94.5293 229.209ZM95.9131 254.922C95.546 254.601 95.3208 254.357 95.0556 253.975C94.9009 253.752 94.5546 253.223 94.2133 252.402C93.8909 251.627 93.3445 250.046 93.3445 247.89H123.345C123.345 242.4 120.744 238.373 119.711 236.883C118.378 234.96 116.871 233.395 115.649 232.328L95.9131 254.922ZM123.029 263.057C123.037 263.071 122.852 262.702 122.591 261.75C122.341 260.838 122.105 259.706 121.875 258.331C121.644 256.947 121.457 255.564 121.246 254.016C121.058 252.642 120.812 250.834 120.494 249.231L91.0687 255.078C91.1776 255.626 91.3054 256.492 91.5224 258.08C91.7158 259.495 91.9656 261.362 92.2859 263.278C92.8721 266.784 93.9504 272.241 96.5078 277.078L123.029 263.057ZM115.649 263.452C116.871 262.385 118.378 260.819 119.711 258.896C120.744 257.406 123.345 253.38 123.345 247.89H93.3445C93.3445 245.733 93.8909 244.152 94.2133 243.377C94.5546 242.556 94.9009 242.027 95.0556 241.804C95.3208 241.422 95.546 241.178 95.9131 240.858L115.649 263.452ZM157.19 229.209C156.786 228.254 156.883 227.771 156.871 228.249C156.859 228.713 156.76 229.551 156.453 230.864C156.148 232.167 155.744 233.514 155.244 235.14C154.86 236.391 154.129 238.688 153.729 240.701L183.154 246.548C183.139 246.623 183.167 246.472 183.324 245.929C183.475 245.403 183.659 244.805 183.922 243.949C184.406 242.373 185.097 240.123 185.664 237.699C186.644 233.513 188.159 225.417 184.82 217.523L157.19 229.209ZM158.574 254.922C158.207 254.601 157.981 254.357 157.716 253.975C157.561 253.752 157.215 253.223 156.874 252.402C156.552 251.627 156.005 250.046 156.005 247.89H186.005C186.005 242.4 183.404 238.373 182.371 236.883C181.038 234.96 179.531 233.395 178.31 232.328L158.574 254.922ZM185.69 263.057C185.697 263.071 185.512 262.702 185.251 261.75C185.002 260.838 184.766 259.706 184.536 258.331C184.304 256.947 184.118 255.564 183.906 254.016C183.719 252.642 183.473 250.834 183.154 249.231L153.729 255.078C153.838 255.626 153.966 256.492 154.183 258.08C154.376 259.495 154.626 261.362 154.947 263.278C155.533 266.784 156.611 272.241 159.168 277.078L185.69 263.057ZM178.31 263.452C179.531 262.385 181.038 260.819 182.371 258.896C183.404 257.406 186.005 253.38 186.005 247.89H156.005C156.005 245.733 156.552 244.152 156.874 243.377C157.215 242.556 157.561 242.027 157.716 241.804C157.981 241.422 158.207 241.178 158.574 240.858L178.31 263.452ZM219.851 229.209C219.447 228.254 219.544 227.771 219.532 228.249C219.52 228.713 219.421 229.551 219.114 230.864C218.809 232.167 218.405 233.514 217.905 235.14C217.521 236.391 216.79 238.688 216.39 240.701L245.815 246.548C245.8 246.623 245.828 246.472 245.984 245.929C246.135 245.403 246.32 244.805 246.583 243.949C247.067 242.373 247.757 240.123 248.325 237.699C249.304 233.513 250.82 225.417 247.481 217.523L219.851 229.209ZM221.234 254.922C220.867 254.601 220.642 254.357 220.377 253.975C220.222 253.752 219.876 253.223 219.534 252.402C219.212 251.627 218.666 250.046 218.666 247.89H248.666C248.666 242.4 246.065 238.373 245.032 236.883C243.699 234.96 242.192 233.395 240.97 232.328L221.234 254.922ZM248.351 263.057C248.358 263.071 248.173 262.702 247.912 261.75C247.662 260.838 247.426 259.706 247.197 258.331C246.965 256.947 246.779 255.564 246.567 254.016C246.379 252.642 246.133 250.834 245.815 249.231L216.39 255.078C216.499 255.626 216.627 256.492 216.844 258.08C217.037 259.495 217.287 261.362 217.607 263.278C218.193 266.784 219.272 272.241 221.829 277.078L248.351 263.057ZM240.97 263.452C242.192 262.385 243.699 260.819 245.032 258.896C246.065 257.406 248.666 253.38 248.666 247.89H218.666C218.666 245.733 219.212 244.152 219.534 243.377C219.876 242.556 220.222 242.027 220.377 241.804C220.642 241.422 220.867 241.178 221.234 240.858L240.97 263.452ZM281.657 229.209C281.253 228.254 281.35 227.771 281.338 228.249C281.326 228.713 281.227 229.551 280.92 230.864C280.615 232.167 280.211 233.514 279.711 235.14C279.327 236.391 278.596 238.688 278.196 240.701L307.621 246.548C307.606 246.623 307.634 246.472 307.79 245.929C307.941 245.403 308.126 244.805 308.389 243.949C308.873 242.373 309.563 240.123 310.131 237.699C311.11 233.513 312.626 225.417 309.287 217.523L281.657 229.209ZM283.04 254.922C282.673 254.601 282.448 254.357 282.183 253.975C282.028 253.752 281.682 253.223 281.341 252.402C281.018 251.627 280.472 250.046 280.472 247.89H310.472C310.472 242.4 307.871 238.373 306.838 236.883C305.505 234.96 303.998 233.395 302.777 232.328L283.04 254.922ZM310.157 263.057C310.164 263.071 309.979 262.702 309.718 261.75C309.468 260.838 309.232 259.706 309.003 258.331C308.771 256.947 308.585 255.564 308.373 254.016C308.185 252.642 307.939 250.834 307.621 249.231L278.196 255.078C278.305 255.626 278.433 256.492 278.65 258.08C278.843 259.495 279.093 261.362 279.413 263.278C279.999 266.784 281.078 272.241 283.635 277.078L310.157 263.057ZM302.777 263.452C303.998 262.385 305.505 260.819 306.838 258.896C307.871 257.406 310.472 253.38 310.472 247.89H280.472C280.472 245.733 281.018 244.152 281.341 243.377C281.682 242.556 282.028 242.027 282.183 241.804C282.448 241.422 282.673 241.178 283.04 240.858L302.777 263.452ZM345.172 229.209C344.768 228.254 344.865 227.771 344.853 228.249C344.841 228.713 344.742 229.551 344.435 230.864C344.13 232.167 343.726 233.514 343.226 235.14C342.842 236.391 342.111 238.688 341.711 240.701L371.136 246.548C371.121 246.623 371.149 246.472 371.305 245.929C371.457 245.403 371.641 244.805 371.904 243.949C372.388 242.373 373.079 240.123 373.646 237.699C374.625 233.513 376.141 225.417 372.802 217.523L345.172 229.209ZM346.555 254.922C346.188 254.601 345.963 254.357 345.698 253.975C345.543 253.752 345.197 253.223 344.856 252.402C344.533 251.627 343.987 250.046 343.987 247.89H373.987C373.987 242.4 371.386 238.373 370.353 236.883C369.02 234.96 367.513 233.395 366.292 232.328L346.555 254.922ZM373.672 263.057C373.679 263.071 373.494 262.702 373.233 261.75C372.983 260.838 372.747 259.706 372.518 258.331C372.286 256.947 372.1 255.564 371.888 254.016C371.7 252.642 371.454 250.834 371.136 249.231L341.711 255.078C341.82 255.626 341.948 256.492 342.165 258.08C342.358 259.495 342.608 261.362 342.928 263.278C343.514 266.784 344.593 272.241 347.15 277.078L373.672 263.057ZM366.292 263.452C367.513 262.385 369.02 260.819 370.353 258.896C371.386 257.406 373.987 253.38 373.987 247.89H343.987C343.987 245.733 344.533 244.152 344.856 243.377C345.197 242.556 345.543 242.027 345.698 241.804C345.963 241.422 346.188 241.178 346.555 240.858L366.292 263.452ZM407.832 229.209C407.428 228.254 407.525 227.771 407.513 228.249C407.502 228.713 407.403 229.551 407.095 230.864C406.79 232.167 406.386 233.514 405.887 235.14C405.503 236.391 404.772 238.688 404.372 240.701L433.797 246.548C433.782 246.623 433.81 246.472 433.966 245.929C434.117 245.403 434.302 244.805 434.565 243.949C435.048 242.373 435.739 240.123 436.306 237.699C437.286 233.513 438.801 225.417 435.463 217.523L407.832 229.209ZM409.216 254.922C408.849 254.601 408.624 254.357 408.359 253.975C408.204 253.752 407.858 253.223 407.516 252.402C407.194 251.627 406.648 250.046 406.648 247.89H436.648C436.648 242.4 434.047 238.373 433.014 236.883C431.681 234.96 430.174 233.395 428.952 232.328L409.216 254.922ZM436.332 263.057C436.34 263.071 436.155 262.702 435.894 261.75C435.644 260.838 435.408 259.706 435.178 258.331C434.947 256.947 434.76 255.564 434.549 254.016C434.361 252.642 434.115 250.834 433.797 249.231L404.372 255.078C404.481 255.626 404.608 256.492 404.825 258.08C405.019 259.495 405.269 261.362 405.589 263.278C406.175 266.784 407.253 272.241 409.811 277.078L436.332 263.057ZM428.952 263.452C430.174 262.385 431.681 260.819 433.014 258.896C434.047 257.406 436.648 253.38 436.648 247.89H406.648C406.648 245.733 407.194 244.152 407.516 243.377C407.858 242.556 408.204 242.027 408.359 241.804C408.624 241.422 408.849 241.178 409.216 240.858L428.952 263.452ZM470.493 229.209C470.089 228.254 470.186 227.771 470.174 228.249C470.162 228.713 470.063 229.551 469.756 230.864C469.451 232.167 469.047 233.514 468.547 235.14C468.163 236.391 467.432 238.688 467.032 240.701L496.457 246.548C496.442 246.623 496.47 246.472 496.627 245.929C496.778 245.403 496.962 244.805 497.225 243.949C497.709 242.373 498.4 240.123 498.967 237.699C499.947 233.513 501.462 225.417 498.123 217.523L470.493 229.209ZM471.877 254.922C471.51 254.601 471.284 254.357 471.019 253.975C470.864 253.752 470.518 253.223 470.177 252.402C469.855 251.627 469.308 250.046 469.308 247.89H499.308C499.308 242.4 496.707 238.373 495.674 236.883C494.341 234.96 492.834 233.395 491.613 232.328L471.877 254.922ZM498.993 263.057C499 263.071 498.815 262.702 498.554 261.75C498.305 260.838 498.069 259.706 497.839 258.331C497.607 256.947 497.421 255.564 497.21 254.016C497.022 252.642 496.776 250.834 496.457 249.231L467.032 255.078C467.141 255.626 467.269 256.492 467.486 258.08C467.679 259.495 467.929 261.362 468.25 263.278C468.836 266.784 469.914 272.241 472.471 277.078L498.993 263.057ZM491.613 263.452C492.834 262.385 494.341 260.819 495.674 258.896C496.707 257.406 499.308 253.38 499.308 247.89H469.308C469.308 245.733 469.855 244.152 470.177 243.377C470.518 242.556 470.864 242.027 471.019 241.804C471.284 241.422 471.51 241.178 471.877 240.858L491.613 263.452ZM76.3008 217.523C72.962 225.417 74.4775 233.513 75.4571 237.699C76.0243 240.123 76.7151 242.373 77.199 243.949C77.4619 244.805 77.6464 245.403 77.7976 245.929C77.9539 246.472 77.9818 246.623 77.9669 246.548L107.392 240.701C106.992 238.688 106.261 236.391 105.877 235.14C105.377 233.514 104.973 232.167 104.668 230.864C104.361 229.551 104.262 228.713 104.25 228.249C104.238 227.771 104.335 228.254 103.931 229.209L76.3008 217.523ZM82.8113 232.328C81.5898 233.395 80.0829 234.96 78.7496 236.883C77.7168 238.373 75.116 242.4 75.116 247.89H105.116C105.116 250.046 104.57 251.627 104.247 252.402C103.906 253.223 103.56 253.752 103.405 253.975C103.14 254.357 102.914 254.601 102.547 254.922L82.8113 232.328ZM101.953 277.078C104.51 272.241 105.588 266.784 106.175 263.278C106.495 261.362 106.745 259.495 106.938 258.08C107.155 256.492 107.283 255.626 107.392 255.078L77.9669 249.231C77.6486 250.834 77.4025 252.642 77.2146 254.016C77.003 255.564 76.8166 256.947 76.5852 258.331C76.3554 259.706 76.1196 260.838 75.8697 261.75C75.6087 262.702 75.4239 263.071 75.431 263.057L101.953 277.078ZM102.547 240.858C102.914 241.178 103.14 241.422 103.405 241.804C103.56 242.027 103.906 242.556 104.247 243.377C104.57 244.152 105.116 245.733 105.116 247.89H75.116C75.116 253.38 77.7168 257.406 78.7496 258.896C80.0829 260.819 81.5898 262.385 82.8113 263.452L102.547 240.858ZM138.961 217.523C135.623 225.417 137.138 233.513 138.118 237.699C138.685 240.123 139.376 242.373 139.86 243.949C140.122 244.805 140.307 245.403 140.458 245.929C140.614 246.472 140.642 246.623 140.628 246.548L170.052 240.701C169.652 238.688 168.921 236.391 168.537 235.14C168.038 233.514 167.634 232.167 167.329 230.864C167.021 229.551 166.922 228.713 166.911 228.249C166.899 227.771 166.996 228.254 166.592 229.209L138.961 217.523ZM145.472 232.328C144.25 233.395 142.743 234.96 141.41 236.883C140.377 238.373 137.777 242.4 137.777 247.89H167.777C167.777 250.046 167.23 251.627 166.908 252.402C166.566 253.223 166.22 253.752 166.065 253.975C165.8 254.357 165.575 254.601 165.208 254.922L145.472 232.328ZM164.613 277.078C167.171 272.241 168.249 266.784 168.835 263.278C169.156 261.362 169.405 259.495 169.599 258.08C169.816 256.492 169.944 255.626 170.052 255.078L140.628 249.231C140.309 250.834 140.063 252.642 139.875 254.016C139.664 255.564 139.477 256.947 139.246 258.331C139.016 259.706 138.78 260.838 138.53 261.75C138.269 262.702 138.085 263.071 138.092 263.057L164.613 277.078ZM165.208 240.858C165.575 241.178 165.8 241.422 166.065 241.804C166.22 242.027 166.566 242.556 166.908 243.377C167.23 244.152 167.777 245.733 167.777 247.89H137.777C137.777 253.38 140.377 257.406 141.41 258.896C142.743 260.819 144.25 262.385 145.472 263.452L165.208 240.858ZM201.622 217.523C198.283 225.417 199.799 233.513 200.778 237.699C201.346 240.123 202.036 242.373 202.52 243.949C202.783 244.805 202.968 245.403 203.119 245.929C203.275 246.472 203.303 246.623 203.288 246.548L232.713 240.701C232.313 238.688 231.582 236.391 231.198 235.14C230.698 233.514 230.294 232.167 229.989 230.864C229.682 229.551 229.583 228.713 229.571 228.249C229.559 227.771 229.656 228.254 229.252 229.209L201.622 217.523ZM208.133 232.328C206.911 233.395 205.404 234.96 204.071 236.883C203.038 238.373 200.437 242.4 200.437 247.89H230.437C230.437 250.046 229.891 251.627 229.568 252.402C229.227 253.223 228.881 253.752 228.726 253.975C228.461 254.357 228.236 254.601 227.869 254.922L208.133 232.328ZM227.274 277.078C229.831 272.241 230.91 266.784 231.496 263.278C231.816 261.362 232.066 259.495 232.259 258.08C232.476 256.492 232.604 255.626 232.713 255.078L203.288 249.231C202.97 250.834 202.724 252.642 202.536 254.016C202.324 255.564 202.138 256.947 201.906 258.331C201.677 259.706 201.441 260.838 201.191 261.75C200.93 262.702 200.745 263.071 200.752 263.057L227.274 277.078ZM227.869 240.858C228.236 241.178 228.461 241.422 228.726 241.804C228.881 242.027 229.227 242.556 229.568 243.377C229.891 244.152 230.437 245.733 230.437 247.89H200.437C200.437 253.38 203.038 257.406 204.071 258.896C205.404 260.819 206.911 262.385 208.133 263.452L227.869 240.858ZM263.428 217.523C260.089 225.417 261.605 233.513 262.584 237.699C263.152 240.123 263.842 242.373 264.326 243.949C264.589 244.805 264.774 245.403 264.925 245.929C265.081 246.472 265.109 246.623 265.094 246.548L294.519 240.701C294.119 238.688 293.388 236.391 293.004 235.14C292.504 233.514 292.1 232.167 291.795 230.864C291.488 229.551 291.389 228.713 291.377 228.249C291.365 227.771 291.462 228.254 291.058 229.209L263.428 217.523ZM269.939 232.328C268.717 233.395 267.21 234.96 265.877 236.883C264.844 238.373 262.243 242.4 262.243 247.89H292.243C292.243 250.046 291.697 251.627 291.375 252.402C291.033 253.223 290.687 253.752 290.532 253.975C290.267 254.357 290.042 254.601 289.675 254.922L269.939 232.328ZM289.08 277.078C291.637 272.241 292.716 266.784 293.302 263.278C293.622 261.362 293.872 259.495 294.065 258.08C294.282 256.492 294.41 255.626 294.519 255.078L265.094 249.231C264.776 250.834 264.53 252.642 264.342 254.016C264.13 255.564 263.944 256.947 263.713 258.331C263.483 259.706 263.247 260.838 262.997 261.75C262.736 262.702 262.551 263.071 262.558 263.057L289.08 277.078ZM289.675 240.858C290.042 241.178 290.267 241.422 290.532 241.804C290.687 242.027 291.033 242.556 291.375 243.377C291.697 244.152 292.243 245.733 292.243 247.89H262.243C262.243 253.38 264.844 257.406 265.877 258.896C267.21 260.819 268.717 262.385 269.939 263.452L289.675 240.858ZM326.943 217.523C323.604 225.417 325.12 233.513 326.1 237.699C326.667 240.123 327.357 242.373 327.841 243.949C328.104 244.805 328.289 245.403 328.44 245.929C328.596 246.472 328.624 246.623 328.609 246.548L358.034 240.701C357.634 238.688 356.903 236.391 356.519 235.14C356.02 233.514 355.615 232.167 355.31 230.864C355.003 229.551 354.904 228.713 354.893 228.249C354.881 227.771 354.977 228.254 354.574 229.209L326.943 217.523ZM333.454 232.328C332.232 233.395 330.725 234.96 329.392 236.883C328.359 238.373 325.758 242.4 325.758 247.89H355.758C355.758 250.046 355.212 251.627 354.89 252.402C354.548 253.223 354.202 253.752 354.047 253.975C353.782 254.357 353.557 254.601 353.19 254.922L333.454 232.328ZM352.595 277.078C355.152 272.241 356.231 266.784 356.817 263.278C357.137 261.362 357.387 259.495 357.58 258.08C357.798 256.492 357.925 255.626 358.034 255.078L328.609 249.231C328.291 250.834 328.045 252.642 327.857 254.016C327.645 255.564 327.459 256.947 327.228 258.331C326.998 259.706 326.762 260.838 326.512 261.75C326.251 262.702 326.066 263.071 326.073 263.057L352.595 277.078ZM353.19 240.858C353.557 241.178 353.782 241.422 354.047 241.804C354.202 242.027 354.548 242.556 354.89 243.377C355.212 244.152 355.758 245.733 355.758 247.89H325.758C325.758 253.38 328.359 257.406 329.392 258.896C330.725 260.819 332.232 262.385 333.454 263.452L353.19 240.858ZM389.604 217.523C386.265 225.417 387.78 233.513 388.76 237.699C389.327 240.123 390.018 242.373 390.502 243.949C390.765 244.805 390.949 245.403 391.101 245.929C391.257 246.472 391.285 246.623 391.27 246.548L420.695 240.701C420.295 238.688 419.564 236.391 419.18 235.14C418.68 233.514 418.276 232.167 417.971 230.864C417.664 229.551 417.565 228.713 417.553 228.249C417.541 227.771 417.638 228.254 417.234 229.209L389.604 217.523ZM396.114 232.328C394.893 233.395 393.386 234.96 392.053 236.883C391.02 238.373 388.419 242.4 388.419 247.89H418.419C418.419 250.046 417.873 251.627 417.55 252.402C417.209 253.223 416.863 253.752 416.708 253.975C416.443 254.357 416.217 254.601 415.85 254.922L396.114 232.328ZM415.256 277.078C417.813 272.241 418.891 266.784 419.478 263.278C419.798 261.362 420.048 259.495 420.241 258.08C420.458 256.492 420.586 255.626 420.695 255.078L391.27 249.231C390.952 250.834 390.706 252.642 390.518 254.016C390.306 255.564 390.12 256.947 389.888 258.331C389.658 259.706 389.423 260.838 389.173 261.75C388.912 262.702 388.727 263.071 388.734 263.057L415.256 277.078ZM415.85 240.858C416.217 241.178 416.443 241.422 416.708 241.804C416.863 242.027 417.209 242.556 417.55 243.377C417.873 244.152 418.419 245.733 418.419 247.89H388.419C388.419 253.38 391.02 257.406 392.053 258.896C393.386 260.819 394.893 262.385 396.114 263.452L415.85 240.858ZM452.264 217.523C448.926 225.417 450.441 233.513 451.421 237.699C451.988 240.123 452.679 242.373 453.163 243.949C453.425 244.805 453.61 245.403 453.761 245.929C453.917 246.472 453.945 246.623 453.931 246.548L483.355 240.701C482.955 238.688 482.224 236.391 481.84 235.14C481.341 233.514 480.937 232.167 480.632 230.864C480.324 229.551 480.225 228.713 480.214 228.249C480.202 227.771 480.299 228.254 479.895 229.209L452.264 217.523ZM458.775 232.328C457.553 233.395 456.046 234.96 454.713 236.883C453.68 238.373 451.08 242.4 451.08 247.89H481.08C481.08 250.046 480.533 251.627 480.211 252.402C479.869 253.223 479.523 253.752 479.368 253.975C479.103 254.357 478.878 254.601 478.511 254.922L458.775 232.328ZM477.916 277.078C480.474 272.241 481.552 266.784 482.138 263.278C482.459 261.362 482.708 259.495 482.902 258.08C483.119 256.492 483.247 255.626 483.355 255.078L453.931 249.231C453.612 250.834 453.366 252.642 453.178 254.016C452.967 255.564 452.78 256.947 452.549 258.331C452.319 259.706 452.083 260.838 451.833 261.75C451.572 262.702 451.388 263.071 451.395 263.057L477.916 277.078ZM478.511 240.858C478.878 241.178 479.103 241.422 479.368 241.804C479.523 242.027 479.869 242.556 480.211 243.377C480.533 244.152 481.08 245.733 481.08 247.89H451.08C451.08 253.38 453.68 257.406 454.713 258.896C456.046 260.819 457.553 262.385 458.775 263.452L478.511 240.858ZM56.7919 282.756V252.756C40.2234 252.756 26.7919 266.188 26.7919 282.756H56.7919ZM517.632 282.756H547.632C547.632 266.188 534.201 252.756 517.632 252.756V282.756ZM517.632 483V513C534.201 513 547.632 499.569 547.632 483H517.632ZM56.7919 483H26.7919C26.7919 499.569 40.2234 513 56.7919 513L56.7919 483ZM422.502 483V513C439.071 513 452.502 499.569 452.502 483H422.502ZM150.498 483H120.498C120.498 499.569 133.929 513 150.498 513V483ZM56.5071 218.141V188.141C39.9386 188.141 26.5071 201.572 26.5071 218.141H56.5071ZM517.632 218.141H547.632C547.632 201.572 534.201 188.141 517.632 188.141V218.141ZM517.632 274.866V304.866C534.201 304.866 547.632 291.434 547.632 274.866H517.632ZM56.5071 274.866H26.5071C26.5071 291.434 39.9386 304.866 56.5071 304.866L56.5071 274.866ZM79.7512 218.141V188.141H71.7535L64.8172 192.122L79.7512 218.141ZM79.7512 243.186L92.9701 270.116L142.176 245.964L95.3101 217.536L79.7512 243.186ZM79.7512 252.283L91.4801 224.671L91.4801 224.671L79.7512 252.283ZM74.5181 274.866L53.7281 253.238L0.0182126 304.866H74.5181V274.866ZM118.709 218.141L133.643 192.122L126.707 188.141H118.709V218.141ZM118.709 243.186L103.15 217.536L56.2846 245.964L105.49 270.116L118.709 243.186ZM123.942 274.866V304.866H198.442L144.732 253.238L123.942 274.866ZM142.412 218.141V188.141H134.414L127.478 192.122L142.412 218.141ZM142.412 243.186L155.631 270.116L204.836 245.964L157.971 217.536L142.412 243.186ZM142.412 252.283L154.141 224.671L154.141 224.671L142.412 252.283ZM137.179 274.866L116.389 253.238L62.6788 304.866H137.179V274.866ZM181.37 218.141L196.304 192.122L189.368 188.141H181.37V218.141ZM181.37 243.186L165.811 217.536L118.945 245.964L168.151 270.116L181.37 243.186ZM181.37 252.283L169.641 224.671L169.641 224.671L181.37 252.283ZM186.603 274.866V304.866H261.103L207.393 253.238L186.603 274.866ZM205.072 218.141V188.141H197.075L190.138 192.122L205.072 218.141ZM205.072 243.186L218.291 270.116L267.497 245.964L220.631 217.536L205.072 243.186ZM205.072 252.283L216.801 224.671L216.801 224.671L205.072 252.283ZM199.839 274.866L179.049 253.238L125.339 304.866H199.839V274.866ZM244.03 218.141L258.965 192.122L252.028 188.141H244.03V218.141ZM244.03 243.186L228.472 217.536L181.606 245.964L230.812 270.116L244.03 243.186ZM244.03 252.283L232.302 224.671L232.302 224.671L244.03 252.283ZM249.264 274.866V304.866H323.763L270.054 253.238L249.264 274.866ZM267.733 218.141V188.141H259.735L252.799 192.122L267.733 218.141ZM267.733 243.186L280.952 270.116L330.158 245.964L283.292 217.536L267.733 243.186ZM267.733 252.283L279.462 224.671L279.462 224.671L267.733 252.283ZM262.5 274.866L241.71 253.238L188 304.866H262.5V274.866ZM306.691 218.141L321.625 192.122L314.689 188.141H306.691V218.141ZM306.691 243.186L291.132 217.536L244.266 245.964L293.472 270.116L306.691 243.186ZM306.691 252.283L294.962 224.671L294.962 224.671L306.691 252.283ZM311.924 274.866V304.866H386.424L332.714 253.238L311.924 274.866ZM330.394 218.141V188.141H322.396L315.46 192.122L330.394 218.141ZM330.394 243.186L343.612 270.116L392.818 245.964L345.953 217.536L330.394 243.186ZM330.394 252.283L342.122 224.671L342.122 224.671L330.394 252.283ZM325.16 274.866L304.371 253.238L250.661 304.866H325.16V274.866ZM369.352 218.141L384.286 192.122L377.349 188.141H369.352V218.141ZM369.352 243.186L353.793 217.536L306.927 245.964L356.133 270.116L369.352 243.186ZM369.352 252.283L357.623 224.671L357.623 224.671L369.352 252.283ZM374.585 274.866V304.866H449.085L395.375 253.238L374.585 274.866ZM393.054 218.141V188.141H385.057L378.12 192.122L393.054 218.141ZM393.054 243.186L406.273 270.116L455.479 245.964L408.613 217.536L393.054 243.186ZM393.054 252.283L404.783 224.671L404.783 224.671L393.054 252.283ZM387.821 274.866L367.031 253.238L313.321 304.866H387.821V274.866ZM432.012 218.141L446.946 192.122L440.01 188.141H432.012V218.141ZM432.012 243.186L416.453 217.536L369.588 245.964L418.793 270.116L432.012 243.186ZM432.012 252.283L420.283 224.671L420.283 224.671L432.012 252.283ZM437.245 274.866V304.866H511.745L458.035 253.238L437.245 274.866ZM455.715 218.141V188.141H447.717L440.781 192.122L455.715 218.141ZM455.715 243.186L468.934 270.116L518.139 245.964L471.274 217.536L455.715 243.186ZM455.715 252.283L467.444 224.671L467.444 224.671L455.715 252.283ZM450.482 274.866L429.692 253.238L375.982 304.866H450.482V274.866ZM494.673 218.141L509.607 192.122L502.671 188.141H494.673V218.141ZM494.673 243.186L479.114 217.536L432.248 245.964L481.454 270.116L494.673 243.186ZM494.673 252.283L482.944 224.671L482.944 224.671L494.673 252.283ZM499.906 274.866V304.866H574.406L520.696 253.238L499.906 274.866ZM46.396 233H526.604V173H46.396V233ZM526.604 188.567H46.396V248.567H526.604V188.567ZM46.396 188.567C49.3767 188.567 53.2337 189.434 57.0253 192.273C60.8243 195.117 66 201.351 66 210.784H6C6 224.515 13.503 234.641 21.0645 240.302C28.6187 245.958 37.6737 248.567 46.396 248.567V188.567ZM507 210.784C507 201.351 512.176 195.117 515.975 192.273C519.766 189.434 523.623 188.567 526.604 188.567V248.567C535.326 248.567 544.381 245.958 551.935 240.302C559.497 234.641 567 224.515 567 210.784H507ZM526.604 233C523.623 233 519.766 232.133 515.975 229.295C512.176 226.45 507 220.216 507 210.784H567C567 197.052 559.497 186.927 551.935 181.265C544.381 175.609 535.326 173 526.604 173V233ZM46.396 173C37.6737 173 28.6187 175.609 21.0645 181.265C13.503 186.927 6 197.052 6 210.784H66C66 220.216 60.8242 226.45 57.0253 229.295C53.2337 232.133 49.3767 233 46.396 233V173ZM56.7919 312.756H517.632V252.756H56.7919V312.756ZM487.632 282.756V483H547.632V282.756H487.632ZM517.632 453H56.7919V513H517.632V453ZM86.7919 483V282.756H26.7919V483H86.7919ZM392.502 392.261V483H452.502V392.261H392.502ZM422.502 453H150.498V513H422.502V453ZM180.498 483V392.261H120.498V483H180.498ZM286.5 320.433C318.204 320.433 345.749 330.093 364.688 344.273C383.619 358.447 392.502 375.724 392.502 392.261H452.502C452.502 352.56 430.94 318.924 400.648 296.243C370.364 273.569 329.907 260.433 286.5 260.433V320.433ZM286.5 260.433C243.093 260.433 202.636 273.569 172.352 296.243C142.06 318.924 120.498 352.56 120.498 392.261H180.498C180.498 375.724 189.381 358.447 208.312 344.273C227.251 330.093 254.796 320.433 286.5 320.433V260.433ZM66.7607 312.756H140.529V252.756H66.7607V312.756ZM120.498 290.22V474.683H180.498V290.22H120.498ZM140.529 452.147H66.7607V512.147H140.529V452.147ZM86.7919 474.683V290.22H26.7919V474.683H86.7919ZM66.7607 452.147C69.8594 452.147 73.8232 453.049 77.6921 455.946C81.5683 458.848 86.7919 465.162 86.7919 474.683H26.7919C26.7919 488.326 34.2471 498.372 41.7313 503.976C49.2082 509.574 58.1563 512.147 66.7607 512.147V452.147ZM120.498 474.683C120.498 465.162 125.722 458.848 129.598 455.946C133.467 453.049 137.431 452.147 140.529 452.147V512.147C149.134 512.147 158.082 509.574 165.559 503.976C173.043 498.372 180.498 488.326 180.498 474.683H120.498ZM140.529 312.756C137.431 312.756 133.467 311.854 129.598 308.957C125.722 306.055 120.498 299.741 120.498 290.22H180.498C180.498 276.577 173.043 266.531 165.559 260.928C158.082 255.33 149.134 252.756 140.529 252.756V312.756ZM66.7607 252.756C58.1564 252.756 49.2082 255.33 41.7313 260.928C34.2471 266.531 26.7919 276.577 26.7919 290.22H86.7919C86.7919 299.741 81.5683 306.055 77.6921 308.957C73.8232 311.854 69.8594 312.756 66.7607 312.756V252.756ZM432.471 312.756H507.663V252.756H432.471V312.756ZM487.632 290.22V474.683H547.632V290.22H487.632ZM507.663 452.147H432.471V512.147H507.663V452.147ZM452.502 474.683V290.22H392.502V474.683H452.502ZM432.471 452.147C435.569 452.147 439.533 453.049 443.402 455.946C447.278 458.848 452.502 465.162 452.502 474.683H392.502C392.502 488.326 399.957 498.372 407.441 503.976C414.918 509.574 423.866 512.147 432.471 512.147V452.147ZM487.632 474.683C487.632 465.162 492.856 458.848 496.732 455.946C500.601 453.049 504.565 452.147 507.663 452.147V512.147C516.268 512.147 525.216 509.574 532.693 503.976C540.177 498.372 547.632 488.326 547.632 474.683H487.632ZM507.663 312.756C504.565 312.756 500.601 311.854 496.732 308.957C492.856 306.055 487.632 299.741 487.632 290.22H547.632C547.632 276.577 540.177 266.531 532.693 260.928C525.216 255.33 516.268 252.756 507.663 252.756V312.756ZM432.471 252.756C423.866 252.756 414.918 255.33 407.441 260.928C399.957 266.531 392.502 276.577 392.502 290.22H452.502C452.502 299.741 447.278 306.055 443.402 308.957C439.533 311.854 435.569 312.756 432.471 312.756V252.756ZM46.396 304.866H526.604V244.866H46.396V304.866ZM526.604 260.433H46.396V320.433H526.604V260.433ZM46.396 260.433C49.3767 260.433 53.2337 261.3 57.0253 264.139C60.8243 266.983 66 273.217 66 282.65H6C6 296.381 13.503 306.507 21.0645 312.168C28.6187 317.824 37.6737 320.433 46.396 320.433V260.433ZM507 282.65C507 273.217 512.176 266.983 515.975 264.139C519.766 261.3 523.623 260.433 526.604 260.433V320.433C535.326 320.433 544.381 317.824 551.935 312.168C559.497 306.507 567 296.381 567 282.65H507ZM526.604 304.866C523.623 304.866 519.766 303.999 515.975 301.16C512.176 298.316 507 292.082 507 282.65H567C567 268.918 559.497 258.793 551.935 253.131C544.381 247.475 535.326 244.866 526.604 244.866V304.866ZM46.396 244.866C37.6737 244.866 28.6187 247.475 21.0645 253.131C13.503 258.793 6 268.918 6 282.65H66C66 292.082 60.8242 298.316 57.0253 301.16C53.2337 303.999 49.3767 304.866 46.396 304.866V244.866ZM56.5071 248.141H517.632V188.141H56.5071V248.141ZM487.632 218.141V274.866H547.632V218.141H487.632ZM517.632 244.866H56.5071V304.866H517.632V244.866ZM86.5071 274.866V218.141H26.5071V274.866H86.5071ZM64.8172 192.122C45.1398 203.416 42.3267 223.537 44.0654 235.979C44.9399 242.237 46.9768 248.096 49.6757 253.093C52.0056 257.406 56.4867 264.161 64.1923 268.836L95.3101 217.536C98.2156 219.298 99.9561 221.166 100.759 222.117C101.656 223.179 102.181 224.049 102.468 224.579C102.997 225.559 103.326 226.514 103.488 227.675C103.646 228.805 103.816 231.448 102.528 234.853C101.05 238.758 98.1889 242.149 94.6853 244.16L64.8172 192.122ZM66.5324 216.255C57.6677 220.606 45.2089 231.477 46.1268 249.501C46.9919 266.486 59.2149 276.154 68.0224 279.895L91.4801 224.671C95.7522 226.485 105.359 232.889 106.049 246.449C106.793 261.048 96.6016 268.334 92.9701 270.116L66.5324 216.255ZM68.0224 279.895C60.4167 276.665 56.1097 270.96 54.0231 266.635C52.1201 262.691 51.7567 259.408 51.6605 258.074C51.4696 255.427 51.924 254.232 51.7327 254.98C51.6306 255.379 51.4369 255.891 51.2951 256.177C50.9695 256.835 51.5347 255.346 53.7281 253.238L95.308 296.494C103.746 288.383 108.043 276.959 109.863 269.841C110.893 265.813 111.958 260.036 111.505 253.759C111.219 249.795 109.287 232.235 91.4801 224.671L68.0224 279.895ZM103.775 244.16C100.272 242.149 97.4103 238.758 95.9328 234.853C94.6445 231.448 94.8146 228.805 94.9725 227.675C95.1347 226.514 95.4636 225.559 95.9929 224.579C96.2792 224.049 96.8042 223.179 97.7015 222.117C98.5044 221.166 100.245 219.298 103.15 217.536L134.268 268.836C141.974 264.161 146.455 257.406 148.785 253.093C151.484 248.096 153.521 242.237 154.395 235.979C156.134 223.537 153.321 203.416 133.643 192.122L103.775 244.16ZM105.49 270.116C101.859 268.334 91.6678 261.048 92.4113 246.449C93.1019 232.889 102.708 226.485 106.98 224.671L130.438 279.895C139.246 276.154 151.469 266.486 152.334 249.501C153.252 231.477 140.793 220.606 131.928 216.255L105.49 270.116ZM106.98 224.671C89.173 232.235 87.2412 249.795 86.9553 253.759C86.5028 260.036 87.5677 265.813 88.5975 269.841C90.4172 276.959 94.7141 288.383 103.152 296.494L144.732 253.238C146.926 255.346 147.491 256.835 147.165 256.177C147.024 255.891 146.83 255.379 146.728 254.98C146.536 254.232 146.991 255.427 146.8 258.074C146.704 259.408 146.34 262.691 144.437 266.635C142.351 270.96 138.044 276.665 130.438 279.895L106.98 224.671ZM118.709 188.141H79.7512V248.141H118.709V188.141ZM74.5181 304.866H123.942V244.866H74.5181V304.866ZM127.478 192.122C107.8 203.416 104.987 223.537 106.726 235.979C107.601 242.237 109.637 248.096 112.336 253.093C114.666 257.406 119.147 264.161 126.853 268.836L157.971 217.536C160.876 219.298 162.617 221.166 163.42 222.117C164.317 223.179 164.842 224.049 165.128 224.579C165.658 225.559 165.986 226.514 166.149 227.675C166.307 228.805 166.477 231.448 165.188 234.853C163.711 238.758 160.85 242.149 157.346 244.16L127.478 192.122ZM129.193 216.255C120.328 220.606 107.869 231.477 108.787 249.501C109.652 266.486 121.875 276.154 130.683 279.895L154.141 224.671C158.413 226.485 168.019 232.889 168.71 246.449C169.453 261.048 159.262 268.334 155.631 270.116L129.193 216.255ZM130.683 279.895C123.077 276.665 118.77 270.96 116.684 266.635C114.781 262.691 114.417 259.408 114.321 258.074C114.13 255.427 114.585 254.232 114.393 254.98C114.291 255.379 114.097 255.891 113.956 256.177C113.63 256.835 114.195 255.346 116.389 253.238L157.969 296.494C166.407 288.383 170.704 276.959 172.524 269.841C173.553 265.813 174.618 260.036 174.166 253.759C173.88 249.795 171.948 232.235 154.141 224.671L130.683 279.895ZM166.436 244.16C162.932 242.149 160.071 238.758 158.593 234.853C157.305 231.448 157.475 228.805 157.633 227.675C157.795 226.514 158.124 225.559 158.654 224.579C158.94 224.049 159.465 223.179 160.362 222.117C161.165 221.166 162.905 219.298 165.811 217.536L196.929 268.836C204.634 264.161 209.116 257.406 211.445 253.093C214.144 248.096 216.181 242.237 217.056 235.979C218.794 223.537 215.981 203.416 196.304 192.122L166.436 244.16ZM168.151 270.116C164.52 268.334 154.328 261.048 155.072 246.449C155.763 232.889 165.369 226.485 169.641 224.671L193.099 279.895C201.906 276.154 214.129 266.486 214.994 249.501C215.912 231.477 203.453 220.606 194.589 216.255L168.151 270.116ZM169.641 224.671C151.834 232.235 149.902 249.795 149.616 253.759C149.163 260.036 150.228 265.813 151.258 269.841C153.078 276.959 157.375 288.383 165.813 296.494L207.393 253.238C209.586 255.346 210.152 256.835 209.826 256.177C209.684 255.891 209.49 255.379 209.388 254.98C209.197 254.232 209.651 255.427 209.461 258.074C209.364 259.408 209.001 262.691 207.098 266.635C205.011 270.96 200.704 276.665 193.099 279.895L169.641 224.671ZM181.37 188.141H142.412V248.141H181.37V188.141ZM137.179 304.866H186.603V244.866H137.179V304.866ZM190.138 192.122C170.461 203.416 167.648 223.537 169.387 235.979C170.261 242.237 172.298 248.096 174.997 253.093C177.327 257.406 181.808 264.161 189.514 268.836L220.631 217.536C223.537 219.298 225.277 221.166 226.08 222.117C226.977 223.179 227.503 224.049 227.789 224.579C228.318 225.559 228.647 226.514 228.809 227.675C228.967 228.805 229.137 231.448 227.849 234.853C226.371 238.758 223.51 242.149 220.006 244.16L190.138 192.122ZM191.854 216.255C182.989 220.606 170.53 231.477 171.448 249.501C172.313 266.486 184.536 276.154 193.344 279.895L216.801 224.671C221.073 226.485 230.68 232.889 231.37 246.449C232.114 261.048 221.923 268.334 218.291 270.116L191.854 216.255ZM193.344 279.895C185.738 276.665 181.431 270.96 179.344 266.635C177.441 262.691 177.078 259.408 176.982 258.074C176.791 255.427 177.245 254.232 177.054 254.98C176.952 255.379 176.758 255.891 176.616 256.177C176.291 256.835 176.856 255.346 179.049 253.238L220.629 296.494C229.068 288.383 233.364 276.959 235.184 269.841C236.214 265.813 237.279 260.036 236.826 253.759C236.541 249.795 234.609 232.235 216.801 224.671L193.344 279.895ZM229.096 244.16C225.593 242.149 222.732 238.758 221.254 234.853C219.966 231.448 220.136 228.805 220.294 227.675C220.456 226.514 220.785 225.559 221.314 224.579C221.6 224.049 222.125 223.179 223.023 222.117C223.826 221.166 225.566 219.298 228.472 217.536L259.589 268.836C267.295 264.161 271.776 257.406 274.106 253.093C276.805 248.096 278.842 242.237 279.716 235.979C281.455 223.537 278.642 203.416 258.965 192.122L229.096 244.16ZM230.812 270.116C227.18 268.334 216.989 261.048 217.733 246.449C218.423 232.889 228.03 226.485 232.302 224.671L255.759 279.895C264.567 276.154 276.79 266.486 277.655 249.501C278.573 231.477 266.114 220.606 257.249 216.255L230.812 270.116ZM232.302 224.671C214.494 232.235 212.562 249.795 212.277 253.759C211.824 260.036 212.889 265.813 213.919 269.841C215.738 276.959 220.035 288.383 228.474 296.494L270.054 253.238C272.247 255.346 272.812 256.835 272.487 256.177C272.345 255.891 272.151 255.379 272.049 254.98C271.858 254.232 272.312 255.427 272.121 258.074C272.025 259.408 271.662 262.691 269.759 266.635C267.672 270.96 263.365 276.665 255.759 279.895L232.302 224.671ZM244.03 188.141H205.072V248.141H244.03V188.141ZM199.839 304.866H249.264V244.866H199.839V304.866ZM252.799 192.122C233.122 203.416 230.309 223.537 232.047 235.979C232.922 242.237 234.959 248.096 237.658 253.093C239.987 257.406 244.469 264.161 252.174 268.836L283.292 217.536C286.197 219.298 287.938 221.166 288.741 222.117C289.638 223.179 290.163 224.049 290.449 224.579C290.979 225.559 291.308 226.514 291.47 227.675C291.628 228.805 291.798 231.448 290.51 234.853C289.032 238.758 286.171 242.149 282.667 244.16L252.799 192.122ZM254.514 216.255C245.65 220.606 233.191 231.477 234.109 249.501C234.974 266.486 247.197 276.154 256.004 279.895L279.462 224.671C283.734 226.485 293.34 232.889 294.031 246.449C294.775 261.048 284.583 268.334 280.952 270.116L254.514 216.255ZM256.004 279.895C248.399 276.665 244.091 270.96 242.005 266.635C240.102 262.691 239.738 259.408 239.642 258.074C239.451 255.427 239.906 254.232 239.715 254.98C239.612 255.379 239.419 255.891 239.277 256.177C238.951 256.835 239.517 255.346 241.71 253.238L283.29 296.494C291.728 288.383 296.025 276.959 297.845 269.841C298.875 265.813 299.94 260.036 299.487 253.759C299.201 249.795 297.269 232.235 279.462 224.671L256.004 279.895ZM291.757 244.16C288.253 242.149 285.392 238.758 283.915 234.853C282.626 231.448 282.796 228.805 282.954 227.675C283.117 226.514 283.445 225.559 283.975 224.579C284.261 224.049 284.786 223.179 285.683 222.117C286.486 221.166 288.227 219.298 291.132 217.536L322.25 268.836C329.956 264.161 334.437 257.406 336.767 253.093C339.465 248.096 341.502 242.237 342.377 235.979C344.116 223.537 341.302 203.416 321.625 192.122L291.757 244.16ZM293.472 270.116C289.841 268.334 279.65 261.048 280.393 246.449C281.084 232.889 290.69 226.485 294.962 224.671L318.42 279.895C327.227 276.154 339.45 266.486 340.315 249.501C341.233 231.477 328.775 220.606 319.91 216.255L293.472 270.116ZM294.962 224.671C277.155 232.235 275.223 249.795 274.937 253.759C274.485 260.036 275.549 265.813 276.579 269.841C278.399 276.959 282.696 288.383 291.134 296.494L332.714 253.238C334.908 255.346 335.473 256.835 335.147 256.177C335.005 255.891 334.812 255.379 334.71 254.98C334.518 254.232 334.973 255.427 334.782 258.074C334.686 259.408 334.322 262.691 332.419 266.635C330.333 270.96 326.026 276.665 318.42 279.895L294.962 224.671ZM306.691 188.141H267.733V248.141H306.691V188.141ZM262.5 304.866H311.924V244.866H262.5V304.866ZM315.46 192.122C295.782 203.416 292.969 223.537 294.708 235.979C295.582 242.237 297.619 248.096 300.318 253.093C302.648 257.406 307.129 264.161 314.835 268.836L345.953 217.536C348.858 219.298 350.599 221.166 351.401 222.117C352.299 223.179 352.824 224.049 353.11 224.579C353.639 225.559 353.968 226.514 354.13 227.675C354.288 228.805 354.458 231.448 353.17 234.853C351.693 238.758 348.831 242.149 345.328 244.16L315.46 192.122ZM317.175 216.255C308.31 220.606 295.851 231.477 296.769 249.501C297.634 266.486 309.857 276.154 318.665 279.895L342.122 224.671C346.395 226.485 356.001 232.889 356.692 246.449C357.435 261.048 347.244 268.334 343.612 270.116L317.175 216.255ZM318.665 279.895C311.059 276.665 306.752 270.96 304.666 266.635C302.762 262.691 302.399 259.408 302.303 258.074C302.112 255.427 302.566 254.232 302.375 254.98C302.273 255.379 302.079 255.891 301.937 256.177C301.612 256.835 302.177 255.346 304.371 253.238L345.95 296.494C354.389 288.383 358.686 276.959 360.505 269.841C361.535 265.813 362.6 260.036 362.148 253.759C361.862 249.795 359.93 232.235 342.122 224.671L318.665 279.895ZM354.418 244.16C350.914 242.149 348.053 238.758 346.575 234.853C345.287 231.448 345.457 228.805 345.615 227.675C345.777 226.514 346.106 225.559 346.635 224.579C346.922 224.049 347.447 223.179 348.344 222.117C349.147 221.166 350.887 219.298 353.793 217.536L384.911 268.836C392.616 264.161 397.097 257.406 399.427 253.093C402.126 248.096 404.163 242.237 405.038 235.979C406.776 223.537 403.963 203.416 384.286 192.122L354.418 244.16ZM356.133 270.116C352.501 268.334 342.31 261.048 343.054 246.449C343.744 232.889 353.351 226.485 357.623 224.671L381.08 279.895C389.888 276.154 402.111 266.486 402.976 249.501C403.894 231.477 391.435 220.606 382.571 216.255L356.133 270.116ZM357.623 224.671C339.815 232.235 337.884 249.795 337.598 253.759C337.145 260.036 338.21 265.813 339.24 269.841C341.06 276.959 345.357 288.383 353.795 296.494L395.375 253.238C397.568 255.346 398.133 256.835 397.808 256.177C397.666 255.891 397.472 255.379 397.37 254.98C397.179 254.232 397.633 255.427 397.442 258.074C397.346 259.408 396.983 262.691 395.08 266.635C392.993 270.96 388.686 276.665 381.081 279.895L357.623 224.671ZM369.352 188.141H330.394V248.141H369.352V188.141ZM325.16 304.866H374.585V244.866H325.16V304.866ZM378.12 192.122C358.443 203.416 355.63 223.537 357.368 235.979C358.243 242.237 360.28 248.096 362.979 253.093C365.309 257.406 369.79 264.161 377.495 268.836L408.613 217.536C411.519 219.298 413.259 221.166 414.062 222.117C414.959 223.179 415.484 224.049 415.771 224.579C416.3 225.559 416.629 226.514 416.791 227.675C416.949 228.805 417.119 231.448 415.831 234.853C414.353 238.758 411.492 242.149 407.988 244.16L378.12 192.122ZM379.835 216.255C370.971 220.606 358.512 231.477 359.43 249.501C360.295 266.486 372.518 276.154 381.325 279.895L404.783 224.671C409.055 226.485 418.662 232.889 419.352 246.449C420.096 261.048 409.905 268.334 406.273 270.116L379.835 216.255ZM381.325 279.895C373.72 276.665 369.413 270.96 367.326 266.635C365.423 262.691 365.06 259.408 364.964 258.074C364.773 255.427 365.227 254.232 365.036 254.98C364.934 255.379 364.74 255.891 364.598 256.177C364.272 256.835 364.838 255.346 367.031 253.238L408.611 296.494C417.049 288.383 421.346 276.959 423.166 269.841C424.196 265.813 425.261 260.036 424.808 253.759C424.522 249.795 422.591 232.235 404.783 224.671L381.325 279.895ZM417.078 244.16C413.575 242.149 410.713 238.758 409.236 234.853C407.948 231.448 408.118 228.805 408.275 227.675C408.438 226.514 408.767 225.559 409.296 224.579C409.582 224.049 410.107 223.179 411.005 222.117C411.807 221.166 413.548 219.298 416.453 217.536L447.571 268.836C455.277 264.161 459.758 257.406 462.088 253.093C464.787 248.096 466.824 242.237 467.698 235.979C469.437 223.537 466.624 203.416 446.946 192.122L417.078 244.16ZM418.793 270.116C415.162 268.334 404.971 261.048 405.714 246.449C406.405 232.889 416.011 226.485 420.283 224.671L443.741 279.895C452.549 276.154 464.772 266.486 465.637 249.501C466.555 231.477 454.096 220.606 445.231 216.255L418.793 270.116ZM420.283 224.671C402.476 232.235 400.544 249.795 400.258 253.759C399.806 260.036 400.871 265.813 401.9 269.841C403.72 276.959 408.017 288.383 416.456 296.494L458.035 253.238C460.229 255.346 460.794 256.835 460.468 256.177C460.327 255.891 460.133 255.379 460.031 254.98C459.839 254.232 460.294 255.427 460.103 258.074C460.007 259.408 459.643 262.691 457.74 266.635C455.654 270.96 451.347 276.665 443.741 279.895L420.283 224.671ZM432.012 188.141H393.054V248.141H432.012V188.141ZM387.821 304.866H437.245V244.866H387.821V304.866ZM440.781 192.122C421.103 203.416 418.29 223.537 420.029 235.979C420.904 242.237 422.94 248.096 425.639 253.093C427.969 257.406 432.45 264.161 440.156 268.836L471.274 217.536C474.179 219.298 475.92 221.166 476.723 222.117C477.62 223.179 478.145 224.049 478.431 224.579C478.961 225.559 479.289 226.514 479.452 227.675C479.61 228.805 479.78 231.448 478.491 234.853C477.014 238.758 474.153 242.149 470.649 244.16L440.781 192.122ZM442.496 216.255C433.631 220.606 421.172 231.477 422.09 249.501C422.956 266.486 435.178 276.154 443.986 279.895L467.444 224.671C471.716 226.485 481.322 232.889 482.013 246.449C482.756 261.048 472.565 268.334 468.934 270.116L442.496 216.255ZM443.986 279.895C436.38 276.665 432.073 270.96 429.987 266.635C428.084 262.691 427.72 259.408 427.624 258.074C427.433 255.427 427.888 254.232 427.696 254.98C427.594 255.379 427.4 255.891 427.259 256.177C426.933 256.835 427.498 255.346 429.692 253.238L471.272 296.494C479.71 288.383 484.007 276.959 485.827 269.841C486.856 265.813 487.921 260.036 487.469 253.759C487.183 249.795 485.251 232.235 467.444 224.671L443.986 279.895ZM479.739 244.16C476.235 242.149 473.374 238.758 471.896 234.853C470.608 231.448 470.778 228.805 470.936 227.675C471.098 226.514 471.427 225.559 471.957 224.579C472.243 224.049 472.768 223.179 473.665 222.117C474.468 221.166 476.208 219.298 479.114 217.536L510.232 268.836C517.937 264.161 522.419 257.406 524.748 253.093C527.447 248.096 529.484 242.237 530.359 235.979C532.097 223.537 529.284 203.416 509.607 192.122L479.739 244.16ZM481.454 270.116C477.823 268.334 467.631 261.048 468.375 246.449C469.066 232.889 478.672 226.485 482.944 224.671L506.402 279.895C515.209 276.154 527.432 266.486 528.297 249.501C529.215 231.477 516.756 220.606 507.892 216.255L481.454 270.116ZM482.944 224.671C465.137 232.235 463.205 249.795 462.919 253.759C462.466 260.036 463.531 265.813 464.561 269.841C466.381 276.959 470.678 288.383 479.116 296.494L520.696 253.238C522.889 255.346 523.455 256.835 523.129 256.177C522.987 255.891 522.793 255.379 522.691 254.98C522.5 254.232 522.954 255.427 522.764 258.074C522.667 259.408 522.304 262.691 520.401 266.635C518.314 270.96 514.007 276.665 506.402 279.895L482.944 224.671ZM494.673 188.141H455.715V248.141H494.673V188.141ZM450.482 304.866H499.906V244.866H450.482V304.866Z" fill="black" mask="url(#path-1-outside-1_10_205)"/>
</g>
<rect x="36" y="203" width="501" height="15.5674" rx="7.7837" fill="#FFE1B9"/>
<rect x="56.792" y="282.756" width="460.84" height="200.244" fill="#CA6D18"/>
<path d="M150.498 426.435C150.498 351.324 211.388 290.433 286.5 290.433V290.433C361.612 290.433 422.502 351.324 422.502 426.435V483H150.498V426.435Z" fill="#482F0C"/>
<rect x="56.792" y="282.756" width="93.7061" height="199.391" rx="35" fill="#FFB858"/>
<rect x="422.502" y="282.756" width="95.1302" height="199.391" rx="35" fill="#FFB858"/>
<rect x="36" y="274.866" width="501" height="15.5674" rx="7.7837" fill="#FFE1B9"/>
<rect x="56.5071" y="218.141" width="461.125" height="56.7251" fill="#E58D25"/>
<path d="M79.7513 243.186C74.6344 240.082 68.9361 224.349 79.7513 218.141H118.709C129.525 224.349 123.826 240.082 118.709 243.186C123.942 245.754 123.245 250.356 118.709 252.283C114.174 254.209 118.709 269.836 123.942 274.866H74.5181C79.7513 269.836 84.2867 254.209 79.7513 252.283C75.2159 250.356 74.5181 245.754 79.7513 243.186Z" fill="#FFB858"/>
<path d="M142.412 243.186C137.295 240.082 131.597 224.349 142.412 218.141H181.37C192.185 224.349 186.487 240.082 181.37 243.186C186.603 245.754 185.905 250.356 181.37 252.283C176.835 254.209 181.37 269.836 186.603 274.866H137.179C142.412 269.836 146.947 254.209 142.412 252.283C137.877 250.356 137.179 245.754 142.412 243.186Z" fill="#FFB858"/>
<path d="M205.072 243.186C199.955 240.082 194.257 224.349 205.072 218.141H244.03C254.846 224.349 249.147 240.082 244.03 243.186C249.264 245.754 248.566 250.356 244.03 252.283C239.495 254.209 244.03 269.836 249.264 274.866H199.839C205.072 269.836 209.608 254.209 205.072 252.283C200.537 250.356 199.839 245.754 205.072 243.186Z" fill="#FFB858"/>
<path d="M267.733 243.186C262.616 240.082 256.918 224.349 267.733 218.141H306.691C317.506 224.349 311.808 240.082 306.691 243.186C311.924 245.754 311.226 250.356 306.691 252.283C302.156 254.209 306.691 269.836 311.924 274.866H262.5C267.733 269.836 272.268 254.209 267.733 252.283C263.198 250.356 262.5 245.754 267.733 243.186Z" fill="#FFB858"/>
<path d="M330.394 243.186C325.277 240.082 319.578 224.349 330.394 218.141H369.352C380.167 224.349 374.469 240.082 369.352 243.186C374.585 245.754 373.887 250.356 369.352 252.283C364.816 254.209 369.352 269.836 374.585 274.866H325.16C330.394 269.836 334.929 254.209 330.394 252.283C325.858 250.356 325.16 245.754 330.394 243.186Z" fill="#FFB858"/>
<path d="M393.054 243.186C387.937 240.082 382.239 224.349 393.054 218.141H432.012C442.828 224.349 437.129 240.082 432.012 243.186C437.245 245.754 436.548 250.356 432.012 252.283C427.477 254.209 432.012 269.836 437.245 274.866H387.821C393.054 269.836 397.59 254.209 393.054 252.283C388.519 250.356 387.821 245.754 393.054 243.186Z" fill="#FFB858"/>
<path d="M455.715 243.186C450.598 240.082 444.9 224.349 455.715 218.141H494.673C505.488 224.349 499.79 240.082 494.673 243.186C499.906 245.754 499.208 250.356 494.673 252.283C490.138 254.209 494.673 269.836 499.906 274.866H450.482C455.715 269.836 460.25 254.209 455.715 252.283C451.179 250.356 450.482 245.754 455.715 243.186Z" fill="#FFB858"/>
<path opacity="0.4" d="M77.8687 306.854V466.793" stroke="#CA6D18" stroke-width="30" stroke-linecap="round"/>
<path opacity="0.4" d="M444.433 306.854V466.793" stroke="#CA6D18" stroke-width="30" stroke-linecap="round"/>
<path opacity="0.4" d="M129.136 306.854V466.793" stroke="#CA6D18" stroke-width="30" stroke-linecap="round"/>
<path opacity="0.4" d="M495.701 306.854V466.793" stroke="#CA6D18" stroke-width="30" stroke-linecap="round"/>
<g opacity="0.9">
<mask id="path-21-outside-2_10_205" maskUnits="userSpaceOnUse" x="217.74" y="-0.894714" width="133" height="198" fill="black">
<rect fill="white" x="217.74" y="-0.894714" width="133" height="198"/>
<path d="M277.043 107.71C273.957 105.906 269.292 105.687 272.076 101.423H298.715C301.5 105.687 296.834 105.906 293.749 107.71C290.663 109.514 292.545 119.518 301.801 122.689C311.057 125.86 306.993 153.795 293.749 166.368H277.043C263.798 153.795 259.735 125.86 268.991 122.689C278.247 119.518 280.128 109.514 277.043 107.71Z"/>
<path fill-rule="evenodd" clip-rule="evenodd" d="M297.448 51.2986C295.979 50.7906 294.316 51.4159 293.733 52.6953C292.85 54.6322 291.549 59.0832 290.147 65.3054C288.728 71.6069 287.165 79.9067 285.798 89.6637C285.374 92.697 284.967 95.8726 284.59 99.1741C282.536 91.0843 279.64 83.6468 275.608 77.8456C274.789 76.6681 273.03 76.2916 271.678 77.0045C270.327 77.7174 269.895 79.2499 270.713 80.4273C277.444 90.1124 280.949 105.449 282.483 121.039C282.535 121.565 282.585 122.092 282.632 122.617C281.987 134.824 281.881 147.971 282.662 161.509C282.738 162.819 283.968 163.854 285.474 163.875C286.98 163.896 288.247 162.896 288.371 161.589C289.242 152.404 289.702 137.675 288.364 122.54C288.999 110.715 290.145 99.7852 291.478 90.2675C292.83 80.6218 294.371 72.4411 295.762 66.2653C297.172 60.0104 298.389 55.9874 299.051 54.5348C299.634 53.2554 298.916 51.8066 297.448 51.2986Z"/>
<path fill-rule="evenodd" clip-rule="evenodd" d="M288.6 33.6796C285.369 43.4627 280.786 57.3411 293.273 61.3411C294.987 61.8899 296.555 61.9541 297.935 61.6262C299.789 61.1857 301.303 60.0375 302.369 58.4062C304.775 54.7247 304.902 48.5826 301.523 42.5611C299.987 39.8256 297.728 37.1149 294.631 34.6712C293.095 33.4593 291.352 32.313 289.389 31.2619C289.144 32.0318 288.877 32.8407 288.6 33.6796Z"/>
<path d="M313.571 40.6976C309.452 40.2687 305.165 40.9315 301.523 42.5611C304.902 48.5826 304.775 54.7247 302.369 58.4062C311.393 53.9795 313.979 46.6746 313.571 40.6976Z"/>
<path d="M320.663 42.6933C318.479 41.6125 316.056 40.9564 313.571 40.6976C313.979 46.6746 311.393 53.9795 302.369 58.4062C301.303 60.0375 299.789 61.1857 297.935 61.6262C303.418 61.3124 310.505 58.0453 320.663 42.6933Z"/>
<path fill-rule="evenodd" clip-rule="evenodd" d="M297.935 61.6262C296.555 61.9541 294.987 61.8899 293.273 61.3411C294.703 61.5385 296.243 61.723 297.935 61.6262Z"/>
<path fill-rule="evenodd" clip-rule="evenodd" d="M298.012 61.6112C296.632 61.9391 295.064 61.8749 293.35 61.3261C294.78 61.5235 296.32 61.708 298.012 61.6112Z"/>
<path d="M308.935 31.1499C304.118 28.8529 298.593 30.4862 294.708 34.6562C297.806 37.1 300.065 39.8106 301.6 42.5461C305.242 40.9165 309.529 40.2537 313.648 40.6826C313.333 36.0689 311.234 32.2464 308.935 31.1499Z"/>
<path fill-rule="evenodd" clip-rule="evenodd" d="M278.668 60.954C281.713 70.1762 286.033 83.2589 274.262 87.0295C272.647 87.5469 271.168 87.6074 269.867 87.2983C268.12 86.883 266.693 85.8007 265.688 84.2629C263.42 80.7925 263.3 75.0026 266.486 69.3263C267.933 66.7476 270.062 64.1924 272.982 61.8887C274.431 60.7463 276.073 59.6657 277.924 58.6749C278.155 59.4007 278.407 60.1631 278.668 60.954Z"/>
<path d="M255.128 67.5696C259.011 67.1653 263.052 67.7901 266.486 69.3263C263.3 75.0026 263.42 80.7925 265.688 84.2629C257.182 80.09 254.744 73.2039 255.128 67.5696Z"/>
<path d="M248.443 69.4509C250.501 68.432 252.786 67.8136 255.128 67.5696C254.744 73.2039 257.182 80.09 265.688 84.2629C266.693 85.8007 268.12 86.883 269.867 87.2983C264.699 87.0025 258.018 83.9227 248.443 69.4509Z"/>
<path fill-rule="evenodd" clip-rule="evenodd" d="M269.867 87.2983C271.168 87.6074 272.647 87.5469 274.262 87.0295C272.914 87.2156 271.463 87.3896 269.867 87.2983Z"/>
<path fill-rule="evenodd" clip-rule="evenodd" d="M269.795 87.2842C271.096 87.5933 272.574 87.5328 274.189 87.0154C272.842 87.2015 271.39 87.3755 269.795 87.2842Z"/>
<path d="M259.498 58.5694C264.039 56.4041 269.247 57.9437 272.91 61.8746C269.99 64.1783 267.86 66.7335 266.413 69.3122C262.979 67.776 258.938 67.1512 255.055 67.5555C255.352 63.2063 257.331 59.603 259.498 58.5694Z"/>
</mask>
<path d="M293.273 61.3411L288.697 75.6261C285.012 74.4457 281.926 71.8871 280.084 68.4848L293.273 61.3411ZM308.858 31.1649L302.401 44.7043L302.401 44.7043L308.858 31.1649ZM294.631 34.6712L305.606 44.8962V44.8962L294.631 34.6712ZM313.571 40.6976L328.536 39.6764L328.536 39.6764L313.571 40.6976ZM297.935 61.6262L294.468 47.0325L294.468 47.0325L297.935 61.6262ZM301.523 42.5611L295.397 28.869C302.478 25.7008 310.807 28.4549 314.603 35.22L301.523 42.5611ZM289.466 31.2469L275.175 26.6896C276.529 22.4442 279.7 19.0206 283.83 17.3462C287.959 15.6717 292.619 15.92 296.548 18.0235L289.466 31.2469ZM293.35 61.3261L296.211 76.0507C293.735 76.5319 291.177 76.3807 288.774 75.6111L293.35 61.3261ZM320.74 42.6783L327.394 29.2348C331.251 31.144 334.103 34.6181 335.223 38.7738C336.343 42.9294 335.625 47.366 333.25 50.9554L320.74 42.6783ZM294.708 34.6562L303.998 22.8796C307.29 25.476 309.344 29.3313 309.664 33.5111C309.984 37.691 308.54 41.8141 305.683 44.8813L294.708 34.6562ZM313.648 40.6826L298.683 41.7039C298.382 37.2871 300.047 32.9629 303.232 29.8888C306.418 26.8147 310.799 25.3048 315.202 25.7633L313.648 40.6826ZM298.012 61.6112L298.869 76.5867C291.109 77.0308 284.295 71.473 283.17 63.7818C282.045 56.0906 286.982 48.8143 294.545 47.0175L298.012 61.6112ZM288.677 33.6646L302.92 38.3679V38.3679L288.677 33.6646ZM301.6 42.5461L295.474 28.854C302.555 25.6859 310.884 28.4399 314.681 35.205L301.6 42.5461ZM274.262 87.0295L287.452 94.1733C285.609 97.5755 282.523 100.134 278.838 101.314L274.262 87.0295ZM259.571 58.5835L266.028 72.1229L266.028 72.1229L259.571 58.5835ZM272.982 61.8887L262.008 72.1138L272.982 61.8887ZM255.128 67.5696L240.163 66.5484V66.5484L255.128 67.5696ZM269.867 87.2983L273.335 72.7046L273.335 72.7046L269.867 87.2983ZM266.486 69.3263L253.405 61.9852C257.202 55.22 265.53 52.466 272.612 55.6342L266.486 69.3263ZM277.851 58.6608L270.77 45.4374C274.698 43.3338 279.358 43.0856 283.487 44.76C287.617 46.4344 290.788 49.8581 292.142 54.1035L277.851 58.6608ZM274.189 87.0154L278.765 101.3C276.363 102.07 273.805 102.221 271.328 101.74L274.189 87.0154ZM248.37 69.4367L235.861 77.7139C233.486 74.1245 232.767 69.6878 233.887 65.5322C235.008 61.3766 237.859 57.9025 241.716 55.9933L248.37 69.4367ZM272.91 61.8746L261.935 72.0997C259.077 69.0325 257.634 64.9094 257.954 60.7296C258.274 56.5497 260.328 52.6945 263.619 50.098L272.91 61.8746ZM255.055 67.5555L253.502 52.6362C257.905 52.1777 262.286 53.6876 265.471 56.7617C268.657 59.8357 270.322 64.16 270.021 68.5767L255.055 67.5555ZM269.795 87.2842L273.262 72.6904C280.825 74.4873 285.762 81.7636 284.637 89.4548C283.512 97.146 276.698 102.704 268.938 102.26L269.795 87.2842ZM278.595 60.9399L264.352 65.6432V65.6432L278.595 60.9399ZM266.413 69.3122L253.332 61.9711C257.129 55.2059 265.458 52.4519 272.539 55.6201L266.413 69.3122ZM283.656 24.4461C290.827 16.7486 303.163 11.831 315.314 17.6255L302.401 44.7043C302.849 44.9177 303.367 45.0608 303.903 45.1054C304.427 45.1492 304.862 45.0903 305.172 45.0095C305.765 44.8552 305.831 44.654 305.606 44.8962L283.656 24.4461ZM315.314 17.6255C320.593 20.1428 323.676 24.5715 325.321 27.7966C327.145 31.3736 328.249 35.4696 328.536 39.6764L298.606 41.7189C298.578 41.3118 298.475 41.1897 298.596 41.428C298.663 41.559 298.88 41.9567 299.36 42.4907C299.81 42.9919 300.778 43.93 302.401 44.7043L315.314 17.6255ZM301.403 76.2199C297.019 77.2616 292.654 76.8935 288.697 75.6261L297.849 47.0561C297.319 46.8863 296.092 46.6466 294.468 47.0325L301.403 76.2199ZM307.648 56.2532C307.405 56.3622 307.213 56.468 307.069 56.5589C306.926 56.6497 306.84 56.7193 306.799 56.7549C306.759 56.79 306.77 56.787 306.81 56.7363C306.851 56.6841 306.916 56.5904 306.985 56.4543C307.055 56.3162 307.116 56.1603 307.158 55.9976C307.201 55.8343 307.216 55.7036 307.219 55.6235C307.223 55.5451 307.214 55.5532 307.231 55.6628C307.249 55.7747 307.297 56.0048 307.422 56.3599L279.124 66.3223C276.318 58.3498 276.559 50.1285 280.226 42.8925C283.73 35.9775 289.592 31.4663 295.397 28.869L307.648 56.2532ZM280.084 68.4848C271.297 52.2617 273.657 35.1782 283.656 24.4461L305.606 44.8962C305.34 45.1818 304.818 45.9541 304.679 47.3615C304.548 48.6882 304.728 50.9934 306.463 54.1973L280.084 68.4848ZM314.603 35.22C319.918 44.6891 321.192 57.0228 314.925 66.612L289.812 50.2004C289.406 50.8218 289.241 51.3207 289.176 51.5796C289.11 51.8429 289.126 51.9403 289.123 51.8514C289.117 51.6688 289.036 50.9616 288.442 49.9022L314.603 35.22ZM295.762 44.9394C297.741 43.9687 298.252 43.1059 298.37 42.8919C298.546 42.5726 298.637 42.1786 298.606 41.7188L328.536 39.6764C329.326 51.2567 323.885 64.5589 308.975 71.8731L295.762 44.9394ZM294.468 47.0325C292.16 47.5808 290.594 49.0041 289.812 50.2004L314.925 66.612C312.011 71.0709 307.419 74.7905 301.403 76.2199L294.468 47.0325ZM308.975 71.8731C305.12 73.764 300.827 75.1539 296.134 76.0657L290.412 46.6165C292.877 46.1374 294.598 45.5104 295.762 44.9394L308.975 71.8731ZM296.548 18.0235C299.255 19.4737 301.741 21.0991 303.998 22.8796L285.417 46.4328C284.602 45.7894 283.603 45.1223 282.385 44.4702L296.548 18.0235ZM315.202 25.7633C319.255 26.1854 323.436 27.2759 327.394 29.2348L314.086 56.1217C313.677 55.919 313.01 55.6974 312.094 55.602L315.202 25.7633ZM333.25 50.9554C322.111 67.7901 311.4 75.8696 298.869 76.5867L297.155 46.6357C297.169 46.6349 297.16 46.6423 297.239 46.6128C297.346 46.5733 297.815 46.3857 298.665 45.753C300.488 44.3952 303.679 41.2793 308.23 34.4011L333.25 50.9554ZM302.92 38.3679C302.087 40.8906 301.37 43.083 300.835 45.2093C300.293 47.3666 300.118 48.7906 300.12 49.6312C300.121 50.4505 300.288 49.801 299.574 48.672C298.697 47.287 297.64 46.9494 297.926 47.0411L288.774 75.6111C282.817 73.7028 277.65 70.1304 274.222 64.7125C270.956 59.5506 270.129 54.0701 270.12 49.6969C270.102 41.5991 273.023 33.2312 274.433 28.9614L302.92 38.3679ZM303.757 35.8042C303.484 36.6606 303.192 37.5447 302.92 38.3679L274.433 28.9614C274.715 28.1067 274.957 27.373 275.175 26.6896L303.757 35.8042ZM307.726 56.2382C307.482 56.3472 307.29 56.453 307.146 56.5439C307.003 56.6347 306.917 56.7043 306.876 56.7399C306.837 56.775 306.847 56.772 306.887 56.7213C306.928 56.6691 306.993 56.5754 307.062 56.4393C307.132 56.3012 307.193 56.1453 307.236 55.9826C307.278 55.8193 307.293 55.6886 307.297 55.6086C307.3 55.5301 307.291 55.5382 307.308 55.6478C307.326 55.7597 307.374 55.9898 307.499 56.3449L279.202 66.3073C276.395 58.3348 276.636 50.1135 280.303 42.8775C283.807 35.9625 289.669 31.4513 295.474 28.854L307.726 56.2382ZM280.161 68.4698C271.374 52.2467 273.734 35.1632 283.733 24.4311L305.683 44.8813C305.417 45.1669 304.896 45.9391 304.756 47.3465C304.625 48.6732 304.805 50.9784 306.54 54.1823L280.161 68.4698ZM314.681 35.205C319.995 44.6741 321.269 57.0078 315.002 66.5971L289.889 50.1854C289.483 50.8068 289.318 51.3057 289.253 51.5646C289.187 51.8279 289.203 51.9253 289.2 51.8364C289.194 51.6538 289.113 50.9467 288.519 49.8872L314.681 35.205ZM295.84 44.9244C297.818 43.9537 298.33 43.0909 298.448 42.8769C298.624 42.5576 298.714 42.1636 298.683 41.7039L328.613 39.6614C329.404 51.2417 323.962 64.544 309.052 71.8581L295.84 44.9244ZM294.545 47.0175C292.237 47.5658 290.671 48.9891 289.889 50.1854L315.002 66.5971C312.088 71.0559 307.496 74.7755 301.48 76.2049L294.545 47.0175ZM309.052 71.8581C305.198 73.7491 300.904 75.1389 296.211 76.0507L290.489 46.6015C292.955 46.1224 294.676 45.4954 295.84 44.9244L309.052 71.8581ZM262.008 72.1138C261.893 71.9911 262.094 72.2754 262.829 72.4666C263.67 72.6855 264.881 72.6694 266.028 72.1229L253.115 45.0441C264.99 39.3812 277.009 44.2052 283.957 51.6636L262.008 72.1138ZM266.028 72.1229C267.684 71.3329 268.684 70.3692 269.164 69.8345C269.674 69.267 269.919 68.8278 270.01 68.6489C270.181 68.3149 270.112 68.3161 270.093 68.5909L240.163 66.5484C240.441 62.4739 241.51 58.4988 243.286 55.0175C244.882 51.8881 247.902 47.53 253.115 45.0441L266.028 72.1229ZM273.335 72.7046C271.632 72.2999 270.314 72.5433 269.686 72.7445L278.838 101.314C274.98 102.55 270.705 102.915 266.4 101.892L273.335 72.7046ZM272.612 55.6342C278.219 58.1431 283.916 62.5164 287.329 69.2499C290.904 76.3044 291.125 84.3007 288.411 92.0107L260.113 82.0483C260.313 81.4807 260.244 81.3868 260.256 81.6768C260.262 81.8127 260.285 81.9968 260.341 82.2108C260.397 82.4243 260.476 82.6283 260.569 82.8117C260.661 82.9932 260.754 83.1296 260.827 83.2216C260.898 83.3121 260.944 83.3521 260.943 83.3511C260.932 83.3418 260.761 83.1979 260.36 83.0184L272.612 55.6342ZM261.073 79.8857C262.634 77.0023 262.76 75.0003 262.654 73.9361C262.541 72.7914 262.126 72.2411 262.008 72.1138L283.957 51.6636C293.661 62.0792 295.891 78.5911 287.452 94.1733L261.073 79.8857ZM279.567 76.6674C279.322 77.1029 279.187 77.4592 279.114 77.7129C279.077 77.8396 279.057 77.9384 279.046 78.0072C279.041 78.0415 279.038 78.0676 279.036 78.0853C279.034 78.1032 279.034 78.1121 279.034 78.112C279.034 78.1119 279.034 78.1022 279.034 78.0828C279.033 78.0634 279.031 78.0336 279.027 77.9935C279.019 77.9144 279.001 77.7879 278.959 77.6188C278.877 77.2918 278.685 76.7312 278.245 76.0571L253.132 92.4687C247.003 83.0906 248.285 71.109 253.405 61.9852L279.567 76.6674ZM259.082 97.7298C244.69 90.6695 239.396 77.786 240.163 66.5484L270.093 68.5909C270.074 68.8793 270.133 69.0829 270.21 69.223C270.251 69.297 270.355 69.4644 270.615 69.7061C270.879 69.952 271.387 70.3511 272.295 70.7961L259.082 97.7298ZM266.4 101.892C260.49 100.488 255.984 96.834 253.132 92.4687L278.245 76.0571C277.402 74.7673 275.749 73.2782 273.335 72.7046L266.4 101.892ZM272.294 70.7961C273.315 71.2965 274.863 71.8657 277.123 72.3049L271.401 101.754C266.914 100.882 262.793 99.5502 259.082 97.7298L272.294 70.7961ZM284.932 71.8841C283.827 72.476 282.928 73.0773 282.2 73.6512L263.619 50.098C265.788 48.387 268.174 46.8273 270.77 45.4374L284.932 71.8841ZM256.609 82.4748C255.836 82.5554 255.308 82.7395 255.024 82.8802L241.716 55.9933C245.549 54.0964 249.591 53.0435 253.502 52.6362L256.609 82.4748ZM260.88 61.1596C265.14 67.5977 268.084 70.4467 269.694 71.6454C270.955 72.5843 271.122 72.3356 270.652 72.3087L268.938 102.26C256.721 101.561 246.417 93.6684 235.861 77.7139L260.88 61.1596ZM292.839 56.2366C294.156 60.226 296.965 68.2547 296.948 76.0548C296.939 80.2792 296.141 85.6212 292.948 90.6675C289.593 95.9698 284.543 99.4495 278.765 101.3L269.614 72.7304C269.721 72.696 268.546 73.1264 267.596 74.627C266.809 75.8716 266.947 76.6596 266.948 75.9891C266.95 75.2975 266.803 74.0326 266.3 72.0324C265.804 70.0631 265.138 68.0256 264.352 65.6432L292.839 56.2366ZM292.142 54.1035C292.346 54.7428 292.572 55.4301 292.839 56.2366L264.352 65.6432C264.096 64.868 263.819 64.0303 263.56 63.2181L292.142 54.1035ZM272.539 55.6201C278.147 58.129 283.843 62.5023 287.256 69.2358C290.831 76.2903 291.053 84.2866 288.338 91.9966L260.041 82.0342C260.241 81.4666 260.171 81.3727 260.184 81.6627C260.189 81.7986 260.212 81.9827 260.269 82.1967C260.325 82.4101 260.403 82.6142 260.496 82.7976C260.588 82.9791 260.681 83.1154 260.754 83.2075C260.826 83.298 260.871 83.338 260.87 83.337C260.859 83.3277 260.688 83.1838 260.287 83.0043L272.539 55.6201ZM261 79.8716C262.562 76.9882 262.687 74.9862 262.582 73.922C262.468 72.7773 262.054 72.227 261.935 72.0997L283.885 51.6495C293.589 62.0651 295.819 78.577 287.379 94.1592L261 79.8716ZM279.494 76.6533C279.25 77.0888 279.114 77.4451 279.041 77.6988C279.005 77.8255 278.985 77.9243 278.973 77.9931C278.968 78.0273 278.965 78.0534 278.963 78.0712C278.961 78.089 278.961 78.0979 278.961 78.0979C278.961 78.0978 278.961 78.0881 278.961 78.0687C278.96 78.0493 278.959 78.0195 278.954 77.9793C278.946 77.9003 278.928 77.7738 278.886 77.6047C278.804 77.2777 278.612 76.7171 278.172 76.043L253.059 92.4546C246.93 83.0765 248.212 71.0949 253.332 61.9711L279.494 76.6533ZM259.009 97.7157C244.617 90.6553 239.323 77.7719 240.09 66.5343L270.021 68.5767C270.001 68.8652 270.061 69.0688 270.138 69.2089C270.179 69.2829 270.282 69.4503 270.542 69.692C270.806 69.9379 271.315 70.337 272.222 70.782L259.009 97.7157ZM266.327 101.878C260.418 100.474 255.912 96.8199 253.059 92.4546L278.172 76.043C277.329 74.7532 275.676 73.264 273.262 72.6904L266.327 101.878ZM272.222 70.782C273.242 71.2824 274.79 71.8516 277.051 72.2908L271.328 101.74C266.841 100.868 262.72 99.5361 259.009 97.7157L272.222 70.782ZM272.076 101.423L246.957 85.021C252.497 76.5375 261.944 71.4233 272.076 71.4233V101.423ZM277.043 166.368V196.368C269.356 196.368 261.962 193.417 256.388 188.125L277.043 166.368ZM298.715 101.423V71.4233C308.847 71.4233 318.295 76.5375 323.834 85.021L298.715 101.423ZM301.801 122.689L292.079 151.07H292.079L301.801 122.689ZM293.749 166.368L314.404 188.125C308.829 193.417 301.435 196.368 293.749 196.368V166.368ZM293.733 52.6953L266.435 40.2529L266.435 40.2529L293.733 52.6953ZM297.448 51.2986L307.254 22.9467L307.254 22.9467L297.448 51.2986ZM290.147 65.3054L260.881 58.7121L290.147 65.3054ZM285.798 89.6637L315.508 93.8255L315.508 93.8255L285.798 89.6637ZM284.59 99.1741L314.396 102.579C312.753 116.969 301.063 128.129 286.613 129.106C272.162 130.082 259.078 120.596 255.513 106.558L284.59 99.1741ZM275.608 77.8456L300.242 60.7239L275.608 77.8456ZM270.713 80.4273L295.347 63.3057L270.713 80.4273ZM282.483 121.039L252.628 123.978L252.628 123.978L282.483 121.039ZM282.632 122.617L312.511 119.929C312.639 121.349 312.666 122.777 312.59 124.201L282.632 122.617ZM282.662 161.509L252.712 163.237L282.662 161.509ZM285.474 163.875L285.894 133.878L285.894 133.878L285.474 163.875ZM288.371 161.589L258.505 158.757V158.757L288.371 161.589ZM288.364 122.54L258.481 125.18C258.356 123.768 258.331 122.348 258.408 120.931L288.364 122.54ZM291.478 90.2675L321.188 94.4293L321.188 94.4293L291.478 90.2675ZM295.762 66.2653L266.496 59.672V59.672L295.762 66.2653ZM299.051 54.5348L326.349 66.9771L326.349 66.9771L299.051 54.5348ZM289.389 31.2619L260.807 22.1473C263.515 13.6566 269.857 6.80923 278.116 3.46043C286.375 0.111618 295.695 0.608042 303.552 4.8152L289.389 31.2619ZM293.273 61.3411L289.171 91.0592C287.458 90.8228 285.768 90.4386 284.121 89.911L293.273 61.3411ZM320.663 42.6933L333.97 15.8063C341.685 19.6247 347.388 26.573 349.629 34.8842C351.869 43.1955 350.432 52.0688 345.682 59.2475L320.663 42.6933ZM294.631 34.6712L276.05 58.2243V58.2243L294.631 34.6712ZM313.571 40.6976L310.464 70.5363H310.464L313.571 40.6976ZM297.935 61.6262L296.221 31.6752L296.221 31.6752L297.935 61.6262ZM288.6 33.6796L317.087 43.0862L317.087 43.0862L288.6 33.6796ZM301.523 42.5611L313.774 69.9454C299.612 76.2817 282.954 70.7736 275.361 57.2433L301.523 42.5611ZM293.35 61.3261L284.198 89.896C269.375 85.1477 260.646 69.8516 264.097 54.6741C267.548 39.4966 282.034 29.4794 297.453 31.6079L293.35 61.3261ZM308.935 31.1499L296.022 58.2287L296.022 58.2287L308.935 31.1499ZM294.708 34.6562L276.127 58.2093C269.545 53.0165 265.435 45.306 264.795 36.9463C264.155 28.5865 267.043 20.3404 272.758 14.206L294.708 34.6562ZM313.648 40.6826L343.579 38.6402C344.181 47.4736 340.851 56.1222 334.48 62.2704C328.109 68.4186 319.347 71.4384 310.541 70.5213L313.648 40.6826ZM298.012 61.6112L296.298 31.6602C311.819 30.772 325.447 41.8875 327.697 57.2699C329.946 72.6523 320.072 87.2049 304.947 90.7986L298.012 61.6112ZM301.6 42.5461L313.851 69.9304C299.689 76.2667 283.031 70.7586 275.438 57.2283L301.6 42.5461ZM277.924 58.6749L263.761 32.2282C271.618 28.0211 280.938 27.5246 289.197 30.8734C297.455 34.2222 303.798 41.0696 306.505 49.5603L277.924 58.6749ZM274.262 87.0295L283.414 115.599C281.767 116.127 280.078 116.511 278.365 116.748L274.262 87.0295ZM248.443 69.4509L223.424 86.0051C218.674 78.8263 217.236 69.9531 219.477 61.6418C221.718 53.3306 227.421 46.3823 235.135 42.5639L248.443 69.4509ZM272.982 61.8887L291.563 85.4419L291.563 85.4419L272.982 61.8887ZM255.128 67.5696L258.236 97.4083H258.236L255.128 67.5696ZM269.867 87.2983L271.581 57.3473H271.581L269.867 87.2983ZM278.668 60.954L250.181 70.3606V70.3606L278.668 60.954ZM266.486 69.3263L292.647 84.0085C285.054 97.5388 268.397 103.047 254.234 96.7105L266.486 69.3263ZM274.189 87.0154L270.087 57.2972C285.506 55.1687 299.991 65.1859 303.443 80.3634C306.894 95.5409 298.164 110.837 283.341 115.585L274.189 87.0154ZM259.498 58.5694L272.411 85.6482L272.411 85.6482L259.498 58.5694ZM272.91 61.8746L294.86 41.4244C300.575 47.5588 303.462 55.8049 302.822 64.1647C302.182 72.5244 298.073 80.2349 291.491 85.4277L272.91 61.8746ZM255.055 67.5555L258.163 97.3942C249.357 98.3112 240.595 95.2915 234.224 89.1433C227.852 82.9951 224.522 74.3465 225.125 65.5131L255.055 67.5555ZM269.795 87.2842L262.86 116.472C247.735 112.878 237.861 98.3253 240.111 82.9429C242.36 67.5605 255.988 56.445 271.509 57.3332L269.795 87.2842ZM266.413 69.3122L292.575 83.9944C284.981 97.5247 268.324 103.033 254.161 96.6964L266.413 69.3122ZM297.195 117.826C298.116 116.414 302.378 109.602 300.933 99.6431C299.314 88.4909 292.029 82.5735 289.149 80.628C286.743 79.003 284.519 78.2178 285.995 78.8255C286.267 78.9377 289.251 80.0967 292.185 81.8121L261.9 133.608C263.291 134.421 264.535 134.876 263.152 134.307C262.972 134.233 259.178 132.788 255.568 130.35C251.483 127.592 243.361 120.707 241.554 108.258C239.921 97.0029 244.643 88.5641 246.957 85.021L297.195 117.826ZM292.185 81.8121C304.928 89.263 307.736 101.839 308.264 107.648C308.883 114.447 307.533 120.714 305.522 125.771C301.341 136.286 292.359 146.395 278.713 151.07L259.269 94.3078C254.878 95.8119 251.465 99.3337 249.767 103.603C248.998 105.537 248.119 108.767 248.511 113.083C248.814 116.41 250.7 127.059 261.9 133.608L292.185 81.8121ZM278.713 151.07C284.684 149.024 288.641 145.188 290.876 141.929C292.929 138.935 293.586 136.418 293.788 135.497C294.161 133.792 293.796 133.856 294.159 135.998C294.467 137.818 295.113 139.95 296.014 141.855C296.953 143.841 297.711 144.624 297.698 144.611L256.388 188.125C243.704 176.084 237.238 159.242 234.999 146.007C233.847 139.197 233.374 130.897 235.175 122.67C236.747 115.485 242.16 100.169 259.269 94.3078L278.713 151.07ZM323.834 85.021C326.148 88.5641 330.87 97.0029 329.237 108.258C327.431 120.707 319.308 127.592 315.224 130.35C311.614 132.788 307.819 134.233 307.639 134.307C306.256 134.876 307.5 134.421 308.891 133.608L278.606 81.8121C281.54 80.0967 284.524 78.9377 284.796 78.8255C286.273 78.2178 284.049 79.003 281.643 80.628C278.762 82.5735 271.477 88.4909 269.859 99.6431C268.414 109.602 272.675 116.414 273.596 117.826L323.834 85.021ZM308.891 133.608C320.092 127.059 321.978 116.41 322.28 113.083C322.673 108.767 321.793 105.537 321.024 103.603C319.327 99.3337 315.914 95.8119 311.523 94.3078L292.079 151.07C278.432 146.395 269.45 136.286 265.269 125.771C263.259 120.714 261.909 114.447 262.527 107.648C263.055 101.839 265.863 89.263 278.606 81.8121L308.891 133.608ZM311.523 94.3078C328.632 100.169 334.044 115.485 335.616 122.67C337.417 130.897 336.944 139.197 335.792 146.007C333.553 159.242 327.087 176.084 314.404 188.125L273.094 144.611C273.08 144.624 273.838 143.841 274.777 141.855C275.679 139.95 276.325 137.818 276.633 135.998C276.995 133.856 276.63 133.792 277.004 135.497C277.205 136.418 277.862 138.935 279.915 141.929C282.15 145.188 286.107 149.024 292.079 151.07L311.523 94.3078ZM277.043 136.368H293.749V196.368H277.043V136.368ZM272.076 71.4233H298.715V131.423H272.076V71.4233ZM266.435 40.2529C274.427 22.7173 293.545 18.2048 307.254 22.9467L287.641 79.6505C298.413 83.3765 314.204 80.1146 321.031 65.1376L266.435 40.2529ZM260.881 58.7121C262.243 52.6672 264.102 45.3693 266.435 40.2529L321.031 65.1376C321.382 64.3676 321.497 63.982 321.395 64.2791C321.325 64.4855 321.182 64.9292 320.975 65.6524C320.561 67.101 320.023 69.1933 319.414 71.8987L260.881 58.7121ZM256.089 85.5019C257.562 74.9812 259.269 65.8677 260.881 58.7121L319.414 71.8987C318.187 77.346 316.768 84.8323 315.508 93.8255L256.089 85.5019ZM254.784 95.7691C255.191 92.2102 255.629 88.7823 256.089 85.5019L315.508 93.8255C315.118 96.6118 314.744 99.535 314.396 102.579L254.784 95.7691ZM300.242 60.7239C307.087 70.5719 311.129 81.7932 313.667 91.7903L255.513 106.558C253.943 100.375 252.193 96.7217 250.973 94.9673L300.242 60.7239ZM257.683 50.4693C271.09 43.3976 289.93 45.8868 300.242 60.7239L250.973 94.9673C259.649 107.449 274.97 109.186 285.674 103.54L257.683 50.4693ZM246.079 97.549C233.76 79.8252 242.343 58.5601 257.683 50.4693L285.674 103.54C291.768 100.326 297.05 94.5035 299.255 86.6866C301.504 78.7142 300.081 70.1165 295.347 63.3057L246.079 97.549ZM252.628 123.978C251.188 109.354 248.193 100.591 246.079 97.549L295.347 63.3057C306.696 79.6338 310.709 101.545 312.339 118.1L252.628 123.978ZM252.753 125.306C252.713 124.862 252.671 124.419 252.628 123.978L312.339 118.1C312.399 118.711 312.457 119.321 312.511 119.929L252.753 125.306ZM252.712 163.237C251.859 148.447 251.979 134.183 252.674 121.034L312.59 124.201C311.995 135.464 311.904 147.494 312.613 159.78L252.712 163.237ZM285.054 193.872C271.418 193.681 253.889 183.616 252.712 163.237L312.613 159.78C311.588 142.022 296.517 134.027 285.894 133.878L285.054 193.872ZM318.237 164.42C316.325 184.583 298.651 194.063 285.053 193.872L285.894 133.878C275.309 133.73 260.169 141.21 258.505 158.757L318.237 164.42ZM318.248 119.899C319.764 137.059 319.26 153.631 318.237 164.42L258.505 158.757C259.224 151.177 259.639 138.292 258.481 125.18L318.248 119.899ZM321.188 94.4293C319.963 103.176 318.906 113.251 318.321 124.148L258.408 120.931C259.092 108.179 260.327 96.3945 261.768 86.1057L321.188 94.4293ZM325.029 72.8587C323.83 78.1802 322.432 85.5473 321.188 94.4293L261.768 86.1057C263.227 75.6962 264.912 66.7019 266.496 59.672L325.029 72.8587ZM326.349 66.9771C326.796 65.9966 326.971 65.4268 326.88 65.6948C326.838 65.8215 326.718 66.1911 326.53 66.8485C326.156 68.1579 325.637 70.1606 325.029 72.8587L266.496 59.672C267.861 53.6135 269.638 46.7313 271.753 42.0924L326.349 66.9771ZM307.254 22.9467C322.279 28.1436 335.588 46.7073 326.349 66.9771L271.753 42.0924C263.68 59.8036 275.553 75.4695 287.641 79.6505L307.254 22.9467ZM303.552 4.8152C307.005 6.6643 310.234 8.76892 313.212 11.118L276.05 58.2243C275.955 58.1496 275.699 57.9617 275.227 57.7085L303.552 4.8152ZM316.678 10.859C322.3 11.4445 328.239 12.9694 333.97 15.8063L307.355 69.5802C308.72 70.2556 309.811 70.4683 310.464 70.5363L316.678 10.859ZM345.682 59.2475C333.562 77.5649 319.228 90.4568 299.649 91.5772L296.221 31.6752C294.877 31.7521 293.389 32.0298 291.954 32.5612C290.573 33.0725 289.793 33.6149 289.629 33.7369C289.512 33.8242 290.014 33.4693 291.098 32.2403C292.181 31.012 293.7 29.0762 295.644 26.139L345.682 59.2475ZM317.087 43.0862C316.228 45.6857 315.686 47.3688 315.305 48.8822C314.909 50.4574 315.044 50.5285 315.042 49.6133C315.04 48.6557 314.877 44.9412 312.172 40.6667C309.144 35.8803 304.974 33.5876 302.425 32.7711L284.121 89.911C275.329 87.0946 267.049 81.5671 261.469 72.7478C256.213 64.4404 255.056 55.8949 255.042 49.7447C255.018 38.7416 258.908 27.9213 260.112 24.273L317.087 43.0862ZM310.464 70.5363C311.023 70.5946 311.508 70.5739 311.953 70.505C312.394 70.4368 313.007 70.2888 313.774 69.9454L289.271 15.1769C297.917 11.3088 307.522 9.90549 316.678 10.859L310.464 70.5363ZM275.361 57.2433C275.846 58.1075 276.226 58.3633 276.05 58.2243L313.212 11.118C319.231 15.8666 324.129 21.5437 327.684 27.8789L275.361 57.2433ZM317.971 40.3765C317.67 41.3193 317.353 42.2785 317.087 43.0862L260.112 24.273C260.4 23.4028 260.617 22.7443 260.807 22.1473L317.971 40.3765ZM297.376 31.6229C297.65 31.6608 297.782 31.6775 297.856 31.6861C297.922 31.6938 297.882 31.6881 297.771 31.6796C297.539 31.6621 296.984 31.6315 296.221 31.6752L299.649 91.5772C294.848 91.8519 290.853 91.2914 289.171 91.0592L297.376 31.6229ZM272.758 14.206C283.216 2.98105 302.362 -5.22096 321.848 4.07116L296.022 58.2287C305.874 62.9268 313.97 57.9913 316.658 55.1063L272.758 14.206ZM321.848 4.07116C331.256 8.55751 336.321 16.1851 338.76 20.9659C341.558 26.4506 343.162 32.5335 343.579 38.6402L283.718 42.7251C283.82 44.2179 284.217 46.0827 285.311 48.2287C285.871 49.3255 286.793 50.8455 288.277 52.4982C289.702 54.0852 292.2 56.406 296.022 58.2287L321.848 4.07116ZM304.947 90.7986C297.559 92.5541 290.398 91.882 284.198 89.896L302.502 32.7561C299.729 31.8678 295.706 31.3241 291.077 32.4238L304.947 90.7986ZM310.541 70.5213C311.101 70.5796 311.585 70.5589 312.03 70.49C312.471 70.4218 313.084 70.2738 313.851 69.9304L289.348 15.1619C297.994 11.2938 307.599 9.8905 316.755 10.844L310.541 70.5213ZM275.438 57.2283C275.923 58.0925 276.303 58.3483 276.127 58.2093L313.289 11.103C319.308 15.8516 324.206 21.5287 327.761 27.8639L275.438 57.2283ZM297.453 31.6079C297.727 31.6458 297.859 31.6625 297.933 31.6711C297.999 31.6788 297.96 31.6731 297.848 31.6646C297.617 31.6471 297.062 31.6165 296.298 31.6602L299.726 91.5622C294.925 91.8369 290.93 91.2764 289.248 91.0443L297.453 31.6079ZM292.086 85.1215C291.726 85.3144 291.57 85.4366 291.563 85.4419L254.402 38.3356C257.291 36.0559 260.421 34.017 263.761 32.2282L292.086 85.1215ZM258.236 97.4083C259.031 97.3255 260.261 97.0751 261.751 96.3378L235.135 42.5639C240.742 39.789 246.541 38.3017 252.021 37.731L258.236 97.4083ZM273.462 52.8966C275.26 55.6138 276.644 57.3728 277.603 58.4595C278.562 59.5469 278.949 59.7952 278.725 59.6284C278.454 59.4269 277.576 58.8319 276.103 58.2867C274.577 57.7214 273.004 57.4287 271.581 57.3473L268.154 117.249C248.889 116.147 234.961 103.442 223.424 86.0051L273.462 52.8966ZM307.155 51.5474C308.267 54.9152 312.044 65.3964 312.021 76.1018C312.008 82.1031 310.879 90.5101 305.696 98.7019C300.189 107.406 292.027 112.84 283.414 115.599L265.11 58.4596C262.382 59.3334 258.095 61.7188 254.993 66.6208C252.215 71.0109 252.024 74.8639 252.021 75.9704C252.019 77.0344 252.182 77.1225 251.825 75.7044C251.484 74.348 250.993 72.8199 250.181 70.3606L307.155 51.5474ZM252.021 37.731C260.941 36.8021 270.301 38.1674 278.737 41.9421L254.234 96.7105C255.106 97.1007 255.833 97.2816 256.39 97.3678C256.953 97.4548 257.558 97.4789 258.236 97.4083L252.021 37.731ZM240.324 54.6441C243.792 48.4657 248.56 42.944 254.402 38.3356L291.563 85.4419C291.557 85.447 291.685 85.3464 291.891 85.1077C292.096 84.87 292.366 84.5095 292.647 84.0085L240.324 54.6441ZM306.505 49.5603C306.682 50.1132 306.884 50.7252 307.155 51.5474L250.181 70.3606C249.93 69.6011 249.628 68.6882 249.342 67.7895L306.505 49.5603ZM278.365 116.748C276.765 116.969 272.858 117.518 268.154 117.249L271.581 57.3473C270.77 57.3008 270.169 57.3326 269.892 57.3536C269.669 57.3704 269.625 57.3851 270.16 57.3113L278.365 116.748ZM250.96 82.3247C253.871 85.4488 262.283 90.4779 272.411 85.6482L246.586 31.4906C265.795 22.3302 284.624 30.4385 294.86 41.4244L250.96 82.3247ZM272.411 85.6482C276.266 83.8098 278.797 81.4635 280.252 79.843C281.766 78.1567 282.716 76.5951 283.3 75.4504C284.443 73.2088 284.875 71.2231 284.986 69.598L225.125 65.5131C225.533 59.5387 227.102 53.5767 229.851 48.1877C232.241 43.5026 237.243 35.9455 246.586 31.4906L272.411 85.6482ZM276.73 58.0967C272.022 56.9783 267.909 57.5256 265.038 58.4454L283.341 115.585C277.24 117.54 270.169 118.208 262.86 116.472L276.73 58.0967ZM251.948 37.7169C260.868 36.788 270.228 38.1533 278.665 41.928L254.161 96.6964C255.033 97.0866 255.76 97.2675 256.318 97.3537C256.88 97.4407 257.485 97.4648 258.163 97.3942L251.948 37.7169ZM240.251 54.63C243.719 48.4515 248.487 42.9299 254.329 38.3214L291.491 85.4277C291.484 85.4329 291.612 85.3323 291.818 85.0935C292.024 84.8559 292.294 84.4954 292.575 83.9944L240.251 54.63ZM278.292 116.734C276.692 116.954 272.785 117.504 268.081 117.235L271.509 57.3332C270.697 57.2867 270.096 57.3185 269.819 57.3395C269.597 57.3563 269.552 57.371 270.087 57.2972L278.292 116.734Z" fill="black" mask="url(#path-21-outside-2_10_205)"/>
</g>
<path opacity="0.6" d="M277.043 107.71C273.957 105.906 269.292 105.687 272.076 101.423H298.715C301.5 105.687 296.834 105.906 293.749 107.71C290.663 109.514 292.545 119.518 301.801 122.689C311.057 125.86 306.993 153.795 293.749 166.368H277.043C263.798 153.795 259.735 125.86 268.991 122.689C278.247 119.518 280.128 109.514 277.043 107.71Z" fill="#8FDEFF"/>
<path fill-rule="evenodd" clip-rule="evenodd" d="M297.447 51.2986C295.979 50.7906 294.316 51.4159 293.733 52.6952C292.85 54.6322 291.549 59.0831 290.147 65.3054C288.728 71.6069 287.165 79.9067 285.798 89.6637C285.373 92.697 284.967 95.8726 284.59 99.1741C282.536 91.0842 279.64 83.6468 275.608 77.8456C274.789 76.6681 273.03 76.2915 271.678 77.0044C270.327 77.7174 269.894 79.2498 270.713 80.4273C277.444 90.1124 280.949 105.449 282.483 121.039C282.535 121.565 282.585 122.091 282.632 122.617C281.987 134.823 281.881 147.971 282.662 161.508C282.738 162.819 283.967 163.854 285.474 163.875C286.98 163.896 288.247 162.896 288.371 161.588C289.242 152.404 289.702 137.675 288.364 122.54C288.999 110.715 290.145 99.7852 291.478 90.2675C292.829 80.6217 294.371 72.4411 295.762 66.2653C297.171 60.0103 298.389 55.9874 299.051 54.5347C299.634 53.2554 298.916 51.8065 297.447 51.2986Z" fill="#2AAA9E"/>
<path fill-rule="evenodd" clip-rule="evenodd" d="M288.6 33.6797C285.369 43.4628 280.786 57.3412 293.273 61.3412C294.987 61.89 296.555 61.9542 297.935 61.6263C299.789 61.1858 301.303 60.0376 302.369 58.4063C304.775 54.7248 304.902 48.5827 301.523 42.5612C299.987 39.8257 297.729 37.115 294.631 34.6713C293.095 33.4594 291.352 32.3131 289.389 31.262C289.144 32.0319 288.877 32.8408 288.6 33.6797Z" fill="#E58D25"/>
<path d="M313.571 40.6977C309.452 40.2688 305.165 40.9316 301.523 42.5612C304.902 48.5827 304.775 54.7248 302.369 58.4063C311.393 53.9796 313.979 46.6747 313.571 40.6977Z" fill="#FFB858"/>
<path d="M320.663 42.6934C318.479 41.6126 316.056 40.9565 313.571 40.6977C313.979 46.6747 311.393 53.9796 302.369 58.4063C301.303 60.0376 299.789 61.1858 297.935 61.6263C303.418 61.3125 310.505 58.0454 320.663 42.6934Z" fill="#FFB858"/>
<path fill-rule="evenodd" clip-rule="evenodd" d="M297.935 61.6263C296.555 61.9542 294.987 61.89 293.273 61.3412C294.703 61.5386 296.243 61.7231 297.935 61.6263Z" fill="#FFB858"/>
<path fill-rule="evenodd" clip-rule="evenodd" d="M298.012 61.6112C296.632 61.939 295.064 61.8749 293.35 61.326C294.78 61.5234 296.32 61.708 298.012 61.6112Z" fill="#CA6D18"/>
<path d="M308.935 31.1499C304.118 28.8529 298.593 30.4862 294.708 34.6561C297.806 37.0999 300.065 39.8106 301.6 42.5461C305.242 40.9164 309.529 40.2537 313.648 40.6826C313.333 36.0688 311.234 32.2463 308.935 31.1499Z" fill="#CA6D18"/>
<path fill-rule="evenodd" clip-rule="evenodd" d="M278.668 60.954C281.713 70.1762 286.033 83.2589 274.262 87.0295C272.647 87.5469 271.168 87.6073 269.867 87.2982C268.12 86.883 266.693 85.8006 265.688 84.2629C263.42 80.7925 263.3 75.0026 266.486 69.3263C267.933 66.7476 270.062 64.1923 272.982 61.8887C274.431 60.7463 276.073 59.6657 277.924 58.6748C278.155 59.4006 278.407 60.1631 278.668 60.954Z" fill="#E58D25"/>
<path d="M255.128 67.5696C259.011 67.1653 263.052 67.79 266.486 69.3263C263.3 75.0026 263.42 80.7925 265.688 84.2629C257.182 80.0899 254.744 73.2039 255.128 67.5696Z" fill="#FFB858"/>
<path d="M248.443 69.4508C250.501 68.432 252.786 67.8135 255.128 67.5696C254.744 73.2039 257.182 80.0899 265.688 84.2629C266.693 85.8006 268.12 86.883 269.867 87.2982C264.699 87.0025 258.018 83.9227 248.443 69.4508Z" fill="#FFB858"/>
<path fill-rule="evenodd" clip-rule="evenodd" d="M269.867 87.2982C271.168 87.6073 272.647 87.5469 274.262 87.0295C272.914 87.2156 271.463 87.3895 269.867 87.2982Z" fill="#FFB858"/>
<path fill-rule="evenodd" clip-rule="evenodd" d="M269.795 87.2841C271.096 87.5932 272.574 87.5327 274.189 87.0154C272.841 87.2015 271.39 87.3754 269.795 87.2841Z" fill="#CA6D18"/>
<path d="M259.498 58.5694C264.039 56.404 269.247 57.9437 272.91 61.8746C269.99 64.1782 267.86 66.7335 266.413 69.3122C262.979 67.7759 258.938 67.1512 255.055 67.5555C255.352 63.2063 257.331 59.6029 259.498 58.5694Z" fill="#CA6D18"/>
<path d="M62.7488 147.652C60.1866 149.884 62.7488 156.828 62.7488 156.828C56.0302 156.828 55.5842 160.631 56.201 162.532H76.2713C76.2713 157.969 110.434 156.828 127.515 156.828C144.596 156.828 178.758 157.969 178.758 162.532H198.829C199.446 160.631 199 156.828 192.281 156.828C192.281 156.828 194.843 149.884 192.281 147.652C189.719 145.42 158.973 145.048 158.973 126.2C165.236 126.2 165.52 117.768 158.395 117.768C156.179 102.234 147.339 89 127.515 89C107.691 89 98.8506 102.234 96.635 117.768C89.5093 117.768 89.794 126.2 96.0571 126.2C96.0571 145.048 65.3109 145.42 62.7488 147.652Z" fill="#DA4457"/>
<path d="M210.388 150.078C209.695 149.136 208.948 148.294 208.159 147.543C207.713 144.682 206.378 140.039 202.134 136.342C199.754 134.268 197.241 133.376 196.525 133.122L196.504 133.115C195.409 132.726 194.36 132.456 193.614 132.277C192.357 131.975 190.827 131.673 189.526 131.416C189.315 131.375 189.111 131.335 188.914 131.296C185.691 130.656 182.475 129.971 179.504 128.958C178.827 128.728 178.219 128.498 177.674 128.273C178.379 126.231 178.742 124.027 178.702 121.723C178.614 116.655 176.485 111.61 172.412 107.941C172.092 107.653 171.767 107.379 171.436 107.117C169.411 100.066 165.973 93.0854 160.456 87.2524C152.355 78.6859 141.088 74 127.515 74C113.942 74 102.674 78.6859 94.5733 87.2524C89.0572 93.0854 85.619 100.066 83.5943 107.117C83.2632 107.379 82.9376 107.653 82.6181 107.941C78.545 111.61 76.4156 116.655 76.3275 121.723C76.2874 124.027 76.6511 126.231 77.3558 128.273C76.811 128.498 76.2028 128.728 75.5261 128.958C72.555 129.971 69.3384 130.656 66.1155 131.296C65.9191 131.335 65.7146 131.375 65.5041 131.416C64.203 131.673 62.6725 131.975 61.4153 132.277C60.6694 132.456 59.6204 132.726 58.526 133.115L58.5049 133.122C57.7891 133.376 55.2761 134.268 52.896 136.342C48.6518 140.039 47.3167 144.682 46.8712 147.543C46.0821 148.294 45.3347 149.136 44.6415 150.078C40.1022 156.248 40.6078 163.076 41.933 167.161L45.2976 177.532H56.201H76.2713H91.2713V173.436C92.8915 173.253 94.7034 173.08 96.686 172.921C106.816 172.109 119.193 171.828 127.515 171.828C135.836 171.828 148.213 172.109 158.344 172.921C160.326 173.08 162.138 173.253 163.758 173.436V177.532H178.758H198.829H209.732L213.097 167.161C214.422 163.076 214.928 156.248 210.388 150.078Z" stroke="black" stroke-opacity="0.9" stroke-width="30"/>
<path d="M143.585 116.156C143.585 122.375 137.433 129.116 127.598 129.116C117.764 129.116 111.612 122.375 111.612 116.156C111.612 109.937 117.764 103.196 127.598 103.196C137.433 103.196 143.585 109.937 143.585 116.156Z" fill="white" stroke="#A52B3A" stroke-width="15"/>
<path d="M444.018 61.1997C389.238 63.315 392.274 134.332 400.763 170.282C400.864 170.713 401.245 171 401.686 171H415.224C415.752 171 416.179 170.546 416.186 170.017C416.882 121.444 469.148 122.723 469.861 170.018C469.869 170.548 470.296 171 470.824 171H481.563C482.068 171 482.488 170.572 482.52 170.065C486.891 101.049 511.858 125.427 517.445 154.242C517.533 154.697 517.928 155.029 518.39 155.029H521.354C521.85 155.029 522.261 154.677 522.301 154.18C522.809 147.71 525.896 106.174 522.232 95.138C518.255 83.1597 512.953 58.5378 444.018 61.1997Z" fill="#C4C4C4"/>
<path d="M498 104.5C498 105.881 496.881 107 495.5 107C494.119 107 493 105.881 493 104.5C493 103.119 494.119 102 495.5 102C496.881 102 498 103.119 498 104.5Z" fill="#585656"/>
<path fill-rule="evenodd" clip-rule="evenodd" d="M467.967 87.2212C468.378 87.5605 468.436 88.1678 468.096 88.5777C465.471 91.7398 462.517 96.7452 462.009 101.519C461.757 103.882 462.109 106.139 463.342 108.104C464.575 110.068 466.755 111.846 470.358 113.129C470.861 113.308 471.123 113.859 470.943 114.36C470.764 114.861 470.211 115.123 469.708 114.944C465.801 113.553 463.221 111.542 461.704 109.126C460.188 106.711 459.802 103.995 460.087 101.316C460.652 96.0065 463.867 90.6496 466.607 87.3492C466.947 86.9393 467.556 86.882 467.967 87.2212Z" fill="#585656"/>
</svg>
