<svg width="145" height="159" viewBox="0 0 145 159" fill="none" xmlns="http://www.w3.org/2000/svg">
<mask id="path-1-inside-1_10_207" fill="white">
<rect x="87.0918" width="57.5838" height="66.1784" rx="10"/>
</mask>
<rect x="87.0918" width="57.5838" height="66.1784" rx="10" fill="white" stroke="black" stroke-opacity="0.9" stroke-width="40" stroke-linejoin="round" mask="url(#path-1-inside-1_10_207)"/>
<rect x="92.8215" y="5.72971" width="46.1243" height="46.1243" rx="10" fill="#00AFB9"/>
<path d="M123.918 21.4372C117.909 10.4324 108.32 22.6287 119.819 35.6149C137.697 31.1505 134.696 15.3557 123.918 21.4372Z" fill="#FED9B7"/>
<path d="M106.361 35.8836C100.209 32.4895 99.3462 41.1395 108.689 43.8193C115.797 36.3301 109.627 29.7663 106.361 35.8836Z" fill="#F07167"/>
<mask id="path-5-inside-2_10_207" fill="white">
<rect y="92.8216" width="57.5838" height="66.1784" rx="10"/>
</mask>
<rect y="92.8216" width="57.5838" height="66.1784" rx="10" fill="white" stroke="black" stroke-opacity="0.9" stroke-width="40" stroke-linejoin="round" mask="url(#path-5-inside-2_10_207)"/>
<rect x="5.72974" y="98.5513" width="46.1243" height="46.1243" rx="10" fill="#00AFB9"/>
<path d="M22.2229 110.005C28.2328 99 37.8209 111.196 26.3227 124.182C8.44418 119.718 11.4452 103.923 22.2229 110.005Z" fill="#F07167"/>
<path d="M39.2341 129.266C46.1037 126.043 46.4227 135.426 36.1651 137.654C29.0336 129.08 36.1474 122.443 39.2341 129.266Z" fill="#FED9B7"/>
<mask id="path-9-inside-3_10_207" fill="white">
<rect x="87.0918" y="92.8216" width="57.5838" height="66.1784" rx="10"/>
</mask>
<rect x="87.0918" y="92.8216" width="57.5838" height="66.1784" rx="10" fill="white" stroke="black" stroke-opacity="0.9" stroke-width="57.5838" stroke-linejoin="round" mask="url(#path-9-inside-3_10_207)"/>
<rect x="92.8215" y="98.5513" width="46.1243" height="46.1243" rx="10" fill="#00AFB9"/>
<mask id="mask0_10_207" style="mask-type:alpha" maskUnits="userSpaceOnUse" x="92" y="98" width="47" height="47">
<rect x="92.8215" y="98.5513" width="46.1243" height="46.1243" rx="10" fill="#00AFB9"/>
</mask>
<g mask="url(#mask0_10_207)">
<path d="M106.429 121.9C108.148 124.994 113.066 140.283 115.311 147.541M115.311 147.541C115.167 145.01 115.225 138.917 116.6 134.792M115.311 147.541C116.6 143.53 121.756 131.211 122.186 119.322" stroke="#07795E" stroke-width="10"/>
</g>
<path fill-rule="evenodd" clip-rule="evenodd" d="M119.948 109.037C118.806 113.156 117.185 119.001 121.769 120.637C122.398 120.861 122.973 120.883 123.476 120.74C124.153 120.549 124.702 120.061 125.085 119.372C125.95 117.818 125.972 115.238 124.712 112.721C124.139 111.578 123.302 110.447 122.158 109.432C121.592 108.928 120.949 108.453 120.227 108.018C120.14 108.343 120.046 108.683 119.948 109.037Z" fill="#FED9B7"/>
<path d="M129.112 111.896C127.603 111.73 126.038 112.024 124.712 112.721C125.972 115.238 125.95 117.818 125.085 119.372C128.368 117.482 129.285 114.405 129.112 111.896Z" fill="#FDBE85"/>
<path d="M131.714 112.709C130.911 112.263 130.022 111.996 129.112 111.896C129.285 114.405 128.368 117.482 125.085 119.372C124.702 120.061 124.153 120.549 123.476 120.74C125.481 120.589 128.06 119.192 131.714 112.709Z" fill="#FDBE85"/>
<path fill-rule="evenodd" clip-rule="evenodd" d="M123.476 120.74C122.973 120.883 122.398 120.861 121.769 120.637C122.293 120.715 122.857 120.787 123.476 120.74Z" fill="#FDBE85"/>
<path fill-rule="evenodd" clip-rule="evenodd" d="M123.504 120.734C123.001 120.876 122.426 120.855 121.797 120.63C122.321 120.708 122.885 120.78 123.504 120.734Z" fill="#FFA24D"/>
<path d="M127.377 107.903C125.606 106.955 123.591 107.66 122.187 109.425C123.33 110.441 124.167 111.571 124.74 112.714C126.066 112.017 127.631 111.724 129.14 111.89C129.006 109.953 128.223 108.355 127.377 107.903Z" fill="#FFA24D"/>
<path fill-rule="evenodd" clip-rule="evenodd" d="M109.904 114.313C110.989 118.226 112.529 123.778 108.174 125.332C107.577 125.545 107.031 125.565 106.553 125.43C105.911 125.248 105.389 124.785 105.025 124.131C104.203 122.654 104.182 120.204 105.38 117.813C105.923 116.727 106.719 115.653 107.805 114.689C108.343 114.21 108.953 113.759 109.639 113.346C109.722 113.654 109.811 113.978 109.904 114.313Z" fill="#FED9B7"/>
<path d="M101.2 117.029C102.633 116.872 104.12 117.151 105.38 117.813C104.182 120.204 104.203 122.654 105.025 124.131C101.906 122.335 101.035 119.412 101.2 117.029Z" fill="#FDBE85"/>
<path d="M98.7279 117.802C99.4908 117.378 100.335 117.124 101.2 117.029C101.035 119.412 101.906 122.335 105.025 124.131C105.389 124.785 105.911 125.248 106.553 125.43C104.649 125.286 102.199 123.96 98.7279 117.802Z" fill="#FDBE85"/>
<path fill-rule="evenodd" clip-rule="evenodd" d="M106.553 125.43C107.031 125.565 107.577 125.545 108.174 125.332C107.677 125.406 107.141 125.474 106.553 125.43Z" fill="#FDBE85"/>
<path fill-rule="evenodd" clip-rule="evenodd" d="M106.526 125.424C107.005 125.559 107.55 125.539 108.148 125.326C107.65 125.399 107.114 125.468 106.526 125.424Z" fill="#FFA24D"/>
<path d="M102.848 113.236C104.53 112.336 106.444 113.006 107.778 114.682C106.692 115.647 105.897 116.721 105.353 117.807C104.093 117.144 102.606 116.866 101.173 117.023C101.3 115.184 102.044 113.666 102.848 113.236Z" fill="#FFA24D"/>
<path fill-rule="evenodd" clip-rule="evenodd" d="M123.349 129.025C122.335 132.958 120.898 138.536 116.349 137.709C115.725 137.595 115.242 137.341 114.895 136.985C114.429 136.506 114.209 135.845 114.22 135.096C114.245 133.406 115.45 131.273 117.681 129.799C118.694 129.129 119.92 128.596 121.342 128.302C122.047 128.157 122.801 128.07 123.602 128.055C123.519 128.363 123.435 128.688 123.349 129.025Z" fill="#FDBE85"/>
<path d="M114.45 127.033C115.771 127.612 116.92 128.596 117.681 129.799C115.45 131.273 114.245 133.406 114.22 135.096C112.414 131.983 113.118 129.016 114.45 127.033Z" fill="#FED9B7"/>
<path d="M111.923 126.469C112.795 126.482 113.654 126.684 114.45 127.033C113.118 129.016 112.414 131.983 114.22 135.096C114.209 135.845 114.429 136.506 114.895 136.985C113.317 135.91 111.856 133.537 111.923 126.469Z" fill="#FED9B7"/>
<path fill-rule="evenodd" clip-rule="evenodd" d="M114.895 136.985C115.242 137.341 115.725 137.595 116.349 137.709C115.881 137.525 115.382 137.317 114.895 136.985Z" fill="#FED9B7"/>
<path fill-rule="evenodd" clip-rule="evenodd" d="M114.875 136.966C115.222 137.322 115.705 137.577 116.329 137.69C115.861 137.506 115.362 137.298 114.875 136.966Z" fill="#FFA24D"/>
<path d="M117.772 124.569C119.679 124.629 121.003 126.165 121.322 128.284C119.899 128.577 118.674 129.111 117.661 129.78C116.9 128.578 115.75 127.594 114.43 127.015C115.459 125.484 116.861 124.541 117.772 124.569Z" fill="#FFA24D"/>
<mask id="path-22-inside-4_10_207" fill="white">
<rect width="57.5838" height="66.1784" rx="10"/>
</mask>
<rect width="57.5838" height="66.1784" rx="10" fill="white" stroke="black" stroke-opacity="0.9" stroke-width="57.5838" stroke-linejoin="round" mask="url(#path-22-inside-4_10_207)"/>
<rect x="5.72974" y="5.72971" width="46.1243" height="46.1243" rx="10" fill="#00AFB9"/>
<mask id="mask1_10_207" style="mask-type:alpha" maskUnits="userSpaceOnUse" x="5" y="5" width="47" height="47">
<rect x="5.72974" y="5.72971" width="46.1243" height="46.1243" rx="10" fill="#00AFB9"/>
</mask>
<g mask="url(#mask1_10_207)">
<path d="M23.2056 27.2162C26.0704 31.9146 30.8495 52.2838 30.9407 58.3C30.893 55.1487 31.5996 47.1271 34.8083 40.2514" stroke="#07795E" stroke-width="10" stroke-linecap="round"/>
</g>
<path fill-rule="evenodd" clip-rule="evenodd" d="M24.0578 17.0808C26.3049 21.2123 29.4927 27.0732 24.986 29.9646C24.3676 30.3613 23.7576 30.5268 23.1826 30.4991C22.4101 30.4618 21.7007 30.0757 21.1187 29.4327C19.8054 27.9816 19.1416 25.2222 19.8676 22.212C20.1974 20.8444 20.8141 19.4251 21.7871 18.0531C22.2696 17.3727 22.8397 16.704 23.5059 16.059C23.6793 16.3849 23.8651 16.7265 24.0578 17.0808Z" fill="#F07167"/>
<path d="M14.9472 22.4204C16.5227 21.8684 18.2735 21.7941 19.8676 22.212C19.1416 25.2222 19.8054 27.9816 21.1187 29.4327C17.1306 28.2216 15.3843 25.1519 14.9472 22.4204Z" fill="#FFA099"/>
<path d="M12.36 23.938C13.11 23.2604 13.9967 22.7535 14.9472 22.4204C15.3843 25.1519 17.1306 28.2216 21.1187 29.4327C21.7007 30.0757 22.4101 30.4618 23.1826 30.4991C20.9969 30.8349 17.8857 29.9783 12.36 23.938Z" fill="#FFA099"/>
<path fill-rule="evenodd" clip-rule="evenodd" d="M23.1826 30.4991C23.7576 30.5268 24.3676 30.3613 24.986 29.9646C24.4438 30.1781 23.8573 30.3954 23.1826 30.4991Z" fill="#FFA099"/>
<path fill-rule="evenodd" clip-rule="evenodd" d="M23.1504 30.499C23.7254 30.5267 24.3354 30.3612 24.9537 29.9645C24.4116 30.178 23.8251 30.3953 23.1504 30.499Z" fill="#C5493F"/>
<path d="M15.8141 17.7102C17.4773 16.2547 19.8115 16.5104 21.7548 18.053C20.7819 19.425 20.1652 20.8444 19.8354 22.2119C18.2412 21.794 16.4904 21.8683 14.9149 22.4203C14.5775 20.3119 15.0203 18.405 15.8141 17.7102Z" fill="#C5493F"/>
<path fill-rule="evenodd" clip-rule="evenodd" d="M32.3028 28.8663C31.0462 33.3983 29.2635 39.8275 34.3065 41.6271C34.9984 41.874 35.63 41.8976 36.1839 41.7408C36.9281 41.5301 37.5321 40.9938 37.9539 40.2361C38.9058 38.526 38.9298 35.6881 37.5431 32.9193C36.9131 31.6615 35.992 30.418 34.7345 29.301C34.1109 28.7471 33.4045 28.2243 32.6099 27.7463C32.5145 28.1029 32.4106 28.4776 32.3028 28.8663Z" fill="#F07167"/>
<path d="M42.3836 32.0119C40.7241 31.8296 39.0017 32.1524 37.5431 32.9193C38.9298 35.6881 38.9058 38.526 37.9539 40.2361C41.5658 38.1562 42.5742 34.7715 42.3836 32.0119Z" fill="#FFA099"/>
<path d="M45.2465 32.9064C44.3629 32.4155 43.3847 32.1218 42.3836 32.0119C42.5742 34.7715 41.5658 38.1562 37.9539 40.2361C37.5321 40.9938 36.9281 41.5301 36.1839 41.7408C38.3891 41.5746 41.2266 40.0379 45.2465 32.9064Z" fill="#FFA099"/>
<path fill-rule="evenodd" clip-rule="evenodd" d="M36.1839 41.7408C35.63 41.8976 34.9984 41.874 34.3065 41.6271C34.8828 41.7128 35.5032 41.7921 36.1839 41.7408Z" fill="#FFA099"/>
<path fill-rule="evenodd" clip-rule="evenodd" d="M36.2149 41.7335C35.661 41.8903 35.0294 41.8668 34.3375 41.6198C34.9138 41.7055 35.5343 41.7848 36.2149 41.7335Z" fill="#C5493F"/>
<path d="M40.4755 27.619C38.5267 26.5764 36.3105 27.3523 34.7655 29.2938C36.023 30.4107 36.9441 31.6543 37.5741 32.9121C39.0327 32.1451 40.7551 31.8224 42.4146 32.0046C42.2674 29.8744 41.4057 28.1166 40.4755 27.619Z" fill="#C5493F"/>
</svg>
