<svg width="695" height="442" viewBox="0 0 695 442" fill="none" xmlns="http://www.w3.org/2000/svg">
<g opacity="0.9">
<mask id="path-1-outside-1_10_206" maskUnits="userSpaceOnUse" x="8" y="26" width="687" height="416" fill="black">
<rect fill="white" x="8" y="26" width="687" height="416"/>
<path d="M82.9864 197.624C24.1791 224.912 32.0751 180.999 61.7734 165.401C91.4716 149.802 219.221 114.398 160.65 223.793L160.452 224.165C150.333 243.23 130.676 280.267 160.65 288.097C160.65 288.097 268.258 278.079 351.87 278.079C435.482 278.079 543.09 288.097 543.09 288.097C573.063 280.267 553.406 243.23 543.288 224.165L543.09 223.793C484.519 114.398 612.268 149.802 641.966 165.401C671.665 180.999 679.561 224.912 620.753 197.624C532.955 156.883 627.824 240.315 641.966 278.079C652.06 305.033 621.932 330.827 597.891 338.216C597.891 338.216 483.744 323.794 351.87 323.794C219.996 323.794 105.849 338.216 105.849 338.216C81.8078 330.827 51.6799 305.033 61.7734 278.079C75.9154 240.315 170.785 156.883 82.9864 197.624Z"/>
<path d="M590.662 389.303C597.397 383.436 610.865 371.703 597.891 338.216C597.891 338.216 570.487 334.753 527.023 331.222C523.753 330.679 520.232 330.386 516.445 330.386C520.067 330.664 523.595 330.943 527.023 331.222C565.906 337.672 569.344 379.435 564.427 384.17C559.095 389.303 555.448 396.636 585.471 411.669H617.74C623.773 401.891 611.707 396.636 590.662 389.303Z"/>
<path d="M105.849 338.216C92.8744 371.703 106.343 383.436 113.077 389.303C92.0326 396.636 79.967 401.891 85.9998 411.669H118.268C148.292 396.636 144.644 389.303 139.313 384.17C134.395 379.435 137.834 337.672 176.717 331.222C133.252 334.753 105.849 338.216 105.849 338.216Z"/>
<path d="M105.849 338.216C105.849 338.216 219.996 323.794 351.87 323.794C483.744 323.794 597.891 338.216 597.891 338.216C577.194 353.493 531.597 338.216 507.466 338.216C483.335 338.216 457.099 358.265 442.087 341.76C447.418 353.493 443.63 354.837 436.896 354.837C431.509 354.837 434.651 343.756 436.896 338.216C423.1 343.552 393.572 351.733 385.828 341.76C397.051 359.726 374.744 357.282 377.41 347.749C374.744 350.071 372.219 361.926 385.828 364.859C399.436 367.792 378.672 386.492 374.043 374.27C368.29 387.347 360.422 389.058 351.87 389.058C343.317 389.058 335.449 387.347 329.697 374.27C325.067 386.492 304.303 367.792 317.912 364.859C331.521 361.926 328.996 350.071 326.33 347.749C328.996 357.282 306.688 359.726 317.912 341.76C310.168 351.733 280.64 343.552 266.844 338.216C269.088 343.756 272.231 354.837 266.844 354.837C260.109 354.837 256.321 353.493 261.653 341.76C246.641 358.265 220.405 338.216 196.274 338.216C172.143 338.216 126.546 353.493 105.849 338.216Z"/>
<path d="M82.9864 197.624C170.785 156.883 75.9154 240.315 61.7734 278.079C52.1379 258.52 70.9879 224.308 86.9819 221.253C78.7471 217.439 88.4144 208.012 94.2774 203.775C74.5826 214.756 48.9897 218.35 40.6579 201.403C39.9233 200.283 39.4416 199.011 39.1954 197.624C39.5969 198.983 40.0868 200.241 40.6579 201.403C44.9542 207.949 57.9021 209.264 82.9864 197.624Z"/>
<path d="M620.753 197.624C532.955 156.883 627.824 240.315 641.966 278.079C651.602 258.52 632.752 224.308 616.758 221.253C624.992 217.439 615.325 208.012 609.462 203.775C629.157 214.756 654.75 218.35 663.082 201.403C663.816 200.283 664.298 199.011 664.544 197.624C664.143 198.983 663.653 200.241 663.082 201.403C658.785 207.949 645.838 209.264 620.753 197.624Z"/>
<path d="M160.452 224.165L160.65 223.793C191.53 166.118 170.62 148.691 139.594 147.391C155.588 131.422 188.838 122.744 214.793 138.388C240.748 154.032 258.42 94.6343 305.145 94.6343C342.525 94.6343 351.87 112.478 351.87 121.4C351.87 112.478 361.215 94.6343 398.595 94.6343C445.32 94.6343 462.991 154.032 488.947 138.388C514.902 122.744 548.152 131.422 564.146 147.391C533.12 148.691 512.21 166.118 543.09 223.793L543.288 224.165C553.406 243.23 573.063 280.267 543.09 288.097C543.09 288.097 435.482 278.079 351.87 278.079C268.258 278.079 160.65 288.097 160.65 288.097C130.676 280.267 150.333 243.23 160.452 224.165Z"/>
<path d="M338.975 278.154C265.398 278.982 179.059 286.444 163.213 287.864C161.505 288.017 159.778 287.905 158.184 287.349C141.132 281.403 142.964 264.485 149.046 248.263C177.622 233.641 312.925 236.574 346.066 245.949C349.941 247.045 351.87 250.353 351.87 253.902V266.835C351.87 273.045 346.103 278.074 338.975 278.154Z"/>
<path d="M364.759 278.154C438.336 278.982 524.676 286.444 540.521 287.864C542.229 288.017 543.956 287.905 545.551 287.349C562.602 281.403 560.77 264.485 554.688 248.263C526.112 233.641 390.809 236.574 357.668 245.949C353.794 247.045 351.864 250.353 351.864 253.902V266.835C351.864 273.045 357.631 278.074 364.759 278.154Z"/>
<path d="M214.793 138.388C188.838 122.744 155.588 131.422 139.594 147.391C142.119 132.278 159.937 123.478 182.946 123.478C201.353 123.478 213.811 128.367 217.739 130.811C208.34 123.478 211.987 117.978 219.984 122.378C216.617 118.467 218.441 116.267 220.966 116.022C223.492 115.778 227.56 117.611 225.596 121.645C229.945 117.367 234.575 119.689 232.33 126.167C240.187 118.1 256.742 98.5452 275.823 92.0677C269.93 86.5678 273.718 78.1348 281.294 83.0235C281.294 75.6904 301.217 64.9351 310.617 70.1905C320.017 75.4459 306.548 78.3792 300.936 78.3792C295.324 78.3792 304.724 89.2567 316.369 85.1012C328.014 80.9458 324.226 74.5903 320.297 70.1905C316.369 65.7907 313.282 57.9688 329.697 64.0797C329.697 48.6801 352.005 62.0018 339.378 70.1905C326.751 78.3792 338.957 78.3792 343.025 78.3792C347.094 78.3792 347.947 68.1129 351.87 68.1129C355.793 68.1129 356.646 78.3792 360.714 78.3792C364.783 78.3792 376.989 78.3792 364.362 70.1905C351.735 62.0018 374.043 48.6801 374.043 64.0797C390.457 57.9688 387.371 65.7907 383.443 70.1905C379.514 74.5903 375.726 80.9458 387.371 85.1012C399.016 89.2567 408.416 78.3792 402.804 78.3792C397.192 78.3792 383.723 75.4459 393.123 70.1905C402.523 64.9351 422.445 75.6904 422.445 83.0235C430.021 78.1348 433.809 86.5678 427.917 92.0677C446.997 98.5452 463.553 118.1 471.409 126.167C469.165 119.689 473.794 117.367 478.144 121.645C476.179 117.611 480.248 115.778 482.773 116.022C485.299 116.267 487.123 118.467 483.756 122.378C491.753 117.978 495.4 123.478 486 130.811C489.929 128.367 502.387 123.478 520.794 123.478C543.803 123.478 561.621 132.278 564.146 147.391C548.152 131.422 514.902 122.744 488.947 138.388C462.991 154.032 445.32 94.6343 398.595 94.6343C361.215 94.6343 351.87 112.478 351.87 121.4C351.87 112.478 342.525 94.6343 305.145 94.6343C258.42 94.6343 240.748 154.032 214.793 138.388Z"/>
<path d="M239.065 190.331C239.065 194.381 235.296 197.664 230.647 197.664C225.998 197.664 222.229 194.381 222.229 190.331C222.229 186.281 225.998 182.998 230.647 182.998C235.296 182.998 239.065 186.281 239.065 190.331Z"/>
<path d="M362.246 178.843C362.246 182.893 358.477 186.176 353.828 186.176C349.179 186.176 345.411 182.893 345.411 178.843C345.411 174.793 349.179 171.51 353.828 171.51C358.477 171.51 362.246 174.793 362.246 178.843Z"/>
<path d="M485.147 190.331C485.147 194.381 481.378 197.664 476.729 197.664C472.08 197.664 468.311 194.381 468.311 190.331C468.311 186.281 472.08 182.998 476.729 182.998C481.378 182.998 485.147 186.281 485.147 190.331Z"/>
</mask>
<path d="M61.7734 165.401L68.7483 178.681H68.7483L61.7734 165.401ZM160.65 223.793L173.9 230.824L147.4 216.761L160.65 223.793ZM160.452 224.165L173.701 231.197L173.702 231.197L160.452 224.165ZM160.65 288.097L156.858 302.61L159.412 303.277L162.04 303.032L160.65 288.097ZM543.288 224.165L556.537 217.133V217.133L543.288 224.165ZM543.09 288.097L541.7 303.032L544.328 303.277L546.882 302.61L543.09 288.097ZM176.717 331.222L174.262 316.424L177.932 346.172L176.717 331.222ZM139.594 147.391L138.965 162.378L145.537 162.653L150.192 158.006L139.594 147.391ZM89.3001 211.231C100.033 206.25 107.22 203.533 111.733 202.327C114.021 201.716 114.94 201.684 114.921 201.684C114.867 201.684 114.245 201.688 113.277 201.43C112.274 201.163 110.714 200.562 109.12 199.239C105.343 196.103 104.768 191.992 104.827 190.147C104.873 188.712 105.244 188.268 104.79 189.333C103.937 191.332 101.906 194.746 98.367 199.742C91.2514 209.788 81.5647 221.493 71.4647 234.762C62.1527 246.997 52.158 260.984 47.726 272.819L75.8207 283.34C78.4598 276.292 85.627 265.689 95.3366 252.932C104.258 241.21 115.453 227.522 122.848 217.082C126.564 211.836 130.196 206.233 132.383 201.106C133.449 198.608 134.685 195.073 134.812 191.103C134.952 186.724 133.674 180.632 128.281 176.155C123.552 172.23 118.099 171.667 114.766 171.684C111.178 171.703 107.485 172.41 103.992 173.343C96.9434 175.226 87.8895 178.813 76.6726 184.018L89.3001 211.231ZM147.4 216.761L147.202 217.133L173.702 231.197L173.899 230.824L147.4 216.761ZM147.202 217.133C142.407 226.169 133.726 242.256 130.787 257.505C129.3 265.225 128.842 274.774 132.895 283.692C137.316 293.418 145.849 299.734 156.858 302.61L164.441 273.584C160.464 272.545 160.214 271.294 160.206 271.278C159.832 270.454 159.301 268.084 160.245 263.183C162.171 253.19 168.378 241.226 173.701 231.197L147.202 217.133ZM627.067 184.018C615.85 178.813 606.796 175.226 599.748 173.343C596.255 172.41 592.562 171.703 588.974 171.684C585.641 171.667 580.188 172.23 575.459 176.155C570.066 180.632 568.788 186.724 568.928 191.103C569.054 195.073 570.291 198.608 571.357 201.106C573.544 206.233 577.176 211.836 580.892 217.082C588.286 227.522 599.481 241.21 608.403 252.932C618.113 265.689 625.28 276.292 627.919 283.34L656.014 272.819C651.582 260.984 641.587 246.997 632.275 234.762C622.175 221.493 612.488 209.788 605.373 199.742C601.834 194.746 599.803 191.332 598.95 189.333C598.495 188.268 598.867 188.712 598.913 190.147C598.971 191.992 598.397 196.103 594.62 199.239C593.026 200.562 591.466 201.163 590.463 201.43C589.495 201.688 588.873 201.684 588.819 201.684C588.8 201.684 589.719 201.716 592.007 202.327C596.52 203.533 603.707 206.25 614.44 211.231L627.067 184.018ZM529.841 230.825L530.038 231.197L556.537 217.133L556.34 216.76L529.841 230.825ZM530.038 231.197C535.361 241.226 541.569 253.19 543.495 263.183C544.439 268.084 543.908 270.454 543.533 271.278C543.526 271.294 543.276 272.545 539.299 273.584L546.882 302.61C557.891 299.734 566.424 293.418 570.845 283.692C574.898 274.774 574.44 265.225 572.952 257.505C570.013 242.256 561.333 226.169 556.537 217.133L530.038 231.197ZM597.891 338.216C599.771 323.334 599.769 323.334 599.767 323.333C599.766 323.333 599.764 323.333 599.761 323.333C599.756 323.332 599.75 323.331 599.742 323.33C599.725 323.328 599.701 323.325 599.671 323.321C599.61 323.314 599.521 323.303 599.405 323.288C599.174 323.26 598.834 323.218 598.388 323.163C597.496 323.055 596.181 322.897 594.467 322.697C591.039 322.297 586.012 321.728 579.575 321.046C566.703 319.682 548.185 317.867 525.531 316.053C480.246 312.426 418.322 308.794 351.87 308.794V338.794C417.292 338.794 478.379 342.373 523.136 345.957C545.503 347.748 563.763 349.538 576.414 350.879C582.739 351.549 587.66 352.106 590.989 352.495C592.654 352.689 593.92 352.841 594.765 352.944C595.187 352.995 595.504 353.034 595.713 353.06C595.817 353.073 595.894 353.083 595.944 353.089C595.969 353.092 595.987 353.094 595.998 353.096C596.003 353.096 596.007 353.097 596.009 353.097C596.01 353.097 596.011 353.097 596.011 353.097C596.011 353.097 596.01 353.097 597.891 338.216ZM351.87 308.794C285.418 308.794 223.494 312.426 178.209 316.053C155.555 317.867 137.037 319.682 124.165 321.046C117.728 321.728 112.701 322.297 109.273 322.697C107.558 322.897 106.244 323.055 105.352 323.163C104.906 323.218 104.566 323.26 104.334 323.288C104.219 323.303 104.13 323.314 104.069 323.321C104.039 323.325 104.015 323.328 103.998 323.33C103.99 323.331 103.983 323.332 103.978 323.333C103.976 323.333 103.974 323.333 103.972 323.333C103.971 323.334 103.969 323.334 105.849 338.216C107.729 353.097 107.729 353.097 107.729 353.097C107.729 353.097 107.729 353.097 107.731 353.097C107.733 353.097 107.736 353.096 107.742 353.096C107.753 353.094 107.771 353.092 107.796 353.089C107.846 353.083 107.923 353.073 108.027 353.06C108.236 353.034 108.553 352.995 108.975 352.944C109.82 352.841 111.086 352.689 112.75 352.495C116.08 352.106 121.001 351.549 127.325 350.879C139.977 349.538 158.237 347.748 180.604 345.957C225.361 342.373 286.447 338.794 351.87 338.794V308.794ZM160.65 288.097C162.04 303.032 162.04 303.032 162.04 303.032C162.041 303.032 162.041 303.032 162.043 303.032C162.045 303.031 162.049 303.031 162.055 303.031C162.067 303.029 162.085 303.028 162.11 303.026C162.159 303.021 162.234 303.014 162.334 303.005C162.534 302.986 162.836 302.959 163.234 302.923C164.031 302.85 165.215 302.744 166.754 302.608C169.834 302.337 174.336 301.948 180.002 301.481C191.336 300.547 207.323 299.3 225.909 298.054C263.145 295.558 310.562 293.079 351.87 293.079V263.079C309.566 263.079 261.373 265.609 223.902 268.122C205.134 269.38 188.993 270.638 177.538 271.582C171.809 272.054 167.251 272.448 164.119 272.724C162.553 272.862 161.344 272.971 160.523 273.045C160.113 273.083 159.8 273.111 159.588 273.131C159.482 273.141 159.401 273.148 159.346 273.153C159.319 273.156 159.298 273.158 159.283 273.159C159.276 273.16 159.27 273.16 159.266 273.16C159.264 273.161 159.263 273.161 159.262 273.161C159.26 273.161 159.259 273.161 160.65 288.097ZM351.87 293.079C393.178 293.079 440.595 295.558 477.831 298.054C496.417 299.3 512.403 300.547 523.738 301.481C529.404 301.948 533.906 302.337 536.985 302.608C538.525 302.744 539.709 302.85 540.506 302.923C540.904 302.959 541.205 302.986 541.406 303.005C541.506 303.014 541.581 303.021 541.63 303.026C541.655 303.028 541.673 303.029 541.684 303.031C541.69 303.031 541.694 303.031 541.697 303.032C541.698 303.032 541.699 303.032 541.7 303.032C541.7 303.032 541.7 303.032 543.09 288.097C544.481 273.161 544.48 273.161 544.478 273.161C544.477 273.161 544.475 273.161 544.474 273.16C544.47 273.16 544.464 273.16 544.457 273.159C544.442 273.158 544.421 273.156 544.394 273.153C544.339 273.148 544.258 273.141 544.152 273.131C543.94 273.111 543.627 273.083 543.217 273.045C542.396 272.971 541.187 272.862 539.621 272.724C536.489 272.448 531.93 272.054 526.202 271.582C514.747 270.638 498.605 269.38 479.838 268.122C442.367 265.609 394.174 263.079 351.87 263.079V293.079ZM351.87 308.794C289.218 308.794 230.594 312.022 186.148 315.43L188.442 345.342C232.368 341.974 290.194 338.794 351.87 338.794V308.794ZM351.87 338.794C413.546 338.794 471.372 341.974 515.298 345.343L517.592 315.43C473.146 312.022 414.522 308.794 351.87 308.794V338.794ZM179.172 346.019C181.584 345.619 184.282 345.386 187.295 345.386V315.386C182.733 315.386 178.389 315.739 174.262 316.424L179.172 346.019ZM186.148 315.43C182.503 315.71 178.952 315.99 175.502 316.271L177.932 346.172C181.338 345.896 184.843 345.618 188.442 345.342L186.148 315.43ZM54.7984 152.121C45.1397 157.194 37.2209 164.557 31.8653 172.449C26.8435 179.848 22.6053 189.986 24.4263 200.246L53.9646 195.003C54.0967 195.747 53.7153 193.676 56.6886 189.295C59.3281 185.406 63.5427 181.415 68.7483 178.681L54.7984 152.121ZM634.991 178.681C640.197 181.415 644.411 185.406 647.051 189.295C650.024 193.676 649.643 195.747 649.775 195.003L679.313 200.246C681.134 189.986 676.896 179.848 671.874 172.449C666.519 164.557 658.6 157.194 648.941 152.121L634.991 178.681ZM68.7483 178.681C74.4715 175.675 85.8267 171.238 99.3173 167.703C112.808 164.168 127.138 161.882 138.965 162.378L140.222 132.404C124.227 131.733 106.667 134.765 91.7134 138.683C76.7596 142.601 63.1159 147.753 54.7984 152.121L68.7483 178.681ZM150.192 158.006C155.687 152.519 165.001 147.612 175.871 145.839C186.569 144.095 197.64 145.564 207.05 151.235L222.536 125.542C205.991 115.569 187.46 113.554 171.044 116.23C154.803 118.878 139.494 126.293 128.995 136.776L150.192 158.006ZM207.05 151.235C212.556 154.554 218.551 156.248 224.833 155.987C230.92 155.734 236.224 153.692 240.599 151.25C248.709 146.725 256.404 139.086 262.54 133.226C276.481 119.914 288.529 109.634 305.145 109.634V79.6343C275.036 79.6343 254.886 99.0539 241.821 111.529C234.454 118.564 229.944 122.841 225.98 125.053C224.319 125.98 223.619 126.012 223.589 126.013C223.58 126.013 223.569 126.017 223.493 125.997C223.403 125.972 223.09 125.875 222.536 125.542L207.05 151.235ZM305.145 109.634C321.546 109.634 329.582 113.543 333.186 116.41C336.852 119.326 336.87 121.801 336.87 121.4H366.87C366.87 112.077 362.215 101.169 351.864 92.9333C341.45 84.6478 326.124 79.6343 305.145 79.6343V109.634ZM574.744 136.776C564.245 126.293 548.937 118.878 532.695 116.23C516.28 113.554 497.749 115.569 481.203 125.542L496.69 151.235C506.099 145.564 517.171 144.095 527.868 145.839C538.739 147.612 548.053 152.519 553.548 158.006L574.744 136.776ZM481.203 125.542C480.649 125.875 480.337 125.972 480.247 125.997C480.17 126.017 480.16 126.013 480.151 126.013C480.121 126.012 479.42 125.98 477.759 125.053C473.795 122.841 469.285 118.564 461.918 111.529C448.854 99.0539 428.704 79.6343 398.595 79.6343V109.634C415.211 109.634 427.259 119.914 441.2 133.226C447.336 139.086 455.031 146.725 463.141 151.25C467.516 153.692 472.82 155.734 478.906 155.987C485.189 156.248 491.184 154.554 496.69 151.235L481.203 125.542ZM398.595 79.6343C377.616 79.6343 362.29 84.6478 351.876 92.9333C341.524 101.169 336.87 112.077 336.87 121.4H366.87C366.87 121.801 366.888 119.326 370.554 116.41C374.157 113.543 382.194 109.634 398.595 109.634V79.6343ZM147.4 216.761C143.979 223.208 138.79 232.889 135 242.997L163.091 253.529C166.086 245.541 170.325 237.56 173.9 230.824L147.4 216.761ZM529.835 230.824C533.409 237.56 537.648 245.541 540.643 253.529L568.734 242.997C564.944 232.889 559.755 223.208 556.334 216.761L529.835 230.824ZM61.7734 165.401L47.8235 138.842H47.8235L61.7734 165.401ZM61.7734 278.079L89.8681 288.6L94.416 276.456L88.6852 264.822L61.7734 278.079ZM641.966 165.401L655.916 138.842V138.842L641.966 165.401ZM641.966 278.079L615.055 264.822L609.324 276.456L613.872 288.6L641.966 278.079ZM113.077 389.303L122.949 417.632L171.749 400.627L132.783 366.682L113.077 389.303ZM85.9998 411.669L60.4686 427.422L69.2591 441.669H85.9998V411.669ZM118.268 411.669V441.669H125.359L131.7 438.494L118.268 411.669ZM139.313 384.17L118.505 405.781V405.781L139.313 384.17ZM590.662 389.303L570.957 366.682L531.99 400.628L580.791 417.632L590.662 389.303ZM617.74 411.669V441.669H634.481L643.271 427.422L617.74 411.669ZM585.471 411.669L572.04 438.494L578.381 441.669H585.471V411.669ZM564.427 384.17L585.235 405.781L564.427 384.17ZM516.445 330.386V300.386L514.151 360.299L516.445 330.386ZM176.717 331.222L181.627 360.817L174.287 301.32L176.717 331.222ZM261.653 341.76L288.965 354.17L239.459 321.574L261.653 341.76ZM266.844 338.216L277.667 310.236L213.005 285.222L239.039 349.481L266.844 338.216ZM317.912 341.76L343.355 357.655L294.217 323.36L317.912 341.76ZM326.33 347.749L346.036 325.128L270.44 259.274L297.438 355.827L326.33 347.749ZM329.697 374.27L357.158 362.191L327.626 295.052L301.643 363.643L329.697 374.27ZM442.087 341.76L464.28 321.574L414.774 354.17L442.087 341.76ZM436.896 338.216L464.701 349.481L490.735 285.222L426.072 310.236L436.896 338.216ZM385.828 341.76L409.522 323.36L360.384 357.655L385.828 341.76ZM377.41 347.749L406.301 355.827L433.3 259.274L357.704 325.128L377.41 347.749ZM374.043 374.27L402.097 363.643L376.114 295.052L346.582 362.191L374.043 374.27ZM39.1954 197.624L67.9662 189.125L9.65711 202.867L39.1954 197.624ZM94.2774 203.775L111.849 228.091L79.6686 177.573L94.2774 203.775ZM86.9819 221.253L92.6112 250.72L184.219 233.219L99.5878 194.03L86.9819 221.253ZM664.544 197.624L694.082 202.867L635.773 189.125L664.544 197.624ZM609.462 203.775L624.071 177.573L591.891 228.091L609.462 203.775ZM616.758 221.253L604.152 194.03L519.52 233.219L611.128 250.72L616.758 221.253ZM139.594 147.391L110.004 142.446L104.407 175.942L138.337 177.364L139.594 147.391ZM564.146 147.391L565.402 177.364L599.333 175.942L593.736 142.446L564.146 147.391ZM163.213 287.864L165.891 317.744H165.891L163.213 287.864ZM338.975 278.154L339.313 308.152L338.975 278.154ZM149.046 248.263L135.381 221.556L125.035 226.849L120.955 237.731L149.046 248.263ZM158.184 287.349L148.306 315.676L148.306 315.676L158.184 287.349ZM346.066 245.949L354.231 217.081H354.231L346.066 245.949ZM540.521 287.864L537.843 317.744L540.521 287.864ZM364.759 278.154L364.421 308.152L364.759 278.154ZM554.688 248.263L582.779 237.731L578.699 226.849L568.354 221.556L554.688 248.263ZM545.551 287.349L555.428 315.676L555.428 315.676L545.551 287.349ZM357.668 245.949L349.503 217.081H349.503L357.668 245.949ZM217.739 130.811L201.89 156.282L236.192 107.157L217.739 130.811ZM219.984 122.378L205.523 148.662L242.719 102.804L219.984 122.378ZM225.596 121.645L198.625 108.509L246.633 143.033L225.596 121.645ZM232.33 126.167L203.984 116.343L253.821 147.099L232.33 126.167ZM275.823 92.0677L285.467 120.475L332.954 104.354L296.293 70.1363L275.823 92.0677ZM281.294 83.0235L265.028 108.231L311.294 138.086V83.0235H281.294ZM316.369 85.1012L306.286 56.8464V56.8464L316.369 85.1012ZM329.697 64.0797L319.231 92.1947L359.697 107.259V64.0797H329.697ZM486 130.811L467.548 107.157L501.85 156.282L486 130.811ZM483.756 122.378L461.021 102.804L498.217 148.662L483.756 122.378ZM478.144 121.645L457.107 143.033L505.115 108.509L478.144 121.645ZM471.409 126.167L449.919 147.099L499.755 116.343L471.409 126.167ZM427.917 92.0677L407.447 70.1363L370.786 104.354L418.273 120.475L427.917 92.0677ZM422.445 83.0235H392.445V138.086L438.711 108.231L422.445 83.0235ZM387.371 85.1012L397.454 56.8464L397.454 56.8464L387.371 85.1012ZM374.043 64.0797H344.043V107.259L384.509 92.1947L374.043 64.0797ZM47.8235 138.842C35.9498 145.078 26.1872 154.115 19.4747 163.994C13.4261 172.897 6.88745 187.033 9.63895 202.764C11.1702 211.518 15.6398 220.36 23.8193 226.927C31.658 233.22 40.6532 235.634 48.4709 236.213C63.1889 237.303 79.3485 232.385 95.6139 224.837L70.3588 170.411C64.2095 173.265 59.648 174.848 56.4833 175.664C53.2026 176.51 52.2121 176.326 52.9015 176.377C53.6537 176.433 57.3172 176.876 61.3823 180.14C65.7883 183.677 68.0427 188.43 68.7417 192.426C69.354 195.927 68.703 198.14 68.6002 198.474C68.4582 198.936 68.488 198.619 69.1037 197.713C70.3866 195.825 72.7478 193.523 75.7232 191.96L47.8235 138.842ZM33.6786 267.559C23.3282 295.198 35.0619 319.756 48.3049 335.092C61.4838 350.353 79.9506 361.641 97.0361 366.892L114.662 309.539C107.707 307.402 99.0887 302.098 93.7166 295.877C91.1828 292.943 90.2052 290.766 89.8982 289.676C89.695 288.955 89.7716 288.858 89.8681 288.6L33.6786 267.559ZM75.7232 191.96C80.4515 189.477 91.6054 185.074 105.254 181.667C119.042 178.226 132.099 176.639 141.285 177.571C151.13 178.57 147.449 180.955 145.821 176.377C145.483 175.429 148.155 183.571 134.202 209.632L187.097 237.953C202.43 209.317 211.097 180.862 202.352 156.272C192.316 128.053 165.823 119.752 147.34 117.878C128.198 115.936 107.409 119.288 90.7231 123.453C73.896 127.654 57.9443 133.526 47.8235 138.842L75.7232 191.96ZM628.017 191.96C630.992 193.523 633.353 195.825 634.636 197.713C635.252 198.62 635.282 198.936 635.14 198.474C635.037 198.141 634.386 195.927 634.998 192.426C635.697 188.43 637.951 183.677 642.357 180.14C646.423 176.876 650.086 176.433 650.838 176.377C651.528 176.326 650.537 176.51 647.257 175.664C644.092 174.848 639.53 173.265 633.381 170.411L608.126 224.837C624.391 232.385 640.551 237.303 655.269 236.213C663.087 235.634 672.082 233.22 679.921 226.927C688.1 220.36 692.57 211.518 694.101 202.764C696.852 187.033 690.314 172.897 684.265 163.994C677.553 154.115 667.79 145.078 655.916 138.842L628.017 191.96ZM613.872 288.6C613.968 288.858 614.045 288.955 613.841 289.676C613.535 290.766 612.557 292.943 610.023 295.877C604.651 302.098 596.033 307.402 589.077 309.539L606.704 366.892C623.789 361.641 642.256 350.353 655.435 335.092C668.678 319.756 680.411 295.198 670.061 267.559L613.872 288.6ZM655.916 138.842C645.795 133.526 629.844 127.654 613.017 123.453C596.33 119.288 575.542 115.936 556.4 117.878C537.916 119.752 511.424 128.053 501.388 156.272C492.643 180.862 501.31 209.317 516.643 237.953L569.538 209.632C555.585 183.571 558.256 175.429 557.919 176.377C556.291 180.955 552.61 178.57 562.455 177.571C571.641 176.639 584.697 178.226 598.486 181.667C612.134 185.074 623.288 189.477 628.017 191.96L655.916 138.842ZM77.8756 327.377C69.7259 348.411 68.182 367.124 73.5789 383.505C78.9165 399.706 89.6512 408.682 93.3717 411.923L132.783 366.682C129.769 364.057 130.402 364.234 130.566 364.73C130.788 365.406 128.998 361.508 133.823 349.054L77.8756 327.377ZM103.206 360.973C93.8193 364.244 81.1181 368.685 72.0877 375.057C67.3081 378.43 59.5048 385.07 56.0596 396.235C52.1754 408.824 55.8832 419.99 60.4686 427.422L111.531 395.916C113.1 398.458 116.054 405.301 113.393 413.925C112.257 417.606 110.478 420.195 109.161 421.734C107.897 423.211 106.871 423.947 106.681 424.081C106.484 424.22 107.436 423.56 110.726 422.18C113.811 420.886 117.77 419.437 122.949 417.632L103.206 360.973ZM85.9998 441.669H118.268V381.669H85.9998V441.669ZM131.7 438.494C140.126 434.275 147.302 430.056 153.109 425.648C158.624 421.463 164.874 415.646 168.888 407.611C173.594 398.189 174.234 387.618 170.552 377.895C167.503 369.843 162.282 364.639 160.121 362.559L118.505 405.781C118.505 405.78 118.498 405.774 118.486 405.762C118.473 405.749 118.454 405.73 118.43 405.705C118.381 405.656 118.306 405.578 118.208 405.472C118.02 405.267 117.711 404.917 117.338 404.429C116.621 403.492 115.416 401.72 114.44 399.141C113.41 396.422 112.755 393.108 112.962 389.459C113.167 385.848 114.162 382.901 115.21 380.802C117.049 377.121 118.915 376.277 116.836 377.855C115.049 379.211 111.423 381.546 104.837 384.843L131.7 438.494ZM569.917 349.054C574.742 361.508 572.951 365.406 573.174 364.73C573.337 364.234 573.971 364.057 570.957 366.682L610.368 411.923C614.089 408.682 624.823 399.706 630.161 383.505C635.558 367.124 634.014 348.411 625.864 327.377L569.917 349.054ZM580.791 417.632C585.97 419.437 589.928 420.886 593.013 422.18C596.303 423.561 597.256 424.22 597.059 424.081C596.869 423.947 595.842 423.211 594.579 421.734C593.262 420.195 591.483 417.606 590.347 413.926C587.686 405.301 590.64 398.459 592.209 395.916L643.271 427.422C647.857 419.99 651.564 408.825 647.68 396.236C644.235 385.07 636.432 378.43 631.652 375.058C622.622 368.685 609.92 364.244 600.534 360.974L580.791 417.632ZM617.74 381.669H585.471V441.669H617.74V381.669ZM598.903 384.844C592.317 381.546 588.69 379.211 586.904 377.855C584.825 376.277 586.691 377.121 588.53 380.802C589.578 382.901 590.572 385.848 590.778 389.46C590.985 393.108 590.329 396.422 589.3 399.141C588.323 401.72 587.119 403.492 586.402 404.429C586.029 404.917 585.72 405.268 585.531 405.472C585.434 405.578 585.358 405.656 585.31 405.706C585.285 405.731 585.266 405.749 585.254 405.762C585.242 405.774 585.235 405.78 585.235 405.781L543.619 362.559C541.458 364.64 536.236 369.843 533.188 377.895C529.506 387.618 530.146 398.189 534.852 407.612C538.865 415.647 545.116 421.464 550.63 425.649C556.438 430.056 563.614 434.275 572.04 438.494L598.903 384.844ZM514.151 360.299C517.727 360.573 521.21 360.848 524.593 361.123L529.452 301.32C525.98 301.038 522.407 300.756 518.738 300.474L514.151 360.299ZM524.593 361.123C546.047 362.866 563.514 364.591 575.582 365.875C581.615 366.517 586.295 367.048 589.446 367.417C591.021 367.601 592.214 367.744 593.002 367.84C593.396 367.888 593.689 367.924 593.878 367.948C593.973 367.959 594.041 367.968 594.083 367.973C594.104 367.976 594.119 367.978 594.127 367.979C594.13 367.979 594.133 367.979 594.133 367.979C594.134 367.979 594.133 367.979 594.133 367.979C594.133 367.979 594.132 367.979 594.132 367.979C594.131 367.979 594.13 367.979 597.891 338.216C601.651 308.452 601.65 308.452 601.649 308.452C601.648 308.452 601.647 308.452 601.646 308.452C601.643 308.451 601.641 308.451 601.638 308.451C601.632 308.45 601.624 308.449 601.615 308.448C601.596 308.445 601.57 308.442 601.538 308.438C601.474 308.43 601.383 308.419 601.266 308.404C601.033 308.375 600.694 308.333 600.254 308.28C599.374 308.173 598.086 308.018 596.413 307.822C593.068 307.431 588.181 306.877 581.93 306.211C569.43 304.881 551.463 303.109 529.452 301.32L524.593 361.123ZM585.235 405.781C592.923 398.378 594.771 389.222 595.315 386.315C596.156 381.82 596.292 377.323 596.086 373.281C595.67 365.113 593.697 355.733 589.698 346.46C581.387 327.187 563.361 306.84 531.933 301.626L522.113 360.817C526.492 361.544 528.93 363.035 530.441 364.33C532.121 365.77 533.542 367.759 534.602 370.219C535.709 372.784 536.103 375.136 536.164 376.331C536.196 376.971 536.098 376.564 536.338 375.285C536.458 374.642 536.765 373.223 537.534 371.37C538.204 369.755 539.904 366.136 543.619 362.559L585.235 405.781ZM531.933 301.626C526.948 300.799 521.781 300.386 516.445 300.386V360.386C518.683 360.386 520.558 360.559 522.113 360.817L531.933 301.626ZM160.121 362.559C163.836 366.135 165.536 369.755 166.205 371.369C166.974 373.223 167.282 374.642 167.402 375.284C167.641 376.564 167.543 376.971 167.576 376.331C167.637 375.136 168.031 372.784 169.137 370.219C170.198 367.758 171.619 365.769 173.299 364.33C174.809 363.035 177.248 361.543 181.627 360.817L171.807 301.626C140.379 306.84 122.353 327.187 114.042 346.459C110.043 355.733 108.069 365.112 107.654 373.281C107.448 377.323 107.584 381.82 108.425 386.315C108.968 389.222 110.816 398.377 118.505 405.781L160.121 362.559ZM174.287 301.32C152.276 303.109 134.309 304.881 121.81 306.211C115.559 306.876 110.672 307.431 107.326 307.822C105.653 308.018 104.366 308.173 103.486 308.28C103.045 308.333 102.707 308.375 102.473 308.404C102.356 308.419 102.266 308.43 102.202 308.438C102.169 308.442 102.144 308.445 102.125 308.448C102.116 308.449 102.108 308.45 102.102 308.451C102.099 308.451 102.096 308.451 102.094 308.452C102.093 308.452 102.092 308.452 102.091 308.452C102.09 308.452 102.089 308.452 105.849 338.216C109.61 367.979 109.609 367.979 109.608 367.979C109.608 367.979 109.607 367.979 109.607 367.979C109.607 367.979 109.606 367.979 109.607 367.979C109.607 367.979 109.61 367.979 109.613 367.979C109.621 367.978 109.636 367.976 109.657 367.973C109.699 367.968 109.767 367.959 109.862 367.948C110.051 367.924 110.344 367.888 110.738 367.84C111.526 367.744 112.719 367.601 114.294 367.416C117.445 367.048 122.125 366.516 128.158 365.875C140.226 364.59 157.693 362.866 179.147 361.123L174.287 301.32ZM88.0328 362.352C99.282 370.656 112.07 373.541 122.488 374.527C133.063 375.529 143.819 374.802 153.122 373.757C162.347 372.721 171.986 371.128 179.307 370.035C187.448 368.819 192.76 368.216 196.274 368.216V308.216C187.722 308.216 178.285 309.522 170.444 310.693C161.782 311.987 154.203 313.258 146.425 314.132C138.726 314.997 132.694 315.225 128.144 314.794C123.438 314.349 122.765 313.414 123.666 314.079L88.0328 362.352ZM196.274 368.216C198.416 368.216 201.618 368.689 206.836 370.079C209.388 370.759 211.977 371.53 215.067 372.448C217.988 373.315 221.429 374.335 224.901 375.229C236.561 378.232 263.625 384.178 283.846 361.946L239.459 321.574C241.406 319.434 244.283 318.426 245.832 318.288C246.143 318.26 244.761 318.386 239.865 317.125C237.612 316.545 235.183 315.832 232.146 314.93C229.277 314.078 225.817 313.043 222.281 312.101C215.324 310.248 206.198 308.216 196.274 308.216V368.216ZM234.34 329.349C232.531 333.331 230.562 338.378 229.658 343.929C228.771 349.371 228.325 359.027 234.256 368.555C240.436 378.481 249.69 382.159 255.061 383.522C260.097 384.8 264.733 384.837 266.844 384.837V324.837C265.588 324.837 267.224 324.706 269.822 325.366C272.756 326.111 280.133 328.719 285.191 336.842C290 344.567 289.185 351.687 288.877 353.577C288.552 355.576 288.109 356.056 288.965 354.17L234.34 329.349ZM266.844 384.837C272.894 384.837 279.937 383.182 286.295 378.49C292.447 373.95 295.758 368.194 297.474 363.681C300.503 355.715 299.865 348.31 299.515 345.223C298.684 337.897 296.238 330.874 294.648 326.951L239.039 349.481C239.694 351.098 239.942 352.386 239.897 351.986C239.865 351.699 239.774 350.799 239.845 349.456C239.91 348.228 240.157 345.602 241.391 342.357C242.679 338.97 245.369 334.123 250.67 330.211C256.178 326.147 262.14 324.837 266.844 324.837V384.837ZM256.02 366.195C264.285 369.392 277.368 373.531 290.328 375.417C296.719 376.346 304.664 376.973 312.636 375.892C320.023 374.891 332.655 371.688 341.607 360.16L294.217 323.36C296.78 320.059 299.677 318.279 301.586 317.406C303.389 316.582 304.568 316.437 304.575 316.436C304.64 316.427 304.184 316.489 303.087 316.448C302.026 316.41 300.65 316.286 298.966 316.041C291.777 314.996 283.199 312.376 277.667 310.236L256.02 366.195ZM292.469 325.865C288.317 332.511 282.543 344.275 285.564 358.044C289.414 375.594 304.03 383.549 315.474 384.869C325.553 386.032 335.946 382.949 343.809 376.373C352.958 368.72 359.54 355.113 355.222 339.67L297.438 355.827C294.453 345.151 299.246 335.425 305.313 330.35C310.094 326.351 316.111 324.544 322.35 325.264C325.805 325.663 330.516 327.002 335.021 330.585C339.847 334.423 342.967 339.703 344.17 345.187C346.248 354.66 341.895 359.992 343.355 357.655L292.469 325.865ZM306.624 370.369C303.395 367.556 301.673 364.728 300.883 363.264C299.969 361.567 299.42 360.038 299.082 358.779C298.429 356.351 298.153 353.401 298.826 350.094C299.561 346.483 301.422 342.634 304.635 339.569C307.76 336.587 310.713 335.722 311.591 335.533L324.233 394.186C331.916 392.53 339.656 389.083 346.052 382.981C352.535 376.796 356.151 369.287 357.622 362.055C359.031 355.127 358.475 348.596 357.024 343.2C355.846 338.819 353.001 331.196 346.036 325.128L306.624 370.369ZM311.591 335.533C306.282 336.677 298.776 339.376 292.513 346.007C285.606 353.318 282.958 362.513 283.404 370.882C284.144 384.772 292.742 393.967 297.357 397.953C302.638 402.514 311.562 407.967 322.981 408.351C329.249 408.562 336.805 407.191 343.882 402.498C351.003 397.776 355.363 391.202 357.752 384.898L301.643 363.643C302.873 360.393 305.572 355.908 310.725 352.492C315.833 349.105 321.113 348.255 324.997 348.385C331.646 348.609 335.36 351.495 336.574 352.543C337.507 353.349 338.75 354.622 339.952 356.565C341.037 358.318 343.023 362.138 343.319 367.689C343.659 374.084 341.585 381.432 336.13 387.208C331.318 392.302 326.14 393.775 324.233 394.186L311.591 335.533ZM302.236 386.349C307 397.179 314.273 406.811 325.291 412.863C335.745 418.605 346.004 419.058 351.87 419.058V359.058C349.183 359.058 351.232 358.656 354.176 360.273C355.706 361.114 356.768 362.101 357.353 362.798C357.859 363.4 357.693 363.408 357.158 362.191L302.236 386.349ZM580.074 314.079C580.975 313.414 580.302 314.349 575.595 314.794C571.046 315.225 565.014 314.997 557.315 314.132C549.536 313.258 541.958 311.987 533.296 310.693C525.455 309.522 516.018 308.216 507.466 308.216V368.216C510.979 368.216 516.291 368.819 524.433 370.035C531.754 371.128 541.393 372.721 550.618 373.757C559.921 374.802 570.677 375.529 581.252 374.527C591.67 373.541 604.458 370.656 615.707 362.352L580.074 314.079ZM507.466 308.216C497.542 308.216 488.415 310.248 481.458 312.101C477.923 313.043 474.462 314.078 471.594 314.93C468.556 315.832 466.128 316.545 463.875 317.125C458.979 318.386 457.597 318.26 457.908 318.288C459.457 318.426 462.334 319.434 464.28 321.574L419.894 361.946C440.115 384.178 467.178 378.232 478.839 375.229C482.311 374.335 485.751 373.315 488.672 372.448C491.763 371.53 494.352 370.759 496.904 370.079C502.122 368.689 505.324 368.216 507.466 368.216V308.216ZM414.774 354.17C415.631 356.056 415.188 355.576 414.863 353.577C414.555 351.687 413.74 344.567 418.549 336.842C423.607 328.719 430.984 326.111 433.917 325.366C436.516 324.706 438.152 324.837 436.896 324.837V384.837C439.007 384.837 443.642 384.8 448.678 383.522C454.05 382.159 463.303 378.481 469.483 368.555C475.415 359.027 474.968 349.371 474.082 343.929C473.177 338.378 471.209 333.331 469.4 329.349L414.774 354.17ZM436.896 324.837C441.6 324.837 447.562 326.147 453.07 330.211C458.371 334.123 461.061 338.97 462.349 342.357C463.583 345.602 463.83 348.228 463.895 349.456C463.966 350.799 463.875 351.699 463.843 351.986C463.797 352.386 464.045 351.098 464.701 349.481L409.091 326.951C407.502 330.874 405.056 337.897 404.225 345.223C403.875 348.31 403.237 355.715 406.266 363.681C407.982 368.194 411.293 373.95 417.444 378.49C423.803 383.182 430.846 384.837 436.896 384.837V324.837ZM426.072 310.236C420.541 312.376 411.962 314.996 404.774 316.042C403.09 316.286 401.714 316.41 400.653 316.448C399.556 316.489 399.099 316.427 399.164 316.436C399.172 316.437 400.35 316.582 402.154 317.406C404.063 318.279 406.959 320.059 409.522 323.36L362.133 360.16C371.085 371.688 383.717 374.891 391.104 375.892C399.076 376.973 407.02 376.346 413.411 375.417C426.372 373.531 439.455 369.392 447.72 366.195L426.072 310.236ZM360.384 357.655C361.845 359.992 357.491 354.66 359.569 345.187C360.772 339.703 363.893 334.423 368.719 330.585C373.224 327.002 377.935 325.663 381.39 325.264C387.629 324.544 393.646 326.351 398.426 330.35C404.494 335.425 409.287 345.151 406.301 355.827L348.518 339.67C344.2 355.113 350.782 368.72 359.931 376.373C367.794 382.949 378.187 386.032 388.266 384.869C399.709 383.549 414.326 375.594 418.176 358.044C421.196 344.275 415.422 332.511 411.271 325.865L360.384 357.655ZM357.704 325.128C350.738 331.196 347.893 338.819 346.716 343.2C345.265 348.596 344.709 355.127 346.118 362.055C347.589 369.287 351.204 376.796 357.688 382.981C364.083 389.083 371.824 392.53 379.507 394.186L392.149 335.533C393.027 335.722 395.98 336.587 399.105 339.569C402.317 342.634 404.179 346.483 404.914 350.094C405.586 353.401 405.311 356.351 404.658 358.779C404.319 360.038 403.771 361.567 402.856 363.264C402.067 364.728 400.345 367.556 397.115 370.369L357.704 325.128ZM379.507 394.186C377.599 393.775 372.421 392.302 367.61 387.208C362.154 381.432 360.08 374.084 360.421 367.689C360.717 362.138 362.703 358.318 363.787 356.565C364.99 354.622 366.233 353.349 367.166 352.543C368.379 351.495 372.094 348.609 378.743 348.385C382.626 348.255 387.906 349.105 393.015 352.492C398.168 355.908 400.866 360.393 402.097 363.643L345.988 384.898C348.376 391.202 352.737 397.776 359.858 402.498C366.935 407.191 374.491 408.562 380.759 408.351C392.178 407.967 401.101 402.514 406.383 397.953C410.998 393.967 419.596 384.772 420.336 370.882C420.782 362.513 418.134 353.318 411.227 346.007C404.964 339.376 397.458 336.677 392.149 335.533L379.507 394.186ZM346.582 362.191C346.047 363.408 345.88 363.4 346.387 362.798C346.972 362.101 348.033 361.114 349.564 360.273C352.508 358.656 354.557 359.058 351.87 359.058V419.058C357.735 419.058 367.994 418.605 378.449 412.863C389.467 406.811 396.74 397.179 401.503 386.349L346.582 362.191ZM9.65711 202.867C10.5346 207.811 12.3764 212.986 15.5769 217.863L65.7389 184.942C67.4701 187.58 68.3485 190.211 68.7338 192.381L9.65711 202.867ZM15.5769 217.863C25.8481 233.513 42.9199 236.858 55.3624 236.303C67.8339 235.748 81.4217 231.423 95.6139 224.837L70.3588 170.411C65.1334 172.836 61.0329 174.354 57.9457 175.26C54.8048 176.182 53.1441 176.343 52.6909 176.363C52.182 176.386 53.7714 176.214 56.4581 177.262C59.453 178.43 63.057 180.856 65.7389 184.942L15.5769 217.863ZM10.4247 206.124C11.2809 209.022 12.3757 211.872 13.7355 214.638L67.5803 188.167C67.798 188.61 67.9129 188.944 67.9662 189.125L10.4247 206.124ZM13.7355 214.638C24.9238 237.396 47.2117 243.312 63.6692 243.058C79.8356 242.809 96.018 237.152 108.886 229.978L79.6686 177.573C76.4961 179.341 73.16 180.764 70.0099 181.725C66.8009 182.704 64.3204 183.041 62.7438 183.066C61.0943 183.091 61.4185 182.771 62.8363 183.457C64.6932 184.354 66.5668 186.105 67.5803 188.167L13.7355 214.638ZM76.7058 179.46C72.5969 182.429 65.1044 188.522 59.9657 196.673C57.5964 200.431 52.756 209.213 53.9958 220.722C55.5623 235.264 65.3818 244.311 74.376 248.476L99.5878 194.03C101.636 194.978 104.95 196.939 107.981 200.671C111.205 204.642 113.126 209.428 113.651 214.296C114.57 222.832 110.969 228.278 110.72 228.673C109.822 230.097 110.095 229.358 111.849 228.091L76.7058 179.46ZM81.3525 191.785C68.9139 194.162 59.5157 201.552 53.5196 207.667C47.0694 214.245 41.7312 222.208 37.7627 230.408C30.6755 245.053 23.9931 269.274 34.8615 291.337L88.6852 264.822C89.5074 266.491 88.9796 266.822 89.2174 264.666C89.4429 262.62 90.2369 259.714 91.7705 256.546C93.3093 253.366 95.0802 250.98 96.3616 249.674C96.974 249.049 97.1625 248.99 96.8028 249.215C96.4819 249.415 95.0707 250.25 92.6112 250.72L81.3525 191.785ZM635.006 192.381C635.391 190.211 636.269 187.58 638.001 184.942L688.163 217.863C691.363 212.986 693.205 207.811 694.082 202.867L635.006 192.381ZM638.001 184.942C640.682 180.856 644.286 178.43 647.281 177.262C649.968 176.214 651.558 176.386 651.049 176.363C650.596 176.343 648.935 176.182 645.794 175.26C642.707 174.354 638.606 172.836 633.381 170.411L608.126 224.837C622.318 231.423 635.906 235.748 648.377 236.303C660.82 236.858 677.892 233.513 688.163 217.863L638.001 184.942ZM635.773 189.125C635.827 188.944 635.941 188.61 636.159 188.167L690.004 214.638C691.364 211.872 692.459 209.022 693.315 206.124L635.773 189.125ZM636.159 188.167C637.173 186.105 639.046 184.354 640.903 183.457C642.321 182.771 642.645 183.091 640.996 183.066C639.419 183.041 636.939 182.704 633.73 181.725C630.58 180.764 627.243 179.341 624.071 177.573L594.853 229.978C607.721 237.152 623.904 242.809 640.07 243.058C656.528 243.312 678.816 237.396 690.004 214.638L636.159 188.167ZM591.891 228.091C593.645 229.358 593.917 230.097 593.019 228.673C592.77 228.278 589.169 222.832 590.089 214.296C590.613 209.428 592.535 204.642 595.759 200.671C598.789 196.939 602.103 194.978 604.152 194.03L629.364 248.476C638.358 244.311 648.177 235.264 649.744 220.722C650.984 209.213 646.143 200.431 643.774 196.673C638.635 188.522 631.143 182.429 627.034 179.46L591.891 228.091ZM611.128 250.72C608.669 250.25 607.258 249.415 606.937 249.215C606.577 248.99 606.766 249.049 607.378 249.674C608.659 250.98 610.43 253.366 611.969 256.546C613.503 259.715 614.297 262.62 614.522 264.666C614.76 266.822 614.232 266.491 615.055 264.822L668.878 291.337C679.747 269.274 673.064 245.053 665.977 230.408C662.008 222.208 656.67 214.245 650.22 207.667C644.224 201.552 634.826 194.162 622.387 191.785L611.128 250.72ZM138.337 177.364C143.771 177.592 146.624 178.485 147.659 178.966C148.179 179.208 146.787 178.57 145.951 176.7C145.318 175.284 146.419 176.23 145.301 181.984C144.17 187.802 141.082 196.781 134.202 209.632L187.097 237.953C203.119 208.028 212.139 177.729 200.722 152.203C188.161 124.117 159.239 118.188 140.85 117.417L138.337 177.364ZM562.89 117.417C544.501 118.188 515.579 124.117 503.018 152.203C491.601 177.729 500.62 208.028 516.643 237.953L569.538 209.632C562.657 196.781 559.569 187.802 558.439 181.984C557.321 176.23 558.422 175.284 557.789 176.7C556.953 178.57 555.561 179.208 556.081 178.966C557.116 178.485 559.969 177.592 565.402 177.364L562.89 117.417ZM165.891 317.744C181.677 316.329 267.005 308.966 339.313 308.152L338.637 248.156C263.792 248.999 176.441 256.558 160.535 257.983L165.891 317.744ZM120.955 237.731C117.443 247.098 113.303 261.064 115.192 275.541C116.213 283.37 119.083 291.974 125.241 299.705C131.438 307.487 139.573 312.631 148.306 315.676L168.061 259.022C168.269 259.094 170.238 259.894 172.173 262.324C174.069 264.704 174.579 266.95 174.687 267.779C174.767 268.391 174.606 267.939 174.971 266.036C175.322 264.212 176.011 261.797 177.136 258.794L120.955 237.731ZM162.711 274.97C162.581 275.036 164.605 274.126 170.244 272.997C175.401 271.965 182.068 271.039 190.06 270.28C206.017 268.765 225.621 268.07 245.788 268.107C265.9 268.145 286.061 268.91 303.024 270.211C320.752 271.571 332.769 273.365 337.9 274.816L354.231 217.081C342.792 213.845 325.468 211.757 307.613 210.387C288.993 208.959 267.329 208.147 245.9 208.107C224.526 208.067 202.875 208.794 184.39 210.549C175.161 211.425 166.311 212.595 158.469 214.164C151.11 215.637 142.655 217.834 135.381 221.556L162.711 274.97ZM321.87 253.902V266.835H381.87V253.902H321.87ZM337.9 274.816C333.133 273.468 328.709 270.384 325.69 265.987C322.841 261.838 321.87 257.476 321.87 253.902H381.87C381.87 239.298 373.168 222.438 354.231 217.081L337.9 274.816ZM339.313 308.152C358.705 307.934 381.87 293.362 381.87 266.835H321.87C321.87 260.211 325.02 255.124 328.328 252.227C331.566 249.39 335.3 248.194 338.637 248.156L339.313 308.152ZM160.535 257.983C161.74 257.876 164.53 257.791 168.061 259.022L148.306 315.676C155.025 318.019 161.27 318.158 165.891 317.744L160.535 257.983ZM543.199 257.983C527.294 256.558 439.942 248.999 365.097 248.156L364.421 308.152C436.729 308.966 522.057 316.329 537.843 317.744L543.199 257.983ZM526.598 258.794C527.723 261.797 528.412 264.212 528.763 266.036C529.128 267.939 528.967 268.391 529.047 267.779C529.155 266.95 529.665 264.704 531.561 262.324C533.497 259.894 535.465 259.094 535.673 259.022L555.428 315.676C564.161 312.631 572.296 307.487 578.493 299.705C584.651 291.974 587.521 283.37 588.542 275.541C590.431 261.064 586.291 247.098 582.779 237.731L526.598 258.794ZM568.354 221.556C561.079 217.834 552.624 215.637 545.265 214.164C537.423 212.595 528.573 211.425 519.344 210.549C500.859 208.794 479.208 208.067 457.834 208.107C436.405 208.147 414.741 208.959 396.121 210.387C378.266 211.757 360.942 213.845 349.503 217.081L365.834 274.816C370.965 273.365 382.982 271.571 400.71 270.211C417.673 268.91 437.834 268.145 457.946 268.107C478.113 268.07 497.717 268.765 513.674 270.28C521.666 271.039 528.333 271.965 533.49 272.997C539.13 274.126 541.153 275.036 541.023 274.97L568.354 221.556ZM321.864 253.902V266.835H381.864V253.902H321.864ZM349.503 217.081C330.566 222.438 321.864 239.298 321.864 253.902H381.864C381.864 257.476 380.893 261.838 378.044 265.987C375.025 270.384 370.601 273.468 365.834 274.816L349.503 217.081ZM365.097 248.156C368.434 248.194 372.168 249.39 375.406 252.227C378.714 255.124 381.864 260.211 381.864 266.835H321.864C321.864 293.362 345.03 307.934 364.421 308.152L365.097 248.156ZM537.843 317.744C542.465 318.158 548.709 318.019 555.428 315.676L535.673 259.022C539.204 257.791 541.994 257.876 543.199 257.983L537.843 317.744ZM169.183 152.335C168.913 153.953 168.199 155.307 167.527 156.139C166.954 156.848 166.783 156.731 167.736 156.221C169.872 155.079 174.871 153.478 182.946 153.478V93.4778C168.011 93.4778 152.597 96.2762 139.441 103.312C125.969 110.517 113.196 123.345 110.004 142.446L169.183 152.335ZM182.946 153.478C189.504 153.478 194.697 154.351 198.26 155.272C200.045 155.734 201.334 156.185 202.106 156.494C203.033 156.864 202.846 156.877 201.89 156.282L233.589 105.339C224.053 99.4059 205.86 93.4778 182.946 93.4778V153.478ZM236.192 107.157C235.743 106.807 237.286 107.851 238.969 110.76C240.106 112.727 244.963 122.07 239.969 133.88C234.026 147.932 220.923 150.757 215.198 150.807C209.61 150.855 206.183 149.025 205.523 148.662L234.446 96.0935C229.787 93.5306 222.905 90.7378 214.677 90.8092C206.313 90.8819 191.387 94.715 184.707 110.509C178.976 124.061 184.184 135.879 187.031 140.802C190.424 146.667 195.036 151.148 199.287 154.465L236.192 107.157ZM242.719 102.804C243.33 103.513 251.405 113.046 246.772 127.175C241.941 141.903 228.905 145.394 223.857 145.883L218.076 86.162C210.503 86.8951 195.292 91.6086 189.76 108.476C184.424 124.743 193.272 137.331 197.249 141.951L242.719 102.804ZM223.857 145.883C218.306 146.42 211.484 145.187 205.442 140.008C201.83 136.912 198.004 131.848 196.621 124.823C195.242 117.817 196.913 112.024 198.625 108.509L252.568 134.78C255.261 129.249 257.16 121.714 255.492 113.238C253.82 104.742 249.187 98.4787 244.488 94.451C236.271 87.4083 226.152 85.3804 218.076 86.162L223.857 145.883ZM246.633 143.033C245.183 144.459 232.297 155.412 215.958 145.571C198.427 135.013 203.695 117.179 203.984 116.343L260.677 135.99C263.211 128.677 267.286 106.443 246.914 94.1733C227.734 82.622 210.358 94.5527 204.56 100.256L246.633 143.033ZM253.821 147.099C259.05 141.73 263.371 136.687 269.856 130.892C276.222 125.205 281.56 121.802 285.467 120.475L266.179 63.66C251.005 68.8112 238.526 78.4246 229.879 86.1506C221.352 93.7692 213.468 102.537 210.84 105.235L253.821 147.099ZM296.293 70.1363C300.643 74.1963 306.738 85.009 300.017 97.6948C296.362 104.594 289.355 110.061 280.642 111.302C272.683 112.434 267.101 109.568 265.028 108.231L297.56 57.816C291.7 54.0342 282.803 50.3894 272.188 51.9001C260.817 53.5183 251.812 60.5208 246.999 69.6049C237.963 86.6601 245.111 104.439 255.353 113.999L296.293 70.1363ZM311.294 83.0235C311.294 88.849 309.366 93.0221 308.217 95.0332C307.023 97.1241 305.867 98.3062 305.46 98.702C304.676 99.4637 304.592 99.3252 305.391 98.9425C306.144 98.5818 306.346 98.6492 305.654 98.7324C305.332 98.7712 301.2 99.2962 295.977 96.3759L325.257 44.0052C315.333 38.4572 305.186 38.3558 298.485 39.1622C291.414 40.0132 284.873 42.2423 279.471 44.8301C274.114 47.3959 268.462 50.9927 263.648 55.6693C260.045 59.1701 251.294 68.6499 251.294 83.0235H311.294ZM295.977 96.3759C295.642 96.189 293.305 94.8939 290.745 92.0249C288.059 89.0145 283.601 82.426 283.871 72.8444C284.14 63.263 288.962 56.8641 291.96 53.869C294.827 51.004 297.512 49.6478 298.414 49.2147C300.315 48.3012 301.275 48.2279 300.61 48.3524C300.156 48.4376 300.141 48.3792 300.936 48.3792V108.379C306.521 108.379 316.143 107.263 324.398 103.297C326.746 102.168 330.644 100.035 334.369 96.313C338.224 92.461 343.549 85.1253 343.847 74.5299C344.145 63.9342 339.241 56.2543 335.514 52.0776C331.913 48.0423 327.941 45.5059 325.257 44.0052L295.977 96.3759ZM300.936 48.3792C296.586 48.3792 285.65 49.2803 277.093 58.9017C267.539 69.6442 268.735 82.1157 270.506 88.2893C273.571 98.9686 281.209 105.205 284.834 107.775C294.379 114.539 309.771 119.309 326.452 113.356L306.286 56.8464C311.322 55.0494 316.192 56.458 319.528 58.8223C320.465 59.4864 321.745 60.5358 323.105 62.1303C324.21 63.4253 326.714 66.6343 328.178 71.7385C329.676 76.9573 330.967 88.6115 321.927 98.7753C313.885 107.818 303.883 108.379 300.936 108.379V48.3792ZM326.452 113.356C336.163 109.891 354.027 99.9704 354.172 77.9354C354.229 69.4083 351.226 62.7884 349.074 58.993C346.844 55.0614 344.297 52.0268 342.675 50.2102L297.919 90.1709C298.261 90.5541 297.661 89.9639 296.883 88.5912C296.181 87.3548 294.135 83.4085 294.174 77.5396C294.219 70.5969 297.146 64.6032 300.996 60.6649C304.138 57.4509 306.834 56.6507 306.286 56.8464L326.452 113.356ZM342.675 50.2102C343.077 50.6598 344.025 51.7703 344.995 53.8529C345.487 54.9103 346.421 57.1442 346.891 60.2998C347.352 63.4003 347.607 69.1474 344.694 75.5757C337.44 91.585 321.913 91.8846 319.873 91.8249C316.908 91.7381 316.137 91.0431 319.231 92.1947L340.164 35.9647C335.049 34.0608 328.51 32.052 321.629 31.8506C315.674 31.6763 298.087 33.0606 290.043 50.8115C283.859 64.4584 289.373 76.5412 290.606 79.1875C292.747 83.7833 295.553 87.5214 297.919 90.1709L342.675 50.2102ZM359.697 64.0797C359.697 65.5898 359.445 69.3237 357.081 73.742C354.496 78.5712 350.135 82.742 344.518 85.081C334.445 89.2755 326.49 85.626 323.697 83.9291C320.646 82.0757 314.868 77.2601 313.507 67.9541C312.752 62.782 313.659 57.4186 316.139 52.786C318.472 48.4275 321.46 46.0543 323.054 45.0202L355.701 95.3609C365.915 88.7371 375.32 75.9957 372.877 59.277C370.885 45.6514 361.898 36.9323 354.848 32.6499C348.057 28.524 335.314 23.9197 321.453 29.6915C304.403 36.7912 299.697 53.0932 299.697 64.0797H359.697ZM323.054 45.0202C320.666 46.5688 318.067 48.4305 315.622 50.6411C313.444 52.61 309.807 56.2513 307.141 61.658C304.153 67.7194 301.805 77.5512 306.306 88.128C310.322 97.5633 317.568 102.148 321.173 104.01C327.874 107.471 334.636 107.993 336.446 108.145C339.391 108.394 342.107 108.379 343.025 108.379V48.3792C342.502 48.3792 342.183 48.3783 341.869 48.3711C341.556 48.3639 341.442 48.3538 341.481 48.3571C341.511 48.3596 341.636 48.3705 341.839 48.398C342.037 48.4247 342.39 48.4776 342.864 48.5763C343.518 48.7122 345.827 49.213 348.708 50.7013C351.323 52.0517 357.839 55.9965 361.514 64.6321C365.675 74.4092 363.377 83.2813 360.956 88.1913C358.858 92.4464 356.307 94.7443 355.863 95.1458C355.151 95.789 354.932 95.8595 355.701 95.3609L323.054 45.0202ZM343.025 108.379C350.3 108.379 356.464 105.965 361.073 102.887C365.334 100.041 368.097 96.7656 369.673 94.6397C371.299 92.4468 372.435 90.4104 373.107 89.1378C373.785 87.8537 374.364 86.6192 374.629 86.0579C375.001 85.2705 375.041 85.1947 375.033 85.2101C375.026 85.2229 374.585 86.0921 373.725 87.2827C372.924 88.391 370.972 90.8972 367.573 93.2434C363.81 95.8403 358.415 98.1129 351.87 98.1129V38.1129C344.344 38.1129 338.064 40.7062 333.488 43.8646C329.276 46.7722 326.581 50.0805 325.086 52.1513C323.53 54.3044 322.441 56.2964 321.808 57.5123C321.174 58.7308 320.61 59.9383 320.376 60.4343C320.035 61.1562 320.005 61.205 320.048 61.124C320.085 61.0545 320.559 60.1409 321.471 58.9105C322.334 57.7471 324.332 55.2737 327.752 52.9896C331.521 50.4731 336.768 48.3792 343.025 48.3792V108.379ZM593.736 142.446C590.544 123.345 577.771 110.517 564.299 103.312C551.142 96.2762 535.729 93.4778 520.794 93.4778V153.478C528.868 153.478 533.868 155.079 536.004 156.221C536.957 156.731 536.786 156.848 536.213 156.139C535.541 155.307 534.827 153.953 534.556 152.335L593.736 142.446ZM520.794 93.4778C497.879 93.4778 479.687 99.4059 470.151 105.339L501.85 156.282C500.894 156.877 500.706 156.864 501.634 156.494C502.405 156.185 503.695 155.734 505.48 155.272C509.042 154.351 514.236 153.478 520.794 153.478V93.4778ZM504.453 154.465C508.704 151.148 513.316 146.667 516.709 140.802C519.556 135.879 524.764 124.061 519.032 110.509C512.353 94.715 497.427 90.8819 489.062 90.8092C480.835 90.7378 473.952 93.5306 469.294 96.0935L498.217 148.662C497.557 149.025 494.129 150.855 488.541 150.807C482.816 150.757 469.714 147.932 463.771 133.88C458.776 122.07 463.634 112.727 464.771 110.76C466.453 107.851 467.997 106.807 467.548 107.157L504.453 154.465ZM506.49 141.951C510.468 137.331 519.316 124.743 513.98 108.476C508.448 91.6086 493.237 86.8951 485.664 86.162L479.883 145.883C474.835 145.394 461.799 141.903 456.968 127.175C452.334 113.046 460.41 103.513 461.021 102.804L506.49 141.951ZM485.664 86.162C477.588 85.3804 467.469 87.4083 459.252 94.451C454.553 98.4787 449.92 104.742 448.248 113.238C446.58 121.714 448.478 129.249 451.172 134.78L505.115 108.509C506.827 112.024 508.497 117.817 507.119 124.823C505.736 131.848 501.91 136.912 498.298 140.008C492.255 145.187 485.434 146.42 479.883 145.883L485.664 86.162ZM499.18 100.256C493.381 94.5527 476.006 82.622 456.826 94.1733C436.453 106.443 440.529 128.677 443.063 135.99L499.755 116.343C500.045 117.179 505.313 135.013 487.781 145.571C471.443 155.412 458.557 144.459 457.107 143.033L499.18 100.256ZM492.9 105.235C490.272 102.537 482.387 93.7692 473.861 86.1506C465.214 78.4246 452.734 68.8112 437.561 63.66L418.273 120.475C422.18 121.802 427.518 125.205 433.883 130.892C440.369 136.687 444.69 141.73 449.919 147.099L492.9 105.235ZM448.387 113.999C458.629 104.439 465.777 86.6601 456.741 69.6049C451.928 60.5208 442.923 53.5183 431.552 51.9001C420.937 50.3894 412.04 54.0342 406.179 57.816L438.711 108.231C436.639 109.568 431.057 112.434 423.098 111.302C414.384 110.061 407.378 104.594 403.723 97.6948C397.002 85.009 403.097 74.1963 407.447 70.1363L448.387 113.999ZM452.445 83.0235C452.445 68.6499 443.694 59.1701 440.091 55.6693C435.278 50.9927 429.626 47.3959 424.269 44.8301C418.867 42.2423 412.326 40.0132 405.255 39.1622C398.553 38.3558 388.406 38.4572 378.483 44.0052L407.763 96.3759C402.54 99.2962 398.408 98.7712 398.086 98.7324C397.394 98.6492 397.596 98.5818 398.349 98.9425C399.148 99.3252 399.064 99.4637 398.28 98.702C397.873 98.3062 396.717 97.1241 395.522 95.0332C394.373 93.0221 392.445 88.849 392.445 83.0235H452.445ZM378.483 44.0052C375.799 45.5059 371.827 48.0423 368.226 52.0776C364.499 56.2543 359.595 63.9342 359.893 74.5299C360.191 85.1253 365.516 92.461 369.371 96.313C373.096 100.035 376.994 102.168 379.342 103.297C387.597 107.263 397.219 108.379 402.804 108.379V48.3792C403.599 48.3792 403.584 48.4376 403.129 48.3524C402.465 48.2279 403.424 48.3012 405.326 49.2147C406.227 49.6478 408.913 51.004 411.78 53.869C414.777 56.8641 419.6 63.263 419.869 72.8444C420.138 82.426 415.68 89.0145 412.994 92.0249C410.434 94.8939 408.097 96.189 407.763 96.3759L378.483 44.0052ZM402.804 108.379C399.856 108.379 389.855 107.818 381.812 98.7753C372.773 88.6115 374.064 76.9573 375.561 71.7385C377.026 66.6343 379.53 63.4253 380.635 62.1303C381.995 60.5358 383.275 59.4864 384.212 58.8223C387.548 56.458 392.418 55.0494 397.454 56.8464L377.288 113.356C393.968 119.309 409.361 114.539 418.905 107.775C422.531 105.205 430.169 98.9686 433.233 88.2893C435.005 82.1157 436.2 69.6442 426.646 58.9017C418.09 49.2803 407.154 48.3792 402.804 48.3792V108.379ZM397.454 56.8464C396.905 56.6507 399.601 57.4509 402.743 60.6649C406.594 64.6032 409.52 70.5969 409.566 77.5396C409.605 83.4085 407.558 87.3548 406.857 88.5912C406.079 89.9639 405.479 90.5541 405.821 90.1709L361.064 50.2102C359.442 52.0268 356.896 55.0614 354.666 58.993C352.513 62.7884 349.511 69.4083 349.567 77.9354C349.713 99.9704 367.577 109.891 377.288 113.356L397.454 56.8464ZM405.821 90.1709C408.186 87.5214 410.993 83.7833 413.134 79.1875C414.367 76.5412 419.881 64.4584 413.697 50.8115C405.653 33.0606 388.066 31.6763 382.111 31.8506C375.23 32.052 368.69 34.0608 363.576 35.9647L384.509 92.1947C387.602 91.0431 386.832 91.7381 383.866 91.8249C381.827 91.8846 366.3 91.585 359.046 75.5757C356.133 69.1474 356.388 63.4003 356.849 60.2998C357.318 57.1442 358.252 54.9103 358.745 53.8529C359.715 51.7703 360.663 50.6598 361.064 50.2102L405.821 90.1709ZM404.043 64.0797C404.043 53.0932 399.336 36.7912 382.287 29.6915C368.426 23.9197 355.683 28.524 348.891 32.6499C341.842 36.9323 332.855 45.6514 330.863 59.277C328.42 75.9957 337.825 88.7371 348.039 95.3609L380.685 45.0202C382.28 46.0543 385.268 48.4275 387.601 52.786C390.081 57.4186 390.988 62.782 390.232 67.9541C388.872 77.2601 383.094 82.0757 380.043 83.9291C377.25 85.626 369.294 89.2755 359.222 85.081C353.605 82.742 349.244 78.5712 346.659 73.742C344.294 69.3237 344.043 65.5898 344.043 64.0797H404.043ZM348.039 95.3609C348.807 95.8595 348.588 95.789 347.877 95.1458C347.433 94.7443 344.882 92.4464 342.784 88.1913C340.363 83.2813 338.064 74.4092 342.225 64.6321C345.901 55.9965 352.417 52.0517 355.031 50.7013C357.913 49.213 360.222 48.7122 360.875 48.5763C361.35 48.4776 361.702 48.4247 361.9 48.398C362.104 48.3705 362.229 48.3596 362.259 48.3571C362.298 48.3538 362.183 48.3639 361.87 48.3711C361.557 48.3783 361.237 48.3792 360.714 48.3792V108.379C361.632 108.379 364.348 108.394 367.294 108.145C369.104 107.993 375.865 107.471 382.566 104.01C386.172 102.148 393.418 97.5633 397.434 88.128C401.935 77.5512 399.587 67.7194 396.598 61.658C393.933 56.2513 390.295 52.61 388.118 50.6411C385.673 48.4305 383.073 46.5688 380.685 45.0202L348.039 95.3609ZM360.714 48.3792C366.971 48.3792 372.219 50.4731 375.988 52.9896C379.408 55.2737 381.406 57.7471 382.268 58.9105C383.181 60.1409 383.655 61.0545 383.692 61.124C383.734 61.205 383.705 61.1562 383.364 60.4343C383.13 59.9383 382.566 58.7308 381.932 57.5123C381.299 56.2964 380.209 54.3044 378.654 52.1513C377.158 50.0805 374.464 46.7722 370.251 43.8646C365.676 40.7062 359.396 38.1129 351.87 38.1129V98.1129C345.324 98.1129 339.929 95.8403 336.167 93.2434C332.768 90.8972 330.815 88.391 330.015 87.2827C329.155 86.0921 328.714 85.2229 328.707 85.2101C328.699 85.1947 328.739 85.2705 329.111 86.0579C329.376 86.6192 329.955 87.8537 330.633 89.1378C331.305 90.4104 332.441 92.4468 334.067 94.6397C335.642 96.7656 338.405 100.041 342.667 102.887C347.276 105.965 353.44 108.379 360.714 108.379V48.3792ZM209.065 190.331C209.065 174.06 222.748 167.664 230.647 167.664V227.664C247.844 227.664 269.065 214.703 269.065 190.331H209.065ZM230.647 167.664C238.546 167.664 252.229 174.06 252.229 190.331H192.229C192.229 214.703 213.45 227.664 230.647 227.664V167.664ZM252.229 190.331C252.229 206.603 238.546 212.998 230.647 212.998V152.998C213.45 152.998 192.229 165.96 192.229 190.331H252.229ZM230.647 212.998C222.748 212.998 209.065 206.603 209.065 190.331H269.065C269.065 165.96 247.844 152.998 230.647 152.998V212.998ZM332.246 178.843C332.246 162.571 345.929 156.176 353.828 156.176V216.176C371.026 216.176 392.246 203.214 392.246 178.843H332.246ZM353.828 156.176C361.728 156.176 375.411 162.571 375.411 178.843H315.411C315.411 203.214 336.631 216.176 353.828 216.176V156.176ZM375.411 178.843C375.411 195.114 361.728 201.51 353.828 201.51V141.51C336.631 141.51 315.411 154.471 315.411 178.843H375.411ZM353.828 201.51C345.929 201.51 332.246 195.114 332.246 178.843H392.246C392.246 154.471 371.026 141.51 353.828 141.51V201.51ZM455.147 190.331C455.147 174.06 468.83 167.664 476.729 167.664V227.664C493.927 227.664 515.147 214.703 515.147 190.331H455.147ZM476.729 167.664C484.628 167.664 498.311 174.06 498.311 190.331H438.311C438.311 214.703 459.532 227.664 476.729 227.664V167.664ZM498.311 190.331C498.311 206.603 484.628 212.998 476.729 212.998V152.998C459.532 152.998 438.311 165.96 438.311 190.331H498.311ZM476.729 212.998C468.83 212.998 455.147 206.603 455.147 190.331H515.147C515.147 165.96 493.927 152.998 476.729 152.998V212.998Z" fill="black" mask="url(#path-1-outside-1_10_206)"/>
</g>
<path d="M82.9864 197.624C24.1791 224.912 32.0751 180.999 61.7734 165.401C91.4716 149.802 219.221 114.398 160.65 223.793L160.452 224.165C150.333 243.23 130.676 280.267 160.65 288.097C160.65 288.097 268.258 278.079 351.87 278.079C435.482 278.079 543.09 288.097 543.09 288.097C573.063 280.267 553.407 243.23 543.288 224.165L543.09 223.793C484.519 114.398 612.268 149.803 641.966 165.401C671.665 180.999 679.561 224.912 620.753 197.624C532.955 156.883 627.824 240.315 641.966 278.079C652.06 305.033 621.932 330.827 597.891 338.216C597.891 338.216 483.744 323.794 351.87 323.794C219.996 323.794 105.849 338.216 105.849 338.216C81.8078 330.827 51.6799 305.033 61.7734 278.079C75.9154 240.315 170.785 156.883 82.9864 197.624Z" fill="#DA4457"/>
<path d="M590.663 389.303C597.397 383.436 610.865 371.703 597.891 338.216C597.891 338.216 570.488 334.753 527.023 331.222C523.753 330.679 520.232 330.386 516.445 330.386C520.067 330.664 523.595 330.943 527.023 331.222C565.906 337.672 569.345 379.435 564.427 384.17C559.095 389.303 555.448 396.636 585.471 411.669H617.74C623.773 401.891 611.707 396.636 590.663 389.303Z" fill="#A52B3A"/>
<path d="M105.849 338.215C92.8744 371.703 106.343 383.436 113.077 389.303C92.0327 396.636 79.9671 401.891 85.9999 411.669H118.268C148.292 396.636 144.644 389.303 139.313 384.169C134.395 379.434 137.834 337.672 176.717 331.221C133.252 334.753 105.849 338.215 105.849 338.215Z" fill="#A52B3A"/>
<path d="M105.849 338.216C105.849 338.216 219.995 323.794 351.87 323.794C483.744 323.794 597.89 338.216 597.89 338.216C577.194 353.493 531.597 338.216 507.466 338.216C483.335 338.216 457.099 358.265 442.087 341.76C447.418 353.493 443.63 354.837 436.896 354.837C431.508 354.837 434.651 343.756 436.896 338.216C423.1 343.553 393.572 351.733 385.827 341.76C397.051 359.726 374.744 357.282 377.41 347.749C374.744 350.071 372.219 361.926 385.827 364.859C399.436 367.793 378.672 386.492 374.042 374.27C368.29 387.348 360.422 389.059 351.87 389.059C343.317 389.059 335.449 387.348 329.697 374.27C325.067 386.492 304.303 367.793 317.912 364.859C331.521 361.926 328.996 350.071 326.33 347.749C328.996 357.282 306.688 359.726 317.912 341.76C310.168 351.733 280.64 343.553 266.844 338.216C269.088 343.756 272.231 354.837 266.844 354.837C260.109 354.837 256.321 353.493 261.653 341.76C246.641 358.265 220.405 338.216 196.274 338.216C172.143 338.216 126.546 353.493 105.849 338.216Z" fill="#FFB858"/>
<path d="M82.9864 197.624C170.785 156.883 75.9154 240.315 61.7734 278.079C52.1379 258.52 70.9879 224.308 86.9819 221.253C78.7471 217.439 88.4144 208.012 94.2774 203.775C74.5826 214.756 48.9897 218.35 40.6579 201.403C39.9233 200.283 39.4416 199.011 39.1954 197.624C39.5969 198.983 40.0869 200.241 40.6579 201.403C44.9542 207.949 57.9021 209.264 82.9864 197.624Z" fill="#FFB858"/>
<path d="M620.753 197.624C532.955 156.883 627.824 240.315 641.966 278.079C651.602 258.52 632.752 224.308 616.758 221.253C624.992 217.439 615.325 208.012 609.462 203.775C629.157 214.756 654.75 218.35 663.082 201.403C663.816 200.283 664.298 199.011 664.544 197.624C664.143 198.983 663.653 200.241 663.082 201.403C658.785 207.949 645.837 209.264 620.753 197.624Z" fill="#FFB858"/>
<path d="M160.452 224.165L160.65 223.793C191.53 166.118 170.62 148.691 139.594 147.391C155.588 131.422 188.838 122.744 214.793 138.388C240.748 154.032 258.42 94.6343 305.145 94.6343C342.525 94.6343 351.87 112.478 351.87 121.4C351.87 112.478 361.215 94.6343 398.595 94.6343C445.32 94.6343 462.992 154.032 488.947 138.388C514.902 122.744 548.152 131.422 564.146 147.391C533.12 148.691 512.21 166.118 543.09 223.793L543.288 224.165C553.407 243.23 573.063 280.267 543.09 288.097C543.09 288.097 435.482 278.079 351.87 278.079C268.258 278.079 160.65 288.097 160.65 288.097C130.676 280.267 150.333 243.23 160.452 224.165Z" fill="#A52B3A"/>
<path d="M332.553 278.242C266.712 279.308 192.729 285.302 168.669 287.384C163.334 287.845 157.732 287.846 153.202 284.991C141.589 277.672 143.636 262.692 149.046 248.263C176.579 234.175 303.189 236.383 342.038 244.948C348.427 246.357 351.87 252.21 351.87 258.752C351.87 269.426 343.226 278.07 332.553 278.242Z" fill="#F45E71"/>
<path d="M371.181 278.242C437.022 279.308 511.004 285.302 535.065 287.384C540.4 287.845 546.002 287.846 550.532 284.991C562.145 277.672 560.098 262.692 554.688 248.263C527.155 234.175 400.544 236.383 361.695 244.948C355.307 246.357 351.864 252.21 351.864 258.752C351.864 269.426 360.508 278.07 371.181 278.242Z" fill="#F45E71"/>
<path d="M214.793 138.388C188.838 122.744 155.587 131.422 139.594 147.391C142.119 132.278 159.937 123.478 182.946 123.478C201.353 123.478 213.811 128.367 217.739 130.811C208.339 123.478 211.987 117.978 219.984 122.378C216.617 118.467 218.441 116.267 220.966 116.022C223.492 115.778 227.56 117.611 225.596 121.645C229.945 117.367 234.575 119.689 232.33 126.167C240.187 118.1 256.742 98.5452 275.823 92.0677C269.93 86.5678 273.718 78.1348 281.294 83.0235C281.294 75.6904 301.217 64.9351 310.617 70.1905C320.017 75.4459 306.548 78.3792 300.936 78.3792C295.324 78.3792 304.724 89.2567 316.369 85.1012C328.014 80.9458 324.225 74.5903 320.297 70.1905C316.369 65.7907 313.282 57.9688 329.697 64.0797C329.697 48.6801 352.004 62.0018 339.378 70.1905C326.751 78.3792 338.957 78.3792 343.025 78.3792C347.094 78.3792 347.947 68.1129 351.87 68.1129C355.793 68.1129 356.646 78.3792 360.714 78.3792C364.783 78.3792 376.989 78.3792 364.362 70.1905C351.735 62.0018 374.043 48.6801 374.043 64.0797C390.457 57.9688 387.371 65.7907 383.442 70.1905C379.514 74.5903 375.726 80.9458 387.371 85.1012C399.016 89.2567 408.415 78.3792 402.804 78.3792C397.192 78.3792 383.723 75.4459 393.123 70.1905C402.523 64.9351 422.445 75.6904 422.445 83.0235C430.021 78.1348 433.809 86.5678 427.917 92.0677C446.997 98.5452 463.553 118.1 471.409 126.167C469.164 119.689 473.794 117.367 478.144 121.645C476.179 117.611 480.248 115.778 482.773 116.022C485.299 116.267 487.123 118.467 483.755 122.378C491.752 117.978 495.4 123.478 486 130.811C489.929 128.367 502.387 123.478 520.794 123.478C543.803 123.478 561.621 132.278 564.146 147.391C548.152 131.422 514.902 122.744 488.946 138.388C462.991 154.032 445.319 94.6343 398.595 94.6343C361.215 94.6343 351.87 112.478 351.87 121.4C351.87 112.478 342.525 94.6343 305.145 94.6343C258.42 94.6343 240.748 154.032 214.793 138.388Z" fill="#FFB858"/>
<ellipse cx="230.647" cy="190.331" rx="8.41787" ry="7.33311" fill="#DA4457"/>
<ellipse cx="353.828" cy="178.843" rx="8.41787" ry="7.33311" fill="#DA4457"/>
<ellipse cx="476.729" cy="190.331" rx="8.41787" ry="7.33311" fill="#DA4457"/>
<path d="M164.354 93.6426L154.783 97.4364C154.458 97.565 154.087 97.5309 153.809 97.3569C103.493 65.8568 79.7559 76.0431 99.2508 118.338C99.4798 118.835 99.2171 119.461 98.6592 119.682L90.6161 122.87C90.0942 123.077 89.5166 122.87 89.3086 122.403L75.8735 92.207C75.6839 91.7809 75.1725 91.5719 74.6742 91.6824C60.1936 94.895 56.6593 77.7294 54.8118 75.6725C53.0895 73.7549 38.8755 64.735 36.4498 63.2018C36.2206 63.0569 35.9365 63.0105 35.6633 63.1033C31.5259 64.5086 32.3673 71.2982 33.3454 74.6223C34.6008 77.7896 34.4833 82.8041 26.954 87.7068C24.2413 89.4732 15.1647 82.916 9.19606 74.3586C8.96249 74.0237 9.00644 73.5665 9.28489 73.2312C17.3082 63.5686 14.2843 61.0027 13.8873 57.3956C13.4826 53.7192 23.0317 32.6689 37.7135 43.1559C52.3952 53.6429 127.112 48.9671 126.379 44.4618C125.646 39.9564 121.226 23.4836 108.993 24.4956C103.354 24.962 97.659 31.8326 95.1602 34.394C94.7918 34.7717 94.1972 34.7976 93.813 34.4795L93.5329 34.2475C93.1778 33.9535 93.1229 33.4303 93.3888 33.0305C111.369 5.99268 129.553 29.8597 133.948 44.9928C134.001 45.1751 134.113 45.3318 134.262 45.4544C142.916 52.5318 132.797 69.8031 145.721 76.0892C156.152 81.163 152.323 77.0098 156.927 79.0964C163.154 81.9183 164.268 88.5102 165.025 92.5209C165.111 92.9802 164.83 93.4542 164.354 93.6426Z" fill="#C4C4C4"/>
<path d="M19.6605 59.5604C20.0675 60.5872 21.3014 61.0614 22.4165 60.6194C23.5316 60.1774 24.1056 58.9867 23.6986 57.9598C23.2916 56.933 22.0577 56.4588 20.9426 56.9008C19.8275 57.3428 19.2535 58.5335 19.6605 59.5604Z" fill="#585656"/>
</svg>
